<svg
   width="348.27118mm"
   height="135.69852mm"
   viewBox="0 0 348.27118 135.69852"
>
  <g transform="translate(16.950452,-118.178)">
    <path
       style="fill:none;stroke-width:0.3;stroke:#000000;stroke-opacity:1;stroke-miterlimit:4;stroke-dasharray:none"
       d="m 77.951881,253.16953 c -0.154817,-0.59202 -0.285563,-0.65677 -0.630231,-0.3121 -0.239187,0.23919 -0.708455,0.43489 -1.042818,0.43489 -0.681676,0 -2.915426,-1.7448 -2.616475,-2.04374 0.105632,-0.10564 -0.02462,-0.44307 -0.289458,-0.74986 -0.782203,-0.90612 -0.944774,-2.62949 -0.354947,-3.76274 0.499547,-0.95979 0.696634,-1.81996 0.794699,-3.46843 0.02212,-0.37189 0.144681,-0.5717 0.272348,-0.44403 0.26362,0.26362 1.178987,-0.39804 1.178987,-0.85221 0,-0.16418 -0.218172,-0.21479 -0.48483,-0.11247 -0.377232,0.14476 -0.453598,-0.15128 -0.344103,-1.33399 0.0774,-0.83602 0.192698,-2.23862 0.256219,-3.1169 0.06352,-0.87827 0.29374,-1.91015 0.511595,-2.29305 0.849471,-1.49305 1.47223,-3.48555 1.47223,-4.71036 0,-0.70518 0.147669,-1.79705 0.32815,-2.42635 0.208467,-0.72687 0.203937,-1.1442 -0.01242,-1.1442 -0.216069,0 -0.213208,-0.23797 0.0078,-0.65098 0.478088,-0.89332 0.733421,-2.26363 0.964092,-5.17408 0.194084,-2.44878 0.183557,-2.4873 -1.046826,-3.83057 -0.683588,-0.7463 -1.400739,-1.25935 -1.593673,-1.14011 -0.192934,0.11924 -0.404036,0.069 -0.469117,-0.11172 -0.06508,-0.18068 -0.352598,-0.38011 -0.638926,-0.44317 -0.286332,-0.0631 -0.779618,-0.43215 -1.096187,-0.82021 -0.667321,-0.81801 -2.440149,-4.09419 -2.440149,-4.50939 0,-0.35404 -1.495838,-2.50542 -1.852084,-2.66375 -0.145521,-0.0647 -0.264583,-0.33461 -0.264583,-0.59983 0,-0.26524 -0.277813,-0.64406 -0.617361,-0.84182 -0.339549,-0.19777 -0.478861,-0.36441 -0.309584,-0.37031 0.169281,-0.006 0.116537,-0.24116 -0.117207,-0.52281 -0.331992,-0.40002 -0.327773,-0.78092 0.01926,-1.74066 0.323913,-0.89577 0.339527,-1.35479 0.05764,-1.69444 -0.291582,-0.35133 -0.133495,-0.83709 0.643085,-1.976 0.566353,-0.83058 1.029723,-1.66327 1.029723,-1.85042 0,-0.18716 0.304889,-0.34029 0.677524,-0.34029 0.452508,0 0.748394,-0.32265 0.890902,-0.97149 0.268562,-1.22275 -0.02537,-3.62377 -0.501936,-4.10035 -0.198515,-0.19852 -0.360934,-0.66612 -0.360934,-1.03913 0,-0.58726 0.0772,-0.61412 0.575818,-0.20031 0.502994,0.41745 0.737228,0.29509 1.852083,-0.96751 1.266324,-1.43415 2.477227,-2.01961 3.424933,-1.65595 0.271212,0.10408 0.405281,0.33135 0.297931,0.50504 -0.10735,0.1737 0.04294,0.31581 0.333985,0.31581 0.291042,0 0.627278,-0.15875 0.747194,-0.35277 0.355597,-0.57537 2.227259,-0.40771 2.585011,0.23156 0.270637,0.4836 0.880883,0.57553 3.539596,0.5332 3.144509,-0.0501 3.217238,-0.0326 3.432316,0.82432 0.120851,0.48152 0.343694,0.79887 0.495201,0.70524 0.309732,-0.19143 3.247722,2.45629 3.000216,2.7038 -0.08721,0.0872 0.762607,0.16084 1.888483,0.16363 2.266167,0.006 3.62192,0.71622 4.28613,2.24658 1.167642,2.69028 1.772645,3.4549 3.178888,4.01756 0.799239,0.3198 1.601449,0.4898 1.782689,0.37779 0.18124,-0.11201 0.32953,-0.0548 0.32953,0.12714 0,0.18194 0.43656,0.49393 0.97013,0.69331 0.53358,0.19938 1.28764,0.48274 1.6757,0.62969 1.0486,0.39709 1.13129,0.41258 2.45717,0.46041 0.81182,0.0293 1.62734,0.3996 2.42782,1.10243 0.66296,0.58209 1.44279,1.05834 1.73297,1.05834 0.29018,0 0.68805,0.19843 0.88417,0.44097 0.53275,0.65886 0.37061,2.83542 -0.25622,3.43958 -0.30197,0.29104 -1.00585,1.20385 -1.5642,2.02847 -0.55834,0.82462 -1.22594,1.49931 -1.48356,1.49931 -0.34468,0 -0.44306,0.51804 -0.37248,1.96129 0.0528,1.07871 -0.0125,2.02831 -0.14509,2.11023 -0.13255,0.0819 -0.26415,0.54871 -0.29244,1.03732 -0.0986,1.70268 -0.1563,1.94671 -0.46022,1.94671 -0.16824,0 -0.63357,0.55539 -1.03408,1.2342 -0.4005,0.67881 -0.8714,1.14569 -1.04643,1.03752 -0.17503,-0.10818 -0.31824,-0.0286 -0.31824,0.17691 0,0.20548 -0.48268,0.3736 -1.07262,0.3736 -0.58994,0 -1.50275,0.29474 -2.02847,0.65498 -0.52572,0.36024 -1.39242,0.91953 -1.925998,1.24285 -0.759601,0.4603 -0.970139,0.85406 -0.970139,1.81446 0,0.75622 -0.270566,1.49716 -0.705555,1.93215 -0.388056,0.38805 -0.705556,0.80641 -0.705556,0.92969 0,0.12327 -0.357187,0.59062 -0.79375,1.03856 -1.681399,1.7252 -2.028472,2.16096 -2.028472,2.54685 0,0.65595 -1.492218,1.30573 -2.998611,1.30573 -1.44308,0 -1.633008,0.28391 -1.082089,1.61756 0.498178,1.20597 -1.308273,2.27433 -4.102132,2.42606 -0.134934,0.007 -0.45471,0.44989 -0.710615,0.98347 -0.360997,0.7527 -0.717246,0.97285 -1.589489,0.98227 -1.425536,0.0154 -1.774899,0.36704 -1.230581,1.23863 0.236834,0.37923 0.281552,0.68951 0.09937,0.68951 -0.182174,0 -0.381959,0.35719 -0.44396,0.79375 -0.0657,0.4626 -0.556098,1.0155 -1.175441,1.32527 -1.162191,0.58126 -1.25523,1.5787 -0.219047,2.34829 0.510843,0.37941 0.516114,0.48045 0.04646,0.89074 -0.291355,0.25453 -0.987979,0.97062 -1.548049,1.5913 -1.016624,1.12664 -1.017312,1.13062 -0.414704,2.40052 0.331981,0.6996 0.993027,1.44944 1.468988,1.6663 1.290979,0.58821 0.823281,1.14847 -1.003572,1.20218 -1.370259,0.0403 -1.645789,-0.0661 -1.811418,-0.69947 z m -2.335118,-0.93555 c 0,-0.19402 -0.15875,-0.35277 -0.352777,-0.35277 -0.194028,0 -0.352778,0.15875 -0.352778,0.35277 0,0.19403 0.15875,0.35278 0.352778,0.35278 0.194027,0 0.352777,-0.15875 0.352777,-0.35278 z m -0.881944,-6.35 c 0.119916,-0.19402 0.04991,-0.35277 -0.155568,-0.35277 -0.205479,0 -0.373599,0.15875 -0.373599,0.35277 0,0.19403 0.07001,0.35278 0.155568,0.35278 0.08556,0 0.253683,-0.15875 0.373599,-0.35278 z m 235.831941,-1.05833 c -0.48507,-0.15534 -0.67414,-0.29827 -0.42015,-0.31761 0.25398,-0.0193 0.37479,-0.17593 0.26847,-0.34797 -0.24321,-0.39351 0.41764,-0.93312 1.56279,-1.2761 0.48507,-0.14528 1.55746,-0.94338 2.38309,-1.77356 1.10263,-1.10869 1.69589,-1.45848 2.23469,-1.31758 0.57108,0.14934 0.62927,0.26505 0.26273,0.52251 -0.35079,0.2464 -0.36325,0.37468 -0.0489,0.50326 0.64115,0.26226 -3.75231,4.3668 -4.62907,4.32466 -0.40244,-0.0193 -1.12859,-0.16226 -1.61366,-0.31761 z m -20.85075,-2.92299 c -0.31131,-0.23711 -0.67094,-0.76166 -0.79917,-1.16567 -0.21221,-0.66862 -0.0981,-0.73184 1.27158,-0.7042 0.8276,0.0167 1.53051,0.14579 1.56201,0.28686 0.12732,0.5701 -0.33457,1.66306 -0.62656,1.4826 -0.17196,-0.10628 -0.31267,-0.0251 -0.31267,0.18036 0,0.48577 -0.38979,0.45731 -1.09519,-0.0799 z m 28.30872,-2.98604 c -0.2138,-0.53357 -0.32458,-1.28763 -0.24618,-1.67569 0.0784,-0.38806 0.16724,-0.94368 0.1974,-1.23472 0.0381,-0.36801 0.10903,-0.39487 0.23278,-0.0882 0.0979,0.24254 0.40947,0.44098 0.69246,0.44098 0.77148,0 2.14662,1.3892 1.67436,1.69148 -0.21378,0.13684 -0.50016,0.60598 -0.63641,1.04254 -0.34489,1.10518 -1.44136,1.00416 -1.91441,-0.17639 z m -33.09153,-1.8641 c -0.4195,-0.16229 -0.86322,-0.6117 -0.98605,-0.99869 -0.12282,-0.38698 -0.81147,-1.27971 -1.53032,-1.98384 -1.03992,-1.0186 -1.50279,-1.24224 -2.26502,-1.09436 -0.70602,0.13697 -1.09236,-0.006 -1.46872,-0.54326 -0.83485,-1.19192 -2.36904,-1.80942 -4.40396,-1.77256 -1.0405,0.0188 -2.07237,0.17967 -2.29306,0.35739 -0.22069,0.17772 -1.07909,0.43493 -1.90755,0.57159 -0.82847,0.13665 -1.72994,0.4721 -2.00328,0.74544 -0.30584,0.30584 -1.23627,0.49698 -2.41925,0.49698 -1.29187,0 -2.06863,0.17633 -2.36853,0.53769 -0.24543,0.29573 -0.52387,0.46007 -0.61874,0.36519 -0.0949,-0.0949 -0.44459,-0.0269 -0.77714,0.15108 -0.93453,0.50015 -2.07351,-0.45778 -1.8617,-1.56578 0.0935,-0.48936 -0.10238,-1.56659 -0.43539,-2.39383 -0.33301,-0.82724 -0.6781,-1.90095 -0.76687,-2.38602 -0.0888,-0.48507 -0.31065,-1.03276 -0.49307,-1.21708 -0.18243,-0.18433 -0.33168,-1.198 -0.33168,-2.2526 0,-1.6059 0.14727,-2.05395 0.90633,-2.75742 0.49848,-0.46198 1.0541,-0.74862 1.23472,-0.637 0.18062,0.11163 0.3284,0.0455 0.3284,-0.14686 0,-0.40312 0.66714,-0.6449 2.62185,-0.95021 1.69733,-0.2651 2.75159,-1.018 3.58642,-2.56123 0.34923,-0.64558 1.06527,-1.3963 1.5912,-1.66827 0.52592,-0.27196 1.01665,-0.67575 1.09049,-0.89729 0.11292,-0.33876 2.14649,-0.52295 3.29986,-0.29889 0.8109,0.15754 1.21573,-0.0654 1.21573,-0.66958 0,-0.35799 0.3175,-0.93821 0.70556,-1.2894 0.38805,-0.35119 0.70555,-0.51628 0.70555,-0.36688 0,0.1494 0.3886,0.017 0.86355,-0.29418 0.52946,-0.34692 0.94696,-0.43085 1.07915,-0.21696 0.11859,0.19187 0.76187,0.34885 1.42951,0.34885 0.66765,0 1.2139,0.16812 1.2139,0.3736 0,0.20548 0.19844,0.25756 0.44098,0.11575 0.24253,-0.14182 0.16316,0.0598 -0.17639,0.44793 -0.33955,0.38818 -0.61736,1.05545 -0.61736,1.48282 0,0.42738 0.27781,0.87944 0.61736,1.00459 0.33955,0.12515 1.10891,0.59665 1.70969,1.04779 1.39438,1.04707 2.92418,0.97146 3.35661,-0.16591 0.17246,-0.4536 0.31356,-1.74043 0.31356,-2.85962 0,-1.1192 0.10446,-2.13937 0.23212,-2.26704 0.35741,-0.35741 1.17899,0.4755 1.17899,1.19525 0,0.35284 0.18328,0.75481 0.40728,0.89325 0.25235,0.15596 0.31153,0.0968 0.15557,-0.15557 -0.13844,-0.224 -0.0836,-0.40728 0.12188,-0.40728 0.20548,0 0.37923,0.27781 0.3861,0.61736 0.0145,0.7188 1.01472,2.5968 1.03333,1.94028 0.007,-0.24254 0.16614,-0.44098 0.35392,-0.44098 0.20349,0 0.22551,0.31329 0.0545,0.77557 -0.44199,1.19484 0.25169,2.87898 1.49276,3.62413 0.61046,0.36653 1.22621,0.63873 1.36832,0.60488 0.14211,-0.0339 0.35448,0.32132 0.47193,0.78928 0.11745,0.46796 0.67226,1.20239 1.23292,1.63207 0.56065,0.42968 0.93423,0.91899 0.83017,1.08737 -0.10407,0.16838 -0.0117,0.30615 0.20521,0.30615 0.21693,0 0.29387,0.16268 0.17099,0.36152 -0.12289,0.19883 -0.0262,0.31789 0.21492,0.26458 0.85824,-0.18979 1.40855,1.57281 1.26685,4.05761 -0.10827,1.89875 -0.30499,2.57018 -0.95604,3.26319 -0.45084,0.4799 -0.67298,0.87759 -0.49363,0.88376 0.17934,0.006 0.0781,0.20461 -0.22495,0.44097 -0.59431,0.46351 -1.00373,1.33829 -1.26277,2.69809 -0.24172,1.26886 -0.42053,1.43583 -1.53759,1.43583 -0.55919,0 -1.10166,0.13747 -1.2055,0.30548 -0.24337,0.39378 -5.08436,0.42186 -6.08362,0.0353 z m -25.35093,-0.5667 c -0.33346,-0.24383 -0.47801,-0.61666 -0.33119,-0.85422 0.18904,-0.30587 0.34991,-0.26186 0.58618,0.16034 0.1791,0.32003 0.43495,0.51583 0.56854,0.4351 0.1336,-0.0807 0.43816,0.0646 0.67681,0.3229 0.35016,0.37904 0.30435,0.45993 -0.23736,0.41912 -0.3692,-0.0278 -0.93754,-0.24527 -1.26298,-0.48324 z m -94.27176,-3.18403 c -0.24253,-0.0971 -0.44097,-0.41669 -0.44097,-0.71013 0,-0.29345 -0.21989,-0.9549 -0.48864,-1.46991 -0.26875,-0.51501 -0.78468,-1.60924 -1.14652,-2.43163 -0.36184,-0.8224 -0.75741,-1.49708 -0.87904,-1.49931 -0.4482,-0.008 -1.65501,-3.39586 -1.65185,-4.63692 0.002,-0.70482 -0.2846,-1.72085 -0.63645,-2.25784 -0.35185,-0.53699 -0.67323,-1.20456 -0.71416,-1.48348 -0.0409,-0.27893 -0.32456,-0.78352 -0.63028,-1.12133 -0.65893,-0.72811 -0.70718,-1.7309 -0.14885,-3.09331 0.22384,-0.54621 0.44996,-1.20547 0.50249,-1.46502 0.0525,-0.25956 0.36059,-0.76483 0.68458,-1.12284 0.44104,-0.48734 0.52221,-0.945 0.323,-1.82114 -0.24664,-1.08477 -0.39701,-2.00068 -0.58307,-3.55147 -0.0407,-0.33955 -0.22526,-0.61736 -0.41004,-0.61736 -0.18479,0 -0.23574,-0.10025 -0.11321,-0.22277 0.32408,-0.32409 -0.34661,-1.43196 -1.80328,-2.97875 -0.96542,-1.02514 -1.28894,-1.68151 -1.32735,-2.69298 -0.0279,-0.73559 0.0957,-1.43232 0.27468,-1.54829 0.179,-0.11597 0.33981,-0.71571 0.35736,-1.33276 0.0383,-1.34716 -0.84165,-2.13332 -2.40577,-2.14934 -0.67832,-0.007 -1.47103,-0.3597 -2.08314,-0.92698 -0.89901,-0.83318 -1.16046,-0.89423 -2.89895,-0.67703 -1.05095,0.13131 -2.46278,0.46937 -3.1374,0.75125 -0.86225,0.36026 -1.56208,0.42125 -2.35604,0.20532 -1.23682,-0.33637 -4.00807,0.59727 -3.511,1.18286 0.14568,0.17162 -0.0129,0.0994 -0.35249,-0.16049 -0.33954,-0.2599 -0.61736,-0.36239 -0.61736,-0.22776 0,0.13463 -0.24946,-0.005 -0.55436,-0.30958 -0.3049,-0.3049 -0.74611,-0.55437 -0.98046,-0.55437 -0.23435,0 -0.6488,-0.309 -0.921,-0.68666 -0.27221,-0.37766 -0.60245,-0.6202 -0.73387,-0.53898 -0.32699,0.20209 -2.10197,-1.83114 -2.10197,-2.40779 0,-0.25551 -0.6234,-0.93157 -1.38533,-1.50237 -1.64456,-1.23201 -2.51004,-2.85865 -2.26542,-4.25778 0.4929,-2.81917 0.52218,-4.14798 0.10843,-4.92108 -0.36421,-0.68054 -0.35525,-0.94082 0.0496,-1.43964 0.27178,-0.3349 0.30979,-0.4984 0.0845,-0.36333 -0.22532,0.13507 -0.10256,-0.39008 0.27281,-1.167 0.38572,-0.79833 0.93458,-1.41259 1.26222,-1.41259 0.31885,0 0.48686,-0.0929 0.37335,-0.20638 -0.42951,-0.42951 0.51415,-2.18191 1.42858,-2.65289 0.52429,-0.27005 1.06989,-0.65 1.21244,-0.84433 0.14255,-0.19434 0.26162,-0.22294 0.26459,-0.0636 0.003,0.15938 0.25632,0.0389 0.56301,-0.26782 0.30668,-0.30669 0.70355,-0.46741 0.88194,-0.35716 0.17839,0.11025 0.34852,-0.32486 0.37807,-0.9669 0.0296,-0.64204 0.0702,-1.38494 0.0903,-1.6509 0.0201,-0.26595 0.74998,-0.90095 1.62196,-1.41111 0.87197,-0.51016 1.58541,-1.16568 1.58541,-1.45672 0,-0.4203 0.55965,-0.53946 2.72017,-0.57919 1.96832,-0.0362 3.14552,-0.25592 4.25904,-0.79497 0.84638,-0.40973 1.92417,-0.73333 2.3951,-0.71913 0.47093,0.0142 2.15861,-0.05 3.7504,-0.1427 3.22934,-0.18805 3.87317,0.1376 3.69174,1.86728 -0.12392,1.18137 0.3414,1.56067 2.58632,2.10817 0.97014,0.23661 2.0417,0.681 2.38125,0.98754 0.33955,0.30654 0.61979,0.41368 0.62276,0.23809 0.003,-0.1756 0.13851,-0.10934 0.30117,0.14722 0.16268,0.25657 0.87443,0.597 1.58167,0.7565 1.23145,0.27774 1.29784,0.24393 1.56794,-0.79843 0.37569,-1.44981 1.65149,-1.79922 3.47851,-0.95266 2.04708,0.94851 4.58163,1.37318 7.62577,1.27772 2.74635,-0.0861 3.69384,-0.48823 3.92975,-1.66774 0.0542,-0.27114 0.28174,-0.93988 0.50559,-1.48609 0.51608,-1.25931 0.51131,-1.37519 -0.0903,-2.19798 -0.45704,-0.62503 -0.54987,-0.63484 -1.14653,-0.12104 -1.00318,0.86384 -1.80084,1.03893 -2.02865,0.44527 -0.1117,-0.29109 -0.35199,-0.43722 -0.53398,-0.32475 -0.182,0.11248 -0.42633,0.0501 -0.54296,-0.13862 -0.23904,-0.38678 -1.29633,-0.0881 -1.66928,0.47155 -0.40314,0.60496 -2.88617,-1.65497 -3.1304,-2.84914 -0.33603,-1.64299 -0.65157,-1.96089 -1.68811,-1.70074 -1.48604,0.37298 -1.76587,0.77306 -1.46714,2.09763 0.23196,1.02845 0.16888,1.22092 -0.45349,1.38367 -0.88065,0.2303 -1.30605,0.002 -1.30605,-0.70049 0,-0.29104 -0.15875,-0.43106 -0.35278,-0.31114 -0.19402,0.11992 -0.35277,0.009 -0.35277,-0.2471 0,-0.25582 -0.31982,-0.66486 -0.71072,-0.90897 -0.51452,-0.32133 -0.6528,-0.67462 -0.50091,-1.27979 0.24302,-0.96829 -0.88705,-1.97386 -2.21826,-1.97386 -0.49251,0 -0.80345,-0.21285 -0.80345,-0.54999 0,-0.30249 -0.15875,-0.45187 -0.35277,-0.33196 -0.19403,0.11992 -0.35278,0.0499 -0.35278,-0.15557 0,-0.20547 -0.2475,-0.37359 -0.54999,-0.37359 -0.30249,0 -0.45187,-0.15875 -0.33196,-0.35278 0.11992,-0.19403 -0.0294,-0.35278 -0.33195,-0.35278 -0.3025,0 -0.54999,-0.17039 -0.54999,-0.37864 0,-0.67718 -1.14697,-0.17254 -1.44543,0.63595 -0.24939,0.67555 -0.056,0.9492 1.37129,1.94028 0.9139,0.63459 1.97914,1.31724 2.36719,1.51699 0.82371,0.42402 0.94805,1.40493 0.17639,1.39147 -0.91563,-0.016 -4.39182,-2.18252 -5.66811,-3.53267 -0.82342,-0.87107 -2.19274,-0.87857 -3.81551,-0.0209 -0.9134,0.48276 -1.25623,0.52896 -1.46144,0.19693 -0.37333,-0.60408 -2.14272,-0.13445 -1.89783,0.50372 0.11447,0.2983 -0.13441,0.5622 -0.65296,0.69235 -1.20424,0.30224 -2.32499,1.38 -2.77377,2.66737 -0.65572,1.88099 -3.76352,3.10992 -6.17839,2.44314 -1.96761,-0.54328 -2.42282,-1.19104 -2.42282,-3.44767 0,-2.75228 0.35435,-3.02082 3.98614,-3.02082 2.614,0 3.0374,-0.0888 3.46284,-0.72608 0.42969,-0.64366 0.37832,-0.89015 -0.4527,-2.17177 -0.55782,-0.86028 -1.12846,-1.37239 -1.40921,-1.26466 -0.25948,0.0996 -0.47179,0.005 -0.47179,-0.20948 0,-0.21478 0.28716,-0.39052 0.63813,-0.39052 0.35097,0 0.94628,-0.23308 1.32291,-0.51795 0.37664,-0.28487 0.94119,-0.52299 1.25458,-0.52916 0.31338,-0.006 0.97342,-0.32872 1.46675,-0.71678 0.49333,-0.38805 1.11006,-0.70631 1.37049,-0.70724 0.26044,-9.2e-4 1.05271,-0.53368 1.76061,-1.1839 0.82745,-0.76004 1.80379,-1.26485 2.73402,-1.4136 1.44147,-0.2305 1.44695,-0.2373 1.44695,-1.79388 0,-1.70002 0.33406,-2.12239 1.40885,-1.78126 0.56493,0.1793 0.66181,0.44242 0.51139,1.38891 -0.15323,0.96416 -0.06,1.20053 0.53459,1.35603 0.3961,0.10359 0.72017,0.0526 0.72017,-0.11342 0,-0.16596 0.51594,-0.0916 1.14653,0.1653 0.63059,0.25687 1.46403,0.39191 1.85208,0.30008 0.38806,-0.0918 1.0617,-0.1682 1.49697,-0.16973 0.43528,-0.002 0.70402,-0.14418 0.5972,-0.31702 -0.10681,-0.17283 0.21174,-0.1599 0.70789,0.0287 0.60723,0.23087 0.90211,0.22372 0.90211,-0.0219 0,-0.20068 0.16777,-0.26118 0.37283,-0.13445 0.66451,0.41069 2.18033,-0.16734 1.95802,-0.74666 -0.32813,-0.85511 0.56373,-1.91156 1.61375,-1.91156 0.52396,0 1.05236,0.16134 1.17423,0.35853 0.32396,0.52417 0.87839,0.0621 0.87839,-0.73213 0,-0.62131 -0.38204,-0.85513 -1.17275,-0.71777 -0.15994,0.0278 -0.18866,-0.11476 -0.0638,-0.31676 0.12484,-0.202 0.37476,-0.27594 0.55538,-0.16431 0.18062,0.11163 0.3284,0.0455 0.3284,-0.14686 0,-0.44981 -0.97777,-0.75534 -2.61411,-0.81686 -1.56237,-0.0587 -1.95106,-0.47907 -0.72706,-0.78627 0.74951,-0.18812 0.83055,-0.32868 0.52196,-0.90529 -0.55968,-1.04578 -0.29225,-1.55719 1.01727,-1.94528 1.20266,-0.35642 2.15689,-1.35076 1.71772,-1.78993 -0.4244,-0.4244 -2.738,0.20679 -2.738,0.74697 0,0.28225 -0.11906,0.49438 -0.26458,0.4714 -1.18326,-0.18683 -3.34752,1.40631 -3.77091,2.77581 -0.19637,0.63518 -0.10832,0.79375 0.44075,0.79375 0.94813,0 1.63457,0.85458 1.04145,1.29656 -0.24492,0.18251 -0.80251,0.30462 -1.23907,0.27136 -0.50636,-0.0386 -0.80848,0.14561 -0.83444,0.50872 -0.0224,0.31305 -0.0621,0.80304 -0.0882,1.08885 -0.0261,0.28581 -0.52375,0.66662 -1.10583,0.84624 -0.58208,0.17962 -1.55858,0.54109 -2.16998,0.80326 -0.61141,0.26217 -1.36547,0.47667 -1.6757,0.47667 -0.80696,0 -0.69794,-0.73659 0.14151,-0.95611 0.98746,-0.25823 0.88043,-0.86101 -0.36469,-2.05391 -0.92222,-0.88355 -1.16619,-0.96545 -1.76389,-0.59218 -0.3815,0.23825 -0.69364,0.2825 -0.69364,0.0983 0,-0.18417 -0.43656,-0.10679 -0.97014,0.17196 -0.80532,0.42071 -1.03007,0.42688 -1.32292,0.0363 -0.19402,-0.25877 -0.52336,-0.41293 -0.73186,-0.34257 -0.2085,0.0704 -0.55887,-0.45784 -0.7786,-1.17377 -0.40983,-1.33536 -0.28201,-2.05916 0.30012,-1.69939 0.18062,0.11163 0.3284,0.008 0.3284,-0.22943 0,-0.23782 0.0983,-0.33412 0.21839,-0.21401 0.12011,0.12011 0.43471,0.002 0.69911,-0.26234 0.26441,-0.26441 1.21227,-0.76011 2.10636,-1.10157 0.89409,-0.34145 2.24637,-1.25408 3.00505,-2.02805 0.75868,-0.77397 1.37942,-1.29616 1.37942,-1.16042 0,0.13575 0.43494,-0.15649 0.96654,-0.64941 0.53159,-0.49292 1.08722,-0.91607 1.23472,-0.94032 0.3782,-0.0622 0.92749,-0.20338 1.23833,-0.31832 0.14552,-0.0538 0.42333,-0.12169 0.61736,-0.15086 0.19403,-0.0292 0.82903,-0.30396 1.41111,-0.61065 1.9115,-1.00713 9.11196,-1.42161 10.93611,-0.62951 0.58208,0.25276 1.61356,0.52708 2.29218,0.6096 0.67861,0.0825 1.31361,0.26351 1.41111,0.40221 0.0975,0.1387 0.77258,0.21986 1.50018,0.18036 0.72761,-0.0395 1.32292,0.0442 1.32292,0.18593 0,0.14176 0.19844,0.28155 0.44097,0.31065 2.46705,0.29598 3.76373,1.01869 3.26772,1.82125 -0.27135,0.43906 -4.06147,0.3951 -4.06147,-0.0471 0,-0.40534 -1.31893,-0.38013 -1.57243,0.03 -0.11163,0.18062 -0.0397,0.42933 0.15993,0.55268 0.2267,0.14011 0.24331,0.43798 0.0443,0.79365 -0.20909,0.37364 -0.16375,0.72424 0.13191,1.0199 0.81375,0.81375 5.82243,-0.393 5.82243,-1.40281 0,-0.27078 0.3547,-0.4921 0.79375,-0.49527 1.73558,-0.0126 1.97295,-0.12972 2.32839,-1.14933 0.41828,-1.19988 1.46397,-1.44396 1.46397,-0.34171 0,0.98021 0.88731,1.24048 1.92067,0.56339 1.33301,-0.87342 3.87975,-1.31273 8.48097,-1.46295 2.50455,-0.0818 4.27813,-0.28832 4.35093,-0.50672 0.14785,-0.44352 4.01541,-0.49739 4.49146,-0.0625 0.52957,0.48373 2.43507,0.73682 2.98563,0.39655 0.38931,-0.2406 0.28757,-0.39038 -0.45758,-0.67369 -1.24822,-0.47457 -1.20856,-0.86323 0.18834,-1.84544 0.63059,-0.44339 1.3563,-1.00982 1.6127,-1.25874 0.25639,-0.24892 0.92388,-0.45258 1.48332,-0.45258 0.87507,0 1.04821,0.16556 1.23952,1.18533 0.1223,0.65194 0.16918,2.03595 0.10418,3.07558 -0.0969,1.54933 -0.0109,1.91207 0.4769,2.01124 0.34103,0.0694 0.84782,-0.26473 1.1871,-0.78252 0.55468,-0.84655 0.55419,-0.96123 -0.008,-1.8187 -0.33345,-0.50891 -0.51491,-1.25278 -0.40877,-1.67569 0.15538,-0.61906 0.47264,-0.77069 1.7056,-0.81519 2.26901,-0.0819 5.09548,-0.63846 5.67192,-1.11686 0.28059,-0.23288 1.20627,-0.51854 2.05704,-0.63481 0.85078,-0.11627 1.94375,-0.42191 2.42882,-0.67921 0.48507,-0.2573 2.62819,-0.73146 4.7625,-1.05369 5.18823,-0.78331 5.82083,-0.83583 5.82083,-0.48327 0,0.16548 0.40721,0.14606 0.90491,-0.0432 0.49769,-0.18923 1.44082,-0.34405 2.09583,-0.34405 0.65502,0 1.27773,-0.14043 1.38381,-0.31207 0.40113,-0.64903 3.39524,-0.81778 4.57519,-0.25786 0.62653,0.29731 1.84345,0.53043 2.70428,0.51805 3.92333,-0.0564 5.05772,0.26632 4.27039,1.21501 -0.92163,1.1105 -0.15077,1.55756 2.80867,1.62889 1.55671,0.0375 3.25314,0.22895 3.76984,0.42539 0.87752,0.33364 2.98502,0.15672 3.74764,-0.3146 0.5177,-0.31996 3.78391,-0.0996 4.87206,0.32872 0.66978,0.26363 0.97014,0.63521 0.97014,1.20018 0,1.09225 0.31239,1.22793 1.95975,0.85114 0.76541,-0.17507 2.7826,-0.3424 4.48265,-0.37186 2.49403,-0.0432 3.26275,-0.18864 3.98025,-0.75303 0.78066,-0.61407 1.20012,-0.6687 3.43538,-0.44744 1.40038,0.13862 2.86364,0.31584 3.2517,0.39382 0.38805,0.078 1.26118,0.23339 1.94027,0.34537 0.6791,0.11198 1.45556,0.38525 1.72546,0.60727 0.27572,0.22681 2.04183,0.44621 4.03087,0.50073 2.24513,0.0615 3.92439,0.28874 4.59055,0.62106 0.73569,0.36701 2.20019,0.52401 4.88784,0.52401 2.89856,0 3.8822,0.11667 4.02042,0.47687 0.19508,0.50838 1.77374,0.38426 2.11395,-0.16621 0.26221,-0.42427 5.99199,-0.37773 7.73508,0.0628 0.77611,0.19615 1.73011,0.40447 2.12,0.46292 0.38989,0.0585 1.07705,0.30331 1.52703,0.54412 0.92869,0.49703 4.09988,1.48135 4.53337,1.40715 1.5773,-0.27001 1.95041,0.4613 0.76145,1.49247 -0.95936,0.83205 -1.71913,0.83105 -3.18905,-0.004 -1.86429,-1.05937 -4.08272,-0.73106 -6.27175,0.92815 -0.0914,0.0693 0.0571,0.26397 0.33009,0.43266 0.739,0.45673 -0.21684,1.50555 -1.11289,1.22116 -0.70616,-0.22413 -4.17373,0.83761 -4.57709,1.40146 -0.12892,0.18021 -1.7958,0.44944 -3.70417,0.5983 -4.12766,0.32196 -5.03186,0.5578 -5.80652,1.51447 -0.42279,0.52212 -0.49898,0.94647 -0.27547,1.53433 0.2557,0.67256 0.11222,0.99194 -0.83247,1.85304 -0.62778,0.57224 -1.41923,1.13427 -1.75878,1.24896 -0.33955,0.11469 -0.61736,0.43596 -0.61736,0.71393 0,0.27796 -0.14806,0.50539 -0.32901,0.50539 -0.18095,0 -0.4231,0.29649 -0.53812,0.65886 -0.12809,0.40359 -0.51317,0.64278 -0.99391,0.61736 -0.63903,-0.0338 -0.86392,-0.36912 -1.21082,-1.80539 -0.23432,-0.97014 -0.43275,-1.95614 -0.44097,-2.19112 -0.0218,-0.62299 1.32175,-1.77066 2.38539,-2.03761 0.50572,-0.12693 1.13404,-0.53708 1.39625,-0.91144 0.26221,-0.37436 0.74706,-0.68066 1.07744,-0.68066 0.33038,0 0.80873,-0.33311 1.06299,-0.74025 0.30702,-0.49162 0.69824,-0.67855 1.16477,-0.55655 0.7501,0.19615 1.15267,-0.37878 0.95374,-1.36208 -0.10243,-0.50633 -0.25488,-0.47556 -1.15366,0.2329 -1.10409,0.8703 -1.96298,1.15118 -1.96298,0.64195 0,-0.17077 -0.21764,-0.22698 -0.48364,-0.1249 -0.26601,0.10207 -0.57519,-0.053 -0.68707,-0.34453 -0.15647,-0.40774 -0.44588,-0.46058 -1.25369,-0.2289 -0.57765,0.16567 -1.15457,0.19691 -1.28206,0.0694 -0.12748,-0.12748 -0.41724,0.0159 -0.64391,0.31869 -0.22667,0.30276 -0.68994,0.65472 -1.02949,0.78212 -0.33955,0.12741 -0.61736,0.49328 -0.61736,0.81304 0,0.4076 -0.21079,0.52626 -0.70521,0.39697 -0.38786,-0.10143 -0.78132,-0.0613 -0.87434,0.0893 -0.093,0.15052 -0.84725,0.14775 -1.67605,-0.006 -0.8288,-0.15392 -2.06253,-0.20771 -2.74162,-0.11953 -0.6791,0.0882 -2.34598,0.20073 -3.70417,0.25011 -2.24091,0.0815 -2.69798,0.23455 -4.93889,1.65394 -1.35819,0.86027 -2.67922,1.76747 -2.93562,2.01599 -0.25639,0.24852 -0.61358,0.45185 -0.79375,0.45185 -0.18016,0 -0.32757,0.23813 -0.32757,0.52917 0,0.33439 0.35708,0.54085 0.97013,0.5609 2.89005,0.0945 3.77432,0.28107 4.2476,0.89607 0.30294,0.39366 0.56744,0.50254 0.65589,0.27 0.0815,-0.21434 0.51227,-0.32011 0.95724,-0.23505 0.71847,0.13735 0.80138,0.33893 0.74066,1.80081 -0.11396,2.74409 -0.0906,2.67471 -0.72277,2.15009 -0.37185,-0.30861 -0.49448,-0.78989 -0.36554,-1.43459 0.15273,-0.76363 0.0409,-1.01878 -0.52534,-1.1985 -1.02348,-0.32484 -1.18604,-0.0582 -1.34237,2.20132 -0.0161,0.23371 -0.42627,0.82181 -0.91134,1.30688 -0.48507,0.48507 -0.88194,1.10785 -0.88194,1.38395 0,0.2761 -0.2686,0.71988 -0.59689,0.98618 -0.48866,0.39638 -0.54491,0.39783 -0.3102,0.008 0.47894,-0.79551 -0.88976,0.0884 -2.09093,1.3503 -0.76445,0.80312 -0.87067,1.03946 -0.3831,0.85235 0.49477,-0.18986 0.60104,-0.1398 0.3986,0.18776 -0.1663,0.26907 -0.71089,0.38281 -1.36983,0.2861 -1.29516,-0.19009 -3.40876,0.32807 -3.40876,0.83567 0,0.19636 -0.15694,0.26003 -0.34874,0.14149 -0.19998,-0.12359 -0.25912,0.018 -0.13865,0.33196 0.11585,0.30189 0.0256,0.54749 -0.20125,0.54749 -0.22923,0 -0.29899,0.19522 -0.15757,0.44097 0.13958,0.24253 0.12807,0.32749 -0.0256,0.1888 -0.47393,-0.42784 -1.50232,0.36001 -1.67946,1.28664 -0.11759,0.61517 0.0815,1.11394 0.66239,1.65969 0.45677,0.42912 0.8305,0.96607 0.8305,1.19322 0,0.56513 -1.20614,1.61201 -1.99753,1.73377 -0.83036,0.12776 -1.1653,-0.39401 -1.17207,-1.8258 -0.004,-0.75741 -0.24364,-1.29232 -0.71095,-1.58416 -0.38806,-0.24235 -0.70556,-0.62113 -0.70556,-0.84174 0,-0.60345 -0.9533,-1.29563 -1.21073,-0.8791 -0.2461,0.3982 -1.4813,0.23326 -2.10029,-0.28046 -0.25953,-0.21539 -0.61202,-0.22246 -0.93414,-0.0187 -0.28454,0.17996 -0.85754,0.32963 -1.27334,0.3326 -1.01681,0.007 -1.40412,1.08883 -0.60038,1.67654 0.34226,0.25027 0.77983,0.40252 0.97238,0.33834 0.40748,-0.13582 1.61872,0.82321 1.61872,1.28167 0,0.17166 -0.22269,0.22666 -0.49487,0.12221 -0.27218,-0.10445 -0.78812,0.0323 -1.14653,0.30382 -0.47264,0.35809 -0.51436,0.4968 -0.15188,0.50493 0.27487,0.006 0.39531,0.11568 0.26764,0.24335 -0.12767,0.12767 -0.096,0.40548 0.0704,0.61736 0.88998,1.13337 2.16081,3.87904 2.16081,4.66851 0,0.53837 -0.34584,1.17889 -0.85114,1.57635 -0.46813,0.36823 -1.19896,1.38801 -1.62408,2.26618 -0.70143,1.44898 -1.49293,2.06678 -3.44021,2.68527 -0.142,0.0451 -0.63512,0.27756 -1.09582,0.51657 -0.46071,0.23902 -1.05602,0.35078 -1.32292,0.24836 -0.26689,-0.10242 -0.48526,-0.0105 -0.48526,0.2043 0,0.21479 -0.36748,0.39052 -0.81661,0.39052 -0.58742,0 -0.98346,0.3499 -1.41111,1.2467 -0.32698,0.68568 -0.59451,1.49266 -0.59451,1.79328 0,0.30063 -0.19843,0.48053 -0.44097,0.39979 -0.60454,-0.20127 -0.63669,-1.69061 -0.0414,-1.91903 0.26532,-0.10181 0.48239,-0.30967 0.48239,-0.4619 0,-0.32246 -1.72641,-0.85696 -2.40132,-0.74345 -0.69526,0.11693 -1.79069,1.33062 -1.68079,1.86225 0.21107,1.02104 1.14406,2.75949 1.3633,2.54024 0.12802,-0.12801 0.33251,0.0272 0.45442,0.34488 0.12191,0.3177 0.34831,0.49936 0.5031,0.40369 0.60905,-0.37641 1.03661,2.01633 0.73795,4.1298 -0.0193,0.1362 -0.73252,0.72755 -1.58506,1.31411 l -1.55007,1.06648 -1.27336,-1.01194 c -0.70035,-0.55657 -1.58504,-1.38604 -1.96597,-1.84328 -0.38094,-0.45724 -0.69789,-0.68767 -0.70435,-0.51208 -0.006,0.17559 -0.28955,0.0714 -0.6291,-0.23161 -0.52934,-0.47234 -0.68221,-0.48013 -1.07224,-0.0547 -0.25018,0.2729 -0.36517,0.49619 -0.25552,0.49619 0.10964,0 -0.0524,0.48673 -0.35997,1.08162 -0.52453,1.01432 -0.51412,1.15827 0.16733,2.31322 0.39966,0.67738 0.72665,1.44995 0.72665,1.71683 0,0.26687 0.29239,0.57803 0.64976,0.69145 1.23061,0.39058 2.26763,1.87068 2.35144,3.35613 0.0442,0.78325 -0.063,1.42408 -0.23811,1.42408 -0.17516,0 -0.15413,0.30707 0.0467,0.68236 0.20085,0.3753 0.36518,1.0103 0.36518,1.41112 0,0.40081 0.15875,0.72874 0.35278,0.72874 0.19403,0 0.35278,0.23813 0.35278,0.52917 0,0.4488 0.59219,0.68858 1.45036,0.58726 0.11859,-0.014 0.17854,0.32438 0.13321,0.75197 -0.0453,0.42759 -0.1051,1.01556 -0.13284,1.3066 -0.12935,1.35747 -0.63122,1.54008 -1.85523,0.67503 -1.78372,-1.26062 -2.63148,-2.19453 -3.45189,-3.80265 -0.40923,-0.80217 -0.88889,-1.45849 -1.0659,-1.45849 -0.177,0 -0.42772,-0.33361 -0.55713,-0.74135 -0.12941,-0.40775 -0.8607,-1.38579 -1.62507,-2.17343 -0.85865,-0.88478 -1.26416,-1.55768 -1.06107,-1.76077 0.4429,-0.4429 1.60346,0.21097 3.08836,1.74001 0.65815,0.67773 1.19664,1.11978 1.19664,0.98235 0,-0.13743 0.24196,-0.0491 0.5377,0.19638 0.29573,0.24543 0.61047,0.37346 0.69942,0.28451 0.23385,-0.23385 -0.63444,-2.40825 -0.96168,-2.40825 -0.15149,0 -0.27544,-0.48123 -0.27544,-1.06941 0,-0.62515 -0.21983,-1.15376 -0.52916,-1.27246 -0.29104,-0.11169 -0.52917,-0.41287 -0.52917,-0.66929 0,-0.25642 -0.202,-0.676 -0.44889,-0.93239 -0.48278,-0.50137 -0.65228,-2.82735 -0.18499,-2.53854 0.37022,0.2288 0.35649,-0.12467 -0.0334,-0.86124 -0.173,-0.3268 -0.41956,-1.38792 -0.54791,-2.35806 -0.12834,-0.97014 -0.45811,-1.9914 -0.7328,-2.26948 -0.4334,-0.43872 -0.58622,-0.42706 -1.15557,0.0882 -0.36086,0.32658 -0.92863,0.59378 -1.26171,0.59378 -0.49653,0 -0.57691,-0.24961 -0.44635,-1.38609 0.11319,-0.98516 0.0143,-1.44174 -0.34206,-1.57846 -0.27572,-0.1058 -0.65375,-0.59331 -0.84006,-1.08335 -0.18632,-0.49005 -0.49039,-0.89099 -0.67573,-0.89099 -0.18534,0 -0.38778,-0.35719 -0.44987,-0.79375 -0.0657,-0.46194 -0.33404,-0.76481 -0.6419,-0.72452 -1.26354,0.16535 -4.90819,1.26573 -4.86936,1.47013 0.0829,0.4366 -0.49958,1.45303 -0.7456,1.30098 -0.13725,-0.0848 -1.17059,0.70984 -2.29631,1.76591 -1.12572,1.05608 -2.2668,1.92014 -2.53572,1.92014 -0.49228,0 -0.55084,0.21171 -0.683,2.46944 -0.0871,1.48842 -0.81064,3.52778 -1.25157,3.52778 -0.17505,0 -0.31827,0.22114 -0.31827,0.49142 0,0.41133 -1.05101,1.14047 -1.21051,0.8398 -1.37171,-2.58572 -1.84584,-3.70954 -1.71505,-4.06525 0.0892,-0.24253 0.0156,-0.44097 -0.16342,-0.44097 -0.41914,0 -1.21072,-1.72387 -0.97025,-2.11297 0.10069,-0.16292 -0.004,-0.35852 -0.23235,-0.43468 -0.22847,-0.0762 -0.45763,-0.44691 -0.50923,-0.82389 -0.549,-4.01068 -0.91919,-4.70838 -2.51027,-4.73113 -0.50861,-0.007 -0.97725,-0.38358 -1.33198,-1.06955 -0.301,-0.58208 -0.7545,-1.05833 -1.00778,-1.05833 -0.25327,0 -0.67586,-0.40243 -0.93909,-0.89428 -0.26413,-0.49352 -0.68608,-0.81467 -0.94156,-0.71663 -0.25462,0.0977 -0.46295,0.0424 -0.46295,-0.12291 0,-0.16531 -0.3175,-0.38359 -0.70556,-0.48507 -0.40391,-0.10562 -0.70787,-0.0101 -0.71096,0.22344 -0.004,0.25892 -0.10008,0.27907 -0.26458,0.0552 -0.33272,-0.45287 -1.14113,-0.61948 -1.14113,-0.23519 0,0.16169 -0.23812,0.29399 -0.52916,0.29399 -0.29104,0 -0.52917,-0.13788 -0.52917,-0.3064 0,-0.16851 -0.29663,-0.14764 -0.65917,0.0464 -0.36254,0.19403 -0.73101,0.28095 -0.81881,0.19314 -0.0878,-0.0878 -0.85394,-0.21456 -1.70252,-0.28169 -0.84859,-0.0671 -1.6046,-0.3072 -1.68003,-0.5335 -0.0759,-0.22763 -0.80906,-0.41145 -1.64106,-0.41145 -1.90164,0 -3.39946,-0.74303 -4.64371,-2.30361 -0.97739,-1.22588 -2.0764,-1.59934 -2.34401,-0.79651 -0.29348,0.88045 0.17873,1.9718 1.01879,2.35456 0.47775,0.21768 0.77587,0.54589 0.66248,0.72936 -0.11339,0.18347 0.10503,0.50012 0.48538,0.70368 0.38035,0.20355 0.7839,0.66108 0.89677,1.01671 0.13168,0.4149 0.48789,0.61519 0.99403,0.55894 0.43384,-0.0482 0.9759,-0.1009 1.20458,-0.11707 0.22868,-0.0162 0.65463,-0.26826 0.94658,-0.5602 0.47254,-0.47255 0.65815,-0.41448 1.69131,0.52917 0.63829,0.58298 1.42438,1.05997 1.74688,1.05997 0.3225,0 0.85561,0.41091 1.18469,0.91315 0.58712,0.89607 0.57679,0.93237 -0.55214,1.94028 -0.63275,0.56491 -1.28998,1.02712 -1.46051,1.02712 -0.17053,0 -0.20534,0.16944 -0.0773,0.37652 0.12798,0.20709 -0.0955,0.46235 -0.49667,0.56726 -0.40115,0.1049 -0.82212,0.48299 -0.9355,0.8402 -0.12244,0.38579 -0.41363,0.56984 -0.71723,0.45333 -0.28112,-0.10787 -0.51111,-0.01 -0.51111,0.21817 0,0.24506 -0.27114,0.32823 -0.66378,0.20361 -0.43398,-0.13773 -0.74218,-0.006 -0.89025,0.3795 -0.12456,0.3246 -0.31616,0.50048 -0.42578,0.39086 -0.10963,-0.10962 -1.0187,0.28733 -2.02017,0.88212 -1.00147,0.59478 -2.28032,1.13757 -2.84188,1.20619 -0.56156,0.0686 -1.19656,0.26882 -1.41111,0.4449 -0.21455,0.17609 -1.02509,0.4153 -1.8012,0.5316 -0.77611,0.11629 -1.22238,0.0883 -0.99171,-0.0621 0.43339,-0.28266 0.43162,-0.28795 -1.43998,-4.3155 -0.40574,-0.87313 -1.1243,-2.01238 -1.5968,-2.53167 -0.4725,-0.51929 -0.91449,-1.30726 -0.98222,-1.75103 -0.0677,-0.44378 -0.47614,-1.19544 -0.9076,-1.67036 -0.43146,-0.47492 -0.54634,-0.74675 -0.2553,-0.60405 0.31836,0.15608 0.28322,0.0578 -0.0882,-0.2466 -0.33955,-0.27831 -0.61737,-0.65191 -0.61737,-0.83022 0,-0.17831 -0.30899,-0.54691 -0.68666,-0.81912 -0.37766,-0.2722 -0.62626,-0.59264 -0.55244,-0.71208 0.26699,-0.43201 -0.42522,-1.0941 -1.312,-1.2549 -0.82573,-0.14973 -0.8997,-0.0667 -0.83056,0.93208 0.0418,0.60305 0.33686,1.24249 0.6558,1.42097 0.31894,0.17849 0.49798,0.53798 0.39787,0.79888 -0.10012,0.26089 0.0446,0.70102 0.32168,0.97806 0.79381,0.7938 1.65354,2.64747 1.65354,3.56519 0,0.46089 0.38344,1.1982 0.85209,1.63848 0.46866,0.44027 0.94527,1.17174 1.05916,1.62548 0.11388,0.45373 0.52649,0.92636 0.91691,1.05027 0.39042,0.12392 0.62667,0.35991 0.52499,0.52443 -0.17888,0.28943 1.22942,1.58917 2.00031,1.84614 0.20855,0.0695 0.37918,0.51748 0.37918,0.99548 0,0.49929 0.35224,1.13478 0.82783,1.49352 0.7607,0.57379 0.93228,0.5808 2.11565,0.0864 0.7083,-0.29594 1.70499,-0.54051 2.21487,-0.54348 0.50989,-0.003 1.15079,-0.14704 1.42424,-0.32014 0.27344,-0.17311 0.71001,-0.23307 0.97014,-0.13324 0.64047,0.24577 0.59996,2.04527 -0.0609,2.70616 -0.29364,0.29364 -0.62858,1.00732 -0.74431,1.58595 -0.11999,0.6 -0.9427,1.77991 -1.91467,2.74598 -0.93734,0.93167 -1.63498,1.76321 -1.55031,1.84788 0.0847,0.0847 -0.49145,0.44289 -1.28026,0.79606 -0.78882,0.35316 -1.33549,0.80184 -1.21484,0.99706 0.12497,0.20219 -0.002,0.26979 -0.29625,0.15708 -0.30763,-0.11805 -0.59805,0.0615 -0.71998,0.44501 -0.11241,0.35358 -0.57378,1.041 -1.02527,1.52759 -0.4515,0.4866 -1.26585,1.64394 -1.80965,2.57187 -0.93917,1.60257 -0.96657,1.77046 -0.54649,3.34862 0.24324,0.91381 0.63333,1.97896 0.86688,2.36702 0.23355,0.38805 0.46062,1.76127 0.5046,3.0516 0.0695,2.03809 -0.0244,2.44328 -0.71515,3.0868 -0.43732,0.40742 -0.96362,0.74325 -1.16957,0.7463 -0.20595,0.003 -1.15649,0.70791 -2.11232,1.56637 -1.72798,1.55196 -1.73563,1.56848 -1.34532,2.90488 0.56305,1.92788 0.2186,3.28432 -0.83399,3.28432 -0.71687,0 -0.92465,0.29975 -1.45483,2.0987 -0.43522,1.47675 -0.85474,2.20633 -1.41562,2.46188 -0.4384,0.19975 -0.8043,0.56503 -0.81312,0.81172 -0.009,0.2467 -0.74136,1.16291 -1.62788,2.03604 -0.88652,0.87312 -1.48384,1.34937 -1.32737,1.05833 0.22824,-0.42453 0.18391,-0.44869 -0.2242,-0.12219 -0.64889,0.51914 -7.15195,1.28726 -8.00522,0.94555 z m 33.45726,-69.58803 c 0.35763,-0.0464 1.00527,-1.73828 0.71037,-1.85574 -0.154,-0.0613 -0.3903,-0.56139 -0.52511,-1.11123 -0.15127,-0.61697 -0.11385,-0.91857 0.0977,-0.78781 0.18856,0.11654 0.10392,-0.26703 -0.18809,-0.85238 -0.29201,-0.58535 -0.63836,-1.06956 -0.76967,-1.07601 -0.13131,-0.006 -0.61757,-0.32724 -1.08058,-0.71285 -0.80979,-0.67442 -0.81807,-0.72736 -0.21744,-1.39105 0.34342,-0.37947 0.75097,-0.61173 0.90565,-0.51613 0.44484,0.27493 0.75005,-0.48114 0.5054,-1.25195 -0.268,-0.84438 -1.64804,-0.94324 -2.41805,-0.17323 -0.29104,0.29104 -0.65957,0.52996 -0.81895,0.53092 -0.15938,0.001 -0.75536,0.37428 -1.3244,0.8296 -0.97982,0.78399 -1.01025,0.88667 -0.57456,1.93852 0.25303,0.61088 0.60892,1.11068 0.79086,1.11068 0.18194,0 0.24384,0.1407 0.13755,0.31267 -0.10628,0.17197 0.11047,0.39209 0.48168,0.48917 0.49075,0.12833 0.64656,0.43482 0.57099,1.1232 -0.0572,0.52069 -0.27307,1.11586 -0.47982,1.3226 -0.71737,0.71737 1.97715,2.4169 3.45931,2.18191 0.29104,-0.0461 0.62275,-0.096 0.73712,-0.11089 z m -22.34476,-4.13058 c 0.33955,-0.12267 0.96806,-0.2699 1.39668,-0.32718 0.42863,-0.0573 1.0539,-0.2578 1.3895,-0.4456 0.40975,-0.22931 1.10975,-0.19112 2.1311,0.11625 0.8365,0.25176 1.52092,0.36214 1.52092,0.24531 0,-0.11682 0.15068,-0.0616 0.33486,0.12273 0.51148,0.5119 3.81385,0.18256 4.03845,-0.40276 0.30871,-0.80449 -0.0767,-1.35747 -1.29217,-1.8539 -2.76795,-1.13051 -2.78628,-1.14783 -2.18566,-2.06449 0.72902,-1.11262 0.39866,-1.5357 -0.90677,-1.16131 -1.54399,0.44281 -1.5788,0.4684 -1.54869,1.13877 0.0482,1.07266 -1.26325,1.15263 -2.14146,0.13058 -1.04132,-1.21185 -2.36553,-1.19425 -3.51623,0.0467 -0.49292,0.5316 -0.89622,1.09659 -0.89622,1.25555 0,0.15895 -0.19844,0.17481 -0.44097,0.0352 -0.24254,-0.13957 -0.3275,-0.12807 -0.1888,0.0256 0.13869,0.15364 0.0918,0.57897 -0.10419,0.9452 -0.43457,0.81198 0.58216,2.78407 1.3198,2.55994 0.25987,-0.079 0.7503,-0.24394 1.08985,-0.36661 z m -2.38125,-18.21917 c 0,-0.16316 0.14395,-0.20769 0.31988,-0.099 0.17593,0.10873 0.24704,-0.0808 0.15802,-0.42124 -0.13155,-0.50305 -0.47213,-0.59581 -1.81918,-0.49545 -0.91153,0.0679 -1.79926,0.25796 -1.97273,0.42232 -0.17434,0.16519 0.0476,0.20392 0.49614,0.0866 0.52711,-0.13785 0.73021,-0.0806 0.57949,0.16322 -0.14775,0.23907 0.0565,0.31221 0.5622,0.20136 0.63935,-0.14014 0.69104,-0.10001 0.26507,0.2058 -0.42341,0.30397 -0.33528,0.36521 0.44097,0.30644 0.53358,-0.0404 0.97014,-0.20695 0.97014,-0.37011 z m 53.975,-11.68255 c 0,-0.0763 -0.24637,-0.23319 -0.54749,-0.34874 -0.31394,-0.12047 -0.45555,-0.0613 -0.33196,0.13865 0.20718,0.33521 0.87945,0.49581 0.87945,0.21009 z m 97.35285,101.17313 c -0.36616,-0.96308 -0.15438,-1.69675 0.39226,-1.35891 0.18134,0.11207 0.22925,0.6306 0.10647,1.15229 -0.15258,0.64832 -0.108,0.83686 0.14085,0.59574 0.20025,-0.19403 0.44045,-0.67028 0.53379,-1.05834 0.13296,-0.55277 0.17857,-0.50365 0.21063,0.22684 0.0571,1.30101 -0.93677,1.61868 -1.384,0.44238 z m 1.96929,-3.48889 c 0.0417,-0.95339 0.4968,-1.67271 0.54096,-0.85509 0.0148,0.27487 0.0802,0.77758 0.14518,1.11713 0.065,0.33954 -0.0715,0.61736 -0.30323,0.61736 -0.23177,0 -0.40408,-0.39573 -0.38291,-0.8794 z m -0.34529,-2.75179 c 0.13247,-0.34792 0.32973,-0.54371 0.43835,-0.43509 0.10862,0.10862 2.3e-4,0.39327 -0.24087,0.63257 -0.34841,0.34582 -0.38893,0.3053 -0.19748,-0.19748 z m -137.09636,-0.80204 c -0.25227,-0.30397 -0.45252,-1.05804 -0.44499,-1.6757 0.0182,-1.49477 0.63888,-6.18931 0.83701,-6.33098 0.0862,-0.0616 0.62832,-0.26661 1.2048,-0.45555 0.61259,-0.20077 1.46521,-0.96453 2.05179,-1.83792 0.55201,-0.82192 1.22024,-1.4944 1.48496,-1.4944 0.63496,0 0.80489,1.25066 0.40743,2.99861 -0.17647,0.77611 -0.31024,1.68892 -0.29727,2.02847 0.013,0.33955 -0.12528,0.61736 -0.30725,0.61736 -0.18197,0 -0.31206,0.11907 -0.28908,0.26459 0.023,0.14552 0.012,0.34396 -0.0243,0.44097 -0.10435,0.27855 -0.4271,2.23253 -0.47656,2.88522 -0.0247,0.32569 -0.20929,0.56381 -0.41025,0.52916 -0.20096,-0.0346 -0.32012,0.15216 -0.26481,0.41511 0.0553,0.26296 -0.0832,0.69952 -0.30778,0.97014 -0.22459,0.27062 -0.26985,0.49447 -0.10057,0.49744 0.16928,0.003 0.0697,0.15929 -0.22139,0.34737 -0.81046,0.52376 -2.32985,0.41688 -2.84173,-0.19989 z m 139.02103,-1.74891 c 0.24543,-0.29573 0.51889,-0.46504 0.60769,-0.37625 0.24465,0.24465 -0.25243,0.91394 -0.67878,0.91394 -0.23393,0 -0.20716,-0.20241 0.0711,-0.53769 z m 1.36211,-3.41997 c 0.1624,-0.97964 0.21209,-1.02933 0.32318,-0.32318 0.0722,0.45894 -0.0142,0.97987 -0.19191,1.15761 -0.19572,0.19572 -0.24749,-0.13339 -0.13127,-0.83443 z m -9.36548,-1.49487 c 0,-0.28251 0.13229,-0.43189 0.29398,-0.33196 0.16169,0.0999 0.29398,0.33107 0.29398,0.51365 0,0.18257 -0.13229,0.33195 -0.29398,0.33195 -0.16169,0 -0.29398,-0.23114 -0.29398,-0.51364 z m -29.57454,-8.02246 c -0.38805,-0.21969 -0.82219,-0.57175 -0.96474,-0.78236 -0.14255,-0.21061 -0.26161,-0.22854 -0.26458,-0.0398 -0.003,0.18869 -0.24277,0.004 -0.53288,-0.41001 -0.61755,-0.88168 -1.39614,-0.8611 -2.06571,0.0546 -0.51841,0.70897 -2.63494,0.86233 -3.03211,0.2197 -0.12439,-0.20126 -0.61614,-0.42451 -1.09279,-0.49611 -0.67377,-0.1012 -0.89078,-0.37189 -0.97515,-1.21637 -0.10943,-1.09544 -1.16353,-2.09226 -2.43735,-2.30491 -0.34602,-0.0578 -0.98632,-0.30129 -1.42288,-0.54116 -0.43657,-0.23988 -0.79375,-0.34559 -0.79375,-0.23492 0,0.11066 -0.32256,0.0286 -0.71679,-0.1824 -0.39424,-0.21099 -0.67205,-0.6517 -0.61736,-0.97936 0.057,-0.34165 -0.23969,-0.74587 -0.69565,-0.94774 -0.84939,-0.37606 -0.8853,-1.05341 -0.0575,-1.08393 1.03391,-0.0381 2.44004,0.63709 2.44004,1.17168 0,0.30529 0.25643,0.83843 0.56984,1.18475 0.45084,0.49816 0.6693,0.5408 1.04609,0.20416 1.6282,-1.45468 1.51381,-1.43166 3.79785,-0.76423 1.19402,0.34892 2.32176,0.76631 2.50609,0.92753 0.18432,0.16123 0.60015,0.29315 0.92405,0.29315 0.76557,0 4.09127,2.64775 4.09127,3.25726 0,0.58886 1.15106,2.37221 1.56928,2.43128 0.17171,0.0243 0.45772,0.0639 0.63558,0.0882 0.17786,0.0243 0.40919,0.12991 0.51408,0.23479 0.37894,0.37895 -1.73671,0.30589 -2.42496,-0.0837 z m -21.96882,-0.48571 c 0.33494,-0.35067 0.70572,-0.54083 0.82397,-0.42258 0.11825,0.11826 -0.15578,0.40517 -0.60896,0.63758 -0.7877,0.40397 -0.79717,0.39451 -0.21501,-0.215 z m -13.66173,-0.9352 c -1.03597,-0.31684 -3.26705,-0.64457 -4.50146,-0.66125 -0.52297,-0.007 -0.54536,-0.0839 -0.14197,-0.48732 0.84375,-0.84375 6.5837,-0.0618 6.5837,0.8969 0,0.46677 -0.86859,0.57943 -1.94027,0.25167 z m 36.74486,-1.87969 c 0.24262,-0.63227 1.58065,-0.55275 1.79787,0.10684 0.0949,0.28818 -0.22784,0.44098 -0.93143,0.44098 -0.82839,0 -1.02819,-0.12633 -0.86644,-0.54782 z m 2.0881,-0.0371 c -0.36809,-0.95922 -0.21482,-1.26412 0.53665,-1.0676 0.40725,0.1065 0.65492,0.1081 0.55037,0.004 -0.10454,-0.10454 -0.002,-0.39139 0.22784,-0.63745 0.43432,-0.46495 1.30356,-0.33395 1.30356,0.19644 0,0.16718 -0.23812,0.21259 -0.52916,0.10091 -0.31338,-0.12026 -0.52917,-0.004 -0.52917,0.28544 0,0.26868 -0.30516,0.7498 -0.67814,1.06915 -0.59371,0.50836 -0.70352,0.51452 -0.88195,0.0496 z m -28.73788,-1.46435 c -0.023,-0.25896 -0.22219,-0.34975 -0.45365,-0.20671 -0.27229,0.16829 -0.34062,0.0672 -0.20081,-0.29716 0.21881,-0.57019 -0.27273,-0.64334 -1.05181,-0.15651 -0.47498,0.2968 -0.88084,-0.88562 -0.68797,-2.00428 0.12993,-0.75361 1.15037,-1.44989 1.43944,-0.98217 0.10532,0.17041 0.63184,0.23342 1.17004,0.14003 0.9302,-0.16142 0.94466,-0.14376 0.29261,0.35732 -0.65548,0.5037 -0.65904,0.56822 -0.0801,1.45184 0.33324,0.50859 0.45512,0.92471 0.27085,0.92471 -0.18427,0 -0.40765,0.27782 -0.49638,0.61737 -0.0887,0.33954 -0.17975,0.40955 -0.20226,0.15556 z m 0.66464,-0.0784 c 0,-0.18794 0.23812,-0.34171 0.52916,-0.34171 0.29105,0 0.52917,0.0624 0.52917,0.13865 0,0.0763 -0.23812,0.23002 -0.52917,0.34171 -0.29104,0.11168 -0.52916,0.0493 -0.52916,-0.13865 z m -7.47374,-0.71126 c -0.061,-0.18146 -0.58723,-0.35961 -1.16932,-0.3959 -0.58208,-0.0363 -1.21708,-0.15225 -1.41111,-0.2577 -0.19403,-0.10545 -0.57196,-0.22488 -0.83986,-0.2654 -0.53082,-0.0803 -1.26936,-0.7163 -1.28931,-1.11034 -0.007,-0.13582 -0.21528,-0.61232 -0.46312,-1.05889 -0.73088,-1.31692 -0.39174,-2.33649 0.84469,-2.53944 0.59103,-0.097 1.30541,-0.37652 1.5875,-0.62113 2.27084,-1.96913 3.03945,-2.54335 3.41089,-2.54824 0.2357,-0.003 0.59848,-0.32313 0.80616,-0.71118 0.47387,-0.88545 1.21719,-0.89948 2.07747,-0.0392 0.65329,0.65329 0.65186,0.68085 -0.0729,1.40558 -0.66874,0.66874 -0.69662,0.85707 -0.29232,1.97514 0.40926,1.13178 0.3745,1.33286 -0.41264,2.38677 -0.47275,0.63298 -1.04562,1.73215 -1.27304,2.44259 -0.39786,1.24286 -1.27298,2.02145 -1.50312,1.33734 z m 14.17652,-0.32493 c 0,-0.18794 0.23812,-0.25033 0.52916,-0.13865 0.29104,0.11169 0.52917,0.26545 0.52917,0.34171 0,0.0762 -0.23813,0.13864 -0.52917,0.13864 -0.29104,0 -0.52916,-0.15376 -0.52916,-0.3417 z m -5.82149,-3.89269 c -0.12538,-0.20286 0.0877,-0.30709 0.49925,-0.24428 1.01289,0.15458 1.3562,0.59812 0.46296,0.59812 -0.40894,0 -0.84194,-0.15923 -0.96221,-0.35384 z m -2.2924,-0.35172 c 0,-0.41406 0.27115,-0.41406 1.23472,0 0.62521,0.26867 0.59508,0.30601 -0.26458,0.32798 -0.53358,0.0136 -0.97014,-0.13395 -0.97014,-0.32798 z m 3.15221,-4.98146 c -0.22021,-0.41147 -0.24873,-0.6544 -0.0634,-0.53984 0.19261,0.11904 0.26848,-0.15024 0.17706,-0.62846 -0.18204,-0.95225 1.09794,-2.49591 1.74036,-2.09888 0.23978,0.1482 0.29573,0.0841 0.1427,-0.16351 -0.13844,-0.22401 -0.10058,-0.40729 0.0841,-0.40729 0.18472,0 0.43222,0.25111 0.54999,0.55802 0.43492,1.13339 0.18813,1.8869 -0.81139,2.47732 -0.58725,0.3469 -0.94802,0.80771 -0.8442,1.07828 0.29653,0.77273 -0.54088,0.53606 -0.97529,-0.27564 z m -42.68899,-0.63358 c -0.65676,-0.26005 -0.75061,-2.73403 -0.10371,-2.73403 0.39846,0 1.25694,1.56366 1.40418,2.55764 0.0623,0.42023 -0.49405,0.49569 -1.30047,0.17639 z M 66.596553,191.86955 c -0.255834,-0.41395 0.42629,-1.00437 1.170905,-1.01349 0.636214,-0.008 0.543292,0.93818 -0.117048,1.19157 -0.738696,0.28347 -0.77209,0.27783 -1.053857,-0.17808 z m -1.568827,-0.68273 c -0.481933,-0.37029 -1.07701,-0.67678 -1.322398,-0.6811 -0.512068,-0.009 -1.892865,-2.11751 -1.647102,-2.51516 0.08977,-0.14526 -0.156577,-0.36561 -0.547451,-0.48967 -0.390874,-0.12405 -0.710678,-0.37361 -0.710678,-0.55456 0,-0.18095 -0.383713,-0.32901 -0.852696,-0.32901 -1.037554,0 -4.086193,-1.26521 -4.086193,-1.6958 0,-0.17037 -0.539531,-0.60031 -1.198957,-0.95544 -1.136671,-0.61214 -1.230673,-0.61397 -1.809376,-0.0353 -0.368276,0.36828 -0.837273,0.51324 -1.182293,0.36544 -0.314529,-0.13474 -0.929061,-0.25499 -1.365624,-0.26723 -0.436562,-0.0122 -0.79375,-0.15863 -0.79375,-0.3253 0,-0.16667 -0.15875,-0.20493 -0.352777,-0.085 -0.194028,0.11991 -0.352778,-0.0245 -0.352778,-0.32089 0,-0.3341 -0.201112,-0.46174 -0.529167,-0.33585 -0.291041,0.11168 -0.529166,0.0273 -0.529166,-0.18746 0,-0.21478 -0.328839,-0.39051 -0.730755,-0.39051 -0.401913,0 -0.952031,-0.19844 -1.222477,-0.44097 -1.152624,-1.03366 -1.563959,-1.32292 -1.881219,-1.32292 -0.18505,0 -0.294506,-0.27781 -0.243237,-0.61736 0.204752,-1.35606 -1.190791,-3.59569 -2.826674,-4.53637 -0.374199,-0.21517 -0.684417,-0.53267 -0.689378,-0.70555 -0.005,-0.17288 -0.873481,-1.17982 -1.930047,-2.23764 -1.056566,-1.05782 -1.954766,-2.15318 -1.995999,-2.43413 -0.200896,-1.36879 -2.093972,-1.29492 -1.995745,0.0779 0.09403,1.31407 -0.493116,1.15075 -1.10201,-0.30654 -0.283747,-0.6791 -0.692122,-1.23472 -0.9075,-1.23472 -0.215378,0 -0.293486,-0.15875 -0.17357,-0.35278 0.119916,-0.19403 0.06843,-0.35278 -0.114424,-0.35278 -0.182848,0 -0.41548,-0.3175 -0.51696,-0.70555 -0.10148,-0.38806 -0.462196,-0.70556 -0.801596,-0.70556 -0.93127,0 -2.734659,-1.52068 -3.509359,-2.95921 -0.378598,-0.70301 -0.969264,-1.36735 -1.312591,-1.47632 -0.667459,-0.21184 -0.655546,-0.11343 -0.748661,-6.18432 l -0.05196,-3.38791 -1.21902,-1.02181 c -0.670461,-0.562 -1.074102,-0.78369 -0.896983,-0.49265 0.267155,0.43899 0.1743,0.43165 -0.544869,-0.043 -0.476797,-0.31471 -0.872532,-0.71158 -0.879408,-0.88194 -0.0278,-0.68853 -0.867106,-1.77678 -1.724071,-2.23541 -0.500094,-0.26764 -0.90926,-0.78123 -0.90926,-1.1413 0,-0.62973 -1.648004,-1.57624 -2.047998,-1.17625 -0.102443,0.10245 -0.04074,0.18626 0.137118,0.18626 0.17786,0 0.32338,0.45604 0.32338,1.01342 0,0.6658 -0.15126,0.95538 -0.440972,0.8442 -0.242534,-0.0931 -0.440972,-0.45736 -0.440972,-0.80954 0,-0.35217 -0.651014,-1.19756 -1.446697,-1.87864 -0.912346,-0.78093 -1.34827,-1.39758 -1.180215,-1.6695 0.160881,-0.26031 0.119733,-0.34048 -0.103837,-0.2023 -0.361361,0.22333 -0.973242,-0.71345 -0.844294,-1.29261 0.03561,-0.15994 -0.09794,-0.19026 -0.296772,-0.0674 -0.198835,0.12288 -0.363949,0.0156 -0.36692,-0.23836 -0.0039,-0.33556 -0.09888,-0.31715 -0.347376,0.0674 -0.263873,0.40832 -0.343207,0.41984 -0.347376,0.0504 -0.0032,-0.27974 -0.225347,-0.39431 -0.534568,-0.27565 -0.291042,0.11168 -0.529167,0.0695 -0.529167,-0.0938 0,-0.33086 -2.9871947,-0.81295 -5.026083,-0.81115 -0.7270542,6.5e-4 -1.2336226,-0.14169 -1.1257079,-0.3163 0.1079148,-0.17461 0.037459,-0.31747 -0.1565691,-0.31747 -0.1940278,0 -0.4575792,0.16957 -0.5856703,0.37683 -0.1280908,0.20725 -0.4394394,0.29757 -0.6918858,0.2007 -0.2524464,-0.0969 -0.5650932,-0.07 -0.6947708,0.0596 -0.2582742,0.25827 -0.4503338,0.28811 -2.36497353,0.36743 -0.71337727,0.0296 -1.36491897,0.25217 -1.44787047,0.49471 -0.082951,0.24253 -0.09433,0.0948 -0.025284,-0.32832 0.1160689,-0.71128 0.039026,-0.74449 -1.0215738,-0.44037 -0.6309101,0.18091 -1.2009711,0.49023 -1.2668021,0.6874 -0.14987,0.44885 -0.796053,1.07246 -1.820587,1.75698 -0.435603,0.29104 -0.999341,0.72761 -1.252749,0.97014 -0.681573,0.65233 -1.216695,0.53596 -1.216695,-0.26458 0,-0.38806 0.1905,-0.70556 0.423333,-0.70556 0.328457,0 0.328132,-0.0952 -0.0014,-0.42478 -0.233631,-0.23363 -0.985003,-0.38706 -1.669717,-0.34094 -0.6847132,0.0461 -1.5925082,-0.15961 -2.0173232,-0.45716 -0.424814,-0.29756 -1.173629,-0.54606 -1.664033,-0.55223 -1.071284,-0.0135 -2.228371,-0.82218 -2.348618,-1.64148 -0.118659,-0.80848 0.87688,-1.49749 2.183298,-1.51108 1.356317,-0.0141 2.667526,-0.91159 1.987759,-1.36058 -0.253503,-0.16743 -1.161732,-0.23449 -2.018284,-0.14901 -1.704022,0.17005 -3.713262,-0.51146 -3.459271,-1.17335 0.108596,-0.283 0.940055,-0.37301 2.597855,-0.28125 2.038717,0.11284 2.405445,0.0498 2.238555,-0.38516 -0.109772,-0.28606 -0.30359,-0.4995 -0.430706,-0.4743 -0.582368,0.11544 -2.213702,-0.82315 -2.0877,-1.20116 0.254901,-0.7647 3.227202,-2.09491 5.3843572,-2.40968 1.433619,-0.2092 3.824287,-0.14171 7.408333,0.20912 4.450288,0.43562 9.2226844,0.81611 11.4652775,0.91409 0.2910417,0.0127 1.1194413,0.18905 1.8408893,0.39186 0.921385,0.25901 1.446655,0.25675 1.765165,-0.008 0.249393,-0.20698 1.405368,-0.38375 2.568833,-0.39283 1.163465,-0.009 2.829765,-0.15277 3.70289,-0.31931 0.873125,-0.16654 2.032999,-0.18347 2.577497,-0.0376 0.544499,0.14584 1.852165,0.26517 2.905926,0.26517 1.053761,0 2.195763,0.0864 2.537781,0.19212 1.37741,0.42557 3.425366,0.50427 4.074996,0.1566 0.533121,-0.28532 0.626332,-0.26741 0.412111,0.0792 -0.198755,0.32159 -0.103124,0.38126 0.339059,0.21158 0.33874,-0.12999 0.88072,-0.24255 1.204401,-0.25015 0.323677,-0.008 0.036,-0.25343 -0.639297,-0.54631 -0.974563,-0.42267 -1.120087,-0.60061 -0.705556,-0.86273 0.398561,-0.25202 0.292488,-0.33151 -0.44789,-0.33563 -0.59146,-0.003 -0.970139,-0.19723 -0.970139,-0.49683 0,-0.6718 -0.899103,-0.9626 -1.855145,-0.60003 -1.128469,0.42796 -3.701112,0.75037 -4.263983,0.53438 -0.392536,-0.15063 -0.377105,-0.40048 0.08686,-1.40618 l 0.564208,-1.223 2.645833,0.0591 c 1.455209,0.0325 3.122084,0.20697 3.704167,0.38767 2.184573,0.6782 3.559531,1.01973 4.586111,1.13918 0.582083,0.0677 1.217083,0.15681 1.411111,0.19794 0.194028,0.0411 0.432153,0.0402 0.529167,-0.002 0.09701,-0.0422 0.573264,-0.11451 1.058333,-0.16064 0.485069,-0.0461 1.451677,-0.19152 2.148018,-0.3231 1.136149,-0.21469 1.353365,-0.12493 2.116667,0.87461 0.467825,0.61261 1.485593,1.39299 2.261704,1.73417 l 1.411111,0.62033 -1.507123,0.25776 c -1.922791,0.32886 -2.155673,0.71853 -0.700987,1.17295 2.942068,0.91905 5.206721,0.63907 5.206721,-0.64372 0,-0.58416 0.22866,-0.71693 1.234722,-0.71693 1.199893,0 1.615288,-0.42871 0.864814,-0.89253 -0.462686,-0.28595 0.243515,-1.22413 0.921452,-1.22413 0.255831,0 0.578421,-0.18328 0.716865,-0.40729 0.156189,-0.25272 0.09675,-0.31151 -0.156633,-0.15491 -0.27728,0.17137 -0.359805,-0.009 -0.257112,-0.56285 0.08318,-0.44838 0.163037,-0.93399 0.177455,-1.07914 0.02882,-0.29028 2.753751,-0.12476 3.064672,0.18616 0.106613,0.10662 -0.374675,0.46362 -1.069531,0.79335 -0.694852,0.32973 -1.263371,0.72937 -1.263371,0.88807 0,0.15871 0.515938,0.64891 1.146528,1.08934 0.63059,0.44042 1.225903,0.8878 1.322917,0.99416 0.477368,0.52336 2.510715,1.44424 2.797548,1.26697 0.17966,-0.11104 0.428685,0.11959 0.553389,0.51249 0.314635,0.99133 2.034526,0.84626 2.534796,-0.2138 0.501051,-1.06171 0.236178,-1.34554 -1.916984,-2.05416 -2.109036,-0.69411 -2.442957,-1.56053 -0.97271,-2.52387 0.939976,-0.6159 2.711376,-0.43763 2.558143,0.25744 -0.04737,0.21487 0.134408,0.4708 0.403952,0.56873 0.283982,0.10318 0.393093,0.0211 0.259457,-0.19508 -0.225312,-0.36457 0.356486,-0.65657 1.900728,-0.95397 0.421492,-0.0812 1.902612,0.0961 3.291374,0.39394 1.388767,0.29784 2.882216,0.56936 3.318778,0.60339 0.436563,0.034 0.79375,0.18092 0.79375,0.32644 0,0.14552 0.322482,0.26459 0.716626,0.26459 0.394148,0 0.801275,0.22058 0.90473,0.49018 0.108751,0.2834 0.476123,0.41486 0.870871,0.31163 0.375525,-0.0982 0.682773,-0.0277 0.682773,0.15658 0,0.47531 1.992278,0.64775 3.402803,0.29452 0.481221,-0.12051 0.830591,0.002 0.959069,0.3371 0.124862,0.32538 -0.0039,0.52665 -0.336818,0.52665 -0.296404,0 -0.434115,0.16958 -0.306025,0.37683 0.128094,0.20726 0.446878,0.29472 0.70841,0.19436 0.283803,-0.10891 0.40615,-0.002 0.303463,0.26589 -0.253312,0.66012 1.407502,1.34055 1.980357,0.81134 0.318184,-0.29395 0.382354,-0.29675 0.221689,-0.01 -0.249336,0.44549 0.492777,0.83072 1.600316,0.83072 0.500754,0 0.651605,0.16375 0.504352,0.54749 -0.115548,0.30112 -0.06413,0.45728 0.114272,0.34702 0.178396,-0.11026 0.424766,-0.038 0.547483,0.16056 0.412507,0.66744 -0.905154,0.80359 -2.575038,0.26606 -0.910953,-0.29324 -1.709522,-0.39196 -1.774602,-0.21939 -0.06508,0.17257 -0.303206,0.20743 -0.529167,0.0775 -0.225961,-0.12996 0.0339,0.18655 0.577472,0.70335 0.543575,0.51681 1.133906,0.93965 1.311847,0.93965 0.177941,0 0.232152,0.23812 0.12047,0.52917 -0.11569,0.30147 0.0028,0.55148 0.275654,0.58103 0.263295,0.0285 -0.473785,0.16894 -1.637951,0.31203 -2.21711,0.27251 -5.468056,-0.40261 -5.468056,-1.13555 0,-0.19919 -0.246369,-0.26763 -0.54749,-0.15208 -0.357699,0.13727 -0.45993,0.0684 -0.294904,-0.19859 0.163318,-0.26426 0.06498,-0.3367 -0.278254,-0.20499 -0.291958,0.11204 -0.739944,0.0745 -0.995524,-0.0835 -0.255577,-0.15796 -0.84236,-0.11512 -1.303955,0.0952 -0.671139,0.30579 -0.957809,0.26386 -1.431001,-0.20933 -0.553787,-0.55379 -0.50848,-0.59173 0.706621,-0.59173 1.516652,0 3.668635,-0.93427 3.971812,-1.72433 0.220973,-0.57586 -0.672874,-1.45067 -1.482231,-1.45067 -0.253958,0 -0.817104,0.35536 -1.25144,0.7897 -0.725153,0.72515 -0.799765,0.73742 -0.912866,0.15014 -0.06774,-0.35176 0.136197,-0.92616 0.4532,-1.27644 0.54284,-0.59983 0.50873,-0.65045 -0.58644,-0.87026 -1.244043,-0.2497 -3.010803,-0.34858 -4.633398,-0.25932 -0.962762,0.0529 -0.992212,0.10795 -0.768131,1.43427 0.197873,1.17119 0.129755,1.41198 -0.451633,1.59651 -0.376555,0.11951 -0.981703,0.57043 -1.344775,1.00204 -0.363068,0.43161 -0.521903,0.67129 -0.352961,0.53262 0.168942,-0.13867 0.639134,-0.0196 1.044875,0.26458 0.40574,0.28419 1.059571,0.52746 1.452964,0.54059 0.660788,0.0221 0.652611,0.054 -0.107403,0.41958 -0.610806,0.29381 -0.989157,0.29173 -1.46922,-0.008 -0.505376,-0.31561 -0.739603,-0.29168 -1.072625,0.10959 -0.234329,0.28235 -0.723124,0.51337 -1.086203,0.51337 -0.85695,0 -0.706416,-1.21457 0.239184,-1.92983 0.667674,-0.50502 0.665515,-0.51744 -0.09183,-0.5284 -0.426565,-0.006 -1.203808,0.38566 -1.727207,0.87073 -0.523399,0.48506 -1.27314,0.88194 -1.666092,0.88194 -0.392952,0 -0.987008,0.24665 -1.320122,0.54812 -0.333114,0.30146 -0.92993,0.57254 -1.326254,0.6024 -0.396325,0.0298 -0.649909,0.16864 -0.56352,0.30842 0.08639,0.13978 -0.187519,0.36352 -0.608683,0.49719 -1.143208,0.36284 -2.374565,1.84363 -2.173245,2.61348 0.09554,0.36536 0.623443,0.85057 1.173106,1.07825 0.549666,0.22768 1.085194,0.63755 1.19006,0.91083 0.118463,0.3087 0.706978,0.49686 1.554053,0.49686 0.749861,0 1.48245,0.11907 1.627971,0.26459 0.145521,0.14552 0.370417,0.27483 0.499766,0.28736 0.572051,0.0554 3.444798,1.00838 3.772133,1.25132 0.199072,0.14774 0.794149,0.22118 1.322398,0.16319 0.856132,-0.094 1.002788,0.0521 1.350257,1.34531 0.44546,1.65785 0.79224,1.96694 2.215321,1.9745 0.983015,0.005 1.010338,-0.0412 0.82732,-1.40571 -0.14618,-1.08985 -0.0717,-1.41111 0.327145,-1.41111 0.284032,0 0.418306,-0.15875 0.29839,-0.35278 -0.119916,-0.19403 0.01122,-0.35278 0.291384,-0.35278 0.852163,0 1.638783,-1.51425 1.201815,-2.3135 -0.206012,-0.37681 -0.485944,-0.76448 -0.622071,-0.8615 -0.136126,-0.097 -0.320251,-1.07411 -0.409169,-2.17133 l -0.161667,-1.99494 1.084576,0.17441 c 0.596516,0.0959 1.548606,0.15559 2.115753,0.1326 0.567147,-0.023 1.160029,0.16125 1.317516,0.40943 0.213077,0.33578 0.287718,0.34145 0.29174,0.0221 0.008,-0.63639 2.412643,0.87516 3.94578,2.4803 1.084051,1.13497 1.406338,1.29552 1.982086,0.98739 0.378149,-0.20238 0.774929,-0.28057 0.881736,-0.17377 0.106804,0.10681 0.375472,-0.14453 0.597034,-0.55853 0.302165,-0.5646 0.595224,-0.69167 1.172602,-0.50842 1.104198,0.35046 2.70977,1.90646 3.252463,3.15204 0.300855,0.69052 0.745059,1.09041 1.253811,1.12873 0.969588,0.073 4.20438,2.23146 4.205319,2.806 3.52e-4,0.22991 -0.149465,0.81292 -0.332977,1.29559 -0.383677,1.00915 0.235487,1.7887 1.143833,1.44013 0.572886,-0.21983 1.197917,0.6541 1.150578,1.60878 -0.0297,0.59896 -2.321088,0.76389 -2.729241,0.19644 -0.147278,-0.20475 -0.574689,-0.17991 -1.111331,0.0646 -0.479605,0.21852 -0.961637,0.30769 -1.071185,0.19814 -0.299459,-0.29946 0.445939,-1.52072 1.461184,-2.394 0.688224,-0.59198 0.790575,-0.84186 0.43488,-1.0617 -0.329519,-0.20365 -0.390218,-0.14299 -0.208128,0.20798 0.141382,0.27252 0.02935,0.21767 -0.24897,-0.12188 -0.636213,-0.7762 -0.858745,-0.77146 -2.4753,0.0527 -0.722867,0.36854 -1.788308,0.63725 -2.367651,0.59714 -0.745694,-0.0516 -1.056622,0.0875 -1.064563,0.47646 -0.0095,0.46539 -0.08271,0.45521 -0.478832,-0.0666 -0.649835,-0.85597 -3.504692,-0.7201 -3.676509,0.17498 -0.08772,0.45694 0.114169,0.61736 0.776891,0.61736 0.773035,0 1.83347,1.0916 1.713537,1.76389 -0.08006,0.44875 1.225034,1.2261 1.895813,1.12921 1.179372,-0.17037 1.374387,0.9359 0.208838,1.18467 -0.526726,0.11242 -1.276816,0.33142 -1.666868,0.48666 -0.462467,0.18408 -0.866162,0.11422 -1.160435,-0.2008 -0.598279,-0.64046 -1.991296,-0.61518 -2.540105,0.0461 -0.241544,0.29104 -0.669195,0.52916 -0.950338,0.52916 -0.617051,0 -1.176644,0.55989 -1.834278,1.83522 -0.270359,0.5243 -0.587859,0.93483 -0.705556,0.91227 -0.458643,-0.0879 -2.154273,0.51852 -2.154273,0.77043 0,0.14653 -0.426755,0.69318 -0.948348,1.21477 -0.699279,0.69929 -0.954069,1.31725 -0.970138,2.35296 -0.02286,1.47374 -0.02106,1.47192 -2.932208,2.98296 -0.63059,0.32732 -1.146528,0.74515 -1.146528,0.92852 0,0.18337 -0.134824,0.25007 -0.29961,0.14823 -0.164783,-0.10184 -0.511645,0.21103 -0.770802,0.69527 -0.409011,0.76424 -0.372262,1.16666 0.278468,3.04926 0.555918,1.60831 0.6567,2.34254 0.38995,2.84096 -0.34067,0.63655 -0.395104,0.6401 -1.028188,0.0672 -0.367658,-0.33273 -0.769557,-0.94121 -0.893106,-1.35218 -0.560353,-1.86396 -1.320599,-3.07121 -1.814647,-2.88163 -0.281517,0.10803 -0.672796,0.0969 -0.869509,-0.0246 -0.475255,-0.29372 -3.784339,-0.37333 -3.606768,-0.0868 0.330673,0.53364 -1.835774,0.98876 -3.195535,0.6713 -1.155365,-0.26974 -1.696484,-0.19278 -3.067773,0.43631 -1.611362,0.73923 -1.683061,0.838 -2.226938,3.06767 -0.309086,1.26712 -0.503802,2.62135 -0.432703,3.00941 0.323807,1.76735 1.107291,3.70416 1.498416,3.70416 0.236573,0 0.623697,0.23324 0.860281,0.5183 0.280592,0.33809 0.816902,0.45771 1.542503,0.34402 0.61179,-0.0959 1.575442,-0.21002 2.141445,-0.25371 0.808387,-0.0624 1.042469,-0.26096 1.091453,-0.92584 0.07967,-1.08149 1.090735,-1.82131 2.357179,-1.72482 0.989676,0.0754 1.262479,0.54581 0.683024,1.17775 -0.527794,0.57559 -0.775815,4.0324 -0.293437,4.08979 0.233394,0.0278 0.979978,0.0844 1.659075,0.1259 2.712487,0.1657 2.688407,0.15968 2.116667,0.52917 -0.352778,0.22798 -0.382175,0.34377 -0.0882,0.34738 0.242535,0.003 0.422173,0.12446 0.399197,0.26998 -0.02297,0.14552 -0.02297,1.1056 0,2.13351 0.03341,1.49427 0.213751,2.02831 0.899643,2.66398 1.135877,1.05269 0.695194,1.84516 -0.510794,0.91854 z m -3.3404,-32.67101 c 0.340589,-0.34059 0.51888,-0.92993 0.426896,-1.41111 -0.103078,-0.53922 0.0089,-0.82626 0.322295,-0.82626 0.543867,0 0.602604,-0.31929 0.180992,-0.98381 -0.215145,-0.33911 -0.527558,-0.36374 -1.229321,-0.0969 -0.847016,0.32203 -0.940869,0.53454 -0.940869,2.13034 0,1.87199 0.28387,2.14391 1.240007,1.18777 z m 6.134611,0.0963 c 0.323469,-0.38975 0.2252,-0.53378 -0.485969,-0.71227 -1.02846,-0.25813 -1.118686,-0.63819 -0.337061,-1.41982 0.304899,-0.3049 0.431899,-0.55436 0.282222,-0.55436 -0.14968,0 -0.08164,-0.1905 0.15119,-0.42334 0.553593,-0.55359 0.543066,-1.0877 -0.01764,-0.89508 -0.242535,0.0833 -0.840154,0.039 -1.328042,-0.0985 -0.694274,-0.19569 -1.023708,-0.0689 -1.515773,0.58346 -0.34579,0.45842 -0.457564,0.8335 -0.248388,0.8335 0.209176,0 0.485518,0.27781 0.614091,0.61736 0.128573,0.33955 0.450222,0.83627 0.714774,1.10382 0.264548,0.26755 0.397474,0.70412 0.295395,0.97014 -0.250226,0.65207 1.333397,0.64797 1.8752,-0.005 z m 2.326771,-1.27534 c 0.62521,-0.26866 0.59508,-0.30601 -0.264583,-0.32798 -0.533577,-0.0136 -0.970139,0.13395 -0.970139,0.32798 0,0.41406 0.271152,0.41406 1.234722,0 z m -6.790972,-3.24995 c 0.504144,0.14281 0.261447,-0.47649 -0.413064,-1.05402 -1.10756,-0.94832 -2.081639,-1.37493 -2.306959,-1.01036 -0.112864,0.18262 -0.638436,0.29552 -1.167937,0.2509 -1.100851,-0.0928 -1.98077,0.77021 -1.44435,1.41656 0.22195,0.26743 0.685179,0.31365 1.319706,0.13167 1.052939,-0.30198 2.743094,0.33174 2.259778,0.84729 -0.151606,0.16172 0.121229,0.0801 0.606298,-0.18148 0.48507,-0.26153 1.001007,-0.44178 1.146528,-0.40056 z m -46.65486,-10.99981 c 0,-0.0763 -0.246369,-0.23318 -0.547489,-0.34873 -0.313946,-0.12048 -0.45555,-0.0613 -0.331958,0.13864 0.207171,0.33521 0.879447,0.49581 0.879447,0.21009 z m 18.843942,-10.67097 c 0.185797,-0.48418 0.134175,-0.506 -0.315034,-0.13319 -0.612154,0.50804 -0.675866,0.71225 -0.222208,0.71225 0.17327,0 0.415029,-0.26057 0.537242,-0.57906 z m 231.199152,57.31728 c -0.14418,-0.3657 -0.0292,-0.66592 0.30386,-0.79375 0.73448,-0.28184 0.83082,-0.26236 0.83082,0.16802 0,0.20548 -0.14674,0.28291 -0.32608,0.17207 -0.17934,-0.11084 -0.38247,0.0782 -0.45139,0.42015 -0.11424,0.56669 -0.14583,0.56966 -0.35721,0.0335 z m 3.78051,-0.99933 c 0.11992,-0.19403 0.28804,-0.35278 0.3736,-0.35278 0.0856,0 0.15557,0.15875 0.15557,0.35278 0,0.19403 -0.16812,0.35278 -0.3736,0.35278 -0.20548,0 -0.27548,-0.15875 -0.15557,-0.35278 z m -2.2652,-0.55856 c 0.0169,-0.41097 0.10052,-0.49456 0.21313,-0.21314 0.10191,0.25466 0.0894,0.55893 -0.0278,0.67616 -0.11723,0.11722 -0.2006,-0.0911 -0.18529,-0.46302 z m 1.38326,-0.16782 c 0,-0.20548 0.15875,-0.27548 0.35278,-0.15557 0.19402,0.11992 0.35277,0.28804 0.35277,0.3736 0,0.0856 -0.15875,0.15557 -0.35277,0.15557 -0.19403,0 -0.35278,-0.16812 -0.35278,-0.3736 z m 19.64626,-1.61432 c 0.0969,-0.25257 0.3596,-0.42455 0.58373,-0.38217 0.22413,0.0424 0.36389,-0.1332 0.31057,-0.39016 -0.0533,-0.25695 0.0625,-0.36866 0.25736,-0.24823 0.23316,0.1441 0.21968,0.43451 -0.0394,0.84937 -0.4508,0.72185 -1.37835,0.8646 -1.11226,0.17119 z m -24.55394,-0.62031 c -0.45323,-0.54611 -0.42266,-2.53393 0.0538,-3.49859 0.32885,-0.66581 1.85065,-0.72043 1.86066,-0.0668 0.003,0.19403 0.12782,0.54543 0.27745,0.78088 0.16012,0.25197 -0.0235,0.7237 -0.44638,1.14653 -0.39513,0.39513 -0.71842,0.94718 -0.71842,1.22677 0,0.74333 -0.56407,0.96915 -1.02712,0.4112 z m 26.38212,-2.24246 c -0.43881,-0.55953 -0.42633,-0.57201 0.1332,-0.1332 0.58764,0.46086 0.77451,0.75056 0.48416,0.75056 -0.0732,0 -0.35106,-0.27781 -0.61736,-0.61736 z M 77.033275,182.09723 c -0.0032,-0.27229 -0.319165,-0.41767 -0.766829,-0.35278 -0.573825,0.0832 -0.776591,-0.0851 -0.822974,-0.6832 -0.03387,-0.43647 0.01637,-0.71566 0.111608,-0.62043 0.09524,0.0952 0.3862,-0.004 0.646585,-0.21975 0.260389,-0.2161 0.473432,-0.24935 0.473432,-0.0739 0,0.27705 0.786479,0.46296 2.38125,0.56288 0.242534,0.0152 0.440972,0.14923 0.440972,0.29784 0,0.27697 -0.987005,0.68258 -1.54806,0.63618 -0.172332,-0.0143 -0.447713,0.18609 -0.611956,0.4452 -0.242605,0.38272 -0.299639,0.38422 -0.304028,0.008 z m -6.708178,-1.12435 c 0.683951,-0.442 1.058333,-0.442 1.058333,0 0,0.19403 -0.357187,0.35035 -0.79375,0.34738 -0.641858,-0.004 -0.692489,-0.0708 -0.264583,-0.34738 z m 0.79375,-0.93929 c -0.242535,-0.0978 -0.440972,-0.39775 -0.440972,-0.66654 0,-0.28823 -0.215844,-0.40587 -0.526193,-0.28677 -0.294259,0.11291 -0.617111,-0.035 -0.732462,-0.33561 -0.132549,-0.34542 -0.511859,-0.48212 -1.061307,-0.38248 -0.470271,0.0853 -0.855038,-0.007 -0.855038,-0.20463 0,-0.19783 -0.357188,-0.37589 -0.79375,-0.3957 -0.623733,-0.0283 -0.542061,-0.11654 0.3813,-0.41199 0.955682,-0.30578 1.36744,-0.26232 2.205584,0.23278 0.566794,0.33481 1.213488,0.49568 1.437096,0.35748 0.251637,-0.15552 0.310642,-0.0961 0.154845,0.15602 -0.144681,0.2341 -0.0408,0.40728 0.244292,0.40728 0.272806,0 0.86209,0.3175 1.309521,0.70556 0.447432,0.38806 0.643456,0.70556 0.43561,0.70556 -0.207849,0 -0.589325,0.0668 -0.847728,0.14843 -0.258406,0.0816 -0.668263,0.0684 -0.910798,-0.0294 z m 10.78177,-0.007 c 0.25466,-0.1019 0.558934,-0.0894 0.676159,0.0278 0.117224,0.11722 -0.09114,0.2006 -0.463021,0.18528 -0.410968,-0.0169 -0.494559,-0.10052 -0.213138,-0.21313 z m 182.882193,-3.28248 c 0.0254,-0.8926 0.16412,-1.07779 0.74314,-0.99188 0.85383,0.12668 1.24072,0.98757 0.44382,0.98757 -0.30721,0 -0.51888,0.1786 -0.47037,0.39688 0.0485,0.21828 -0.0999,0.46619 -0.3298,0.5509 -0.26925,0.0992 -0.40689,-0.23653 -0.38679,-0.94347 z M 36.009652,174.12313 c -0.616271,-0.79228 -1.273133,-1.54747 -1.459699,-1.67821 -0.207095,-0.14512 -0.15807,-0.45595 0.125885,-0.7981 0.566028,-0.68202 1.195405,-0.26441 2.027989,1.34563 0.30341,0.58673 0.769193,1.28432 1.035071,1.5502 0.635977,0.63597 0.612344,1.02099 -0.06267,1.02099 -0.300351,0 -1.050311,-0.64823 -1.666578,-1.44051 z m 245.100168,0.49975 c -0.11992,-0.19403 -0.0499,-0.35278 0.15556,-0.35278 0.20548,0 0.3736,0.15875 0.3736,0.35278 0,0.19403 -0.07,0.35278 -0.15557,0.35278 -0.0856,0 -0.25368,-0.15875 -0.37359,-0.35278 z m 8.13656,-0.45619 c 0.13248,-0.34791 0.32974,-0.54371 0.43836,-0.43509 0.10862,0.10862 2.2e-4,0.39327 -0.24087,0.63258 -0.34841,0.34581 -0.38893,0.30529 -0.19749,-0.19749 z m -2.82022,-1.97332 c -0.085,-0.13751 -0.0283,-0.45418 0.12589,-0.70372 0.21638,-0.3501 0.33133,-0.321 0.5034,0.1274 0.13193,0.3438 0.40409,0.47684 0.66646,0.3258 0.2439,-0.14042 0.31981,-0.11943 0.16867,0.0466 -0.35993,0.3955 -1.26786,0.5219 -1.46442,0.20387 z m -0.002,-2.75875 c -0.19144,-0.50278 -0.15092,-0.5433 0.19749,-0.19748 0.24109,0.2393 0.34948,0.52396 0.24087,0.63257 -0.10862,0.10862 -0.30588,-0.0872 -0.43836,-0.43509 z m -1.25728,-0.0826 c 0,-0.18257 0.15693,-0.42895 0.34874,-0.54749 0.19997,-0.12359 0.25911,0.018 0.13864,0.33196 -0.23452,0.61116 -0.48738,0.72298 -0.48738,0.21553 z m -11.18597,-1.75099 c -0.3607,-0.57759 -0.30689,-0.70013 0.38361,-0.87344 0.44175,-0.11087 1.21265,-0.58107 1.71312,-1.04488 0.53887,-0.49941 1.08657,-0.73413 1.34308,-0.5756 0.44378,0.27427 2.83068,-0.55133 3.17536,-1.09831 0.10544,-0.16732 0.50231,-0.35281 0.88195,-0.4122 1.19632,-0.18715 2.60745,-1.89605 2.41987,-2.9305 -0.0982,-0.54156 -0.0258,-0.82966 0.17694,-0.70434 0.18872,0.11663 0.49042,-0.0511 0.67045,-0.37284 0.55203,-0.98643 0.73349,1.51179 0.1864,2.56631 -0.2587,0.49864 -0.47037,1.26592 -0.47037,1.70505 0,1.31048 -0.93245,1.78014 -3.81318,1.92062 -0.25398,0.0124 -0.37937,0.15588 -0.27864,0.31887 0.10073,0.16298 -0.68365,0.45345 -1.74307,0.64547 -1.26385,0.22909 -1.92622,0.22962 -1.92622,0.001 0,-0.19116 -0.36224,0.074 -0.80498,0.58925 -0.95567,1.11219 -1.35104,1.16691 -1.91432,0.26497 z m 11.26814,-1.41543 c 0.23305,-0.30721 0.46866,-0.62471 0.52356,-0.70556 0.0549,-0.0808 0.0998,0.17052 0.0998,0.55857 0,0.38862 -0.23519,0.70556 -0.52357,0.70556 -0.42087,0 -0.44045,-0.10957 -0.0998,-0.55857 z m 1.68597,-2.154 c 0.44474,-0.83102 0.58371,-0.87474 0.58371,-0.18363 0,0.28269 -0.21534,0.59662 -0.47853,0.69761 -0.37536,0.14404 -0.39804,0.0332 -0.10518,-0.51398 z m -126.82786,-1.40317 c -0.67323,-0.2893 -0.66918,-0.30433 0.0882,-0.32799 0.43657,-0.0137 0.79375,0.13396 0.79375,0.32799 0,0.19402 -0.0397,0.34161 -0.0882,0.32798 -0.0485,-0.0137 -0.40569,-0.16123 -0.79375,-0.32798 z m -4.67571,-1.85209 c -0.20073,-0.2512 -0.22999,-0.7446 -0.068,-1.14653 0.28985,-0.7191 0.36019,-0.60903 0.50722,0.79375 0.0959,0.91511 0.0437,0.95708 -0.43923,0.35278 z m 133.52191,-1.36669 c 0.2393,-0.2411 0.52396,-0.34949 0.63258,-0.24087 0.10861,0.10862 -0.0872,0.30588 -0.4351,0.43835 -0.50277,0.19145 -0.54329,0.15093 -0.19748,-0.19748 z m -3.59893,-1.29737 c -0.36893,-0.36894 -0.17871,-1.7548 0.29481,-2.14779 0.36673,-0.30436 0.58773,-0.27336 0.92192,0.12931 0.24175,0.2913 0.58032,0.44264 0.75236,0.33631 0.17204,-0.10633 0.3128,-0.0437 0.3128,0.13913 0,0.18285 0.35026,0.42404 0.77835,0.53599 0.42809,0.11195 0.69285,0.28904 0.58836,0.39352 -0.29553,0.29554 -3.43814,0.82398 -3.6486,0.61353 z m -5.47922,-1.96705 c 0,-0.0733 0.27782,-0.35107 0.61736,-0.61736 0.55953,-0.43881 0.57201,-0.42633 0.1332,0.13319 -0.46086,0.58764 -0.75056,0.77452 -0.75056,0.48417 z m -137.23055,-6.21511 c -0.29104,-0.18902 -0.37042,-0.34853 -0.17639,-0.35447 0.19403,-0.006 0.11881,-0.15876 -0.16714,-0.3396 -0.44421,-0.28091 -0.41461,-0.4471 0.20324,-1.14113 0.70449,-0.79134 0.77077,-2.00261 0.11442,-2.09115 -0.1798,-0.0243 -0.52317,-0.0639 -0.76305,-0.0882 -0.23987,-0.0243 -0.49637,-0.3616 -0.56998,-0.74965 -0.0736,-0.38806 -0.3139,-0.82219 -0.53399,-0.96474 -0.27773,-0.17988 -0.2537,-0.26083 0.0786,-0.26458 0.27974,-0.003 0.39431,-0.22535 0.27565,-0.53457 -0.11168,-0.29104 -0.089,-0.5424 0.0505,-0.55857 0.13943,-0.0162 0.5917,-0.0676 1.00505,-0.11432 1.04473,-0.11806 1.82954,0.54598 1.98087,1.67604 0.0704,0.5256 0.25291,0.91178 0.4056,0.85819 0.1527,-0.0536 0.50532,0.33711 0.78361,0.86825 0.27829,0.53114 0.97821,1.2099 1.55538,1.50837 0.57716,0.29846 1.04939,0.67789 1.04939,0.84318 0,0.61909 -1.19224,1.25567 -2.42668,1.29568 -0.70262,0.0228 -1.51561,0.14345 -1.80666,0.26817 -0.29104,0.12472 -0.76729,0.0721 -1.05833,-0.11691 z m -4.95748,-1.0253 c -0.79714,-0.30989 -0.68145,-1.89753 0.17513,-2.40348 0.76255,-0.45041 2.40356,-0.598 2.75388,-0.24768 0.11319,0.11319 -0.004,0.70352 -0.25926,1.31184 -0.47522,1.13022 -1.66818,1.72869 -2.66975,1.33932 z m 166.5297,-1.76087 c 0,-0.17327 0.26058,-0.41503 0.57906,-0.53724 0.48418,-0.1858 0.50601,-0.13418 0.1332,0.31503 -0.50805,0.61216 -0.71226,0.67587 -0.71226,0.22221 z m 0.70555,-1.24764 c 0,-0.097 0.3175,-0.34631 0.70556,-0.55399 0.38806,-0.20769 0.70556,-0.29823 0.70556,-0.20122 0,0.097 -0.3175,0.34631 -0.70556,0.55399 -0.38806,0.20768 -0.70556,0.29823 -0.70556,0.20122 z M -4.3578028,143.42243 c -0.341705,-0.38904 -0.24868,-0.52577 0.482599,-0.70931 0.498245,-0.12505 0.993,-0.14026 1.099457,-0.0338 0.1064571,0.10646 0.00835,0.19356 -0.218016,0.19356 -0.226366,0 -0.411574,0.23813 -0.411574,0.52917 0,0.65154 -0.390765,0.6599 -0.952466,0.0204 z m 9.7719101,-2.6773 c 0,-0.18794 0.238125,-0.3417 0.5291667,-0.3417 0.2910416,0 0.5291666,0.0624 0.5291666,0.13864 0,0.0763 -0.238125,0.23003 -0.5291666,0.34171 -0.2910417,0.11168 -0.5291667,0.0493 -0.5291667,-0.13865 z m 97.2784727,0.12067 c -0.33955,-0.0887 -0.61736,-0.28642 -0.61736,-0.43932 0,-0.15289 -0.3769,-0.20594 -0.83755,-0.11788 -0.51114,0.0977 -1.0267,-0.0685 -1.322918,-0.42653 -0.266954,-0.32264 -0.74924,-0.83692 -1.071753,-1.14284 -0.322509,-0.30592 -0.508959,-0.81069 -0.414334,-1.12171 0.134691,-0.4427 0.08586,-0.43143 -0.224896,0.0519 -0.454437,0.70678 -1.110925,0.83064 -0.979247,0.18476 0.04851,-0.23792 -0.268993,-0.48709 -0.705556,-0.5537 -0.610743,-0.0932 -0.79375,-0.35466 -0.79375,-1.13408 0,-0.55714 -0.183278,-1.12625 -0.407285,-1.2647 -0.272521,-0.16842 -0.314442,-0.0878 -0.126693,0.24377 0.166207,0.2935 0.01993,0.24994 -0.358849,-0.10687 -0.736505,-0.69378 -0.965624,-2.50804 -0.28369,-2.24635 0.276186,0.10598 0.357653,-0.0347 0.223114,-0.38531 -0.178841,-0.46605 -0.09345,-0.48884 0.547134,-0.14601 0.496799,0.26588 0.759047,0.28006 0.759047,0.041 0,-0.20085 0.15875,-0.36519 0.352778,-0.36519 0.194028,0 0.352778,0.25756 0.352778,0.57236 0,0.46877 0.09577,0.49288 0.529166,0.1332 0.291042,-0.24155 0.526736,-0.69755 0.523766,-1.01334 -0.0041,-0.43167 -0.07672,-0.46176 -0.292788,-0.12124 -0.448455,0.70676 -1.376123,0.14409 -1.275387,-0.77359 0.08046,-0.73295 0.0089,-0.77519 -0.725971,-0.4284 -0.448373,0.2116 -0.740032,0.50639 -0.64813,0.65509 0.0919,0.1487 -0.0558,0.27037 -0.328218,0.27037 -0.633017,0 -1.744729,-1.21179 -1.414585,-1.54193 0.13747,-0.13747 -0.08933,-0.33867 -0.503996,-0.44711 -0.830714,-0.21723 -1.372154,-1.18683 -0.844766,-1.51277 0.504663,-0.3119 -0.301289,-1.16603 -1.839482,-1.94945 -1.12783,-0.57441 -2.108535,-0.69154 -5.907376,-0.70555 -2.505273,-0.009 -4.555783,-0.13587 -4.556693,-0.28139 -0.0011,-0.14552 0.310868,-0.26458 0.692834,-0.26458 0.47238,0 0.629543,-0.16923 0.491423,-0.52917 -0.246376,-0.64204 -1.059395,-0.69698 -1.305048,-0.0882 -0.14235,0.35278 -0.183505,0.35278 -0.205786,0 -0.01531,-0.24253 -0.197298,-0.44097 -0.404403,-0.44097 -0.21601,0 -0.281076,0.30081 -0.152616,0.70556 0.128461,0.40474 0.06339,0.70555 -0.152615,0.70555 -0.207105,0 -0.336864,-0.19122 -0.288357,-0.42493 0.04851,-0.23372 -0.147757,-0.43216 -0.436139,-0.44098 -0.288385,-0.009 -0.575035,-0.27929 -0.637,-0.60105 -0.133985,-0.69572 1.331835,-1.1078 3.407473,-0.95794 0.882319,0.0637 1.669944,-0.12113 2.208474,-0.51826 0.460378,-0.33951 0.638616,-0.52119 0.396081,-0.40374 -0.255528,0.12374 -0.440972,-0.0177 -0.440972,-0.33644 0,-0.3058 -0.298595,-0.54999 -0.672529,-0.54999 -0.513796,0 -0.631468,-0.18734 -0.498563,-0.79375 0.130013,-0.59323 0.08599,-0.66918 -0.174247,-0.30067 -0.191516,0.2712 -0.800601,0.52416 -1.353521,0.56215 -1.734777,0.11917 -1.933606,0.17187 -1.752723,0.46454 0.09689,0.15678 -0.474595,0.32345 -1.269979,0.37038 -0.795383,0.0469 -1.725609,0.23489 -2.067168,0.41769 -0.428029,0.22907 -0.684678,0.19619 -0.825867,-0.1058 -0.156249,-0.3342 -0.252102,-0.33824 -0.404029,-0.017 -0.109548,0.23164 -0.427048,0.33372 -0.705556,0.22684 -0.341242,-0.13094 -0.506374,0.0481 -0.506374,0.54899 0,0.42552 -0.226229,0.7433 -0.529166,0.7433 -0.291042,0 -0.529167,-0.23359 -0.529167,-0.51908 0,-0.46316 -2.070922,-1.32488 -2.440047,-1.01531 -0.266644,0.22362 0.231316,0.51297 0.979861,0.56935 0.404926,0.0305 0.817926,0.26836 0.917776,0.52857 0.09985,0.26021 0.05108,0.39247 -0.108391,0.29392 -0.159466,-0.0986 -0.289941,0.0368 -0.289941,0.30082 0,0.28137 0.218602,0.39613 0.528243,0.27731 0.34339,-0.13177 0.438979,-0.0583 0.273162,0.21002 -0.33474,0.54162 -1.360519,0.52683 -1.958526,-0.0282 -0.380288,-0.35298 -0.425101,-0.35248 -0.224586,0.002 0.144579,0.25595 0.01817,0.53263 -0.298997,0.65433 -0.302228,0.11597 -0.473614,0.33365 -0.380866,0.48372 0.09275,0.15007 -0.330895,0.37277 -0.941433,0.49487 -0.769158,0.15384 -1.300092,0.05 -1.728816,-0.33794 -0.4211,-0.38109 -0.825323,-0.46353 -1.265452,-0.25807 -0.512216,0.2391 -2.747458,0.31992 -3.83412,0.13863 -0.10384,-0.0173 -0.0028,-0.38869 0.224173,-0.82525 0.227136,-0.43656 0.285083,-0.67413 0.128767,-0.52793 -0.156315,0.1462 -0.665892,0.0157 -1.132395,-0.28994 -0.638175,-0.41814 -1.087639,-0.47228 -1.81526,-0.21863 -0.670793,0.23384 -1.211513,0.20631 -1.764926,-0.0899 l -0.797853,-0.42699 0.821065,-0.61017 c 0.689356,-0.51229 0.707884,-0.57068 0.115507,-0.36405 -1.378419,0.48083 -2.645833,0.57805 -2.645833,0.20295 0,-0.51382 2.413458,-1.14245 3.418088,-0.8903 0.550993,0.13829 0.816995,0.0493 0.820646,-0.2746 0.0042,-0.3709 0.08392,-0.35961 0.352778,0.05 0.262756,0.40026 0.415032,0.42477 0.625108,0.10061 0.167206,-0.25801 1.069855,-0.4191 2.268188,-0.40479 1.094754,0.0131 2.168535,-0.0863 2.386189,-0.2208 0.217653,-0.13452 0.809385,0.20177 1.314961,0.74729 0.505577,0.54553 0.842292,0.76105 0.748256,0.47894 -0.26973,-0.80918 1.416096,-1.47434 3.980529,-1.57054 1.283039,-0.0481 2.486325,-0.1824 2.673971,-0.29837 0.500708,-0.30946 3.263699,-0.14403 3.061402,0.18329 -0.09477,0.15335 0.511743,0.27638 1.347812,0.27341 1.004231,-0.004 1.355037,-0.10997 1.033678,-0.31351 -0.307767,-0.19493 0.382658,-0.32114 1.879667,-0.3436 1.301362,-0.0195 2.472764,-0.0967 2.603115,-0.17152 0.130348,-0.0748 0.5545,-0.008 0.942555,0.14783 0.536141,0.21568 0.56769,0.28979 0.131389,0.30863 -0.315789,0.0136 -0.755696,0.24353 -0.977572,0.51087 -0.636616,0.76708 0.39424,0.89411 5.142512,0.63374 0.616733,-0.0338 1.360671,-0.30083 1.653201,-0.59336 0.295427,-0.29542 0.622403,-0.38539 0.735514,-0.20237 0.120699,0.19528 0.630805,0.20697 1.252456,0.0287 0.576852,-0.16544 1.129475,-0.1703 1.228055,-0.0108 0.09858,0.1595 0.854784,0.24287 1.680453,0.18526 0.825666,-0.0576 1.730125,0.078 2.009906,0.30136 0.395965,0.31611 0.448045,0.30525 0.235024,-0.049 -0.205518,-0.34178 -0.05626,-0.40055 0.599352,-0.236 0.480158,0.12051 0.974792,0.0544 1.099188,-0.14684 0.252166,-0.40801 1.297171,-0.12517 1.697482,0.45944 0.168857,0.2466 0.261063,0.2105 0.264583,-0.1036 0.0035,-0.30762 0.260782,-0.41534 0.710962,-0.29761 0.38805,0.10147 0.70555,0.0142 0.70555,-0.19404 0,-0.20821 0.10446,-0.2741 0.23213,-0.14643 0.12767,0.12767 0.44517,0.0553 0.70555,-0.16079 0.3504,-0.2908 0.61095,-0.27878 1.0026,0.0463 0.42916,0.35617 0.52917,0.34211 0.52917,-0.0744 0,-0.28246 0.23114,-0.51356 0.51364,-0.51356 0.28251,0 0.444,0.11271 0.35886,0.25046 -0.24263,0.39258 2.80024,0.20389 3.09084,-0.19166 0.14286,-0.19445 0.26161,-0.0454 0.26459,0.332 0.005,0.66022 0.0224,0.6615 0.48001,0.0357 0.47303,-0.6469 2.54373,-1.14685 2.15677,-0.52073 -0.11197,0.18117 -0.0355,0.32939 0.17002,0.32939 0.20548,0 0.3736,-0.15874 0.3736,-0.35277 0,-0.19403 0.48562,-0.35278 1.07915,-0.35278 0.72589,0 0.99676,0.13333 0.82744,0.40728 -0.16925,0.27385 -0.0951,0.3105 0.22628,0.11187 0.6576,-0.40642 4.38072,-0.50303 4.97109,-0.12899 0.3245,0.20559 0.0794,0.30999 -0.75396,0.32121 -0.6791,0.009 -1.54288,0.2497 -1.91951,0.53457 -0.772,0.58391 -0.47856,0.69338 0.48144,0.1796 0.34771,-0.18609 1.19341,-0.37614 1.87932,-0.42234 0.93563,-0.063 1.19719,-0.21408 1.04724,-0.60484 -0.14642,-0.38155 -0.0343,-0.4573 0.41939,-0.28322 0.3406,0.1307 0.72535,0.24007 0.855,0.24304 0.12965,0.003 -0.002,0.15929 -0.29344,0.34737 -0.45222,0.29226 -0.4394,0.34276 0.0882,0.34738 0.33955,0.003 0.61736,-0.23272 0.61736,-0.52376 0,-0.29105 0.25756,-0.52917 0.57236,-0.52917 0.44721,0 0.48384,0.10667 0.16751,0.48782 -0.40317,0.48579 -0.0654,0.62418 2.55153,1.04541 0.35506,0.0571 0.78919,0.33086 0.96474,0.60826 0.17554,0.27739 0.3216,0.34035 0.32457,0.13992 0.008,-0.54203 1.78003,-0.36349 2.14701,0.21632 0.28654,0.45271 0.477,0.21089 0.36961,-0.46926 -0.023,-0.14552 1.10916,-0.24471 2.51586,-0.22043 2.36616,0.0408 2.43879,0.0636 0.97014,0.30371 -0.87312,0.14275 -1.78796,0.1845 -2.03296,0.0928 -0.554,-0.20742 -1.55778,0.58321 -1.29017,1.01621 0.10829,0.17521 0.34466,0.22723 0.52529,0.1156 0.18062,-0.11163 0.3284,-0.0348 0.3284,0.17063 0,0.20548 -0.23813,0.3736 -0.52917,0.3736 -0.29104,0 -0.52917,-0.13424 -0.52917,-0.2983 0,-0.36216 -1.41619,-0.31679 -2.02847,0.065 -0.24253,0.15123 -0.44097,0.45609 -0.44097,0.67747 0,0.29901 0.10461,0.2979 0.40682,-0.004 0.45404,-0.45403 1.70985,0.0246 1.70985,0.65172 0,0.19866 -0.13644,0.27687 -0.30319,0.17381 -0.16675,-0.10306 -0.26011,0.20507 -0.20745,0.68473 0.0526,0.47967 -0.049,0.87212 -0.22598,0.87212 -0.17695,0 -0.32172,-0.18521 -0.32172,-0.41158 0,-0.22636 -0.10486,-0.30671 -0.23302,-0.17855 -0.12816,0.12817 0.0703,0.57879 0.44097,1.00138 0.3707,0.4226 0.48487,0.65808 0.25371,0.52329 -0.28837,-0.16814 -0.39911,0.062 -0.35278,0.73311 0.0586,0.84932 -0.0487,0.965 -0.81443,0.87815 -1.03408,-0.11729 -2.15777,1.20575 -1.30275,1.53385 0.26241,0.1007 0.45051,0.53366 0.418,0.96213 -0.0425,0.56015 -0.27345,0.76718 -0.82191,0.73681 -0.41953,-0.0232 -0.76279,0.0589 -0.76279,0.1825 0,0.12361 -0.54417,0.19915 -1.20928,0.16787 -0.86168,-0.0405 -1.15881,0.0747 -1.03367,0.40078 0.12761,0.33255 -0.35254,0.49108 -1.75646,0.57993 -1.06264,0.0673 -1.84794,-0.0133 -1.74512,-0.17891 0.10283,-0.16564 -0.21882,-0.0353 -0.71476,0.28966 -0.70609,0.46264 -1.05994,0.50616 -1.63094,0.20057 -0.5254,-0.28119 -0.72921,-0.28238 -0.72921,-0.004 0,0.2123 -0.14212,0.29817 -0.31581,0.19082 -0.1737,-0.10735 -0.39995,0.0241 -0.50278,0.29203 -0.13293,0.34643 0.0348,0.4424 0.5804,0.33214 0.44277,-0.0895 0.19925,0.15918 -0.5757,0.58785 -0.73869,0.40862 -1.61181,0.69877 -1.94028,0.64479 -0.32847,-0.054 -0.82019,0.0415 -1.0927,0.21213 -0.32526,0.20369 -0.41558,0.18101 -0.2629,-0.066 0.13541,-0.2191 -0.0181,-0.33953 -0.36734,-0.28827 -0.32996,0.0484 -0.66144,0.27262 -0.73664,0.4982 -0.0752,0.22558 -0.34346,0.41015 -0.59616,0.41015 -0.87657,0 -2.19192,0.90189 -2.11178,1.44798 0.0443,0.30191 -0.23554,0.74635 -0.6219,0.98763 -0.57264,0.35762 -0.65821,0.35239 -0.463,-0.0283 0.13171,-0.25685 0.0135,-0.19167 -0.26255,0.14487 -0.27611,0.33653 -0.60538,0.50851 -0.73172,0.38217 -0.12633,-0.12633 -0.2297,-0.0577 -0.2297,0.15248 0,0.21019 0.19844,0.4648 0.44098,0.5658 0.31847,0.13261 0.26428,0.32688 -0.19509,0.69932 -0.478,0.38755 -0.52183,0.56146 -0.17639,0.69987 0.25282,0.10129 0.0931,0.1967 -0.3549,0.21202 -0.44813,0.0153 -0.71649,0.18655 -0.59654,0.38062 0.11992,0.19403 0.16897,0.33437 0.10901,0.31186 -0.06,-0.0225 -0.38682,-0.11352 -0.72637,-0.20226 z m -5.027086,-5.40126 c -0.119916,-0.19403 -0.02346,-0.35278 0.214365,-0.35278 0.237818,0 0.337122,-0.0953 0.220681,-0.21171 -0.316869,-0.31687 -1.007347,0.20929 -0.772757,0.58886 0.11163,0.18063 0.282335,0.32841 0.379349,0.32841 0.09701,0 0.07828,-0.15875 -0.04164,-0.35278 z m 22.053896,-4.49791 c 0.005,-0.52759 0.0551,-0.54042 0.34737,-0.0882 0.20548,0.31795 0.34413,0.36147 0.34738,0.10901 0.01,-0.76863 -0.65927,-0.84457 -1.04764,-0.11889 -0.25784,0.48177 -0.26362,0.71543 -0.0177,0.71543 0.20085,0 0.36762,-0.27781 0.37059,-0.61736 z m -0.71096,-0.79375 c 0,-0.19403 -0.07,-0.35278 -0.15557,-0.35278 -0.0856,0 -0.25368,0.15875 -0.3736,0.35278 -0.11991,0.19403 -0.0499,0.35278 0.15557,0.35278 0.20548,0 0.3736,-0.15875 0.3736,-0.35278 z m -23.3856,-1.129 c -0.695036,-0.44171 -0.956067,-0.32528 -0.956067,0.42644 0,0.61543 0.09087,0.65179 0.691483,0.2767 0.498867,-0.31154 0.572569,-0.50741 0.264584,-0.70314 z m 26.27864,0.50585 c -0.23298,-0.0777 -0.4236,-0.28174 -0.4236,-0.45351 0,-0.17177 0.22207,-0.22709 0.49349,-0.12294 0.27141,0.10415 0.61344,-0.005 0.76006,-0.24197 0.17047,-0.27582 0.11974,-0.34058 -0.1407,-0.17961 -0.22401,0.13844 -0.40729,0.0836 -0.40729,-0.12189 0,-0.20547 -0.39687,-0.37359 -0.88194,-0.37359 -0.60271,0 -0.88366,0.19546 -0.88735,0.61736 -0.005,0.52759 -0.0551,0.54042 -0.34738,0.0882 -0.20548,-0.31795 -0.34413,-0.36147 -0.34737,-0.10901 -0.009,0.70292 0.63619,0.86622 0.98188,0.2485 0.27449,-0.49049 0.36184,-0.43449 0.56119,0.35979 0.14976,0.5967 0.38722,0.84729 0.64935,0.68528 0.31352,-0.19376 0.31102,-0.28948 -0.0103,-0.3966 z m -2.99898,-1.80775 c 0.35551,-0.56925 0.32485,-0.64304 -0.20912,-0.5034 -0.34412,0.09 -0.62568,0.39015 -0.62568,0.66702 0,0.69596 0.33955,0.6294 0.8348,-0.16362 z m 1.69344,-0.39132 c 0.11992,-0.19403 0.0499,-0.35278 -0.15557,-0.35278 -0.20548,0 -0.3736,0.15875 -0.3736,0.35278 0,0.19403 0.07,0.35278 0.15557,0.35278 0.0856,0 0.25368,-0.15875 0.3736,-0.35278 z m 4.64631,-2.61617 c -0.12892,-0.33594 -0.43407,-0.4609 -0.79101,-0.32393 -0.53611,0.20572 -0.53657,0.24795 -0.006,0.5449 0.31636,0.17704 0.4692,0.51058 0.33964,0.74119 -0.18141,0.3229 -0.1318,0.32337 0.21581,0.002 0.24826,-0.22949 0.35693,-0.66338 0.2415,-0.96419 z m -3.41159,0.34394 c 0,-0.37235 -0.67702,-0.52879 -0.87839,-0.20297 -0.12187,0.1972 0.0259,0.35854 0.3284,0.35854 0.3025,0 0.54999,-0.07 0.54999,-0.15557 z m 1.94028,-0.90277 c 0.11992,-0.19403 0.0499,-0.35278 -0.15557,-0.35278 -0.20548,0 -0.3736,0.15875 -0.3736,0.35278 0,0.19403 0.07,0.35278 0.15557,0.35278 0.0856,0 0.25368,-0.15875 0.3736,-0.35278 z m -60.680275,-0.70151 c 0.123592,-0.19998 -0.01803,-0.25912 -0.331957,-0.13865 -0.611159,0.23453 -0.722979,0.48738 -0.215533,0.48738 0.182577,0 0.428949,-0.15693 0.54749,-0.34873 z m 6.528886,-0.84824 c 0,-0.0763 -0.246369,-0.23319 -0.54749,-0.34874 -0.313944,-0.12047 -0.455549,-0.0613 -0.331956,0.13864 0.207172,0.33522 0.879446,0.49581 0.879446,0.2101 z m 15.779457,-1.13283 c -0.117224,-0.11722 -0.421499,-0.12976 -0.676158,-0.0279 -0.281422,0.11262 -0.197831,0.19621 0.213137,0.21314 0.371885,0.0153 0.580246,-0.0681 0.463021,-0.18529 z m 27.698202,-1.43234 c -0.24374,-0.0983 -0.33827,-0.34839 -0.21007,-0.55583 0.13893,-0.22479 0.0662,-0.27403 -0.17995,-0.12188 -0.48567,0.30017 -0.19404,0.92447 0.41304,0.88423 0.30073,-0.0199 0.29418,-0.0786 -0.023,-0.20652 z m 4.14734,-0.11841 c 0,-0.19403 -0.07,-0.35278 -0.15557,-0.35278 -0.0856,0 -0.25368,0.15875 -0.3736,0.35278 -0.11991,0.19403 -0.0499,0.35278 0.15557,0.35278 0.20548,0 0.3736,-0.15875 0.3736,-0.35278 z m 8.59485,17.05538 c -0.43113,-0.22391 -0.87446,-0.31651 -0.98519,-0.20578 -0.11073,0.11073 -0.20133,-0.05 -0.20133,-0.35724 0,-0.30721 -0.19843,-0.63864 -0.44097,-0.7365 -0.45972,-0.18551 -0.11543,-0.24244 2.55764,-0.42293 0.87313,-0.0589 1.5875,-0.13097 1.5875,-0.16005 0,-0.26053 3.62745,-0.21124 3.94778,0.0536 0.70411,0.58222 0.13952,1.3751 -0.80956,1.1369 -0.51095,-0.12824 -0.84516,-0.0575 -0.84516,0.1789 0,0.21506 -0.16812,0.39102 -0.3736,0.39102 -0.20548,0 -0.2657,-0.17459 -0.13382,-0.38797 0.16853,-0.27268 0.0175,-0.26899 -0.50834,0.0124 -0.41148,0.22021 -0.74813,0.48354 -0.74813,0.58518 0,0.10164 0.19844,0.0706 0.44097,-0.069 0.24253,-0.13957 0.32465,-0.12523 0.18248,0.0319 -0.39712,0.43885 -2.79152,0.40592 -3.67027,-0.0505 z m 72.89682,-6.91803 c -0.48507,-0.21902 -0.94342,-0.44173 -1.01856,-0.49491 -0.37448,-0.26503 2.07667,-2.05772 2.81354,-2.05772 0.61215,0 0.83548,-0.18293 0.79607,-0.65206 -0.0453,-0.53905 0.14913,-0.62825 1.12178,-0.5147 0.64711,0.0755 1.10391,0.0198 1.01511,-0.12386 -0.0888,-0.14368 0.35891,-0.35243 0.99489,-0.46389 0.63598,-0.11146 1.90667,-0.33641 2.82374,-0.4999 0.91708,-0.16348 1.59533,-0.1806 1.50723,-0.038 -0.0881,0.14256 -0.98807,0.36901 -1.99993,0.50324 -2.15336,0.28565 -2.66642,0.52758 -2.00612,0.94597 0.36344,0.23029 0.30882,0.31464 -0.22692,0.35048 -0.38806,0.026 -0.90399,0.0214 -1.14653,-0.0101 -0.24253,-0.0315 -0.44097,0.10844 -0.44097,0.31098 0,0.20253 -0.20284,0.36824 -0.45077,0.36824 -0.55867,0 -1.6875,1.27191 -1.39152,1.56789 0.11903,0.11903 0.25069,0.44995 0.29258,0.73537 0.0919,0.62592 -1.37095,0.66569 -2.68362,0.073 z M 48.608496,128.96191 c -0.791485,-0.58417 -0.423316,-1.17949 0.885303,-1.43151 1.712718,-0.32984 2.96957,1.27796 1.340326,1.71458 -1.169017,0.31328 -1.469401,0.27508 -2.225629,-0.28307 z m 237.087434,-1.25847 c -0.11992,-0.19403 -0.0499,-0.35278 0.15556,-0.35278 0.20548,0 0.3736,0.15875 0.3736,0.35278 0,0.19403 -0.07,0.35278 -0.15556,0.35278 -0.0856,0 -0.25369,-0.15875 -0.3736,-0.35278 z M 61.409238,126.50079 c -0.597446,-0.45331 -0.596681,-0.48221 0.017,-0.64269 0.441392,-0.11543 0.658012,0.0367 0.691847,0.48587 0.05787,0.7682 0.08811,0.76151 -0.708861,0.15682 z m 28.671414,0.14431 c -0.291042,-0.18808 -0.370417,-0.34197 -0.176389,-0.34197 0.194028,0 0.590903,0.15389 0.881944,0.34197 0.291042,0.18809 0.370417,0.34198 0.176389,0.34198 -0.194027,0 -0.590902,-0.15389 -0.881944,-0.34198 z m -54.856943,-0.31951 c -0.388056,-0.16377 -0.824618,-0.22887 -0.970139,-0.14469 -0.2973,0.17199 -0.367422,-0.72648 -0.07919,-1.0147 0.101967,-0.10197 0.975092,-0.0419 1.940277,0.13357 1.050982,0.19102 2.465635,0.18978 3.526819,-0.003 1.023538,-0.18603 1.853328,-0.19035 1.964654,-0.0102 0.105999,0.17151 0.329537,0.22728 0.49675,0.12394 0.167213,-0.10335 0.40374,-0.0266 0.525611,0.17063 0.233055,0.37709 0.01986,0.41879 -2.818666,0.55125 -0.970139,0.0453 -2.240139,0.17428 -2.822222,0.28669 -0.582084,0.11241 -1.375834,0.0704 -1.763889,-0.0934 z m 21.76733,0.0334 c -0.873238,-0.5825 0.413068,-1.16863 2.005743,-0.91395 1.344535,0.215 2.065027,0.84733 0.965468,0.84733 -0.266788,0 -0.941476,0.0837 -1.499306,0.18596 -0.55783,0.10228 -1.220187,0.0486 -1.471905,-0.11934 z m 7.804855,-0.2441 c -0.497109,-0.36349 -0.326153,-0.42265 1.055099,-0.36511 1.547325,0.0645 2.719063,0.48882 1.622485,0.58761 -0.274874,0.0248 -0.856301,0.0824 -1.292063,0.12815 -0.435758,0.0457 -1.059243,-0.11207 -1.385521,-0.35065 z m 217.107676,0.26589 c -1.36515,-0.3099 -0.48287,-0.741 1.76388,-0.86188 2.4853,-0.13372 4.59189,0.17219 3.61598,0.52509 -0.73069,0.26423 -4.62545,0.50804 -5.37986,0.33679 z m -233.773684,-0.6552 c -0.598466,-0.25164 -1.088122,-0.55393 -1.088122,-0.67176 0,-0.11783 0.155469,-0.11816 0.345486,-7.1e-4 0.19002,0.11744 0.686114,0.0312 1.10243,-0.19158 0.579674,-0.31023 0.953164,-0.30009 1.594792,0.0433 0.460816,0.24662 0.837847,0.56182 0.837847,0.70044 0,0.49542 -1.723696,0.56969 -2.792433,0.12032 z m 5.004389,-0.16147 c -0.03193,-0.42397 0.120936,-0.66968 0.365901,-0.58812 0.600428,0.1999 0.743691,1.31634 0.168917,1.31634 -0.26398,0 -0.504645,-0.3277 -0.534818,-0.72822 z m 156.890815,-0.36314 c 0,-0.17586 0.3175,-0.31975 0.70556,-0.31975 0.38806,0 0.70556,0.0609 0.70556,0.13524 0,0.0744 -0.3175,0.21827 -0.70556,0.31975 -0.38806,0.10148 -0.70556,0.0406 -0.70556,-0.13524 z M 28.344542,124.92464 c 0,-0.1694 0.496094,-0.40722 1.102431,-0.52849 1.600824,-0.32017 2.148681,-0.27244 1.999798,0.17421 -0.155617,0.46685 -3.102229,0.80336 -3.102229,0.35428 z m 183.731078,-0.28441 c 0.25466,-0.10191 0.55893,-0.0894 0.67615,0.0279 0.11723,0.11723 -0.0911,0.2006 -0.46302,0.18529 -0.41097,-0.0169 -0.49456,-0.10052 -0.21313,-0.21314 z m -50.7,-1.045 c -0.94122,-0.65926 -0.94699,-1.18346 -0.013,-1.18346 0.39951,0 0.62827,-0.15875 0.50835,-0.35277 -0.38651,-0.62539 0.28214,-0.37565 1.18068,0.44097 0.48035,0.43656 0.76931,0.61194 0.64212,0.38974 -0.12719,-0.2222 0.0175,-0.49946 0.32152,-0.61612 1.09526,-0.42029 0.3371,0.9015 -0.78755,1.37303 -0.94284,0.39531 -1.22553,0.38746 -1.85208,-0.0514 z m -124.211634,-0.4779 c 0,-0.19403 0.32687,-0.35278 0.726377,-0.35278 0.399507,0 0.628262,0.15875 0.508346,0.35278 -0.119917,0.19403 -0.446786,0.35278 -0.726377,0.35278 -0.27959,0 -0.508346,-0.15875 -0.508346,-0.35278 z m 9.458854,-0.24099 c 0.25466,-0.10191 0.558931,-0.0894 0.676159,0.0279 0.117224,0.11723 -0.09114,0.20061 -0.463021,0.18529 -0.410968,-0.0169 -0.494559,-0.10052 -0.213138,-0.21314 z m 81.38142,-0.11179 c -0.11991,-0.19403 -0.0499,-0.35278 0.15557,-0.35278 0.20548,0 0.3736,0.15875 0.3736,0.35278 0,0.19403 -0.07,0.35278 -0.15557,0.35278 -0.0856,0 -0.25368,-0.15875 -0.3736,-0.35278 z m 31.75,0 c -0.11991,-0.19403 -0.0499,-0.35278 0.15557,-0.35278 0.20548,0 0.3736,0.15875 0.3736,0.35278 0,0.19403 -0.07,0.35278 -0.15557,0.35278 -0.0856,0 -0.25368,-0.15875 -0.3736,-0.35278 z m 87.48889,0 c -0.11992,-0.19403 -0.0499,-0.35278 0.15557,-0.35278 0.20548,0 0.3736,0.15875 0.3736,0.35278 0,0.19403 -0.07,0.35278 -0.15557,0.35278 -0.0856,0 -0.25368,-0.15875 -0.3736,-0.35278 z m -5.6199,-0.94518 c -0.16194,-0.42203 0.019,-0.47565 0.94594,-0.28033 1.66424,0.35067 1.94573,0.80218 0.50011,0.80218 -0.77417,0 -1.3216,-0.19756 -1.44605,-0.52185 z m -76.46708,-0.001 c 0.25466,-0.1019 0.55894,-0.0894 0.67616,0.0279 0.11723,0.11723 -0.0911,0.20061 -0.46302,0.18529 -0.41097,-0.0169 -0.49456,-0.10052 -0.21314,-0.21314 z m 4.31782,-0.13056 c 0.47145,-0.29827 3.1054,-0.49395 2.77449,-0.20613 -0.0809,0.0703 -0.85312,0.21818 -1.71616,0.32858 -1.01515,0.12986 -1.38881,0.0866 -1.05833,-0.12245 z m 70.00555,0.0228 c 0.12359,-0.19997 -0.018,-0.25912 -0.33196,-0.13864 -0.32813,0.12591 -0.54965,0.0183 -0.55289,-0.26863 -0.004,-0.37509 -0.0764,-0.36638 -0.33359,0.0402 -0.18051,0.28542 -0.4321,0.41505 -0.55909,0.28806 -0.53662,-0.53661 0.35172,-0.98339 1.95531,-0.98339 1.50368,0 1.71443,0.0892 1.668,0.70556 -0.0398,0.52784 -0.30605,0.70555 -1.05723,0.70555 -0.5718,0 -0.91129,-0.15014 -0.78855,-0.34873 z M 84.08343,119.43398 c 0,-0.30249 0.15875,-0.54998 0.352778,-0.54998 0.194027,0 0.352777,0.14938 0.352777,0.33195 0,0.18258 -0.15875,0.43007 -0.352777,0.54999 -0.194028,0.11992 -0.352778,-0.0295 -0.352778,-0.33196 z"
       id="path836"
    />
  </g>
</svg>
