<?xml version="1.0" encoding="UTF-8" standalone="no"?>
<svg
   width="307.20001"
   height="153.60001"
   viewBox="0 0 81.280006 40.640003"
   version="1.1"
   id="svg9"
   sodipodi:docname="earth map dark.svg"
   inkscape:version="1.1.1 (3bf5ae0d25, 2021-09-20)"
   xmlns:inkscape="http://www.inkscape.org/namespaces/inkscape"
   xmlns:sodipodi="http://sodipodi.sourceforge.net/DTD/sodipodi-0.dtd"
   xmlns="http://www.w3.org/2000/svg"
   xmlns:svg="http://www.w3.org/2000/svg">
  <defs
     id="defs13" />
  <sodipodi:namedview
     id="namedview11"
     pagecolor="#383838"
     bordercolor="#666666"
     borderopacity="1.0"
     inkscape:pageshadow="2"
     inkscape:pageopacity="0"
     inkscape:pagecheckerboard="0"
     showgrid="false"
     inkscape:zoom="2.8818283"
     inkscape:cx="93.170021"
     inkscape:cy="112.94913"
     inkscape:window-width="1920"
     inkscape:window-height="1001"
     inkscape:window-x="-9"
     inkscape:window-y="-9"
     inkscape:window-maximized="1"
     inkscape:current-layer="svg9" />
  <g
     transform="translate(-95.607246,-49.457172)"
     id="g7"
     style="fill:#90caf9;fill-opacity:0.03529412;stroke-opacity:1;stroke-width:0.02645833;stroke-miterlimit:4;stroke-dasharray:none"
     stroke="#90caf9">
    <g
       stroke="#90caf9"
       transform="matrix(0.99679396,0,0,1,0.44231777,0.02392522)"
       style="fill:#90caf9;fill-opacity:0.03529412;stroke-width:0.02650085;stroke-miterlimit:4;stroke-dasharray:none;stroke-opacity:1;stroke:#90caf9"
       id="g5">
      <path
         stroke="#90caf9"
         style="fill:#90caf9;fill-opacity:0.03529412;stroke-width:0.02650085;stroke-miterlimit:4;stroke-dasharray:none;stroke-opacity:1;stroke:#90caf9"
         d="m 127.57106,87.814639 c -0.018,-0.02914 0.0408,-0.05852 0.13072,-0.06529 0.0899,-0.0068 0.16347,0.01707 0.16347,0.05298 0,0.07789 -0.24727,0.08824 -0.29419,0.01231 z"
         id="path986" />
      <path
         stroke="#90caf9"
         style="fill:#90caf9;fill-opacity:0.03529412;stroke-width:0.02650085;stroke-miterlimit:4;stroke-dasharray:none;stroke-opacity:1;stroke:#90caf9"
         d="m 127.67334,87.716002 c 0.0574,-0.05786 0.12575,-0.08388 0.15182,-0.05781 0.0261,0.02607 -0.0209,0.07341 -0.10443,0.105205 -0.12066,0.04595 -0.13039,0.03622 -0.0474,-0.0474 z"
         id="path984" />
      <path
         stroke="#90caf9"
         style="fill:#90caf9;fill-opacity:0.03529412;stroke-width:0.02650085;stroke-miterlimit:4;stroke-dasharray:none;stroke-opacity:1;stroke:#90caf9"
         d="m 95.607246,89.477213 v -0.619964 l 0.5715,-0.08377 c 0.665279,-0.09752 1.486129,-0.05627 1.407631,0.07075 -0.03366,0.05446 0.101433,0.0745 0.37309,0.05533 0.23422,-0.01652 0.410391,-0.0051 0.39149,0.02536 -0.0189,0.03047 0.403783,0.05997 0.939296,0.06556 0.594853,0.0062 0.973657,-0.02255 0.973657,-0.07391 0,-0.04624 -0.0571,-0.06214 -0.127,-0.03533 -0.0699,0.0268 -0.127,0.0066 -0.127,-0.04499 0,-0.05155 -0.0594,-0.09372 -0.131994,-0.09372 -0.0726,0 -0.110804,-0.03429 -0.0849,-0.0762 0.0259,-0.04191 0.278334,-0.0762 0.560974,-0.0762 0.28263,0 0.53674,-0.02286 0.56468,-0.0508 0.0279,-0.02794 -0.0889,-0.0508 -0.25965,-0.0508 -0.17074,0 -0.31044,-0.02958 -0.31044,-0.06574 0,-0.03615 0.16192,-0.05307 0.35983,-0.03758 l 0.35984,0.02815 -0.19403,-0.155938 c -0.16877,-0.135637 -0.17428,-0.15682 -0.0423,-0.162711 0.26147,-0.01167 1.32391,-0.120809 1.62322,-0.166739 0.48018,-0.07369 0.18416,-0.188892 -0.64603,-0.251418 -0.43074,-0.03244 -0.78317,-0.09387 -0.78317,-0.136501 0,-0.04263 0.0422,-0.05145 0.0937,-0.01958 0.0631,0.03898 0.0751,-9.14e-4 0.0366,-0.122003 -0.053,-0.1671 -0.0269,-0.179936 0.36642,-0.179936 0.23294,0 0.53078,-0.0423 0.66187,-0.094 0.50961,-0.20098 1.21521,-0.320671 2.18083,-0.369932 0.55355,-0.02824 1.03268,-0.06755 1.06472,-0.08736 0.032,-0.01981 0.47344,-0.06123 0.98087,-0.09206 0.50742,-0.03083 0.9655,-0.08993 1.01793,-0.131345 0.16278,-0.128553 3.75034,0.0439 4.03216,0.193826 0.094,0.04999 0.20808,0.04676 0.31196,-0.0088 0.11055,-0.05917 0.23618,-0.06013 0.38651,-0.003 0.28869,0.109763 1.05836,0.109772 1.05836,1.3e-5 0,-0.04657 -0.0762,-0.160866 -0.16933,-0.254 -0.0931,-0.09313 -0.12898,-0.169333 -0.0797,-0.169333 0.0493,0 0.0661,-0.0381 0.0373,-0.08467 -0.0288,-0.04657 -0.002,-0.08719 0.0585,-0.09028 0.061,-0.0031 0.35848,-0.01978 0.66116,-0.0371 0.30269,-0.01731 0.66464,0.0036 0.80434,0.04655 0.37832,0.116225 1.24742,0.152924 1.42838,0.06032 0.10249,-0.05245 0.14034,-0.05185 0.10725,0.0017 -0.0296,0.04787 0.13559,0.103507 0.39194,0.132006 0.2437,0.02709 0.65168,0.08797 0.90662,0.135273 0.30118,0.05589 0.49245,0.05709 0.5461,0.0034 0.0454,-0.04541 0.16258,-0.08257 0.26037,-0.08257 0.0978,0 0.21671,-0.03891 0.26427,-0.08647 0.0586,-0.05856 0.27579,-0.0591 0.6731,-0.0017 0.81316,0.11753 0.84211,0.115953 0.71363,-0.03886 -0.058,-0.06985 -0.22456,-0.127584 -0.3702,-0.128297 -0.17232,-8.46e-4 -0.22628,-0.02573 -0.15449,-0.07126 0.13792,-0.08748 0.10036,-0.289713 -0.068,-0.365993 -0.10051,-0.04554 0.40668,-0.09434 0.6467,-0.06222 0.0297,0.004 0.0773,-0.0246 0.10583,-0.0635 0.0285,-0.0389 0.12684,-0.11225 0.21855,-0.162996 0.13379,-0.07403 0.19257,-0.06038 0.29738,0.06906 0.10963,0.135392 0.16887,0.146779 0.36858,0.07085 0.29564,-0.112402 0.28169,-0.397936 -0.0178,-0.364874 -0.12458,0.01375 -0.18137,-0.0166 -0.15844,-0.08467 0.0197,-0.05835 0.1467,-0.106687 0.28231,-0.107404 0.13562,-6.78e-4 0.30372,-0.03881 0.37357,-0.08464 0.0699,-0.04584 0.2032,-0.122576 0.29634,-0.170531 0.0931,-0.04795 0.17409,-0.13369 0.17991,-0.190523 0.0219,-0.214204 0.0365,-0.227009 0.11772,-0.103333 0.0523,0.07965 0.10704,0.09543 0.14687,0.04233 0.0349,-0.04657 0.1397,-0.09078 0.23283,-0.09825 0.0931,-0.0075 0.3646,-0.06944 0.60325,-0.137711 0.42883,-0.12267 0.43392,-0.121928 0.43392,0.06332 0,0.152167 -0.0382,0.180142 -0.20305,0.148633 -0.29162,-0.05575 -0.62153,0.308259 -0.50865,0.56123 0.0448,0.100346 0.13274,0.182446 0.19547,0.182446 0.16498,0 0.14019,0.165332 -0.0341,0.227467 -0.32761,0.11679 -0.3572,0.195398 -0.18737,0.497762 0.12423,0.221174 0.14351,0.339451 0.0818,0.501749 -0.0444,0.116795 -0.11978,0.212355 -0.1675,0.212355 -0.0477,0 -0.0868,0.0381 -0.0868,0.08467 0,0.04657 0.0549,0.08467 0.122,0.08467 0.0671,0 0.14076,0.03034 0.16368,0.06743 0.0229,0.03709 -0.11771,0.07143 -0.3125,0.07632 -0.1948,0.0049 -0.52563,0.01285 -0.73518,0.01768 -0.28073,0.0065 -0.34757,0.03061 -0.254,0.09172 0.10556,0.06893 0.0984,0.08337 -0.0423,0.08553 -0.0931,0.0014 -0.22574,0.03826 -0.29467,0.08185 -0.0936,0.05921 -0.0348,0.09373 0.23283,0.136524 0.197,0.0315 0.35817,0.09307 0.35817,0.136824 0,0.04375 -0.0759,0.05547 -0.16857,0.02605 -0.22159,-0.07033 -0.4008,0.03391 -0.24263,0.141122 0.0796,0.05398 0.037,0.07049 -0.13913,0.05384 -0.17944,-0.01697 -0.24668,0.01011 -0.22906,0.09223 0.0186,0.08666 -0.0398,0.103291 -0.22955,0.06535 -0.13997,-0.02799 -0.27727,-0.01405 -0.30511,0.03099 -0.0795,0.12863 -0.29462,0.09569 -0.29462,-0.04511 0,-0.06985 -0.0381,-0.127 -0.0847,-0.127 -0.0466,0 -0.0847,0.04035 -0.0847,0.08966 0,0.04932 -0.0381,0.06612 -0.0847,0.03734 -0.0466,-0.02878 -0.0847,-0.01454 -0.0847,0.03163 0,0.140302 0.30094,0.198872 1.524,0.296601 0.11641,0.0093 0.20214,0.06308 0.1905,0.119507 -0.0116,0.05643 0.036,0.107356 0.10583,0.113177 0.16375,0.01365 0.20606,0.02608 0.49235,0.144678 0.32523,0.134735 0.88432,0.123936 1.46909,-0.02838 0.65255,-0.169966 2.22956,-0.248099 2.22956,-0.110461 0,0.101044 0.24626,-0.178307 0.25131,-0.285074 0.001,-0.03134 -0.45827,-0.03841 -1.02168,-0.01571 -0.62335,0.02512 -1.00525,0.01035 -0.97554,-0.03772 0.0269,-0.04345 0.19529,-0.10242 0.37431,-0.131046 0.22834,-0.03651 0.35905,-0.114777 0.43797,-0.262231 0.0619,-0.115602 0.13923,-0.193656 0.17192,-0.173453 0.0327,0.0202 0.12944,-0.01446 0.21501,-0.07703 0.11012,-0.08052 0.2311,-0.0921 0.41408,-0.03962 0.14218,0.04078 0.36353,0.07414 0.4919,0.07414 0.12836,0 0.23339,0.0381 0.23339,0.08467 0,0.04657 0.0476,0.07514 0.10583,0.0635 0.0582,-0.01164 0.0963,0.02646 0.0847,0.08467 -0.0116,0.05821 0.0265,0.106832 0.0847,0.108053 0.0582,0.0012 -0.0463,0.07055 -0.2323,0.154061 -0.32249,0.144812 -0.32851,0.154359 -0.13003,0.206263 0.1169,0.03057 0.23279,0.01449 0.26442,-0.03669 0.031,-0.05011 0.22284,-0.09631 0.42636,-0.10265 0.20353,-0.0063 0.39805,-0.04963 0.43226,-0.0962 0.0409,-0.05573 0.0626,-0.05465 0.0635,0.0032 0.002,0.134956 0.50291,0.142319 0.63589,0.0093 0.0734,-0.0734 0.20748,-0.0995 0.35546,-0.06921 l 0.23761,0.04864 -0.254,0.05751 c -0.2462,0.05575 -0.2441,0.05782 0.0685,0.06753 0.17737,0.0055 0.30235,-0.02258 0.27773,-0.06242 -0.0246,-0.03984 0.0493,-0.05445 0.16433,-0.03246 0.12645,0.02417 0.20911,5.92e-4 0.20911,-0.05956 0,-0.05474 0.0304,-0.08075 0.0675,-0.05779 0.0371,0.02296 0.12287,0.006 0.1905,-0.03778 0.0829,-0.05362 -0.0563,-0.07649 -0.42737,-0.07022 -0.30269,0.0051 -0.68369,0.0052 -0.84667,1.7e-4 l -0.29633,-0.0092 0.26514,-0.161677 c 0.14583,-0.08892 0.67923,-0.245348 1.18533,-0.347608 0.50611,-0.102261 0.93924,-0.215456 0.96253,-0.251545 0.0233,-0.03609 0.11853,-0.08181 0.21166,-0.101604 0.0931,-0.01979 0.15981,-0.08135 0.14817,-0.136794 -0.0203,-0.09643 0.18566,-0.138382 0.51267,-0.104442 0.0841,0.0087 0.31266,-0.0675 0.508,-0.169383 0.19534,-0.101885 0.45041,-0.195145 0.56683,-0.207244 0.71024,-0.07381 1.23882,-0.158719 1.31233,-0.210804 0.31477,-0.223024 1.63975,-0.353521 3.76767,-0.371075 0.76835,-0.0063 1.45051,-0.04599 1.51591,-0.08811 0.087,-0.05601 0.10049,-0.04677 0.0503,0.03438 -0.0544,0.08806 -3.4e-4,0.09764 0.26209,0.04642 0.18186,-0.0355 0.69261,-0.05097 1.13499,-0.03438 1.37522,0.05157 2.49039,0.02175 2.667,-0.07133 0.0931,-0.04908 0.42651,-0.116032 0.74084,-0.148778 0.45585,-0.04749 0.5715,-0.03612 0.5715,0.05619 0,0.07001 0.1087,0.123645 0.27516,0.135768 0.15134,0.01102 0.33885,0.03979 0.41669,0.06394 0.0801,0.02486 0.21356,-0.03343 0.3076,-0.134367 0.1749,-0.187738 1.24196,-0.445256 1.7786,-0.42924 0.18561,0.0055 0.26073,-0.02343 0.22224,-0.08571 -0.0408,-0.06595 0.0241,-0.07601 0.21704,-0.03364 0.17519,0.03848 0.2563,0.02988 0.22321,-0.02365 -0.14072,-0.227685 0.96608,-0.24981 1.53049,-0.03059 0.28691,0.111435 0.74904,0.174078 1.58205,0.214447 0.64721,0.03137 1.20986,0.07749 1.25032,0.1025 0.0405,0.02501 -0.004,0.144635 -0.0998,0.265835 -0.13102,0.166564 -0.14759,0.23628 -0.0679,0.285555 0.0721,0.04459 0.0301,0.09385 -0.13309,0.155894 -0.16319,0.06204 -0.22278,0.131853 -0.1886,0.220926 0.0285,0.07442 0.0141,0.108054 -0.0337,0.07849 -0.046,-0.02845 -0.0837,-0.01138 -0.0837,0.03794 0,0.04932 0.0572,0.08966 0.127,0.08966 0.0699,0 0.127,-0.03397 0.127,-0.07549 0,-0.06564 0.22625,-0.155674 0.56815,-0.226102 0.0564,-0.01161 0.18971,-0.115121 0.29633,-0.230025 0.13821,-0.148947 0.32729,-0.227234 0.65871,-0.272729 0.25567,-0.0351 0.598,-0.135177 0.76075,-0.2224 0.16274,-0.08723 0.37751,-0.15859 0.47728,-0.15859 0.0998,0 0.22881,-0.05715 0.28678,-0.127 0.058,-0.06985 0.21449,-0.127 0.34782,-0.127 0.13333,0 0.41259,-0.04551 0.62058,-0.101142 0.29282,-0.07832 0.42207,-0.07836 0.57272,-1.7e-4 0.1151,0.05972 0.41928,0.08763 0.74488,0.06834 0.30269,-0.01793 0.63487,-0.03688 0.73818,-0.04213 0.12,-0.0061 0.17212,-0.0505 0.14431,-0.12297 -0.0239,-0.06239 0.0165,-0.163231 0.0898,-0.224093 0.11237,-0.09326 0.16544,-0.0805 0.33749,0.08114 0.18154,0.170549 0.2351,0.18101 0.48347,0.09443 0.18801,-0.06554 0.28882,-0.06882 0.30841,-0.01004 0.016,0.04803 0.16683,0.08733 0.33516,0.08733 0.16833,0 0.6247,0.04607 1.01417,0.102384 0.53972,0.07803 0.72266,0.07884 0.76929,0.0034 0.0901,-0.145721 0.66935,-0.14417 1.17555,0.0032 0.50017,0.14556 1.35092,0.113556 1.7585,-0.06615 0.40353,-0.177925 0.72385,-0.202744 1.11139,-0.08611 0.30326,0.09127 0.38812,0.08912 0.53471,-0.01356 0.13843,-0.09696 0.17423,-0.09918 0.17423,-0.0108 0,0.07838 0.10633,0.103819 0.35983,0.08611 0.19791,-0.01382 0.74932,0.02671 1.22535,0.09008 0.47604,0.06337 1.06659,0.10929 1.31234,0.102055 0.24575,-0.0072 0.39649,0.0037 0.33499,0.0242 -0.27283,0.09113 0.39669,0.271678 1.12531,0.303458 0.43489,0.01897 0.82827,0.0577 0.87418,0.08608 0.0459,0.02837 0.3039,0.07321 0.5733,0.09964 0.2694,0.02643 0.5667,0.0892 0.66066,0.139483 0.17243,0.09228 0.37415,0.123078 1.06938,0.163252 0.36312,0.02098 1.44307,0.313932 1.19238,0.323448 -0.066,0.0025 -0.0948,0.02971 -0.064,0.06046 0.10323,0.103239 -0.25069,0.272817 -0.69143,0.331282 -0.24031,0.03188 -0.43692,0.09115 -0.43692,0.13172 0,0.04057 -0.0476,0.07497 -0.10584,0.07645 -0.0582,0.0015 -0.18108,0.05958 -0.27305,0.129101 -0.14423,0.109026 -0.1522,0.15047 -0.0579,0.301404 0.0915,0.146423 0.0883,0.191009 -0.0195,0.273066 -0.0708,0.05394 -0.16774,0.203125 -0.21538,0.331523 -0.0476,0.1284 -0.11603,0.22365 -0.15197,0.211667 -0.0742,-0.02481 -0.1077,0.04746 -0.1077,0.232133 0,0.08114 0.0815,0.127 0.22578,0.127 0.34414,0 0.19695,0.07295 -0.31594,0.156588 -0.36701,0.05985 -0.23245,0.07134 0.66463,0.05677 0.63039,-0.01024 1.14636,0.01663 1.17386,0.06112 0.027,0.04366 0.17508,0.05575 0.3291,0.02685 0.15968,-0.02996 0.30321,-0.01503 0.33397,0.03473 0.0297,0.048 0.12788,0.08727 0.21827,0.08727 0.0904,0 0.16425,0.02858 0.16414,0.0635 -2.5e-4,0.08803 1.20641,0.02376 1.32032,-0.07033 0.1621,-0.133897 0.20387,0.01786 0.20387,0.740606 v 0.705555 h -40.64 -40.640002 z m 4.933444,-1.640045 c 0.0824,-0.02147 0.19668,-0.02005 0.254,0.0031 0.0573,0.02319 -0.0101,0.04076 -0.14978,0.03903 -0.1397,-0.0017 -0.1866,-0.0207 -0.10422,-0.04217 z m 24.42472,-0.590066 c 0.0582,-0.02349 0.15346,-0.02349 0.21167,0 0.0582,0.02349 0.0106,0.0427 -0.10583,0.0427 -0.11642,0 -0.16404,-0.01922 -0.10584,-0.0427 z m -5.92137,-1.441097 c 0.0611,-0.02446 0.13414,-0.02145 0.16228,0.0067 0.0281,0.02813 -0.0219,0.04815 -0.11113,0.04447 -0.0986,-0.0041 -0.11869,-0.02412 -0.0512,-0.05115 z m 4.572,-1.778 c 0.0611,-0.02446 0.13414,-0.02145 0.16228,0.0067 0.0281,0.02813 -0.0219,0.04815 -0.11113,0.04447 -0.0986,-0.0041 -0.11869,-0.02413 -0.0512,-0.05115 z m -3.39196,-1.865473 c -0.12806,-0.0194 -0.23283,-0.0664 -0.23283,-0.10444 0,-0.03804 -0.0762,-0.0891 -0.16934,-0.11345 -0.11287,-0.02952 -0.16933,-0.115486 -0.16933,-0.257827 0,-0.11745 -0.0503,-0.263892 -0.11169,-0.325426 -0.15521,-0.155477 -0.22974,-0.485367 -0.14702,-0.650804 0.22496,-0.449925 0.41421,-0.936138 0.45858,-1.178125 0.0436,-0.238036 0.021,-0.291346 -0.15848,-0.373122 -0.14507,-0.0661 -0.18437,-0.125568 -0.12792,-0.193581 0.0448,-0.05399 0.087,-0.228989 0.0937,-0.388877 0.0123,-0.291696 0.0374,-0.377332 0.2713,-0.925706 0.0695,-0.162983 0.14848,-0.582083 0.17545,-0.931333 0.027,-0.34925 0.0905,-0.779286 0.14107,-0.955635 0.0506,-0.176349 0.0994,-0.638648 0.10835,-1.027333 0.0186,-0.80327 -0.0595,-0.951202 -0.66102,-1.25293 -0.39357,-0.19742 -0.71966,-0.476774 -0.71966,-0.616514 0,-0.156468 -0.75544,-1.513521 -0.88196,-1.584323 -0.19204,-0.107472 -0.24424,-0.490723 -0.09,-0.661112 0.11411,-0.126083 0.11899,-0.179938 0.0293,-0.323485 -0.15068,-0.241284 0.0397,-0.613086 0.57737,-1.12738 0.24367,-0.233082 0.24146,-0.764975 -0.005,-1.145341 -0.21401,-0.330621 -0.25636,-0.339615 -0.43023,-0.09138 -0.11354,0.162105 -0.15655,0.174244 -0.29998,0.08467 -0.0921,-0.05751 -0.22045,-0.104568 -0.28523,-0.104568 -0.0648,0 -0.1685,-0.06112 -0.2305,-0.135821 -0.062,-0.0747 -0.20001,-0.169007 -0.3067,-0.20957 -0.10669,-0.04056 -0.19398,-0.124717 -0.19398,-0.187007 0,-0.214251 -0.4665,-0.554418 -0.95175,-0.694016 -0.27605,-0.07941 -0.53926,-0.215743 -0.60913,-0.315498 -0.10022,-0.143085 -0.22205,-0.17822 -0.65691,-0.189454 -0.78779,-0.02035 -2.13469,-0.643087 -2.15225,-0.995093 -0.0174,-0.348067 -0.13897,-0.522077 -0.89567,-1.28164 -0.41009,-0.411636 -0.74689,-0.773586 -0.74844,-0.804333 -0.007,-0.130848 -0.33854,-0.445234 -0.41815,-0.396031 -0.1431,0.08844 -0.0988,0.285512 0.0863,0.384631 0.0954,0.05104 0.21064,0.176202 0.25616,0.278146 0.10026,0.22449 0.44559,0.724946 0.63505,0.920312 0.0759,0.07826 0.11498,0.179527 0.0869,0.225037 -0.0628,0.101644 -0.55879,-0.318809 -0.55879,-0.473706 0,-0.06105 -0.13438,-0.190291 -0.29863,-0.2872 -0.22611,-0.133407 -0.27674,-0.202579 -0.20848,-0.284826 0.0671,-0.08081 0.0365,-0.150838 -0.11942,-0.273478 -0.11526,-0.09067 -0.2932,-0.336978 -0.39541,-0.54736 -0.17587,-0.361996 -0.51784,-0.656535 -0.76912,-0.662437 -0.10014,-0.0024 -0.38185,-0.385788 -0.73137,-0.995474 -0.0611,-0.1066 -0.12526,-0.30554 -0.14254,-0.44209 -0.0173,-0.13655 -0.0565,-0.327385 -0.0872,-0.424079 -0.0307,-0.09669 -0.0194,-0.221603 0.025,-0.277577 0.0444,-0.05597 0.0676,-0.23512 0.0514,-0.398104 -0.0162,-0.162983 -0.031,-0.37858 -0.0331,-0.479104 -0.002,-0.123893 -0.0828,-0.210357 -0.24933,-0.268406 -0.25376,-0.08846 -0.66325,-0.437823 -0.51317,-0.437823 0.13475,0 0.0995,-0.109483 -0.11579,-0.359833 -0.11013,-0.128059 -0.25929,-0.232834 -0.33146,-0.232834 -0.0722,0 -0.18019,-0.110616 -0.24003,-0.245813 -0.0599,-0.135198 -0.21544,-0.308802 -0.34576,-0.385787 -0.13033,-0.07699 -0.23696,-0.173129 -0.23696,-0.213652 0,-0.102071 -0.44978,-0.317154 -0.57556,-0.275229 -0.0566,0.01885 -0.0797,0.07172 -0.0514,0.117476 0.0283,0.04576 -0.15246,-0.02062 -0.40164,-0.147506 -0.24918,-0.126888 -0.55697,-0.239284 -0.68398,-0.249769 -0.66225,-0.05467 -1.16876,-0.144232 -1.21207,-0.214312 -0.0736,-0.119033 -0.4443,-0.09432 -0.5213,0.03476 -0.0372,0.06242 -0.14391,0.134301 -0.23704,0.159727 -0.0931,0.02543 -0.23601,0.07368 -0.3175,0.107227 -0.11425,0.04704 -0.14817,0.01907 -0.14817,-0.12218 0,-0.18043 -0.004,-0.180927 -0.254,-0.03314 -0.1397,0.08252 -0.254,0.199793 -0.254,0.260601 0,0.06081 -0.10477,0.155511 -0.23283,0.210451 -0.12806,0.05494 -0.32808,0.162628 -0.4445,0.239307 -0.2239,0.147475 -0.43704,0.221336 -0.950212,0.32929 -0.173921,0.03659 -0.295023,0.03364 -0.27017,-0.0066 0.02477,-0.04008 0.109468,-0.07453 0.188212,-0.07655 0.1811,-0.0046 0.79934,-0.356161 0.83977,-0.477476 0.0348,-0.104388 -0.690592,-0.236056 -0.82905,-0.150484 -0.05007,0.03094 -0.111427,-0.02359 -0.137124,-0.121849 -0.03418,-0.130707 -0.113669,-0.177852 -0.299868,-0.177852 -0.145887,0 -0.335388,-0.07895 -0.446741,-0.186125 -0.178499,-0.171799 -0.183556,-0.201124 -0.0657,-0.381 0.08792,-0.134191 0.210342,-0.195235 0.393116,-0.196031 0.145986,-6.35e-4 0.350726,-0.02402 0.454977,-0.05196 0.35573,-0.09534 0.09783,-0.200885 -0.490878,-0.200885 -0.335335,0 -0.58767,-0.03636 -0.58767,-0.08467 0,-0.04657 -0.05715,-0.08467 -0.127,-0.08467 -0.274609,0 -0.105688,-0.154597 0.273153,-0.24999 0.28069,-0.07068 0.40918,-0.07368 0.430389,-0.01005 0.0348,0.104407 0.409095,0.123668 0.47056,0.02421 0.0226,-0.03657 -0.203853,-0.154341 -0.503234,-0.261711 -0.543552,-0.194939 -0.644848,-0.349129 -0.229363,-0.349129 0.120915,0 0.337741,-0.08918 0.481837,-0.198183 0.173865,-0.131519 0.390208,-0.202681 0.643166,-0.211556 0.20965,-0.0074 0.5142,-0.05152 0.67678,-0.09815 0.35993,-0.103226 0.36045,-0.10324 0.30175,-0.0083 -0.0264,0.04268 0.35526,0.09884 0.86284,0.126986 0.50057,0.02776 1.40543,0.111957 2.01079,0.187114 1.3148,0.163234 1.27477,0.161766 2.07434,0.07604 0.34925,-0.03745 0.77568,-0.07303 0.94763,-0.07906 0.17195,-0.006 0.33871,-0.03705 0.37057,-0.06891 0.0319,-0.03186 0.17014,9.3e-5 0.30728,0.07101 0.17794,0.09202 0.28015,0.103383 0.35689,0.03969 0.0592,-0.04909 0.13359,-0.06321 0.16542,-0.03137 0.0318,0.03183 0.25693,0.06198 0.50021,0.067 0.24328,0.005 0.67093,0.03799 0.95033,0.07328 0.47783,0.06034 0.49543,0.0565 0.29633,-0.06473 -0.19221,-0.117043 -0.1961,-0.129938 -0.0423,-0.140327 0.13889,-0.0094 0.13127,-0.02203 -0.0423,-0.07032 -0.11642,-0.03238 -0.21167,-0.11431 -0.21167,-0.182061 0,-0.13627 0.54892,-0.160076 1.02306,-0.04437 0.21347,0.0521 0.26105,0.03773 0.26105,-0.07881 0,-0.109244 -0.0527,-0.131979 -0.22578,-0.09737 -0.20365,0.04073 -0.22577,0.02076 -0.22577,-0.203906 0,-0.136983 0.0318,-0.249061 0.0705,-0.249061 0.0388,0 0.0706,0.03977 0.0706,0.08838 0,0.04861 0.0476,0.07881 0.10583,0.06711 0.20451,-0.0411 0.54328,0.096 0.54328,0.219858 0,0.06886 -0.0262,0.109025 -0.0582,0.08925 -0.032,-0.01977 -0.0997,0.05521 -0.15047,0.166629 -0.10669,0.234154 0.002,0.363934 0.2792,0.333957 0.0931,-0.01006 0.2941,-0.02997 0.44659,-0.04424 0.18429,-0.01724 0.26325,-0.06243 0.23549,-0.134775 -0.0253,-0.06595 0.0239,-0.108831 0.12491,-0.108831 0.11022,0 0.16668,0.05734 0.16668,0.169282 0,0.141027 0.0494,0.165758 0.29616,0.148167 0.16289,-0.01161 0.29683,-0.05922 0.29763,-0.105783 8.5e-4,-0.04657 0.0328,-0.03524 0.0712,0.02517 0.0556,0.08773 0.0916,0.08347 0.1784,-0.02117 0.0598,-0.07205 0.14683,-0.131008 0.19339,-0.131008 0.0466,0 0.0354,0.05937 -0.0248,0.131942 -0.0975,0.117472 -0.0481,0.129953 0.45047,0.113813 0.30799,-0.01 0.59072,-0.0408 0.6283,-0.06851 0.15468,-0.114044 0.34167,-0.585457 0.27501,-0.693314 -0.039,-0.06311 -0.0326,-0.158342 0.0145,-0.215094 0.0591,-0.07126 0.0386,-0.128539 -0.0684,-0.190765 -0.11815,-0.06874 -0.12402,-0.0901 -0.0259,-0.09408 0.10013,-0.0041 0.0955,-0.02349 -0.0218,-0.09182 -0.0819,-0.04767 -0.18663,-0.06331 -0.23283,-0.03476 -0.18647,0.115242 -0.0632,-0.09634 0.14427,-0.247713 0.12262,-0.08945 0.19537,-0.118023 0.16167,-0.0635 -0.0401,0.0649 0.006,0.09868 0.13423,0.09784 0.16201,-0.0011 0.17374,-0.01695 0.0685,-0.09265 -0.10562,-0.07598 -0.10089,-0.08289 0.0281,-0.04104 0.0853,0.02768 0.17103,0.05032 0.1905,0.05032 0.0195,0 0.0354,0.06892 0.0354,0.153151 0,0.08423 0.0521,0.224449 0.11586,0.311592 0.11221,0.153467 0.11885,0.152839 0.21135,-0.02 0.0789,-0.147365 0.0697,-0.186358 -0.0524,-0.223884 -0.0813,-0.02499 -0.0526,-0.03266 0.0638,-0.01704 0.11641,0.01562 0.27877,0.0566 0.36079,0.09105 0.11456,0.04813 0.13704,0.03114 0.097,-0.07329 -0.0287,-0.07477 -0.0858,-0.115131 -0.12699,-0.0897 -0.0412,0.02543 -0.0501,-0.01823 -0.0198,-0.09703 0.0504,-0.131429 0.0652,-0.130042 0.17808,0.01677 0.0816,0.106113 0.13593,0.125984 0.16118,0.05897 0.0209,-0.05559 0.099,-0.07769 0.17351,-0.04911 0.0838,0.03217 0.11418,0.0176 0.0797,-0.03822 -0.0306,-0.0496 0.001,-0.11203 0.0708,-0.138731 0.0696,-0.0267 0.12651,-0.106894 0.12651,-0.178205 0,-0.07131 0.0667,-0.132073 0.14817,-0.135024 0.11352,-0.0041 0.10362,-0.02327 -0.0423,-0.08194 -0.45305,-0.182102 -0.0319,-0.183113 0.51806,-0.0012 0.26891,0.08893 0.33992,0.08832 0.39658,-0.0034 0.038,-0.06142 0.0529,-0.137804 0.0331,-0.169737 -0.0197,-0.03193 0.0876,-0.0762 0.23842,-0.09836 0.20447,-0.03004 0.3031,7.7e-4 0.38739,0.121017 0.0952,0.135848 0.18856,0.154848 0.59105,0.120334 0.26289,-0.02254 0.48832,-0.07202 0.50096,-0.109959 0.0126,-0.03793 0.30927,-0.06179 0.65917,-0.05301 0.3499,0.0088 0.6205,-0.01 0.60133,-0.04171 -0.0192,-0.03172 0.1497,-0.06672 0.37525,-0.0778 0.22556,-0.01107 0.42997,0.012 0.45424,0.05127 0.0243,0.03927 -0.0595,0.05308 -0.18614,0.03069 -0.17861,-0.03158 -0.20854,-0.01755 -0.13341,0.06253 0.11555,0.123162 1.26251,0.13011 1.56398,0.0095 0.1935,-0.07743 0.1909,-0.08098 -0.063,-0.08613 -0.31891,-0.0065 -0.55446,-0.226462 -0.33333,-0.311317 0.087,-0.0334 0.18512,0.0065 0.25749,0.104831 0.10969,0.149021 0.12041,0.149674 0.17432,0.01062 0.036,-0.09291 0.14089,-0.14502 0.28121,-0.139728 l 0.22378,0.0084 -0.21167,0.06779 c -0.14882,0.04766 -0.0219,0.07029 0.42757,0.07623 0.35158,0.0046 0.67822,-0.03055 0.72588,-0.07821 0.0477,-0.04766 0.16005,-0.101232 0.24977,-0.119056 0.0897,-0.01782 0.27741,-0.06039 0.41711,-0.0946 0.1397,-0.0342 0.22601,-0.032 0.19179,0.0049 -0.099,0.106734 0.34742,0.295413 0.69897,0.295413 0.27145,0 0.31469,-0.02436 0.27983,-0.157657 -0.0456,-0.174482 0.21806,-0.331525 0.30916,-0.184124 0.0878,0.142106 0.61211,0.167026 0.74378,0.03535 0.0652,-0.06515 0.15376,-0.09665 0.1969,-0.06998 0.0431,0.02666 0.10129,-0.01109 0.12923,-0.08389 0.0279,-0.0728 0.0871,-0.132366 0.1314,-0.132366 0.0443,0 0.0571,0.0381 0.0283,0.08467 -0.0316,0.05113 0.0838,0.08467 0.29133,0.08467 0.18902,0 0.34367,0.03453 0.34367,0.07674 0,0.04221 0.0857,0.05843 0.1905,0.03605 0.17814,-0.03805 0.18072,-0.03269 0.0398,0.08258 -0.12834,0.105017 -0.13188,0.130474 -0.0239,0.171919 0.0697,0.02676 0.14571,0.01803 0.16884,-0.0194 0.0231,-0.03742 0.3278,-0.07348 0.67706,-0.08011 0.50274,-0.0096 0.62584,0.01181 0.591,0.102596 -0.0557,0.145244 0.64975,0.347774 0.73439,0.210827 0.0298,-0.04821 0.0785,-0.08441 0.10821,-0.08043 0.30124,0.04031 0.26877,-0.02963 -0.0607,-0.130835 -0.22611,-0.06945 -0.39332,-0.144062 -0.37157,-0.165805 0.0217,-0.02174 0.14255,-3.64e-4 0.26845,0.0475 0.12591,0.04787 0.31217,0.08645 0.41391,0.08574 0.15048,-0.0011 0.1613,-0.01661 0.058,-0.08337 -0.10982,-0.07097 -0.10789,-0.08225 0.0142,-0.08337 0.0777,-7.11e-4 0.21103,-0.02394 0.29633,-0.05162 0.12899,-0.04185 0.13372,-0.03494 0.0281,0.04104 -0.10979,0.07897 -0.10692,0.09153 0.0212,0.09265 0.0815,7.13e-4 0.14817,-0.05585 0.14817,-0.125704 0,-0.06985 0.0422,-0.127 0.0937,-0.127 0.0515,0 0.072,0.0567 0.0454,0.126005 -0.0356,0.09269 0.001,0.11789 0.1391,0.09531 0.10311,-0.01688 0.23577,0.0078 0.29481,0.05495 0.059,0.0471 0.45909,0.08015 0.889,0.07344 0.78626,-0.01227 0.87405,0.07784 0.18899,0.194012 -0.55546,0.09419 -0.88222,0.221782 -0.84302,0.329166 0.0202,0.05543 -0.0861,0.186509 -0.23623,0.291284 -0.22586,0.157587 -0.24346,0.1905 -0.10187,0.1905 0.11658,0 0.17117,0.05582 0.17117,0.175022 0,0.152291 -0.0126,0.157789 -0.097,0.04233 -0.0534,-0.07298 -0.18702,-0.132688 -0.29703,-0.132688 h -0.2 l 0.19386,0.135784 c 0.10662,0.07468 0.17439,0.18652 0.15059,0.24853 -0.0238,0.06201 0.002,0.131249 0.0578,0.153865 0.0556,0.02261 0.0154,0.04413 -0.0894,0.0478 -0.10477,0.0037 -0.1905,0.04478 -0.1905,0.09135 0,0.04657 -0.0558,0.08467 -0.12402,0.08467 -0.16304,0 -0.36419,0.359372 -0.22679,0.405175 0.0533,0.01775 0.0968,0.08624 0.0968,0.152214 0,0.139078 -0.46765,0.169056 -0.55033,0.03528 -0.0667,-0.107879 -0.29633,-0.110853 -0.29633,-0.0038 0,0.04446 0.13839,0.106793 0.30754,0.138526 0.22735,0.04265 0.27424,0.07634 0.1798,0.129187 -0.2445,0.136826 -1.12509,0.331773 -1.5437,0.341743 -0.28938,0.0069 -0.51668,0.07313 -0.72574,0.211472 -0.16741,0.110791 -0.55615,0.254113 -0.86385,0.318493 -0.63899,0.133693 -0.74072,0.181643 -0.74072,0.349127 0,0.06603 -0.0953,0.182462 -0.21167,0.258741 -0.11642,0.07628 -0.21288,0.200982 -0.21436,0.277118 -0.004,0.189624 -0.2012,0.434763 -0.35029,0.434763 -0.0675,0 -0.19661,-0.05594 -0.287,-0.124308 -0.0904,-0.06837 -0.2977,-0.125701 -0.46068,-0.127404 -0.21723,-0.0023 -0.38109,-0.08094 -0.61384,-0.29471 -0.17462,-0.160386 -0.3175,-0.333903 -0.3175,-0.385592 0,-0.05169 -0.0381,-0.07043 -0.0847,-0.04165 -0.0466,0.02878 -0.0847,-0.0049 -0.0847,-0.07487 0,-0.06996 -0.0753,-0.179924 -0.16729,-0.244369 -0.11049,-0.0774 -0.15451,-0.183517 -0.12965,-0.312591 0.0461,-0.239649 0.0598,-0.253831 0.2858,-0.297359 0.46992,-0.0905 0.4173,-0.32248 -0.0575,-0.253376 -0.38956,0.0567 -0.60366,-0.05884 -0.45065,-0.243196 0.0864,-0.104064 0.0742,-0.136056 -0.069,-0.181492 -0.10826,-0.03436 -0.17379,-0.127869 -0.17379,-0.247998 0,-0.454265 -0.81803,-0.823905 -1.81516,-0.820205 -0.38904,0.0014 -0.73986,0.01344 -0.7796,0.02666 -0.0397,0.01322 -0.2785,-0.03216 -0.53059,-0.100828 -0.38438,-0.104711 -0.42537,-0.133163 -0.254,-0.176308 0.17352,-0.04369 0.15007,-0.06109 -0.15548,-0.115366 -0.40989,-0.07281 -0.47106,-0.189919 -0.127,-0.243127 0.12806,-0.0198 0.0514,-0.03519 -0.17039,-0.03419 -0.2313,10e-4 -0.4433,0.0501 -0.4972,0.11505 -0.10819,0.130355 -0.53369,0.157114 -0.45425,0.02857 0.0316,-0.05113 -0.0838,-0.08467 -0.29133,-0.08467 -0.18902,0 -0.34367,-0.03453 -0.34367,-0.07674 0,-0.04221 -0.0794,-0.05597 -0.17649,-0.03059 -0.13418,0.03509 -0.1494,0.06332 -0.0635,0.117777 0.0907,0.05751 0.088,0.07212 -0.014,0.07417 -0.0716,0.0014 -0.0346,0.05017 0.0847,0.111702 0.11642,0.06004 0.22437,0.07853 0.23989,0.04109 0.0604,-0.145716 0.31649,-0.06378 0.31649,0.101261 0,0.106115 -0.0564,0.169333 -0.15119,0.169333 -0.0832,0 -0.15119,0.03282 -0.15119,0.07293 0,0.04011 -0.10477,0.05835 -0.23283,0.04052 -0.22234,-0.03094 -0.22405,-0.02855 -0.038,0.05297 0.34613,0.151627 0.0599,0.304727 -0.5463,0.292236 -0.34324,-0.0071 -0.53755,0.0228 -0.53751,0.08264 5e-5,0.06223 0.29212,0.09469 0.86931,0.09663 0.78518,0.0026 0.909,0.02515 1.28059,0.232833 0.22625,0.126454 0.53767,0.229916 0.69204,0.229916 0.15436,0 0.30421,0.0381 0.33299,0.08467 0.0288,0.04657 0.15591,0.08467 0.2825,0.08467 0.29233,0 0.6065,0.217081 0.6065,0.419076 0,0.168404 0.1588,0.258258 0.45641,0.258258 0.10371,0 0.26198,0.05368 0.35171,0.119295 0.10374,0.07586 0.2124,0.09294 0.2984,0.04691 0.0932,-0.04989 0.13526,-0.03644 0.13526,0.04328 0,0.06362 -0.0889,0.163249 -0.19755,0.2214 -0.10866,0.05815 -0.19756,0.136195 -0.19756,0.173431 0,0.07983 -0.1919,0.02434 -0.56816,-0.164287 -0.1495,-0.07495 -0.29708,-0.111009 -0.32796,-0.08013 -0.0954,0.09545 0.0362,0.317438 0.1883,0.317438 0.19122,0 0.45277,0.242891 0.40253,0.373815 -0.0244,0.06362 -0.1453,0.08984 -0.31179,0.06762 -0.2624,-0.03501 -0.26599,-0.03148 -0.10259,0.101106 0.16468,0.133614 0.16294,0.136191 -0.0635,0.09376 -0.20564,-0.03854 -0.57956,-0.124073 -0.762,-0.174312 -0.0349,-0.0096 -0.14194,-0.02225 -0.23783,-0.02807 -0.0959,-0.0058 -0.15429,-0.043 -0.1298,-0.08263 0.0717,-0.116048 -0.59105,-0.294647 -0.90461,-0.243764 -0.33226,0.05392 -0.59878,-0.06113 -0.41562,-0.179407 0.0612,-0.03953 0.19513,-0.05586 0.29756,-0.03628 0.16705,0.03193 0.26992,-0.02611 0.71483,-0.403352 0.0592,-0.05022 0.0792,-0.136653 0.0443,-0.192069 -0.0454,-0.07215 -0.0707,-0.06372 -0.0893,0.02967 -0.0191,0.09597 -0.13144,0.129521 -0.42532,0.127 -0.38888,-0.0033 -0.60354,-0.146591 -0.29801,-0.198882 0.34775,-0.05952 0.41225,-0.103438 0.27726,-0.188801 -0.16484,-0.104251 -0.27468,-0.102541 -0.20929,0.0033 0.0922,0.149187 -0.0302,0.09062 -0.20681,-0.09896 -0.14572,-0.156404 -0.20225,-0.169431 -0.38128,-0.08786 -0.13169,0.06 -0.229,0.06534 -0.26055,0.0143 -0.0663,-0.107297 -0.43919,-0.104944 -0.50603,0.0032 -0.0288,0.04657 0.007,0.08467 0.0797,0.08467 0.14998,0 0.17657,0.131792 0.0432,0.214208 -0.0617,0.03816 -0.0613,0.08794 10e-4,0.16349 0.0684,0.08239 0.0285,0.13417 -0.16522,0.214401 -0.14045,0.05818 -0.25537,0.143921 -0.25537,0.19054 0,0.04826 -0.0535,0.04039 -0.12415,-0.01828 -0.0683,-0.05667 -0.16995,-0.08777 -0.22593,-0.06911 -0.0953,0.03175 0.0906,0.134214 0.75225,0.414754 0.44553,0.188897 0.34466,0.331276 -0.11175,0.157748 -0.17795,-0.06766 -0.27534,-0.0563 -0.4395,0.05126 -0.16415,0.107554 -0.2254,0.114701 -0.27636,0.03225 -0.036,-0.05826 -0.12646,-0.08253 -0.20101,-0.05392 -0.0745,0.02861 -0.13555,0.01511 -0.13555,-0.03 0,-0.0451 0.0381,-0.08201 0.0847,-0.08201 0.0466,0 0.0847,-0.0762 0.0847,-0.169333 0,-0.09313 -0.0381,-0.169333 -0.0847,-0.169333 -0.0466,0 -0.0847,0.03712 -0.0847,0.08249 0,0.100324 -0.46779,0.35283 -0.53294,0.287676 -0.0255,-0.02553 -0.16324,0.03996 -0.30603,0.145529 -0.14279,0.105567 -0.28538,0.166174 -0.31687,0.134682 -0.0803,-0.08031 -0.62201,0.546428 -0.62209,0.719749 -4e-5,0.07835 0.0857,0.169544 0.19043,0.202646 0.10478,0.0331 0.2359,0.124662 0.2914,0.203468 0.06,0.08524 0.22654,0.148006 0.41108,0.154944 0.1706,0.0064 0.5508,0.107921 0.84488,0.225571 0.29408,0.11765 0.65202,0.21391 0.79542,0.21391 0.19462,0 0.26072,0.03864 0.26072,0.1524 0,0.08382 0.0476,0.200025 0.10583,0.258233 0.0582,0.05821 0.10584,0.150636 0.10584,0.205395 0,0.160837 0.43407,0.277594 0.58043,0.156125 0.0955,-0.07926 0.10662,-0.167325 0.0473,-0.37435 -0.0484,-0.168785 -0.0473,-0.280817 0.003,-0.297561 0.20095,-0.06699 0.51239,-0.380691 0.51239,-0.516131 0,-0.08228 -0.0953,-0.192996 -0.21167,-0.246039 -0.21244,-0.0968 -0.29025,-0.269406 -0.12144,-0.269406 0.0565,0 0.0748,-0.140057 0.0491,-0.374189 l -0.0411,-0.37419 0.55893,0.03584 c 0.30742,0.01971 0.64594,0.09285 0.75228,0.162522 0.10633,0.06967 0.27087,0.12668 0.36565,0.12668 0.11374,0 0.17231,0.0555 0.17231,0.163286 0,0.437462 0.61722,0.578125 0.9521,0.216979 l 0.19695,-0.212402 0.31447,0.331867 c 0.17296,0.182526 0.31448,0.395974 0.31448,0.474328 0,0.07835 0.0762,0.162388 0.16933,0.186743 0.0931,0.02435 0.16933,0.07794 0.16933,0.119074 0,0.04114 0.0774,0.07479 0.17199,0.07479 0.0946,0 0.19393,0.05715 0.22073,0.127 0.0268,0.06985 0.11133,0.128211 0.18784,0.129692 0.30824,0.006 0.42311,0.194399 0.35283,0.578764 -0.0683,0.373557 -0.0396,0.419158 0.29444,0.46819 0.14536,0.02134 0.29262,0.196758 0.29488,0.351288 6.8e-4,0.04873 -0.10348,0.08222 -0.23154,0.07442 -0.12806,-0.0078 -0.41408,-0.0191 -0.63561,-0.0251 l -0.40278,-0.01092 0.29364,-0.417762 c 0.24887,-0.354074 0.27156,-0.422324 0.14878,-0.447687 -0.0797,-0.01646 -0.25916,0.03423 -0.39886,0.112639 -0.1397,0.07841 -0.3969,0.136994 -0.57155,0.130187 -0.21874,-0.0085 -0.31754,0.02378 -0.3175,0.103823 4e-5,0.09604 -0.023,0.09704 -0.13301,0.0058 -0.16532,-0.137204 -0.50122,-0.131325 -0.86178,0.01508 -0.30967,0.125744 -0.37906,0.294924 -0.0847,0.206425 0.10477,-0.0315 0.31462,-0.07719 0.46632,-0.101535 0.2737,-0.04393 0.27545,-0.042 0.2288,0.251569 -0.0481,0.302539 0.0409,0.432533 0.29971,0.437817 0.0699,0.0014 0.17795,0.03489 0.24021,0.07435 0.0667,0.04225 0.15196,0.03301 0.20743,-0.02246 0.10665,-0.106641 0.3147,-0.127018 0.3137,-0.03072 -8.6e-4,0.08336 -0.41733,0.275167 -0.59747,0.275167 -0.0776,0 -0.23791,0.0762 -0.35631,0.169333 -0.11839,0.09313 -0.26133,0.169333 -0.31762,0.169333 -0.0607,0 -0.0843,-0.06896 -0.0581,-0.169333 0.0488,-0.186528 -0.15745,-0.232099 -0.42785,-0.09455 -0.0809,0.04113 -0.24978,0.122694 -0.37538,0.181246 -0.14709,0.06857 -0.23748,0.184819 -0.254,0.326654 -0.0167,0.143577 -0.0846,0.229466 -0.19497,0.246837 -0.3674,0.0578 -0.59872,0.205304 -0.72929,0.465041 -0.0788,0.156795 -0.19163,0.26207 -0.26665,0.248845 -0.10707,-0.01887 -0.11795,0.03059 -0.0616,0.280263 0.065,0.28816 0.0509,0.315862 -0.28369,0.55906 -0.19364,0.140732 -0.45841,0.319031 -0.58838,0.396218 -0.31906,0.189479 -0.36059,0.428213 -0.16744,0.962597 0.17234,0.47678 0.16655,0.745784 -0.016,0.745784 -0.14478,0 -0.39145,-0.379861 -0.41989,-0.646619 -0.0353,-0.330606 -0.21906,-0.441746 -0.83389,-0.504196 -0.48264,-0.04902 -0.599,-0.03459 -0.7384,0.09156 -0.14043,0.127093 -0.21846,0.136306 -0.5156,0.06088 -0.31142,-0.07905 -0.39358,-0.06494 -0.74327,0.127657 -0.21623,0.119091 -0.40459,0.225944 -0.41859,0.237451 -0.0213,0.01753 -0.0573,0.341459 -0.11754,1.056596 -0.0287,0.341497 0.0396,0.520985 0.3059,0.803345 0.26374,0.279646 0.31917,0.302457 0.61383,0.252635 0.55556,-0.09393 0.62025,-0.128188 0.62025,-0.328429 0,-0.211949 0.29073,-0.388886 0.63899,-0.388886 0.25557,0 0.26044,0.106641 0.0327,0.715396 -0.0962,0.257261 -0.15115,0.50634 -0.122,0.55351 0.0292,0.04717 0.25564,0.08576 0.50331,0.08576 0.57217,0 0.65818,0.09914 0.59712,0.688339 -0.0686,0.661925 0.0957,0.828913 0.79561,0.80855 0.35132,-0.01022 0.54559,0.02086 0.59139,0.09462 0.0755,0.121522 0.2207,-0.0092 0.39073,-0.351704 0.0495,-0.09981 0.18331,-0.194752 0.29724,-0.210986 0.11394,-0.01623 0.28339,-0.08291 0.37656,-0.148167 0.22036,-0.15435 0.33155,-0.150917 0.27043,0.0083 -0.0289,0.07522 -9.1e-4,0.127 0.0686,0.127 0.0645,0 0.131,-0.04116 0.14777,-0.09146 0.0365,-0.109584 0.49162,0.07318 0.49162,0.197431 0,0.04333 0.23813,0.06806 0.52917,0.05495 0.29104,-0.01311 0.61965,0.0065 0.73024,0.04368 0.13796,0.04633 0.22392,0.03146 0.27387,-0.04737 0.0551,-0.08688 0.0745,-0.07361 0.0796,0.05444 0.004,0.096 0.21201,0.343497 0.48064,0.5715 0.36847,0.312761 0.54135,0.403071 0.77764,0.406233 0.4193,0.0056 0.87177,0.245447 1.01097,0.535876 0.064,0.133619 0.18163,0.259993 0.26131,0.280828 0.0797,0.02084 0.19039,0.163796 0.24604,0.317688 0.0832,0.229992 0.16912,0.298827 0.48282,0.386657 0.20991,0.05877 0.41175,0.160656 0.44855,0.226413 0.0669,0.11945 0.4609,0.217291 0.85905,0.213294 0.116,-0.0012 0.36163,0.108725 0.54584,0.244197 0.18422,0.135473 0.40229,0.246314 0.48461,0.246314 0.37547,0 0.43353,0.702299 0.0922,1.115337 -0.12801,0.154915 -0.27089,0.33197 -0.3175,0.393455 -0.0466,0.06149 -0.15142,0.174727 -0.23291,0.25165 -0.10795,0.101901 -0.14816,0.272931 -0.14816,0.63019 0,0.269683 -0.0336,0.556491 -0.0746,0.637351 -0.041,0.08086 -0.15796,0.32793 -0.25987,0.549045 -0.17962,0.389706 -0.2642,0.44908 -0.72846,0.511334 -0.0956,0.01283 -0.39091,0.133121 -0.65616,0.267323 -0.46333,0.234421 -0.48227,0.257069 -0.48227,0.576603 0,0.33932 -0.12307,0.555298 -0.635,1.114343 -0.1397,0.152558 -0.33947,0.378477 -0.44394,0.502041 -0.12494,0.147782 -0.27395,0.224662 -0.43544,0.224662 -0.2456,0 -0.37768,0.155484 -0.30568,0.359834 0.0857,0.243177 -0.45677,0.5715 -0.94424,0.5715 -0.13826,0 -0.19903,0.04854 -0.19903,0.158966 0,0.24347 -0.21107,0.371918 -0.50504,0.307351 -0.24251,-0.05326 -0.25362,-0.04483 -0.18533,0.140678 0.0993,0.269663 -0.0869,0.688865 -0.36145,0.813965 -0.27521,0.125395 -0.27738,0.249032 -0.007,0.372445 0.11641,0.05304 0.21166,0.129244 0.21166,0.169333 0,0.04009 -0.0953,0.116291 -0.21166,0.169334 -0.11642,0.05304 -0.21167,0.144908 -0.21167,0.204146 0,0.05924 -0.0794,0.132914 -0.17651,0.163726 -0.14085,0.0447 -0.16537,0.100403 -0.12137,0.275708 0.0706,0.281152 0.36419,0.695294 0.49415,0.696977 0.059,7.62e-4 0.048,0.03493 -0.0269,0.08337 -0.12636,0.08166 -0.50842,0.0913 -0.9525,0.02402 z m 31.58596,-1.267194 c 0.0611,-0.02446 0.13415,-0.02145 0.16228,0.0067 0.0281,0.02813 -0.0219,0.04815 -0.11113,0.04447 -0.0986,-0.0041 -0.11869,-0.02412 -0.0512,-0.05115 z m 22.38905,-0.635291 c -0.15135,-0.04054 -0.27517,-0.10482 -0.27517,-0.142838 0,-0.108186 0.2632,-0.31298 0.65617,-0.510557 0.1979,-0.09951 0.35983,-0.220494 0.35983,-0.268862 0,-0.04837 0.0446,-0.06039 0.0991,-0.02672 0.0672,0.04154 0.0811,0.0145 0.0433,-0.08407 -0.0307,-0.07991 -0.0213,-0.124021 0.0207,-0.09803 0.0421,0.02599 0.0892,0.01355 0.10486,-0.02764 0.0164,-0.04314 0.11199,-0.04348 0.22556,-7.62e-4 l 0.19716,0.0741 -0.19716,0.249953 c -0.10844,0.137475 -0.25431,0.270723 -0.32416,0.296106 -0.0699,0.02538 -0.2032,0.160242 -0.29633,0.299685 -0.20718,0.310199 -0.26551,0.332972 -0.61383,0.239659 z m -54.71584,-0.82088 c 0,-0.04657 0.0381,-0.108213 0.0847,-0.136993 0.0466,-0.02878 0.0847,-0.01423 0.0847,0.03234 0,0.04657 -0.0381,0.108214 -0.0847,0.136994 -0.0466,0.02878 -0.0847,0.01423 -0.0847,-0.03234 z m 49.74167,0.0099 c -0.0466,-0.03421 -0.12653,-0.138404 -0.17768,-0.231537 -0.085,-0.15471 -0.0667,-0.170068 0.21166,-0.177836 0.34489,-0.0096 0.45785,0.09775 0.33813,0.32144 -0.0855,0.159688 -0.22845,0.193478 -0.37211,0.08793 z m 6.56167,-0.527871 c 0,-0.09407 -0.0564,-0.169333 -0.127,-0.169333 -0.14378,0 -0.1703,-0.132582 -0.0423,-0.211667 0.12833,-0.07931 0.10127,-0.431157 -0.0423,-0.550333 -0.14241,-0.118191 -0.1681,-0.254 -0.048,-0.254 0.0434,0 0.10048,0.06668 0.12678,0.148166 0.0515,0.15964 0.49379,0.4445 0.69012,0.4445 0.0661,0 0.12014,0.05715 0.12014,0.127 0,0.06985 -0.0572,0.127 -0.127,0.127 -0.0699,0 -0.127,0.05987 -0.127,0.133048 0,0.152061 -0.19773,0.374953 -0.33262,0.374953 -0.0499,0 -0.0907,-0.0762 -0.0907,-0.169334 z m -6.61988,-0.22717 c 0.0611,-0.02446 0.13414,-0.02145 0.16228,0.0067 0.0281,0.02813 -0.0219,0.04815 -0.11113,0.04447 -0.0986,-0.0041 -0.11869,-0.02412 -0.0512,-0.05115 z m -0.0312,-0.203767 c -0.0324,-0.05244 -0.17161,-0.07211 -0.32249,-0.04557 -0.44461,0.07821 -0.84427,-0.05157 -0.9712,-0.315378 -0.0622,-0.129233 -0.16695,-0.255652 -0.23283,-0.280932 -0.0659,-0.02528 -0.12279,-0.108562 -0.12646,-0.185072 -0.004,-0.08784 -0.0224,-0.100106 -0.0494,-0.03327 -0.0802,0.1987 -0.21727,0.109773 -0.16316,-0.105833 0.0642,-0.255735 0.0462,-0.259423 -0.20454,-0.04195 l -0.19568,0.169712 -0.15335,-0.252159 c -0.19535,-0.321238 -0.69625,-0.539629 -1.08987,-0.475185 -0.82318,0.134772 -1.0859,0.204868 -1.39144,0.371249 -0.19501,0.106191 -0.41033,0.162013 -0.51937,0.134646 -0.1043,-0.02618 -0.33027,0.02617 -0.51355,0.118971 -0.23088,0.116899 -0.38342,0.144624 -0.5178,0.09411 -0.10478,-0.03938 -0.1905,-0.04912 -0.1905,-0.02163 0,0.02748 -0.0534,0.0056 -0.11874,-0.04857 -0.0814,-0.06759 -0.0989,-0.170576 -0.0557,-0.327868 0.0347,-0.126127 0.0345,-0.305522 -3.4e-4,-0.398655 -0.0349,-0.09313 -0.13955,-0.359834 -0.23264,-0.592667 -0.16371,-0.409482 -0.22317,-0.780676 -0.19753,-1.233152 0.0138,-0.243375 0.28845,-0.406441 1.15065,-0.683144 0.52324,-0.167923 0.76973,-0.357294 0.82263,-0.632008 0.0171,-0.08857 0.0817,-0.16103 0.14368,-0.16103 0.062,0 0.2329,-0.11951 0.37984,-0.265579 0.29604,-0.294265 0.60475,-0.423513 0.68838,-0.288198 0.0954,0.154434 0.37366,0.09478 0.47749,-0.102389 0.0552,-0.104775 0.14225,-0.221976 0.19348,-0.260446 0.0663,-0.04979 0.0627,-0.08232 -0.0127,-0.112889 -0.0582,-0.02362 -0.10584,-0.07787 -0.10584,-0.120554 0,-0.107325 0.44689,-0.09737 0.73533,0.01638 0.13109,0.0517 0.34312,0.09235 0.47117,0.09033 0.25537,-0.004 0.29774,0.128877 0.1369,0.429401 -0.0806,0.150598 -0.0653,0.204032 0.0954,0.334175 0.10522,0.0852 0.29127,0.179791 0.41344,0.210197 0.12217,0.03041 0.26397,0.111944 0.31512,0.181195 0.13516,0.183022 0.27402,0.05548 0.33216,-0.305097 0.0279,-0.172991 0.0909,-0.497778 0.13994,-0.721748 0.0849,-0.387335 0.0952,-0.398668 0.21188,-0.232096 0.0675,0.09632 0.12869,0.255135 0.13606,0.352928 0.007,0.09929 0.0986,0.210199 0.20635,0.251167 0.10612,0.04035 0.19578,0.10288 0.19924,0.138957 0.0263,0.274727 0.0963,0.493411 0.16549,0.517151 0.0452,0.01552 0.0822,0.113241 0.0822,0.217152 0,0.13256 0.0884,0.231093 0.29633,0.330242 0.16299,0.07772 0.29634,0.173015 0.29634,0.211765 0,0.03875 0.20559,0.294904 0.45687,0.569232 0.33634,0.367201 0.47185,0.58908 0.51367,0.841083 0.0775,0.467057 0.0685,0.673278 -0.0307,0.706354 -0.046,0.01534 -0.0619,0.08474 -0.0352,0.154225 0.0267,0.06962 -0.0704,0.291925 -0.21643,0.495205 -0.14569,0.202878 -0.2649,0.410266 -0.2649,0.460862 0,0.0506 -0.0356,0.09199 -0.079,0.09199 -0.0435,0 -0.0911,0.104449 -0.10584,0.232109 -0.0176,0.152748 -0.0847,0.242974 -0.19612,0.263886 -0.0931,0.01748 -0.27046,0.103528 -0.39407,0.191224 -0.26108,0.185236 -0.2958,0.191494 -0.37263,0.06718 z m -28.73632,-1.086863 c -0.0527,-0.09847 -0.0753,-0.212156 -0.0503,-0.25264 0.0506,-0.08194 -0.33383,-0.811422 -0.55304,-1.04932 -0.0774,-0.08402 -0.18562,-0.388818 -0.24045,-0.677333 -0.0548,-0.288515 -0.23904,-0.800439 -0.40937,-1.137608 -0.30033,-0.594521 -0.3065,-0.625205 -0.2042,-1.016 0.058,-0.221631 0.18051,-0.506462 0.27221,-0.632959 0.14866,-0.205072 0.15615,-0.273879 0.0691,-0.635 -0.1821,-0.755497 -0.35033,-1.127813 -0.67752,-1.499526 -0.32584,-0.370178 -0.40168,-0.58462 -0.24172,-0.683481 0.11919,-0.07367 0.10574,-0.83406 -0.0169,-0.956734 -0.0559,-0.05588 -0.26105,-0.1016 -0.45593,-0.1016 -0.28452,0 -0.38165,-0.0417 -0.49301,-0.211666 -0.16564,-0.252797 -0.49496,-0.278349 -0.96301,-0.07472 -0.17313,0.07532 -0.56243,0.147503 -0.86511,0.160406 -0.30269,0.0129 -0.69479,0.04985 -0.87134,0.0821 -0.27324,0.04991 -0.36752,0.0229 -0.63367,-0.181573 -0.17197,-0.132117 -0.38947,-0.278613 -0.48333,-0.325547 -0.0939,-0.04693 -0.23659,-0.219779 -0.31717,-0.384098 -0.0806,-0.164319 -0.29622,-0.392619 -0.4792,-0.507332 -0.28133,-0.176366 -0.33779,-0.260758 -0.36569,-0.546588 -0.0182,-0.18591 0.0176,-0.484782 0.0794,-0.664159 0.10879,-0.315763 0.08,-0.790748 -0.065,-1.073289 -0.0674,-0.131183 0.40438,-1.006802 0.7019,-1.302856 0.0815,-0.08109 0.14817,-0.175163 0.14817,-0.209049 0,-0.03389 0.13567,-0.110671 0.30149,-0.170633 0.29807,-0.107784 0.40163,-0.254855 0.49858,-0.708109 0.0317,-0.148107 0.16996,-0.30864 0.38015,-0.441324 0.5187,-0.327447 0.5395,-0.807562 0.035,-0.807562 -0.21825,0 -0.42239,-0.352362 -0.30975,-0.53463 0.033,-0.0534 0.0618,-0.269277 0.0641,-0.479729 l 0.004,-0.382641 0.81633,-0.02412 0.81632,-0.02412 0.0419,-0.272211 c 0.0482,-0.313026 -0.0825,-0.502272 -0.45304,-0.655748 -0.33441,-0.138517 -0.31265,-0.251464 0.0485,-0.251464 0.16299,0 0.29634,-0.0381 0.29634,-0.08467 0,-0.04657 0.10711,-0.08467 0.23803,-0.08467 0.13092,0 0.3119,-0.06668 0.40217,-0.148167 0.0903,-0.08149 0.307,-0.214225 0.48163,-0.294963 0.17462,-0.08074 0.3175,-0.179398 0.3175,-0.219244 0,-0.101953 0.39239,-0.26896 0.63193,-0.26896 0.23308,0 0.29109,-0.112567 0.23998,-0.465666 -0.0307,-0.212247 0.001,-0.271252 0.19566,-0.358946 0.12783,-0.05772 0.24677,-0.0906 0.2643,-0.07307 0.0583,0.05835 0.0526,0.34489 -0.0107,0.537849 -0.0382,0.116326 -0.0274,0.194621 0.0278,0.201083 0.0497,0.0058 0.138,0.01768 0.19621,0.02636 0.0582,0.0087 0.15345,-0.0198 0.21166,-0.06328 0.068,-0.05081 0.15093,-0.04163 0.23206,0.02569 0.0812,0.0674 0.22462,0.08322 0.40217,0.04436 0.15177,-0.03322 0.42834,-0.06883 0.61461,-0.07913 0.50465,-0.02791 0.71966,-0.122019 0.71966,-0.315001 0,-0.09332 0.0611,-0.230792 0.13582,-0.305489 0.11292,-0.112926 0.16467,-0.117792 0.30706,-0.02887 0.14252,0.08901 0.19421,0.08397 0.30818,-0.02999 0.12614,-0.12614 0.12196,-0.140857 -0.0531,-0.186624 -0.1045,-0.02733 -0.19,-0.07951 -0.19,-0.115953 0,-0.08908 0.75129,-0.144831 0.83421,-0.06191 0.036,0.03602 0.15546,-0.03026 0.26541,-0.14729 0.18657,-0.198594 0.18903,-0.213438 0.037,-0.222537 -0.28015,-0.01676 -0.49847,0.0214 -0.58202,0.101736 -0.21259,0.204431 -1.0354,0.01064 -0.94583,-0.222768 0.0249,-0.06479 0.007,-0.141458 -0.0399,-0.170378 -0.17123,-0.105828 0.43128,-0.545507 0.74754,-0.545507 0.20447,0 0.0678,-0.198624 -0.18276,-0.265639 -0.26344,-0.07045 -0.52516,0.05017 -0.58221,0.268343 -0.0207,0.07923 -0.204,0.1851 -0.43001,0.248378 -0.29267,0.08195 -0.4065,0.160519 -0.44296,0.305788 -0.0577,0.230023 0.0131,0.374463 0.18354,0.374463 0.0671,0 0.122,0.05715 0.122,0.127 0,0.06985 -0.0512,0.127 -0.11387,0.127 -0.15425,0 -0.39413,0.276208 -0.39413,0.453824 0,0.07929 -0.0667,0.164793 -0.14816,0.190014 -0.0815,0.02522 -0.21433,0.08117 -0.29519,0.124343 -0.0809,0.04317 -0.22148,0.07849 -0.3125,0.07849 -0.091,0 -0.18903,0.0381 -0.21781,0.08467 -0.0766,0.123988 -0.21167,0.10328 -0.21167,-0.03246 0,-0.06442 0.0751,-0.136775 0.16698,-0.160791 0.16396,-0.04288 0.16358,-0.04992 -0.0212,-0.390176 -0.2052,-0.377925 -0.38652,-0.432613 -0.77173,-0.232763 -0.2465,0.127885 -0.60889,0.09397 -0.62856,-0.05882 -0.007,-0.05426 -0.0344,-0.21296 -0.061,-0.35266 -0.047,-0.246895 -0.0292,-0.262981 0.6347,-0.575069 0.37566,-0.176588 0.80634,-0.42777 0.95706,-0.558184 0.15073,-0.130413 0.45156,-0.339946 0.66852,-0.465628 0.21695,-0.125683 0.41578,-0.284075 0.44184,-0.351983 0.0314,-0.08182 0.17078,-0.12347 0.41325,-0.12347 0.20122,0 0.5739,-0.05152 0.82815,-0.114486 0.591,-0.146359 1.65633,-0.140692 1.62646,0.0087 -0.0141,0.07034 0.0907,0.105833 0.3125,0.105833 0.18352,0 0.35406,0.03299 0.37898,0.07331 0.0249,0.04032 0.14136,0.05495 0.25876,0.03251 0.28855,-0.05516 1.56859,0.345149 1.56859,0.490551 0,0.158945 -0.56235,0.251659 -1.0107,0.166632 -0.24846,-0.04712 -0.53227,-0.08446 -0.63069,-0.08298 -0.16677,0.0025 -0.16886,0.01034 -0.0308,0.115168 0.0815,0.06186 0.14816,0.155388 0.14816,0.207837 0,0.05245 0.13801,0.153025 0.30668,0.2235 0.38998,0.162946 0.39922,0.161846 0.34612,-0.0412 -0.0458,-0.175153 0.0593,-0.233884 0.15154,-0.08467 0.0894,0.144679 0.3547,0.09316 0.47823,-0.09287 0.0822,-0.123826 0.23904,-0.191198 0.51832,-0.222678 0.37643,-0.04243 0.40045,-0.06006 0.40045,-0.294013 0,-0.209668 0.03,-0.244615 0.1905,-0.221823 0.14313,0.02033 0.18391,0.07442 0.16401,0.217556 -0.0311,0.223348 0.1451,0.252879 0.43163,0.07236 0.32236,-0.203093 1.34409,-0.420236 1.41761,-0.301278 0.0348,0.05635 0.10119,0.07904 0.14749,0.05042 0.0463,-0.02861 0.35732,-0.05936 0.69116,-0.06833 0.33385,-0.009 0.62403,-0.04388 0.64486,-0.07758 0.0208,-0.0337 -0.0859,-0.10694 -0.2372,-0.162756 -0.15128,-0.05582 -0.22955,-0.119148 -0.17392,-0.140738 0.0556,-0.02159 0.17694,0.0013 0.2696,0.0509 0.0926,0.04959 0.30245,0.09016 0.46623,0.09016 0.27379,0 1.00053,0.160208 1.33463,0.294216 0.0768,0.0308 0.16246,0.01901 0.1904,-0.0262 0.0279,-0.04521 -0.055,-0.119065 -0.18426,-0.164132 -0.24881,-0.08674 -0.36451,-0.442554 -0.14391,-0.442554 0.0651,0 0.21511,-0.104386 0.33341,-0.231969 0.1183,-0.127582 0.21567,-0.194257 0.21639,-0.148166 6.7e-4,0.04609 0.0353,0.0301 0.0768,-0.03554 0.0631,-0.09964 0.11878,-0.101441 0.33737,-0.01089 0.28674,0.118768 0.31305,0.172145 0.16022,0.324973 -0.079,0.07902 -0.079,0.1016 0,0.1016 0.0559,0 0.1016,0.10668 0.1016,0.237066 0,0.130387 0.0413,0.278321 0.0917,0.328742 0.0658,0.06579 0.0242,0.154245 -0.1473,0.313267 -0.27489,0.254889 -0.21887,0.27944 0.19234,0.0843 0.29524,-0.140097 0.34154,-0.310037 0.14205,-0.521329 -0.0562,-0.05956 -0.0822,-0.160478 -0.0577,-0.22427 0.0245,-0.06379 0.003,-0.141522 -0.0473,-0.172733 -0.12847,-0.0794 -0.0259,-0.214381 0.16288,-0.214381 0.0865,0 0.17951,-0.04762 0.20667,-0.105833 0.0395,-0.08467 0.0593,-0.08467 0.0988,0 0.0565,0.121071 0.34107,0.142858 0.40996,0.03139 0.0257,-0.04152 0.2803,-0.02556 0.57569,0.03609 0.56448,0.117797 0.74147,0.09798 0.3737,-0.04184 -0.25293,-0.09617 -0.29886,-0.256401 -0.0752,-0.262517 0.38982,-0.01066 1.06569,-0.08825 1.13343,-0.130111 0.0417,-0.02578 0.0585,-0.07499 0.0372,-0.109353 -0.0434,-0.07026 0.6861,-0.23307 1.39052,-0.310327 0.6037,-0.06621 0.7756,-0.117656 0.7159,-0.214252 -0.0785,-0.127053 0.0467,-0.09005 0.19411,0.05735 0.10633,0.106324 0.22946,0.123629 0.56546,0.07947 0.23624,-0.03105 0.44183,-0.09101 0.45686,-0.133241 0.015,-0.04223 0.1579,-0.101288 0.3175,-0.131228 0.46761,-0.08772 0.33424,-0.164645 -0.23885,-0.137746 -0.34534,0.01621 -0.48894,-0.0025 -0.41314,-0.05372 0.0789,-0.05332 -0.0844,-0.09502 -0.508,-0.129783 -0.3433,-0.02817 -0.80515,-0.0745 -1.02634,-0.102969 -0.4004,-0.05153 -0.51924,-0.164425 -0.27268,-0.25904 0.11214,-0.04303 0.1093,-0.0662 -0.0212,-0.172955 -0.0829,-0.0678 -0.1084,-0.102462 -0.0568,-0.07703 0.0517,0.02543 0.40407,0.05386 0.78317,0.06319 0.3791,0.0093 0.68927,0.05075 0.68927,0.09204 0,0.0413 0.0349,0.05355 0.0774,0.02723 0.0426,-0.02632 0.0997,5e-6 0.127,0.0585 0.0308,0.06602 0.0659,0.07343 0.0926,0.01953 0.0237,-0.04776 0.19492,-0.07235 0.38053,-0.05465 0.18561,0.0177 0.31954,0.06119 0.29763,0.09665 -0.0219,0.03545 -0.13655,0.04598 -0.25475,0.02338 -0.15785,-0.03017 -0.20294,-0.0103 -0.16984,0.07485 0.0301,0.07738 0.20032,0.118249 0.51194,0.122889 0.25678,0.0038 0.51136,0.05145 0.56575,0.105834 0.0754,0.0754 0.0647,0.09888 -0.0451,0.09888 -0.28165,0 -0.13829,0.148594 0.19473,0.201846 0.18627,0.02979 0.33864,0.08228 0.33861,0.116654 -3e-5,0.03437 0.2381,0.06529 0.52917,0.0687 0.72683,0.0085 0.91022,0.05 0.91022,0.205928 0,0.08756 -0.13552,0.170002 -0.39239,0.238704 -0.21581,0.05772 -0.37258,0.124753 -0.34838,0.148958 0.0242,0.02421 0.40081,0.0607 0.83689,0.08111 0.43609,0.0204 0.91699,0.0583 1.06869,0.08422 0.70935,0.121215 0.898,0.12231 1.02856,0.006 0.17064,-0.152045 1.16352,-0.06453 1.1298,0.09958 -0.0116,0.05665 0.0423,0.102999 0.11994,0.102999 0.0776,0 0.11604,0.02507 0.0854,0.05571 -0.0942,0.09416 0.1219,0.282956 0.32382,0.282956 0.10502,0 0.23802,-0.05673 0.29556,-0.126068 0.0575,-0.06934 0.1442,-0.101609 0.19257,-0.07172 0.15328,0.09473 1.24822,0.09805 1.18985,0.0036 -0.031,-0.0502 -0.0109,-0.05988 0.0483,-0.02328 0.0558,0.03449 0.14741,0.02658 0.20358,-0.01758 0.0562,-0.04415 0.20846,-0.105702 0.33842,-0.136771 0.12996,-0.03107 0.21613,-0.08912 0.19149,-0.128993 -0.0247,-0.03988 0.0509,-0.0908 0.16789,-0.113163 0.2423,-0.04632 0.37399,0.07265 0.14619,0.132068 -0.0855,0.0223 -0.0317,0.04763 0.12597,0.05932 0.25831,0.01915 0.38694,0.04013 0.48683,0.07937 0.0233,0.0091 0.22331,0.01839 0.4445,0.02053 0.24556,0.0024 0.46295,0.05738 0.55826,0.141248 0.12359,0.10875 0.34978,0.137531 1.08628,0.138222 0.81977,7.7e-4 0.94434,0.02022 1.04941,0.16385 0.10531,0.143969 0.21561,0.160892 0.94572,0.145094 0.45457,-0.0098 0.89413,-0.03842 0.97679,-0.06352 0.0956,-0.02902 0.14181,-0.0055 0.127,0.06456 -0.0337,0.159344 0.35332,0.193658 0.47041,0.04171 0.10383,-0.134743 1.3272,-0.243529 1.32682,-0.117986 -8e-5,0.03492 0.057,0.0635 0.12681,0.0635 0.0699,0 0.127,-0.0381 0.127,-0.08467 0,-0.04657 0.1143,-0.08467 0.254,-0.08467 h 0.254 v 0.629295 c 0,0.554935 -0.02,0.635645 -0.16933,0.683039 -0.18292,0.05805 -0.22029,0.17018 -0.0847,0.254 0.1723,0.106484 0.0765,0.211666 -0.19285,0.211666 -0.29103,0 -1.55662,0.381537 -1.72578,0.520272 -0.0636,0.05218 -0.11942,0.04643 -0.15819,-0.0163 -0.0363,-0.05877 -0.16427,-0.0767 -0.32504,-0.04555 -0.14583,0.02825 -0.43203,0.07079 -0.636,0.09453 -0.45479,0.05294 -1.04608,0.547713 -0.65455,0.547713 0.16605,0 0.12409,0.284011 -0.0527,0.356583 -0.0881,0.03618 -0.12679,0.112286 -0.0968,0.1905 0.0344,0.0897 -0.001,0.13025 -0.11465,0.13025 -0.0905,0 -0.31369,0.170411 -0.49589,0.378692 -0.18219,0.20828 -0.39794,0.37973 -0.47943,0.380999 -0.0815,0.0013 -0.14124,-0.02627 -0.13276,-0.06119 0.008,-0.03493 -0.0294,-0.2159 -0.0842,-0.402166 -0.0548,-0.186267 -0.0998,-0.399512 -0.10007,-0.473879 -7.6e-4,-0.2149 0.25925,-0.452911 0.76153,-0.697114 0.77884,-0.378667 1.14164,-0.615095 1.17037,-0.762696 0.0299,-0.153535 -0.11211,-0.192859 -0.1975,-0.0547 -0.0292,0.04727 -0.19124,0.143659 -0.36005,0.214193 -0.27478,0.114811 -0.31452,0.114677 -0.37942,-0.0013 -0.0399,-0.07124 -0.18009,-0.129527 -0.31161,-0.129527 -0.26807,0 -1.04625,0.401005 -0.9815,0.505775 0.0585,0.09462 -0.31503,0.154622 -0.51244,0.08233 -0.0899,-0.03294 -0.61569,-0.04477 -1.16835,-0.0263 -0.83127,0.02778 -1.04558,0.06259 -1.24074,0.201558 -0.12975,0.09239 -0.26126,0.167979 -0.29224,0.167979 -0.031,0 -0.21561,0.107886 -0.41027,0.239746 -0.19465,0.13186 -0.42746,0.26665 -0.51735,0.299533 -0.1437,0.05257 -0.12837,0.07786 0.127,0.209486 0.18416,0.09492 0.35638,0.126929 0.47066,0.08747 0.11465,-0.03959 0.24865,-0.01431 0.36827,0.06948 0.1538,0.107723 0.1773,0.179878 0.129,0.396166 -0.0325,0.145449 -0.0658,0.34119 -0.0741,0.43498 -0.014,0.159159 -0.16717,0.413352 -0.48125,0.798886 -0.0725,0.089 -0.31946,0.31687 -0.54878,0.506371 -0.33206,0.274398 -0.48622,0.345098 -0.75717,0.347242 -0.34443,0.0027 -0.63655,0.150113 -0.63655,0.321163 0,0.05144 -0.0667,0.131685 -0.14817,0.178331 -0.38162,0.218437 -0.38454,0.227406 -0.15052,0.461428 0.16844,0.168438 0.21794,0.292939 0.19811,0.498296 -0.023,0.238118 -0.0677,0.283946 -0.34326,0.352028 -0.34042,0.0841 -0.45955,0.03966 -0.35354,-0.131863 0.14137,-0.228735 0.0882,-0.501513 -0.10735,-0.550588 -0.13293,-0.03336 -0.18525,-0.103174 -0.17226,-0.229868 0.0155,-0.151184 -0.0243,-0.180754 -0.23535,-0.174865 -0.1397,0.0039 -0.32096,0.03666 -0.40281,0.07281 -0.11985,0.05293 -0.14457,0.02864 -0.127,-0.124754 0.031,-0.270773 -0.11207,-0.28595 -0.37729,-0.04002 -0.12568,0.116534 -0.26827,0.21188 -0.31687,0.21188 -0.15429,0 -0.0954,0.137147 0.10214,0.237747 0.10478,0.05336 0.24765,0.0919 0.3175,0.08564 0.27976,-0.0251 0.508,0.01981 0.508,0.09995 0,0.04657 -0.0608,0.08467 -0.1351,0.08467 -0.0743,0 -0.24872,0.08091 -0.38759,0.179796 l -0.2525,0.179796 0.29637,0.244293 c 0.49063,0.40442 0.51074,1.002865 0.051,1.5178 -0.13724,0.153714 -0.24952,0.320243 -0.24952,0.370064 -10e-6,0.135454 -0.55749,0.554026 -0.8696,0.652918 -0.15037,0.04764 -0.3496,0.116496 -0.44274,0.153004 -0.0931,0.03651 -0.28363,0.101962 -0.42333,0.145454 -0.1756,0.05467 -0.24946,0.128936 -0.2393,0.240622 0.0222,0.243713 -0.12723,0.46492 -0.31401,0.46492 -0.19973,0 -0.21466,-0.144963 -0.0353,-0.343104 0.11836,-0.13079 0.1178,-0.15799 -0.006,-0.281665 -0.10985,-0.109856 -0.17266,-0.117751 -0.31801,-0.03997 -0.18042,0.09656 -0.47628,0.406551 -0.48164,0.504648 -0.002,0.02837 0.14369,0.218869 0.32275,0.423333 0.45469,0.519199 0.54601,0.72041 0.48195,1.061899 -0.0382,0.203457 -0.12228,0.322057 -0.27889,0.393251 -0.12333,0.05607 -0.3213,0.197187 -0.43993,0.313604 -0.20563,0.201788 -0.21703,0.203764 -0.24425,0.04233 -0.0157,-0.09313 -0.19679,-0.302683 -0.40242,-0.465667 -0.20563,-0.162983 -0.43272,-0.348494 -0.50465,-0.412246 -0.0719,-0.06375 -0.13878,-0.101851 -0.14856,-0.08467 -0.01,0.01719 -0.0779,0.208057 -0.15148,0.424158 -0.12516,0.367842 -0.12389,0.405655 0.0199,0.592666 0.0845,0.109866 0.15447,0.244814 0.15551,0.299884 0.001,0.05507 0.0771,0.123998 0.16902,0.153174 0.21582,0.0685 0.51019,0.48268 0.51019,0.717834 0,0.100648 0.042,0.261537 0.0934,0.357531 0.055,0.102782 0.0616,0.196214 0.016,0.227267 -0.0908,0.06186 -0.10137,0.433733 -0.0123,0.433733 0.0335,0 0.0834,0.07116 0.111,0.158127 0.0307,0.09686 0.12317,0.154267 0.23854,0.148166 0.16464,-0.0087 0.18553,0.02735 0.16594,0.286374 -0.032,0.42349 -0.0771,0.508 -0.27102,0.508 -0.20752,0 -0.76723,-0.489076 -0.93791,-0.81955 -0.0678,-0.131331 -0.19,-0.312643 -0.27149,-0.402915 -0.0815,-0.09027 -0.14817,-0.205099 -0.14817,-0.25517 0,-0.05007 -0.19131,-0.273812 -0.42513,-0.4972 -0.23383,-0.22339 -0.40619,-0.436829 -0.38302,-0.47431 0.086,-0.139158 0.47174,0.0219 0.81796,0.341529 0.48266,0.445588 0.62256,0.435308 0.41125,-0.03022 -0.0898,-0.197908 -0.16417,-0.419867 -0.1652,-0.493242 -0.001,-0.07337 -0.0927,-0.218788 -0.20382,-0.323141 -0.17491,-0.164319 -0.19988,-0.25986 -0.18644,-0.713259 0.009,-0.287939 -0.018,-0.593542 -0.059,-0.679118 -0.041,-0.08558 -0.0927,-0.257026 -0.11496,-0.381 -0.055,-0.30656 -0.15166,-0.385238 -0.28133,-0.228995 -0.0596,0.07182 -0.19657,0.130588 -0.30436,0.130588 -0.17362,0 -0.19099,-0.03139 -0.15228,-0.275166 0.0361,-0.227466 -0.009,-0.336209 -0.25932,-0.627292 -0.16667,-0.19367 -0.30303,-0.397771 -0.30303,-0.453559 0,-0.05579 -0.0567,-0.07968 -0.12596,-0.05309 -0.0693,0.02659 -0.31694,0.07367 -0.55034,0.104632 -0.27982,0.03712 -0.42436,0.09655 -0.42436,0.174482 0,0.065 -0.0857,0.153458 -0.1905,0.196565 -0.10478,0.04311 -0.37606,0.2506 -0.60285,0.461095 -0.22678,0.210495 -0.4785,0.403719 -0.55937,0.429386 -0.1984,0.06297 -0.3092,1.195597 -0.13643,1.394704 0.31626,0.364491 0.36732,0.849581 0.0894,0.849581 -0.17874,0 -0.29859,-0.29256 -0.23996,-0.585736 0.0603,-0.301337 -0.0432,-0.337052 -0.26531,-0.0916 -0.21105,0.233206 -0.36909,0.211993 -0.47309,-0.0635 -0.0483,-0.128058 -0.15713,-0.385233 -0.24175,-0.5715 -0.27495,-0.605199 -0.49939,-1.177429 -0.61311,-1.563183 -0.0734,-0.248934 -0.16916,-0.393368 -0.28072,-0.423333 -0.21498,-0.05774 -0.635,-0.34036 -0.635,-0.427267 0,-0.03629 -0.11386,-0.187864 -0.25302,-0.336837 -0.25139,-0.269116 -0.2589,-0.270991 -1.16417,-0.290912 -0.95493,-0.02102 -1.20748,-0.07655 -1.20748,-0.265537 0,-0.08639 -0.0985,-0.102282 -0.40738,-0.0657 -0.30985,0.0367 -0.44016,0.01547 -0.54428,-0.08866 -0.0753,-0.0753 -0.17675,-0.136904 -0.22545,-0.136904 -0.0487,0 -0.14764,-0.1143 -0.21989,-0.254 -0.143,-0.27653 -0.30335,-0.322572 -0.46117,-0.132412 -0.0699,0.08426 -0.0751,0.168736 -0.0167,0.275166 0.10341,0.1887 0.4475,0.488904 0.56258,0.490829 0.0466,7.62e-4 0.0965,0.104087 0.11101,0.229573 0.0232,0.201038 0.0572,0.224254 0.28573,0.195328 0.14267,-0.01806 0.3519,-0.119728 0.46496,-0.225938 0.17396,-0.163431 0.21768,-0.173932 0.28446,-0.06833 0.0434,0.06863 0.0795,0.152845 0.0802,0.187146 6.8e-4,0.0343 0.12512,0.114123 0.27646,0.177385 0.47894,0.200199 0.52736,0.333963 0.23439,0.647586 -0.14055,0.150466 -0.25637,0.317168 -0.25736,0.370453 -0.003,0.139558 -0.62884,0.562545 -0.83286,0.562545 -0.0949,0 -0.27539,0.09525 -0.401,0.211667 -0.12562,0.116417 -0.27046,0.212959 -0.32186,0.214539 -0.0514,0.0016 -0.24587,0.07649 -0.43214,0.166461 -0.18627,0.08997 -0.42214,0.164881 -0.52417,0.166461 -0.10203,0.0016 -0.20905,0.04097 -0.23783,0.08754 -0.0288,0.04657 -0.14125,0.08467 -0.24994,0.08467 -0.25473,0 -0.33074,0.200287 -0.14113,0.371884 0.1262,0.114211 0.22141,0.119996 0.65045,0.03952 0.27644,-0.05185 0.58471,-0.132021 0.68505,-0.17816 0.20304,-0.09337 0.3679,-0.02877 0.3679,0.14415 0,0.06237 -0.1158,0.333542 -0.25733,0.602598 -0.14153,0.269055 -0.23815,0.539167 -0.21471,0.600248 0.0234,0.06108 0.0154,0.104669 -0.0178,0.09686 -0.0332,-0.0078 -0.262,0.173625 -0.50835,0.403182 -1.74185,1.623165 -1.85537,1.792391 -1.71429,2.555528 0.0485,0.262176 0.12219,0.497945 0.16384,0.523933 0.0968,0.06042 0.14598,1.005626 0.0647,1.244644 -0.0339,0.09977 -0.18078,0.230731 -0.32635,0.291032 -0.14558,0.0603 -0.41468,0.248127 -0.59799,0.417394 -0.316,0.291787 -0.32899,0.323368 -0.25023,0.608614 0.11887,0.430495 0.0446,0.697999 -0.22178,0.798697 -0.16912,0.06393 -0.25168,0.17987 -0.32794,0.460491 -0.067,0.246652 -0.2429,0.523082 -0.51372,0.807473 -0.57606,0.604912 -0.80088,0.731714 -1.35761,0.76571 -0.26515,0.01619 -0.6598,0.05209 -0.87702,0.07977 -0.34375,0.04381 -0.40735,0.02713 -0.49075,-0.128705 z m 5.59206,-10.785357 c -0.0506,-0.05062 -0.092,-0.20035 -0.092,-0.332726 0,-0.22051 -0.53244,-1.065241 -0.76012,-1.205957 -0.0476,-0.02942 -0.0865,-0.163379 -0.0865,-0.29769 0,-0.140662 -0.0661,-0.291111 -0.15587,-0.354837 -0.0857,-0.06085 -0.2667,-0.281625 -0.40216,-0.490615 -0.13547,-0.208989 -0.2684,-0.410304 -0.2954,-0.447367 -0.0705,-0.09676 -0.31803,0.01546 -0.30031,0.136141 0.008,0.05578 0.0997,0.238619 0.20331,0.406307 0.10364,0.167688 0.18843,0.357901 0.18843,0.422694 0,0.06479 0.0762,0.165395 0.16934,0.223558 0.0939,0.05867 0.16933,0.197444 0.16933,0.311702 0,0.113274 0.0364,0.228471 0.081,0.255994 0.0445,0.02752 0.0606,0.10305 0.0358,0.167837 -0.0249,0.06479 0.0296,0.157813 0.12095,0.206722 0.0914,0.04891 0.19148,0.189784 0.22242,0.313054 0.0614,0.244692 0.11579,0.308186 0.55187,0.644423 0.27345,0.210838 0.55265,0.243349 0.35006,0.04076 z m -5.27043,-3.949865 c 0.10018,-0.287386 0.4294,-0.413565 0.71875,-0.275472 0.21669,0.10342 0.47226,0.200332 0.64964,0.246349 0.2433,0.06312 1.7496,0.09601 1.837,0.04011 0.13679,-0.08749 0.449,-0.785293 0.449,-1.003537 0,-0.151108 -0.0471,-0.195763 -0.20667,-0.195763 -0.11367,0 -0.23022,0.0381 -0.259,0.08467 -0.0717,0.116067 -0.381,0.107284 -0.381,-0.01082 0,-0.06377 -0.11099,-0.07774 -0.33409,-0.04206 -0.19635,0.0314 -0.42586,0.01161 -0.55668,-0.048 -0.22736,-0.10359 -0.46389,-0.461488 -0.46389,-0.701904 0,-0.193502 -0.21866,-0.248397 -0.50952,-0.127918 -0.28389,0.117589 -0.31767,0.229374 -0.11425,0.378114 0.12691,0.0928 0.12537,0.116105 -0.0188,0.284502 -0.19312,0.225553 -0.34576,0.234597 -0.41246,0.02444 -0.0277,-0.08744 -0.14457,-0.268413 -0.2596,-0.402166 -0.11503,-0.133753 -0.20919,-0.329392 -0.20925,-0.434754 -8e-5,-0.150811 -0.0994,-0.235481 -0.46682,-0.397971 -0.25669,-0.113522 -0.48937,-0.265441 -0.51706,-0.337599 -0.0277,-0.07216 -0.11484,-0.131196 -0.19368,-0.131196 -0.0788,0 -0.18782,-0.04447 -0.24217,-0.09882 -0.0753,-0.07532 -0.11137,-0.06613 -0.15158,0.03866 -0.0678,0.176692 0.39813,0.653226 0.83689,0.855936 0.29162,0.134728 0.30939,0.160399 0.17768,0.256708 -0.1068,0.07809 -0.11889,0.123983 -0.0447,0.169805 0.0778,0.04808 0.0784,0.0908 0.002,0.182258 -0.13061,0.15738 -0.2789,0.15345 -0.2178,-0.0058 0.0518,-0.135041 -0.36,-0.49131 -0.68016,-0.588423 -0.10151,-0.03079 -0.32054,-0.195979 -0.48674,-0.367092 -0.29416,-0.302852 -0.30949,-0.308006 -0.57745,-0.194076 -0.15139,0.06437 -0.43379,0.120365 -0.62754,0.124431 -0.3499,0.0073 -0.49439,0.07437 -0.49439,0.229341 0,0.04446 -0.1524,0.166139 -0.33866,0.2704 -0.22468,0.125761 -0.34859,0.259123 -0.36814,0.39623 -0.0402,0.281885 -0.42317,0.592579 -0.73253,0.594284 -0.30792,0.0017 -0.50831,0.115313 -0.42918,0.243341 0.0918,0.148599 0.69292,0.109878 1.08627,-0.06998 0.24901,-0.113859 0.61816,-0.176476 1.20558,-0.204496 0.46566,-0.02221 0.88476,-0.04813 0.93133,-0.05758 0.22624,-0.04595 0.39588,0.01128 0.35434,0.119539 -0.0246,0.06417 -0.004,0.157811 0.0466,0.208078 0.0654,0.06542 0.06,0.129268 -0.0192,0.22463 -0.0928,0.111853 -0.0848,0.152761 0.0502,0.254896 0.0884,0.06691 0.26684,0.122873 0.39654,0.124354 0.12969,0.0015 0.33655,0.06937 0.45967,0.150859 0.1993,0.131907 0.82324,0.412642 0.9684,0.435721 0.0304,0.0048 0.0946,-0.10418 0.14272,-0.242241 z m 2.85006,-0.764979 c -0.0288,-0.04657 0.0284,-0.08467 0.127,-0.08467 0.0986,0 0.15578,0.0381 0.127,0.08467 -0.0288,0.04657 -0.0859,0.08467 -0.127,0.08467 -0.0411,0 -0.0982,-0.0381 -0.127,-0.08467 z m -4.29684,-0.514782 c -0.23277,-0.135576 -0.17405,-0.247218 0.13003,-0.247218 0.22174,0 0.27819,0.03436 0.27819,0.169333 0,0.184229 -0.16996,0.216656 -0.40822,0.07789 z m -1.14934,-0.641231 c 0.0173,-0.151003 0.0846,-0.250376 0.18202,-0.268859 0.12477,-0.02368 0.14921,0.01677 0.127,0.210218 -0.0173,0.151003 -0.0846,0.250376 -0.18202,0.268859 -0.12478,0.02368 -0.14921,-0.01677 -0.127,-0.210218 z m 1.04351,-0.02932 c 0.0288,-0.04657 0.0691,-0.08467 0.0897,-0.08467 0.0205,0 0.0373,0.0381 0.0373,0.08467 0,0.04657 -0.0404,0.08467 -0.0897,0.08467 -0.0493,0 -0.0661,-0.0381 -0.0373,-0.08467 z m -1.22098,-0.472721 c 0.004,-0.09863 0.0241,-0.118695 0.0512,-0.05115 0.0245,0.06112 0.0214,0.134144 -0.007,0.162279 -0.0281,0.02813 -0.0481,-0.02187 -0.0445,-0.111125 z m 0.28965,-0.03528 c -0.0288,-0.04657 -0.0142,-0.08467 0.0323,-0.08467 0.0466,0 0.10821,0.0381 0.13699,0.08467 0.0288,0.04657 0.0142,0.08467 -0.0323,0.08467 -0.0466,0 -0.10821,-0.0381 -0.13699,-0.08467 z m 10.07707,0.953146 c -0.0327,-0.174271 -0.0836,-0.355246 -0.11315,-0.402167 -0.0295,-0.04692 -0.0431,-0.149662 -0.0302,-0.228312 0.0129,-0.07865 -0.11628,-0.297726 -0.28713,-0.486834 -0.17085,-0.189108 -0.27421,-0.343833 -0.2297,-0.343833 0.11352,0 0.28708,-0.407379 0.19722,-0.462917 -0.0806,-0.0498 -0.2402,-0.0066 -0.65702,0.177914 -0.309,0.136768 -0.40537,0.249086 -0.28014,0.326483 0.0473,0.02925 0.0861,0.112577 0.0861,0.185173 0,0.0726 0.11311,0.260823 0.25136,0.418281 0.24009,0.273442 0.26493,0.499515 0.0694,0.631836 -0.11204,0.07584 3.4e-4,0.282842 0.20999,0.38679 0.10388,0.05151 0.33599,0.09833 0.5158,0.104045 l 0.32692,0.0104 z m -2.78252,-0.720397 c 0.15592,-0.101281 0.0326,-0.382896 -0.2122,-0.484812 -0.51618,-0.21485 -0.70842,-0.35607 -0.61368,-0.450813 0.18429,-0.184287 0.10224,-0.299762 -0.18217,-0.256403 -0.37963,0.05787 -0.47562,0.174233 -0.22602,0.273998 l 0.20485,0.08188 -0.22578,0.0054 c -0.12418,0.003 -0.24243,0.05299 -0.2628,0.111201 -0.0266,0.07594 -0.0889,0.05976 -0.22072,-0.05727 -0.12022,-0.106738 -0.15139,-0.183068 -0.0902,-0.220884 0.0514,-0.03178 -0.0254,-0.08157 -0.17077,-0.110638 -0.14854,-0.02971 -0.3327,-0.01011 -0.42056,0.04476 -0.21359,0.133389 -0.60891,0.757783 -0.5792,0.914815 0.031,0.163958 0.7013,0.220648 0.96161,0.08133 0.18475,-0.09887 0.57512,-0.07793 1.11903,0.06004 0.34753,0.08816 0.78884,0.09173 0.91862,0.0074 z m -1.93921,-4.38241 c 0.0128,-0.06932 -0.0651,-0.166586 -0.17313,-0.216159 -0.35653,-0.163629 -0.54729,0.04197 -0.25034,0.269817 0.1834,0.140721 0.3925,0.114226 0.42347,-0.05366 z m 0.82114,-0.161535 c 0.0515,-0.08339 -0.17087,-0.345493 -0.29316,-0.345493 -0.14697,0 -0.16673,0.158797 -0.036,0.289508 0.15154,0.151545 0.25884,0.169793 0.32917,0.05598 z m 1.83727,19.560823 c -0.18973,-0.120233 -0.25474,-0.613748 -0.11727,-0.890253 0.0786,-0.158126 0.1036,-0.361373 0.0701,-0.570637 -0.0412,-0.257977 -0.0169,-0.360144 0.11822,-0.495228 0.0936,-0.09361 0.21987,-0.170196 0.28059,-0.170196 0.137,0 0.65161,-0.521388 0.65161,-0.660198 0,-0.178128 0.16941,-0.109586 0.26892,0.108799 0.0772,0.16955 0.0578,0.355218 -0.10001,0.9525 -0.41423,1.568286 -0.7169,2.013744 -1.1722,1.725213 z m 30.08714,-1.704362 c 0.0292,-0.04733 0.0887,-0.06413 0.132,-0.03734 0.11744,0.07258 0.0955,0.123384 -0.0532,0.123384 -0.0726,0 -0.10807,-0.03872 -0.0788,-0.08605 z m -6.66917,-1.69919 c -0.0819,-0.04771 -0.24213,-0.179906 -0.35598,-0.293758 -0.26173,-0.261733 -0.45795,-0.260041 -0.71042,0.0061 -0.24138,0.254473 -0.36142,0.263193 -0.56262,0.04087 -0.0976,-0.10789 -0.26077,-0.169333 -0.44957,-0.169333 -0.286,0 -0.29125,-0.0056 -0.15043,-0.161224 0.12247,-0.135334 0.12862,-0.188893 0.0383,-0.333548 -0.12645,-0.20249 -0.30871,-0.29782 -0.85644,-0.447958 -0.28175,-0.07723 -0.40217,-0.153971 -0.40217,-0.256287 0,-0.08033 -0.0857,-0.206433 -0.1905,-0.280236 -0.15087,-0.106271 -0.1664,-0.149226 -0.0747,-0.206474 0.22154,-0.138265 0.54875,0.02703 0.62334,0.314892 0.0385,0.148592 0.0905,0.270168 0.11557,0.270168 0.0251,0 0.17201,-0.09645 0.32656,-0.214329 l 0.281,-0.214328 0.78666,0.270243 c 0.48117,0.165295 0.88437,0.363609 1.03825,0.510662 0.13836,0.13223 0.30774,0.240419 0.37638,0.240419 0.10421,0 0.10646,0.02211 0.0137,0.133904 -0.0952,0.114717 -0.0662,0.17629 0.20237,0.42968 0.37384,0.352692 0.34165,0.588159 -0.0493,0.360512 z m -6.41268,-0.07743 c -0.0699,-0.04514 -0.0889,-0.08207 -0.0423,-0.08207 0.0466,0 0.14182,0.03693 0.21167,0.08207 0.0699,0.04514 0.0889,0.08207 0.0423,0.08207 -0.0466,0 -0.14181,-0.03693 -0.21166,-0.08207 z m 0.93133,0.01568 c 0,-0.05995 0.52995,-0.354348 0.63787,-0.354348 0.14062,0 -0.008,0.160626 -0.25974,0.280653 -0.34037,0.162307 -0.37813,0.169667 -0.37813,0.0737 z m -1.43933,-0.272338 c 0,-0.04511 0.0572,-0.08201 0.127,-0.08201 0.0699,0 0.127,0.01497 0.127,0.03327 0,0.0183 -0.0572,0.05521 -0.127,0.08201 -0.0699,0.0268 -0.127,0.01183 -0.127,-0.03328 z m 0.71966,0.0027 c -0.0288,-0.04657 -0.012,-0.08467 0.0373,-0.08467 0.0493,0 0.0897,0.0381 0.0897,0.08467 0,0.04657 -0.0168,0.08467 -0.0373,0.08467 -0.0205,0 -0.0609,-0.0381 -0.0897,-0.08467 z m -1.905,-0.09932 c -0.25611,-0.04151 -0.63711,-0.09739 -0.84666,-0.124164 -0.3884,-0.04963 -0.59267,-0.154455 -0.59267,-0.304144 0,-0.05006 0.12731,-0.06114 0.3175,-0.02765 0.17463,0.03075 0.49251,0.06823 0.70641,0.08329 0.2139,0.01506 0.48364,0.08945 0.59943,0.165317 0.11578,0.07586 0.23605,0.112402 0.26725,0.08119 0.0312,-0.03121 0.0567,0.0068 0.0567,0.08437 0,0.07761 -0.01,0.135746 -0.0212,0.12919 -0.0116,-0.0066 -0.23072,-0.04589 -0.48684,-0.0874 z m 8.29734,-0.578011 c 0,-0.04657 0.10668,-0.08467 0.23706,-0.08467 0.13039,0 0.28216,-0.04509 0.33726,-0.100189 0.0551,-0.0551 0.12441,-0.07597 0.15401,-0.04637 0.0296,0.0296 -0.005,0.112788 -0.0772,0.184855 -0.14461,0.144607 -0.65113,0.180675 -0.65113,0.04637 z m -6.68665,-0.275167 c -0.005,-0.151342 -0.0114,-0.36472 -0.0141,-0.474173 -0.007,-0.286918 0.13999,-0.406272 0.31857,-0.258839 0.1118,0.09229 0.1524,0.0953 0.17998,0.01335 0.0645,-0.191718 0.16668,-0.1103 0.15934,0.127 -0.004,0.128059 0.0213,0.337609 0.0561,0.465667 0.0803,0.295229 -0.0763,0.313148 -0.20813,0.02382 -0.0524,-0.114957 -0.12838,-0.188524 -0.16889,-0.163483 -0.0405,0.02504 -0.0515,0.08134 -0.0245,0.125102 0.0768,0.124267 -0.0449,0.416726 -0.17346,0.416726 -0.0721,0 -0.11913,-0.103583 -0.12494,-0.275167 z m -1.07249,-0.151835 c -0.0442,-0.04422 -0.26895,-0.102583 -0.49939,-0.129684 -0.23045,-0.0271 -0.41993,-0.05581 -0.42109,-0.0638 -10e-4,-0.008 -0.0885,-0.199415 -0.19404,-0.425401 -0.15213,-0.325659 -0.17092,-0.436214 -0.0906,-0.53302 0.0557,-0.06718 0.15275,-0.102418 0.21556,-0.07832 0.0628,0.0241 0.16112,-0.03132 0.21847,-0.123147 0.0573,-0.09183 0.16178,-0.167202 0.23207,-0.167489 0.0703,-2.54e-4 0.33429,-0.190786 0.58666,-0.423333 0.49961,-0.460361 0.55231,-0.482076 0.73253,-0.30186 0.13875,0.138758 0.16203,0.387047 0.0363,0.387047 -0.11493,0 -0.10719,0.392387 0.0121,0.615353 0.0726,0.135715 0.0726,0.188945 0,0.213156 -0.0532,0.01775 -0.0968,0.07084 -0.0968,0.117977 0,0.04714 -0.072,0.18684 -0.16002,0.310445 -0.15777,0.22156 -0.17864,0.272208 -0.17864,0.433424 0,0.131076 -0.30141,0.260372 -0.39314,0.168644 z m 2.67914,-0.081 c 0,-0.04657 0.0403,-0.08467 0.0897,-0.08467 0.0493,0 0.0661,0.0381 0.0373,0.08467 -0.0288,0.04657 -0.0691,0.08467 -0.0897,0.08467 -0.0205,0 -0.0373,-0.0381 -0.0373,-0.08467 z m 0.29995,-0.840817 c -0.0268,-0.04335 -0.01,-0.102748 0.0373,-0.131997 0.0473,-0.02925 0.0861,0.0062 0.0861,0.07882 0,0.14872 -0.0508,0.170617 -0.12338,0.05318 z m -1.56995,-0.175184 c 0,-0.10608 0.0899,-0.10608 0.254,0 0.10269,0.06637 0.0905,0.08232 -0.0635,0.08337 -0.10478,7.13e-4 -0.1905,-0.0368 -0.1905,-0.08337 z m 0.32279,-0.22717 c 0.0611,-0.02446 0.13414,-0.02145 0.16228,0.0067 0.0281,0.02813 -0.0219,0.04815 -0.11113,0.04447 -0.0986,-0.0041 -0.11869,-0.02412 -0.0512,-0.05115 z m 0.43921,-1.04283 c -0.0498,-0.09313 -0.16549,-0.169333 -0.25698,-0.169333 -0.2494,0 -0.20028,-0.158958 0.0665,-0.215168 0.12806,-0.02698 0.30623,-0.08938 0.39595,-0.138667 0.12846,-0.07057 0.18692,-0.05705 0.27516,0.06363 0.0616,0.08428 0.11205,0.184054 0.11205,0.221721 0,0.09584 -0.3214,0.407151 -0.42035,0.407151 -0.0449,0 -0.12247,-0.0762 -0.17231,-0.169334 z m -0.33867,-0.712611 c 0,-0.06597 -0.0476,-0.137406 -0.10583,-0.15875 -0.08,-0.02933 -0.082,-0.06414 -0.008,-0.142522 0.0762,-0.08115 0.13421,-0.06688 0.2667,0.06562 0.12315,0.123152 0.14393,0.194733 0.0762,0.262466 -0.12836,0.128361 -0.2286,0.116604 -0.2286,-0.02681 z m 0.42333,-0.383058 c 0,-0.142449 0.0381,-0.258997 0.0847,-0.258997 0.0466,0 0.0847,0.093 0.0847,0.206669 0,0.113669 -0.0381,0.230217 -0.0847,0.258997 -0.0494,0.03053 -0.0847,-0.05556 -0.0847,-0.206669 z m -0.84666,-0.463609 c 0,-0.112535 -0.0386,-0.217494 -0.0859,-0.233241 -0.13023,-0.04341 0.002,-0.83792 0.1493,-0.894284 0.0677,-0.02596 0.15668,0.006 0.19784,0.07097 0.10475,0.165433 0.0958,0.499171 -0.0133,0.499171 -0.0499,0 -0.0838,0.08573 -0.0753,0.1905 0.0292,0.359846 -0.003,0.5715 -0.088,0.5715 -0.0466,0 -0.0847,-0.09207 -0.0847,-0.204612 z m 0.48683,0.06158 c -0.0815,-0.0213 -0.14817,-0.07403 -0.14817,-0.117178 0,-0.119616 0.13602,-0.09362 0.254,0.04854 0.058,0.06985 0.0912,0.12258 0.0739,0.117179 -0.0173,-0.0054 -0.0982,-0.02725 -0.1797,-0.04854 z m -44.196,-1.024759 c -0.17463,-0.01527 -0.3175,-0.06138 -0.3175,-0.102461 0,-0.04108 0.0762,-0.06002 0.16933,-0.04208 0.12241,0.02357 0.16933,-0.01296 0.16933,-0.131861 0,-0.191208 0.24558,-0.217632 0.6647,-0.07152 0.27662,0.09643 0.36145,0.245718 0.13964,0.245718 -0.18566,0 -0.24002,0.01046 -0.381,0.07334 -0.0699,0.03115 -0.26988,0.04415 -0.4445,0.02887 z m -1.16417,-0.102211 c 0,-0.04657 0.0572,-0.08467 0.127,-0.08467 0.0699,0 0.127,0.0381 0.127,0.08467 0,0.04657 -0.0571,0.08467 -0.127,0.08467 -0.0699,0 -0.127,-0.0381 -0.127,-0.08467 z m 2.49852,-0.0014 c 0.0293,-0.04733 0.0887,-0.06413 0.132,-0.03734 0.11743,0.07258 0.0955,0.123384 -0.0532,0.123384 -0.0726,0 -0.10807,-0.03872 -0.0788,-0.08605 z m -20.10919,-0.29995 c 0,-0.0726 0.0381,-0.108449 0.0847,-0.07967 0.0466,0.02878 0.0847,0.08818 0.0847,0.131998 0,0.04382 -0.0381,0.07967 -0.0847,0.07967 -0.0466,0 -0.0847,-0.0594 -0.0847,-0.131998 z m 17.66984,-0.150999 c -0.0786,-0.204726 -0.59613,-0.385125 -1.05646,-0.368231 -0.2432,0.0089 -0.44216,-0.01329 -0.44212,-0.04937 1.7e-4,-0.117677 0.45964,-0.244608 0.71974,-0.198821 0.61823,0.108829 0.80434,0.161172 0.80434,0.226212 0,0.03827 0.13335,0.117797 0.29633,0.176732 0.16298,0.05894 0.29633,0.156652 0.29633,0.217148 0,0.14907 -0.56083,0.145739 -0.61816,-0.0037 z m 44.64753,-0.627171 c 0.003,-0.183968 0.19427,-0.4445 0.32575,-0.4445 0.0644,0 0.0785,0.08 0.0411,0.232834 -0.0828,0.33834 -0.37222,0.505314 -0.36688,0.211666 z m 2.33975,-1.940278 c -0.24026,-0.240254 0.25743,-0.804464 0.73533,-0.833614 0.35577,-0.0217 0.64756,-0.119171 0.64756,-0.216313 0,-0.04343 0.044,-0.07896 0.0978,-0.07896 0.0538,0 0.22071,-0.09371 0.37087,-0.208253 0.21679,-0.165349 0.28484,-0.291808 0.33032,-0.613833 0.0819,-0.579863 0.12797,-0.701915 0.26501,-0.701915 0.0729,0 0.12129,-0.08439 0.12129,-0.211666 0,-0.234931 0.0979,-0.272757 0.24553,-0.09487 0.0533,0.06424 0.21038,0.139485 0.34904,0.167217 0.33471,0.06694 0.31791,0.158877 -0.0604,0.330331 -0.24273,0.110019 -0.33925,0.119393 -0.4325,0.042 -0.0946,-0.0785 -0.14392,-0.06695 -0.23269,0.05445 -0.0964,0.131881 -0.089,0.179446 0.0515,0.330269 0.19617,0.210564 0.19787,0.227788 0.0442,0.447254 -0.066,0.09423 -0.14577,0.308689 -0.17726,0.476572 -0.0592,0.315768 -0.0553,0.313538 -0.80186,0.457096 -0.069,0.01327 -0.13836,0.06281 -0.15412,0.110096 -0.0158,0.04728 -0.13289,0.06512 -0.26028,0.03965 -0.15345,-0.03069 -0.26924,-9.99e-4 -0.34308,0.08798 -0.14259,0.171806 -0.26006,0.171916 -0.26006,2.54e-4 0,-0.07373 -0.0476,-0.117991 -0.10583,-0.09836 -0.0582,0.01964 -0.10584,0.108535 -0.10584,0.197556 0,0.282806 -0.1815,0.460128 -0.32455,0.317077 z m 2.59976,-3.732389 c 0.018,-0.221191 0.0435,-0.440266 0.0568,-0.486833 0.0133,-0.04657 -0.006,-0.193531 -0.0436,-0.326587 -0.0477,-0.170656 -0.0343,-0.26254 0.0456,-0.311914 0.16093,-0.09946 0.24834,-0.02001 0.24834,0.225731 0,0.11673 0.0409,0.28859 0.0908,0.381912 0.0741,0.138516 0.0553,0.200455 -0.10243,0.33727 -0.16336,0.141675 -0.1774,0.192959 -0.0908,0.331609 0.13834,0.221513 0.13042,0.250979 -0.0675,0.250979 -0.15083,0 -0.16623,-0.04514 -0.13723,-0.402167 z M 135.23387,58.25761 c 0.0695,-0.129796 0.0605,-0.164437 -0.0427,-0.164437 -0.10806,0 -0.11297,-0.02839 -0.0283,-0.163897 0.0563,-0.09014 0.17107,-0.181867 0.25506,-0.203832 0.22794,-0.05961 0.0927,-0.309605 -0.16749,-0.309605 -0.11919,0 -0.19284,-0.02388 -0.16365,-0.05307 0.0292,-0.02919 0.001,-0.153714 -0.0626,-0.276726 -0.0938,-0.181408 -0.0954,-0.251353 -0.008,-0.370266 0.11535,-0.157743 0.38487,-0.20112 0.38487,-0.06194 0,0.04657 0.0953,0.08467 0.21167,0.08467 0.22287,0 0.26831,0.07882 0.12693,0.2202 -0.084,0.08399 0.48031,0.733301 0.80307,0.924055 0.13645,0.08064 0.13575,0.09701 -0.0113,0.266336 -0.12372,0.142456 -0.28591,0.190147 -0.77088,0.226682 -0.58845,0.04433 -0.61051,0.03938 -0.52619,-0.118169 z m -1.16664,-0.141902 c -0.16393,-0.05669 -0.0305,-0.461097 0.22294,-0.675657 0.39754,-0.336572 0.73791,-0.184362 0.61504,0.275045 -0.0517,0.193145 -0.13846,0.267527 -0.39915,0.341995 -0.18323,0.05234 -0.3807,0.07872 -0.43883,0.05862 z m -28.34232,-1.207869 c -0.0288,-0.04657 -0.012,-0.08467 0.0373,-0.08467 0.0493,0 0.0897,0.0381 0.0897,0.08467 0,0.04657 -0.0168,0.08467 -0.0373,0.08467 -0.0205,0 -0.0609,-0.0381 -0.0897,-0.08467 z m -4.31929,-0.08676 c -0.0295,-0.04772 -0.0222,-0.08131 0.0162,-0.07464 0.0384,0.0067 0.0888,0.0047 0.11212,-0.0044 0.0233,-0.0091 0.11114,-0.02958 0.19523,-0.04556 0.12342,-0.02346 0.13366,-0.0059 0.0531,0.09115 -0.11677,0.140703 -0.30029,0.156995 -0.37665,0.03344 z m -2.856207,-0.646642 c 0.05821,-0.02349 0.153458,-0.02349 0.211667,0 0.05821,0.02349 0.01058,0.0427 -0.105834,0.0427 -0.116416,0 -0.164041,-0.01922 -0.105833,-0.0427 z m 19.621497,-0.367261 c -0.0288,-0.04657 -0.012,-0.08467 0.0373,-0.08467 0.0493,0 0.0897,0.0381 0.0897,0.08467 0,0.04657 -0.0168,0.08467 -0.0373,0.08467 -0.0205,0 -0.0609,-0.0381 -0.0897,-0.08467 z m -0.65616,-0.05836 c -0.15691,-0.041 -0.2071,-0.195638 -0.0635,-0.195638 0.14805,0 0.20752,0.03943 0.22348,0.148167 0.009,0.05821 0.009,0.101414 0.002,0.09601 -0.008,-0.0054 -0.0804,-0.02725 -0.16184,-0.04854 z M 131.525,55.412672 c -0.10593,-0.02264 -0.25318,-0.133634 -0.32724,-0.246662 -0.0741,-0.113027 -0.19695,-0.208779 -0.27308,-0.212782 -0.0761,-0.004 -0.0257,-0.04095 0.11216,-0.08209 0.15278,-0.04561 0.26998,-0.04345 0.30026,0.0055 0.0313,0.05064 0.30873,0.0508 0.75023,4.48e-4 0.70328,-0.08021 1.06943,-0.0034 0.99983,0.209721 -0.0633,0.19366 -1.1348,0.41716 -1.56216,0.325829 z M 96.268704,55.156669 c 0.06112,-0.02446 0.134144,-0.02145 0.162278,0.0067 0.02813,0.02813 -0.02187,0.04814 -0.111125,0.04447 -0.09863,-0.0041 -0.118694,-0.02412 -0.05115,-0.05115 z m 0.329988,-0.06407 c -0.176488,-0.06296 -0.395563,-0.09494 -0.486834,-0.07108 -0.09165,0.02397 -0.165945,0.0011 -0.165945,-0.05115 0,-0.129177 -0.229616,-0.120002 -0.282594,0.01129 -0.02349,0.05821 -0.04571,-0.09654 -0.04939,-0.343889 l -0.0067,-0.449722 0.3175,0.04932 c 0.351967,0.05467 0.867833,0.273858 0.867833,0.368734 0,0.03355 0.139511,0.05443 0.310024,0.04641 0.322252,-0.01516 0.705976,0.113609 0.705976,0.236903 0,0.03909 -0.07153,0.07108 -0.158966,0.07108 -0.08743,0 -0.206397,0.05715 -0.264367,0.127 -0.128485,0.154814 -0.362609,0.156331 -0.786554,0.0051 z m 21.783888,-0.884103 c 0,-0.04657 0.0381,-0.108214 0.0847,-0.136993 0.0466,-0.02878 0.0847,-0.01423 0.0847,0.03234 0,0.04657 -0.0381,0.108214 -0.0847,0.136994 -0.0466,0.02878 -0.0847,0.01423 -0.0847,-0.03234 z m 28.84542,0.02053 c -0.0902,-0.09015 0.0228,-0.195726 0.15514,-0.144955 0.0681,0.02613 0.10272,0.08161 0.077,0.123302 -0.0549,0.0888 -0.15556,0.09819 -0.2321,0.02165 z m -51.303254,-0.17126 c 0.05821,-0.02349 0.153458,-0.02349 0.211667,0 0.05821,0.02349 0.01058,0.0427 -0.105834,0.0427 -0.116416,0 -0.164041,-0.01922 -0.105833,-0.0427 z M 112.37793,53.81045 c 0.004,-0.09863 0.0241,-0.118694 0.0511,-0.05115 0.0245,0.06112 0.0215,0.134144 -0.007,0.162278 -0.0281,0.02813 -0.0481,-0.02187 -0.0445,-0.111125 z m -1.17419,-0.08615 c -0.06,-0.06515 -0.0718,-0.118461 -0.0262,-0.118461 0.0879,0 0.2152,0.161054 0.16498,0.20876 -0.0163,0.01549 -0.0788,-0.02515 -0.13882,-0.0903 z m 36.98528,-0.03683 c -0.3327,-0.126856 -0.35519,-0.150837 -0.1905,-0.203106 0.1027,-0.0326 0.18673,-0.0948 0.18673,-0.138229 0,-0.04343 0.0572,-0.07896 0.127,-0.07896 0.0699,0 0.127,-0.03348 0.127,-0.0744 0,-0.04092 0.11382,-0.121539 0.25292,-0.179159 0.1476,-0.06114 0.23009,-0.144747 0.1981,-0.200772 -0.0302,-0.0528 -0.0262,-0.07034 0.009,-0.03896 0.035,0.03137 0.2173,0.0028 0.40522,-0.0635 0.18791,-0.0663 0.42894,-0.120543 0.53562,-0.120543 0.10668,0 0.21619,-0.04762 0.24335,-0.105833 0.0318,-0.06824 0.0649,-0.07425 0.0931,-0.01692 0.0288,0.05853 0.23854,0.06725 0.61384,0.02551 0.80345,-0.08935 1.05444,-0.08618 0.99341,0.01257 -0.0288,0.04657 -0.16318,0.08467 -0.29867,0.08467 -0.19633,0 -0.23667,0.03008 -0.19868,0.148167 0.0373,0.115792 0.0293,0.122435 -0.0362,0.0304 -0.0645,-0.09059 -0.20474,-0.104089 -0.60763,-0.05851 -0.28807,0.03259 -0.6254,0.09899 -0.74963,0.147547 -0.58023,0.226818 -1.11485,0.533515 -1.11485,0.639562 0,0.06435 0.12382,0.170174 0.27516,0.235161 l 0.27517,0.118157 -0.381,-0.0095 c -0.20955,-0.0052 -0.55076,-0.07424 -0.75823,-0.15335 z m -39.75477,-0.08163 c 0.0288,-0.04657 0.18567,-0.08467 0.34866,-0.08467 0.17599,0 0.27508,0.03438 0.244,0.08467 -0.0288,0.04657 -0.18567,0.08467 -0.34866,0.08467 -0.17599,0 -0.27508,-0.03438 -0.244,-0.08467 z m 3.3026,-9.69e-4 c 0.0284,-0.04603 0.0246,-0.127569 -0.009,-0.18119 -0.0422,-0.06832 -0.092,-0.05413 -0.1662,0.0474 -0.0583,0.07969 -0.12844,0.108505 -0.15593,0.06403 -0.0533,-0.08624 0.13007,-0.189589 0.42622,-0.240224 0.1081,-0.01848 0.20135,0.02257 0.23186,0.102082 0.0294,0.07661 0.0156,0.111067 -0.0327,0.08127 -0.046,-0.02845 -0.0837,-0.01546 -0.0837,0.02888 0,0.04433 -0.0591,0.103295 -0.13139,0.131027 -0.0754,0.02891 -0.10934,0.01472 -0.0797,-0.03327 z m 2.4111,-0.04842 c -9.8e-4,-0.123354 -0.0188,-0.13472 -0.0741,-0.04738 -0.0464,0.07327 -0.13959,0.0937 -0.25716,0.05638 -0.14102,-0.04476 -0.16258,-0.08476 -0.0917,-0.17016 0.0715,-0.08619 0.0387,-0.132327 -0.14371,-0.202327 l -0.23637,-0.09068 0.254,0.0068 c 0.40568,0.01078 0.47899,-0.0058 0.42334,-0.09586 -0.0794,-0.128547 0.0379,-0.101157 0.18143,0.04233 0.10891,0.108915 0.10953,0.127 0.004,0.127 -0.0675,0 -0.17497,0.06428 -0.23888,0.142853 -0.10201,0.125407 -0.0977,0.135921 0.0352,0.08609 0.15169,-0.05688 0.30799,0.144254 0.19776,0.254483 -0.029,0.02904 -0.0534,-0.02023 -0.0541,-0.109485 z m -0.96116,-0.186468 c -0.0226,-0.03659 0.0323,-0.06652 0.12201,-0.06652 0.0897,0 0.16311,0.02994 0.16311,0.06652 0,0.03659 -0.0549,0.06652 -0.122,0.06652 -0.0671,0 -0.1405,-0.02994 -0.16312,-0.06652 z m -0.98488,-0.187476 c 0,-0.04657 0.0975,-0.08467 0.21667,-0.08467 0.12288,0 0.19401,0.03665 0.16433,0.08467 -0.0288,0.04657 -0.12627,0.08467 -0.21666,0.08467 -0.0904,0 -0.16434,-0.0381 -0.16434,-0.08467 z m 49.42947,-0.227171 c 0.0611,-0.02446 0.13414,-0.02145 0.16227,0.0067 0.0281,0.02813 -0.0219,0.04814 -0.11112,0.04447 -0.0986,-0.0041 -0.1187,-0.02412 -0.0512,-0.05115 z m -50.3608,-0.217329 c 0,-0.03493 0.074,-0.0635 0.16434,-0.0635 0.0904,0 0.18199,0.02857 0.20358,0.0635 0.0216,0.03493 -0.0524,0.0635 -0.16434,0.0635 -0.11197,0 -0.20358,-0.02858 -0.20358,-0.0635 z m 20.81213,0.048 c 0.0611,-0.02446 0.13414,-0.02145 0.16228,0.0067 0.0281,0.02813 -0.0219,0.04814 -0.11113,0.04447 -0.0986,-0.0041 -0.11869,-0.02413 -0.0512,-0.05115 z m -19.24092,-0.357601 c -0.0261,-0.04222 0.0288,-0.05683 0.12201,-0.03246 0.19769,0.0517 0.22268,0.109229 0.0474,0.109229 -0.0671,0 -0.14335,-0.03455 -0.16945,-0.07677 z m 26.88135,-0.01668 c -0.1139,-0.04549 -0.2605,-0.127027 -0.32575,-0.181187 -0.0653,-0.05416 -0.19407,-0.109981 -0.28624,-0.124047 -0.16643,-0.0254 -0.40857,-0.21606 -0.40857,-0.321705 0,-0.03033 0.24528,-0.03703 0.54506,-0.01488 0.29978,0.02215 0.56753,0.01779 0.595,-0.0097 0.0927,-0.09269 1.34342,-0.152262 2.24661,-0.107 l 0.381,0.01909 -0.28925,0.126083 c -0.1799,0.07842 -0.45997,0.113931 -0.74083,0.09394 -0.55094,-0.03922 -0.58342,0.04592 -0.0721,0.189068 0.44795,0.125419 0.42264,0.268653 -0.0426,0.241201 -0.17971,-0.0106 -0.30841,-0.04895 -0.286,-0.08521 0.0224,-0.03626 -0.0572,-0.09051 -0.17686,-0.120544 -0.15841,-0.03976 -0.30453,0.0056 -0.53718,0.166851 -0.35774,0.247912 -0.32139,0.240186 -0.60225,0.128018 z m -23.54189,-0.361851 c 0,-0.01758 0.0571,-0.0794 0.127,-0.137367 0.10401,-0.08632 0.127,-0.08054 0.127,0.03197 0,0.07555 -0.0571,0.137367 -0.127,0.137367 -0.0699,0 -0.127,-0.01439 -0.127,-0.03197 z m -0.67734,-0.222034 c 0.10122,-0.06541 0.084,-0.08369 -0.0847,-0.09005 -0.11642,-0.0044 -0.16279,-0.02762 -0.10304,-0.05162 0.0597,-0.024 0.17404,-0.01494 0.254,0.02013 0.0799,0.03507 0.17395,0.05771 0.20887,0.05032 0.0349,-0.0074 0.0635,0.02466 0.0635,0.07122 0,0.04657 -0.10477,0.08408 -0.23283,0.08337 -0.18144,-0.001 -0.2048,-0.01941 -0.10584,-0.08337 z m 31.07188,-0.172517 c -0.20862,-0.05221 -0.20816,-0.05331 0.0431,-0.102541 0.3153,-0.06177 1.31272,-0.06454 1.15458,-0.0032 -0.0719,0.02787 -0.0826,0.06502 -0.0285,0.09846 0.113,0.06984 -0.89417,0.07612 -1.16918,0.0073 z m 1.50416,-9.4e-5 c 0.119,-0.100163 0.97161,-0.335389 1.21569,-0.335389 0.13435,0 0.24428,0.04288 0.24428,0.09528 0,0.06609 0.22049,0.08371 0.71966,0.05751 0.39582,-0.02078 0.71967,-0.01203 0.71967,0.01944 0,0.03147 -0.27622,0.08609 -0.61383,0.121377 -0.78641,0.08221 -2.36784,0.11112 -2.28547,0.04178 z m -29.52804,-0.08139 c -0.0763,-0.04931 -0.0868,-0.08259 -0.0262,-0.08337 0.0555,-7.12e-4 0.12438,0.0368 0.15316,0.08337 0.065,0.105116 0.0357,0.105116 -0.127,0 z m 3.175,0 c 0.0288,-0.04657 0.11676,-0.08408 0.1955,-0.08337 0.12338,0.0011 0.12562,0.01264 0.0162,0.08337 -0.16581,0.107154 -0.27789,0.107154 -0.21167,0 z m -6.223,-0.03327 c 0,-0.0183 0.0591,-0.05597 0.1314,-0.0837 0.0754,-0.02891 0.10933,-0.01472 0.0797,0.03327 -0.0497,0.08045 -0.21107,0.118995 -0.21107,0.05042 z m 41.13213,-0.02456 c 0.0611,-0.02446 0.13415,-0.02145 0.16228,0.0067 0.0281,0.02813 -0.0219,0.04814 -0.11112,0.04447 -0.0986,-0.0041 -0.1187,-0.02412 -0.0512,-0.05115 z m -6.39762,-0.169859 c 0.0815,-0.0213 0.21484,-0.0213 0.29633,0 0.0815,0.0213 0.0148,0.03872 -0.14817,0.03872 -0.16298,0 -0.22965,-0.01742 -0.14816,-0.03872 z m -33.48038,-0.08414 c 0.0611,-0.02446 0.13414,-0.02145 0.16228,0.0067 0.0281,0.02813 -0.0219,0.04814 -0.11113,0.04447 -0.0986,-0.0041 -0.11869,-0.02413 -0.0512,-0.05115 z m 0.31419,-0.02363 c -0.0288,-0.04664 0.10244,-0.07456 0.31284,-0.06654 0.19938,0.0076 0.61016,-0.01093 0.91284,-0.04117 0.30269,-0.03024 0.46405,-0.03542 0.35858,-0.01152 -0.10546,0.0239 -0.17429,0.07172 -0.15295,0.106247 0.0213,0.03453 -0.2808,0.06966 -0.67142,0.07806 -0.39063,0.0084 -0.73258,-0.02088 -0.75989,-0.06508 z m 8.29855,0.002 c -0.0817,-0.132248 0.17181,-0.20402 0.35149,-0.0995 0.0843,0.04905 0.1088,0.09033 0.0544,0.09175 -0.0544,0.0014 -0.15532,0.02422 -0.22427,0.05068 -0.0689,0.02646 -0.15068,0.0071 -0.18162,-0.04293 z m 32.52997,0.02342 c 0.0582,-0.02349 0.15346,-0.02349 0.21167,0 0.0582,0.02349 0.0106,0.0427 -0.10584,0.0427 -0.11641,0 -0.16404,-0.01922 -0.10583,-0.0427 z m 0.76729,-0.0018 c 0.0611,-0.02446 0.13415,-0.02145 0.16228,0.0067 0.0281,0.02813 -0.0219,0.04814 -0.11112,0.04447 -0.0986,-0.0041 -0.1187,-0.02413 -0.0512,-0.05115 z m -55.03764,-0.08671 c 0.10532,-0.02025 0.25772,-0.01948 0.33867,0.0017 0.081,0.02119 -0.005,0.03776 -0.19149,0.03682 -0.18627,-9.4e-4 -0.2525,-0.01828 -0.14718,-0.03853 z m 15.54922,-0.03659 c -0.0192,-0.03109 0.15556,-0.06973 0.3884,-0.08586 0.23283,-0.01613 0.42331,-0.0046 0.42328,0.02564 -7e-5,0.07449 -0.76766,0.13144 -0.81168,0.06022 z m 12.8343,-0.03053 c 0,-0.07338 0.0504,-0.102339 0.127,-0.07295 0.0699,0.0268 0.127,0.05963 0.127,0.07295 0,0.01332 -0.0572,0.04615 -0.127,0.07295 -0.0766,0.02939 -0.127,4.32e-4 -0.127,-0.07295 z m 1.15956,0.02772 c -0.31685,-0.03132 -0.62262,-0.09556 -0.67948,-0.142751 -0.0569,-0.04719 -0.29292,-0.100422 -0.52457,-0.11829 l -0.42118,-0.03249 0.4924,-0.01526 c 0.27082,-0.0084 0.57009,0.02632 0.66505,0.07714 0.095,0.05082 0.49878,0.107896 0.89738,0.126834 0.3986,0.01894 0.73964,0.04935 0.75788,0.06759 0.0696,0.06963 -0.63594,0.09175 -1.18748,0.03723 z m 6.6086,0.03953 c 0.10478,-0.02018 0.27623,-0.02018 0.381,0 0.10478,0.02018 0.019,0.03669 -0.1905,0.03669 -0.20955,0 -0.29527,-0.01651 -0.1905,-0.03669 z m 0.762,0.0037 c 0.0582,-0.02349 0.15346,-0.02349 0.21167,0 0.0582,0.02349 0.0106,0.0427 -0.10583,0.0427 -0.11642,0 -0.16405,-0.01922 -0.10584,-0.0427 z m 0.68263,-0.0018 c 0.0611,-0.02446 0.13414,-0.02145 0.16228,0.0067 0.0281,0.02813 -0.0219,0.04815 -0.11113,0.04447 -0.0986,-0.0041 -0.11869,-0.02412 -0.0512,-0.05115 z m 1.10066,0 c 0.0611,-0.02446 0.13415,-0.02145 0.16228,0.0067 0.0281,0.02813 -0.0219,0.04815 -0.11112,0.04447 -0.0986,-0.0041 -0.1187,-0.02412 -0.0512,-0.05115 z m -13.36145,-0.123237 c 0,-0.04011 0.0952,-0.07293 0.21166,-0.07293 0.11642,0 0.21167,0.01461 0.21167,0.03246 0,0.01785 -0.0952,0.05067 -0.21167,0.07293 -0.11641,0.02225 -0.21166,0.0076 -0.21166,-0.03246 z m 1.37583,-0.04801 c -0.37041,-0.07134 -0.18399,-0.194264 0.29633,-0.195404 0.26776,-6.35e-4 0.57852,-0.02569 0.69057,-0.05567 0.14285,-0.03822 0.18564,-0.02522 0.14317,0.04349 -0.0333,0.0539 -0.23929,0.09859 -0.45774,0.0993 -0.28764,9.39e-4 -0.36214,0.02393 -0.27016,0.08337 0.10436,0.06745 0.0968,0.08025 -0.0423,0.07184 -0.0931,-0.0056 -0.25506,-0.02675 -0.35983,-0.04693 z m 15.57867,-8.91e-4 c 0.12805,-0.0194 0.3376,-0.0194 0.46566,0 0.12806,0.0194 0.0233,0.03527 -0.23283,0.03527 -0.25612,0 -0.36089,-0.01587 -0.23283,-0.03527 z m 1.27673,0.0045 c 0.0556,-0.0556 1.16566,-0.04854 1.22197,0.0078 0.0233,0.02333 -0.25182,0.04089 -0.61146,0.03901 -0.35963,-0.0019 -0.63436,-0.02293 -0.61051,-0.04678 z m 2.24222,-0.0017 c 0.0611,-0.02446 0.13415,-0.02145 0.16228,0.0067 0.0281,0.02813 -0.0219,0.04815 -0.11112,0.04447 -0.0986,-0.0041 -0.1187,-0.02412 -0.0512,-0.05115 z m 1.05305,-5.25e-4 c 0.0815,-0.0213 0.21484,-0.0213 0.29633,0 0.0815,0.0213 0.0148,0.03872 -0.14817,0.03872 -0.16298,0 -0.22965,-0.01742 -0.14816,-0.03872 z m -23.98184,-0.05876 c 0,-0.01785 0.0763,-0.0524 0.16945,-0.07677 0.0932,-0.02437 0.1481,-0.0098 0.122,0.03246 -0.0456,0.07374 -0.29145,0.111121 -0.29145,0.04431 z m 1.43934,-0.05221 -0.381,-0.05923 0.35483,-0.01272 c 0.19516,-0.007 0.37839,0.02538 0.40717,0.07195 0.0288,0.04657 0.0405,0.07895 0.0262,0.07195 -0.0144,-0.007 -0.19761,-0.03937 -0.40716,-0.07195 z m -0.95251,-0.05607 c 0.0582,-0.02349 0.15346,-0.02349 0.21167,0 0.0582,0.02349 0.0106,0.0427 -0.10583,0.0427 -0.11642,0 -0.16404,-0.01922 -0.10584,-0.0427 z"
         id="path982" />
    </g>
  </g>
</svg>
