<svg xmlns="http://www.w3.org/2000/svg" width="3915.2" height="658.6" viewBox="0 0 3915.2 658.6">
    <g id="Group_3" data-name="Group 3" transform="translate(-253 -164)">
        <g id="Group_1" data-name="Group 1">
            <path id="Path_12" data-name="Path 12" d="M123.6,0V-121.8c0-66-1.2-123-3.6-176.4l1.8-.6C141.6-251.4,168-199.2,192-156L278.4,0h96V-404.4h-84v118.2c0,60.6,1.8,115.2,7.8,168.6h-1.8a1172.476,1172.476,0,0,0-66-138.6l-84-148.2H39.6V0Zm540-103.8L694.8,0h98.4L667.8-404.4h-120L424.2,0H519l28.8-103.8ZM561-172.2,585-258c6.6-23.4,12.6-54,18.6-78h1.2c6,24,13.2,54,20.4,78l25.2,85.8ZM831.6-18.6C854.4-6,900,6,946.2,6c111,0,163.2-57.6,163.2-125.4,0-57-33.6-94.2-105-120.6-52.2-19.8-75-31.2-75-57,0-21,19.2-39,58.8-39a192.241,192.241,0,0,1,84.6,19.2l20.4-73.8c-24-10.8-57.6-20.4-103.2-20.4-95.4,0-153,52.8-153,121.8,0,58.8,43.8,96,111,119.4,48.6,17.4,67.8,31.8,67.8,57,0,26.4-22.2,43.8-64.2,43.8-39,0-76.8-12.6-101.4-25.2Zm549.6-85.2L1412.4,0h98.4L1385.4-404.4h-120L1141.8,0h94.8l28.8-103.8Zm-102.6-68.4,24-85.8c6.6-23.4,12.6-54,18.6-78h1.2c6,24,13.2,54,20.4,78l25.2,85.8ZM1686-1.8c22.8,3,56.4,6,103.8,6,79.2,0,144-16.8,186.6-52.2,39-33,67.2-86.4,67.2-163.8,0-71.4-26.4-121.2-68.4-152.4-39-29.4-88.8-43.2-165.6-43.2-46.2,0-90,3-123.6,8.4Zm91.8-331.8c7.8-1.8,21-3.6,41.4-3.6,78.6,0,127.8,44.4,127.2,128.4,0,96.6-54,142.2-136.8,141.6-11.4,0-24,0-31.8-1.8ZM2349.6,0c-3-16.2-4.2-43.2-4.2-71.4v-102c0-69-31.2-126.6-129-126.6-53.4,0-93.6,14.4-114,25.8l16.8,58.8c19.2-12,51-22.2,81-22.2,45,0,53.4,22.2,53.4,37.8v4.2c-103.8-.6-172.2,36-172.2,112.2,0,46.8,35.4,90,94.8,90,34.8,0,64.8-12.6,84-36h1.8L2267.4,0Zm-93-106.8a65.4,65.4,0,0,1-1.8,15.6c-6,18.6-24.6,33.6-47.4,33.6-20.4,0-36-11.4-36-34.8,0-35.4,37.2-46.8,85.2-46.2ZM2508.6,0V-293.4h-91.2V0ZM2463-421.2c-29.4,0-48.6,19.8-48,46.2-.6,25.2,18.6,45.6,47.4,45.6,30,0,49.2-20.4,49.2-45.6C2511-401.4,2492.4-421.2,2463-421.2ZM2581.8,0H2673V-426h-91.2Zm132-293.4L2821.2-25.2c3.6,7.2,4.2,12,4.2,15,0,4.2-1.8,9-4.8,13.2-9,15-24,29.4-37.8,36.6-13.8,8.4-28.2,13.8-39.6,15.6l19.2,77.4a168.143,168.143,0,0,0,88.2-40.2c33-29.4,61.2-76.2,103.2-192.6l68.4-193.2h-97.8l-36,144c-4.2,16.8-9,39-13.2,54.6h-1.8c-3.6-15.6-9.6-37.2-14.4-54.6l-43.8-144Z" transform="translate(1146 690)" fill="#fff"/>
        </g>
        <g id="nasa_logo" transform="translate(248.552 159.14)">
            <circle id="Ellipse_1" data-name="Ellipse 1" cx="312.299" cy="312.299" r="312.299" transform="translate(46.936 4.86)" fill="#0b3d91"/>
            <g id="Group_2" data-name="Group 2" transform="translate(4.448 27.913)">
                <circle id="Ellipse_2" data-name="Ellipse 2" cx="3.501" cy="3.501" r="3.501" transform="translate(332.846 33.432)" fill="#fff"/>
                <circle id="Ellipse_3" data-name="Ellipse 3" cx="3.501" cy="3.501" r="3.501" transform="translate(368.791 38.1)" fill="#fff"/>
                <circle id="Ellipse_4" data-name="Ellipse 4" cx="3.501" cy="3.501" r="3.501" transform="translate(415.939 101.587)" fill="#fff"/>
                <circle id="Ellipse_5" data-name="Ellipse 5" cx="3.501" cy="3.501" r="3.501" transform="translate(157.324 428.356)" fill="#fff"/>
                <circle id="Ellipse_6" data-name="Ellipse 6" cx="3.501" cy="3.501" r="3.501" transform="translate(166.427 456.365)" fill="#fff"/>
                <circle id="Ellipse_7" data-name="Ellipse 7" cx="2.622" cy="2.622" r="2.622" transform="translate(123.892 433.437)" fill="#fff"/>
                <circle id="Ellipse_8" data-name="Ellipse 8" cx="2.63" cy="2.63" r="2.63" transform="translate(266.263 488.451)" fill="#fff"/>
                <circle id="Ellipse_9" data-name="Ellipse 9" cx="2.622" cy="2.622" r="2.622" transform="translate(489.579 442.073)" fill="#fff"/>
                <circle id="Ellipse_10" data-name="Ellipse 10" cx="2.63" cy="2.63" r="2.63" transform="translate(554.466 371.576)" fill="#fff"/>
                <circle id="Ellipse_11" data-name="Ellipse 11" cx="2.622" cy="2.622" r="2.622" transform="translate(236.395 122.943)" fill="#fff"/>
                <circle id="Ellipse_12" data-name="Ellipse 12" cx="2.622" cy="2.622" r="2.622" transform="translate(307.817 70.489)" fill="#fff"/>
                <circle id="Ellipse_13" data-name="Ellipse 13" cx="2.622" cy="2.622" r="2.622" transform="translate(300.06 65.354)" fill="#fff"/>
                <circle id="Ellipse_14" data-name="Ellipse 14" cx="2.622" cy="2.622" r="2.622" transform="translate(293.058 60.219)" fill="#fff"/>
                <circle id="Ellipse_15" data-name="Ellipse 15" cx="2.622" cy="2.622" r="2.622" transform="translate(247.598 136.489)" fill="#fff"/>
                <circle id="Ellipse_16" data-name="Ellipse 16" cx="2.622" cy="2.622" r="2.622" transform="translate(352.803)" fill="#fff"/>
                <circle id="Ellipse_17" data-name="Ellipse 17" cx="2.622" cy="2.622" r="2.622" transform="translate(370.082 75.624)" fill="#fff"/>
                <circle id="Ellipse_18" data-name="Ellipse 18" cx="2.622" cy="2.622" r="2.622" transform="translate(342.828 60.857)" fill="#fff"/>
                <circle id="Ellipse_19" data-name="Ellipse 19" cx="2.622" cy="2.622" r="2.622" transform="translate(296.147 80.938)" fill="#fff"/>
                <circle id="Ellipse_20" data-name="Ellipse 20" cx="2.622" cy="2.622" r="2.622" transform="translate(502.012 511.34)" fill="#fff"/>
                <circle id="Ellipse_21" data-name="Ellipse 21" cx="2.63" cy="2.63" r="2.63" transform="translate(153.761 446.967)" fill="#fff"/>
                <circle id="Ellipse_22" data-name="Ellipse 22" cx="2.63" cy="2.63" r="2.63" transform="translate(336.285 480.811)" fill="#fff"/>
                <circle id="Ellipse_23" data-name="Ellipse 23" cx="2.63" cy="2.63" r="2.63" transform="translate(208.082 444.866)" fill="#fff"/>
                <circle id="Ellipse_24" data-name="Ellipse 24" cx="2.63" cy="2.63" r="2.63" transform="translate(230.785 481.923)" fill="#fff"/>
                <circle id="Ellipse_25" data-name="Ellipse 25" cx="2.622" cy="2.622" r="2.622" transform="translate(397.912 458.59)" fill="#fff"/>
                <circle id="Ellipse_26" data-name="Ellipse 26" cx="2.622" cy="2.622" r="2.622" transform="translate(490.046 406.595)" fill="#fff"/>
                <circle id="Ellipse_27" data-name="Ellipse 27" cx="2.622" cy="2.622" r="2.622" transform="translate(559.897 438.51)" fill="#fff"/>
                <circle id="Ellipse_28" data-name="Ellipse 28" cx="2.622" cy="2.622" r="2.622" transform="translate(583.704 453.743)" fill="#fff"/>
                <circle id="Ellipse_29" data-name="Ellipse 29" cx="2.622" cy="2.622" r="2.622" transform="translate(587.618 412.197)" fill="#fff"/>
                <circle id="Ellipse_30" data-name="Ellipse 30" cx="2.622" cy="2.622" r="2.622" transform="translate(240.3 353.378)" fill="#fff"/>
                <circle id="Ellipse_31" data-name="Ellipse 31" cx="3.501" cy="3.501" r="3.501" transform="translate(240.417 412.718)" fill="#fff"/>
                <circle id="Ellipse_32" data-name="Ellipse 32" cx="3.501" cy="3.501" r="3.501" transform="translate(261.424 457.065)" fill="#fff"/>
                <circle id="Ellipse_33" data-name="Ellipse 33" cx="3.501" cy="3.501" r="3.501" transform="translate(513.036 410.851)" fill="#fff"/>
                <circle id="Ellipse_34" data-name="Ellipse 34" cx="3.501" cy="3.501" r="3.501" transform="translate(603.598 405.716)" fill="#fff"/>
                <circle id="Ellipse_35" data-name="Ellipse 35" cx="3.501" cy="3.501" r="3.501" transform="translate(558.784 386.577)" fill="#fff"/>
                <circle id="Ellipse_36" data-name="Ellipse 36" cx="3.501" cy="3.501" r="3.501" transform="translate(513.036 388.444)" fill="#fff"/>
                <path id="Path_1" data-name="Path 1" d="M73.091,23.794l8.706-.832-8.691-.49a3.863,3.863,0,0,0-3.314-3.213l-.832-8.667-.5,8.737a3.844,3.844,0,0,0-2.972,3.3l-8.9.809,8.963.482a3.854,3.854,0,0,0,3.065,2.956l.809,8.932.475-8.916A3.9,3.9,0,0,0,73.091,23.794Z" transform="translate(349.08 10.945)" fill="#fff"/>
                <path id="Path_2" data-name="Path 2" d="M54.2,36.252l8.706-.832-8.691-.49a3.854,3.854,0,0,0-3.314-3.213l-.832-8.667-.49,8.737a3.843,3.843,0,0,0-2.98,3.3l-8.9.809,8.963.482a3.854,3.854,0,0,0,3.065,2.956l.809,8.932.482-8.916A3.873,3.873,0,0,0,54.2,36.252Z" transform="translate(221.029 95.413)" fill="#fff"/>
                <path id="Path_3" data-name="Path 3" d="M96.033,69.19l8.706-.832-8.69-.49a3.854,3.854,0,0,0-3.314-3.213L91.9,55.987l-.49,8.737a3.844,3.844,0,0,0-2.972,3.3l-8.9.809,8.963.482a3.854,3.854,0,0,0,3.065,2.957l.809,8.932.482-8.916A3.883,3.883,0,0,0,96.033,69.19Z" transform="translate(504.687 318.74)" fill="#fff"/>
                <path id="Path_4" data-name="Path 4" d="M50.425,86.405l8.706-.832-8.691-.49a3.863,3.863,0,0,0-3.314-3.213l-.832-8.659-.49,8.729a3.843,3.843,0,0,0-2.98,3.3l-8.9.809,8.963.482a3.844,3.844,0,0,0,3.065,2.956l.809,8.932.482-8.916A3.882,3.882,0,0,0,50.425,86.405Z" transform="translate(195.399 435.516)" fill="#fff"/>
                <path id="Path_5" data-name="Path 5" d="M92.478,78.012l8.706-.833-8.69-.49a3.854,3.854,0,0,0-3.314-3.213l-.832-8.667-.49,8.729a3.844,3.844,0,0,0-2.972,3.3l-8.9.809,8.963.482a3.854,3.854,0,0,0,3.065,2.956l.809,8.932L89.3,81.1A3.865,3.865,0,0,0,92.478,78.012Z" transform="translate(480.583 378.555)" fill="#fff"/>
                <path id="Path_6" data-name="Path 6" d="M433.295,219.577c-36.31,14.113-71.726,26.71-101.61,36.061C270.96,274.653,104.813,326.127,4.448,391.014l8.4,3.268c61.153-34.544,100.9-45.4,139.111-57.418,41.546-13.071,175.857-44.5,236.675-61.619,20.548-5.781,44.612-13.351,70.1-22.563q-8.893-12.406-18.766-24.842Q436.667,223.65,433.295,219.577Zm44.363,61.145c-8.792,5.936-16.16,10.674-21.318,13.662-29.876,17.272-175.53,116.7-208.666,139.577S122.567,543.663,95.492,568.87l-.934,10.262c87.294-78.425,114.681-97.766,149.381-124.165,42.947-32.677,131.789-93.129,161.984-112.5q43.3-27.775,78.261-51.132c-.381-.638-.762-1.276-1.144-1.922Q480.4,285.083,477.657,280.722ZM614.115,136.6c-42.527,24.928-109.554,55.014-174.581,80.541q2.334,2.859,4.645,5.765,10.9,13.724,20.571,27.581c51.116-18.828,107.2-44.1,151.707-74.682-21.2,20.089-91.293,72.473-134.03,101.672q3.3,5.38,6.4,10.745c64.747-43.328,108.316-75.219,133.7-96.545C657.536,162.268,737.362,96.447,767.7,8.219,714.48,75.915,651.553,114.653,614.115,136.6Z" transform="translate(-4.448 -5.138)" fill="#fc3d21"/>
                <path id="Path_7" data-name="Path 7" d="M147.447,302.273C140.561,293.606,131.038,282,123.888,273c-9.562-12.036-18.408-24.2-26.515-36.341q-3.968.992-7.92,1.984a552.486,552.486,0,0,0,32.5,45.429c8.652,10.892,16.517,19.661,20.548,25.115.817,1.1,2.435,3.548,4.621,6.8l7.632-5.182C152.27,308.1,149.82,305.261,147.447,302.273Zm50.26,45.623c-5.656-5.353-19.373-14.292-33.65-27.705q-4.727,3.244-9.523,6.567c9.22,12.993,21.777,28.95,31.611,33.6C200.959,367.378,204.95,354.759,197.707,347.9Zm74.869-194.428C190.946,50.723,91.227-5.723,48.233,28.44,14.84,54.971,28.549,132.509,74.577,213.96q3.571-1.225,7.072-2.412C35.193,132.19,22.481,58.441,53.975,33.412,93.553,1.964,189.118,58.628,268.383,158.394a591.354,591.354,0,0,1,43.048,61.581c46.775,77.413,61.129,147.42,28.81,176-9.889,8.745-40.107,12.176-79.693-5.641-.552.692.335,2.568,1.027,3.027,34.171,13.74,66.9,18.976,83.427,5.851C384.713,367.651,354.206,256.215,272.576,153.469Z" transform="translate(167.155 64.3)" fill="#fff"/>
                <path id="Path_8" data-name="Path 8" d="M15.969,37.38H68.252l43.881,74.457V53.718c0-6.535-8.286-15.055-11.2-16.338h36.178c-2.217.584-9.336,9.22-9.336,16.338v85.427c0,5.252,7.586,12.487,11.2,15.288H88.559L43.978,79.627v58.819c0,5.835,5.718,11.437,11.67,16.222H17.136c5.485-2.334,10.737-9.686,11.2-15.522s0-81.109,0-84.377C28.34,47.65,21.454,41.815,15.969,37.38Z" transform="translate(73.667 192.58)" fill="#fff"/>
                <path id="Path_9" data-name="Path 9" d="M136.936,154.434h69.555c-3.851-.934-8.169-5.485-10.5-11.554s-39.212-105.5-39.212-105.5H130.33q-11.25,8.1-24.119,17.093c-.023.218-.047.436-.086.646-1.152,7-21.847,81.957-23.107,85.66-1.75,5.135-10.737,10.853-14.354,13.888h37.462c-3.735-4.2-6.769-8.286-6.069-12.954s2.8-14,2.8-14H141.6a71.1,71.1,0,0,1,3.734,12.837C146.155,145.331,141.254,150.7,136.936,154.434ZM106.359,112.77,119.43,70.057,136.7,112.77Zm-5.89-71.127q2.883-2.124,5.773-4.264H96.089C97.1,38.314,98.773,39.784,100.47,41.644Z" transform="translate(430.952 192.58)" fill="#fff"/>
                <path id="Path_10" data-name="Path 10" d="M65.917,141.713c.7-4.668,2.8-14,2.8-14h38.746a71.088,71.088,0,0,1,3.734,12.837c.817,4.785-4.085,10.153-8.4,13.888h61.238q1.914-1.284,3.812-2.56a23.324,23.324,0,0,1-6-8.994c-2.334-6.069-39.212-105.5-39.212-105.5H61.949c2.918,2.684,11.32,9.92,10.037,17.739-1.144,7-21.847,81.957-23.107,85.66-1.751,5.135-10.737,10.853-14.355,13.888H71.986C68.251,150.466,65.217,146.381,65.917,141.713ZM85.29,70.057l17.272,42.713H72.219Z" transform="translate(199.474 192.58)" fill="#fff"/>
                <path id="Path_11" data-name="Path 11" d="M143.835,96.913q-17.132,11.414-36.17,23.846c5.7,2.762,10.231,6.232,10.667,10.713.809,8.418-16.105,12.487-31.393,10.737a37.778,37.778,0,0,1-8.924-2.225q-4.762,3.069-9.632,6.193c-3.307,2.124-7.321,4.738-11.9,7.757v12.083c3.034-5.952,9.671-11.281,14.821-11.554,2.217-.117,9.92,7,41.663,5.252,15.4-.848,45.164-17.272,44.7-36.178C157.38,112.365,151.545,103.651,143.835,96.913ZM56.471,126.1v12.308q4.213-2.813,8.294-5.516A61.339,61.339,0,0,1,56.471,126.1Zm76.511-36.917c-2.957-1.751-5.952-3.283-8.823-4.637-14.938-7-30.576-8.286-33.844-17.739-2.3-6.668,4.2-12.837,20.073-12.6s30.576,9.686,34.544,13.071V37.169c-1.167,1.167-6.286,7.041-10.97,6.069a205.067,205.067,0,0,0-41.78-4.2c-20.073.117-37.345,15.63-37.929,35.244-.817,27.425,21.123,34.894,33.494,39.212,1.276.443,2.731.918,4.31,1.424,11.865-7.718,21.248-13.662,26.741-16.829C122.486,95.964,127.318,92.914,132.982,89.188Z" transform="translate(333.093 191.15)" fill="#fff"/>
            </g>
        </g>
    </g>
</svg>
