<svg xmlns="http://www.w3.org/2000/svg" width="2009.902" height="1038.684" viewBox="0 0 2069.902 1038.684">
  <g id="g7" transform="translate(-95.14 -50.166)">
    <g id="g5" transform="translate(95.742 50.758)">
      <path id="path986" d="M127.23,89.235c-.4-.652.91-1.309,2.916-1.461s3.646.382,3.646,1.186c0,1.743-5.515,1.974-6.562.275Z" transform="translate(662.982 897.184)" fill="current" stroke="current" stroke-width="1.2"/>
      <path id="path984" d="M128.418,89.168c1.28-1.295,2.8-1.877,3.386-1.293s-.466,1.643-2.329,2.354c-2.691,1.028-2.908.81-1.057-1.061Z" transform="translate(664.113 895.045)" fill="current" stroke="current" stroke-width="1.2"/>
      <path id="path982" d="M95.307,1071.885v-16.34l14.124-2.208c16.441-2.57,36.727-1.483,34.787,1.865-.832,1.435,2.507,1.964,9.22,1.458,5.788-.435,10.142-.134,9.675.668s9.979,1.581,23.213,1.728c14.7.163,24.062-.595,24.062-1.948,0-1.219-1.411-1.638-3.139-.931s-3.139.174-3.139-1.186-1.468-2.47-3.262-2.47-2.738-.9-2.1-2.008,6.879-2.008,13.864-2.008,13.265-.6,13.955-1.339-2.2-1.339-6.417-1.339-7.672-.78-7.672-1.733,4-1.4,8.893-.991l8.893.742-4.8-4.11c-4.171-3.575-4.307-4.133-1.045-4.288,6.462-.308,32.718-3.184,40.115-4.395,11.867-1.942,4.551-4.978-15.965-6.627-10.645-.855-19.355-2.474-19.355-3.6s1.043-1.356,2.316-.516c1.559,1.027,1.856-.024.9-3.216-1.31-4.4-.665-4.743,9.055-4.743,5.757,0,13.117-1.115,16.357-2.478,12.594-5.3,30.032-8.452,53.9-9.75,13.68-.744,25.521-1.78,26.313-2.3s11.7-1.614,24.241-2.426,23.861-2.37,25.156-3.462c4.023-3.388,92.683,1.157,99.648,5.109a7.664,7.664,0,0,0,7.709-.232c2.732-1.56,5.837-1.585,9.552-.079,7.134,2.893,26.155,2.893,26.155,0,0-1.228-1.883-4.24-4.184-6.695s-3.187-4.463-1.97-4.463,1.634-1,.922-2.232-.05-2.3,1.446-2.379,8.859-.521,16.34-.978,16.425.1,19.878,1.227c9.349,3.064,30.828,4.031,35.3,1.59,2.533-1.383,3.468-1.367,2.65.045-.732,1.262,3.351,2.728,9.686,3.479,6.023.714,16.105,2.319,22.405,3.565,7.443,1.473,12.17,1.5,13.5.09,1.122-1.2,4.018-2.176,6.435-2.176s5.356-1.026,6.531-2.279c1.449-1.544,6.816-1.558,16.635-.045,20.1,3.1,20.811,3.056,17.636-1.024-1.433-1.841-5.55-3.363-9.149-3.382-4.258-.022-5.592-.678-3.818-1.878,3.408-2.306,2.48-7.636-1.681-9.646-2.484-1.2,10.05-2.486,15.982-1.64a3.442,3.442,0,0,0,2.616-1.674,21.427,21.427,0,0,1,5.4-4.3c3.306-1.951,4.759-1.591,7.349,1.82,2.709,3.569,4.173,3.869,9.109,1.867,7.306-2.963,6.961-10.488-.44-9.617-3.079.362-4.483-.438-3.916-2.232.487-1.538,3.625-2.812,6.977-2.831s7.506-1.023,9.232-2.231,5.021-3.231,7.323-4.495,4.3-3.524,4.446-5.022c.541-5.646.9-5.983,2.909-2.723,1.292,2.1,2.645,2.515,3.63,1.115.862-1.227,3.452-2.393,5.754-2.589s9.011-1.83,14.908-3.63c10.6-3.233,10.723-3.214,10.723,1.669,0,4.011-.944,4.748-5.018,3.918-7.207-1.469-15.36,8.125-12.57,14.792,1.107,2.645,3.28,4.809,4.831,4.809,4.077,0,3.465,4.357-.843,6-8.1,3.078-8.827,5.15-4.63,13.12,3.07,5.829,3.546,8.947,2.022,13.224-1.1,3.078-2.961,5.6-4.14,5.6a2.2,2.2,0,0,0-2.145,2.232c0,1.227,1.357,2.232,3.015,2.232s3.479.8,4.045,1.777-2.909,1.883-7.723,2.011-12.99.339-18.169.466c-6.938.171-8.59.807-6.277,2.418,2.609,1.817,2.432,2.2-1.045,2.254a15.784,15.784,0,0,0-7.282,2.157c-2.313,1.561-.86,2.47,5.754,3.6,4.868.83,8.852,2.453,8.852,3.606s-1.876,1.462-4.166.687c-5.476-1.854-9.905.894-6,3.719,1.967,1.423.914,1.858-3.438,1.419-4.435-.447-6.1.266-5.661,2.431.46,2.284-.983,2.723-5.673,1.722-3.459-.738-6.852-.37-7.54.817-1.964,3.39-7.281,2.522-7.281-1.189,0-1.841-.942-3.348-2.093-3.348a2.247,2.247,0,0,0-2.093,2.363c0,1.3-.942,1.743-2.093.984s-2.093-.383-2.093.833c0,3.7,7.437,5.242,37.663,7.818,2.877.245,5,1.663,4.708,3.15a2.636,2.636,0,0,0,2.616,2.983c4.047.36,5.092.687,12.167,3.813,8.038,3.551,21.855,3.267,36.306-.748,16.127-4.48,55.1-6.539,55.1-2.911,0,2.663,6.086-4.7,6.211-7.514.024-.826-11.325-1.012-25.249-.414-15.4.662-24.843.273-24.109-.994.665-1.145,4.826-2.7,9.25-3.454,5.643-.962,8.873-3.025,10.823-6.911,1.53-3.047,3.441-5.1,4.249-4.572s3.2-.381,5.314-2.03c2.721-2.122,5.711-2.428,10.233-1.044a50.322,50.322,0,0,0,12.156,1.954c3.172,0,5.768,1,5.768,2.232s1.176,1.98,2.615,1.674,2.38.7,2.093,2.232a2.252,2.252,0,0,0,2.093,2.848c1.439.032-1.144,1.86-5.741,4.061-7.97,3.817-8.118,4.068-3.213,5.436,2.889.806,5.753.382,6.534-.967.766-1.321,5.507-2.539,10.537-2.706s9.837-1.308,10.683-2.535c1.011-1.469,1.547-1.44,1.569.084.05,3.557,12.428,3.751,15.715.245,1.814-1.935,5.128-2.623,8.784-1.824l5.872,1.282-6.277,1.516c-6.085,1.469-6.033,1.524,1.693,1.78,4.383.145,7.472-.6,6.863-1.645s1.218-1.435,4.062-.856c3.125.637,5.168.016,5.168-1.57,0-1.443.751-2.128,1.668-1.523s3.036.158,4.708-1c2.049-1.413-1.391-2.016-10.562-1.851-7.48.134-16.9.137-20.924,0l-7.323-.243,6.552-4.261c3.6-2.344,16.786-6.467,29.294-9.162s23.211-5.679,23.787-6.63,2.929-2.156,5.231-2.678,3.949-2.144,3.661-3.606c-.5-2.542,4.588-3.647,12.67-2.753,2.078.229,7.727-1.779,12.554-4.464s11.131-5.143,14.008-5.462c17.552-1.945,30.615-4.183,32.432-5.556,7.779-5.878,40.524-9.318,93.112-9.78,18.989-.166,35.847-1.212,37.463-2.323,2.15-1.476,2.484-1.233,1.243.906-1.344,2.321-.008,2.573,6.477,1.223,4.494-.936,17.117-1.343,28.049-.906,33.986,1.359,61.546.573,65.911-1.88,2.3-1.294,10.541-3.058,18.309-3.922,11.266-1.252,14.124-.952,14.124,1.481,0,1.845,2.686,3.259,6.8,3.578a56.382,56.382,0,0,1,10.3,1.685c1.979.655,5.278-.881,7.6-3.542,4.322-4.948,30.693-11.736,43.955-11.313,4.587.145,6.444-.618,5.492-2.259-1.008-1.738.6-2,5.364-.887,4.33,1.014,6.334.787,5.517-.623-3.478-6,23.875-6.584,37.823-.806,7.09,2.937,18.511,4.588,39.1,5.652,16,.827,29.9,2.042,30.9,2.7s-.1,3.812-2.466,7.007c-3.238,4.39-3.647,6.228-1.678,7.526,1.782,1.176.744,2.474-3.289,4.109s-5.505,3.475-4.661,5.823c.7,1.961.348,2.848-.833,2.069-1.137-.75-2.069-.3-2.069,1s1.413,2.363,3.139,2.363,3.139-.9,3.139-1.99c0-1.73,5.591-4.1,14.04-5.959,1.394-.306,4.688-3.034,7.323-6.063,3.416-3.926,8.088-5.989,16.278-7.188,6.319-.925,14.779-3.563,18.8-5.862s9.329-4.18,11.8-4.18a10.118,10.118,0,0,0,7.087-3.347c1.433-1.841,5.3-3.347,8.6-3.347s10.2-1.2,15.336-2.666c7.236-2.064,10.431-2.065,14.154,0,2.844,1.574,10.362,2.31,18.408,1.8,7.48-.473,15.69-.972,18.243-1.11,2.965-.161,4.253-1.331,3.566-3.241-.591-1.644.408-4.3,2.219-5.906,2.777-2.458,4.088-2.122,8.341,2.139,4.486,4.495,5.81,4.771,11.948,2.489,4.646-1.727,7.138-1.814,7.622-.265.4,1.266,4.123,2.3,8.282,2.3s15.438,1.214,25.064,2.7c13.338,2.057,17.859,2.078,19.011.09,2.227-3.841,16.542-3.8,29.052.084,12.36,3.836,33.385,2.993,43.458-1.744,9.973-4.689,17.888-5.343,27.466-2.269,7.494,2.406,9.592,2.349,13.214-.357,3.421-2.556,4.306-2.614,4.306-.285,0,2.066,2.627,2.736,8.893,2.27,4.891-.364,18.518.7,30.282,2.374s26.359,2.881,32.432,2.69,9.8.1,8.279.638c-6.743,2.4,9.8,7.16,27.81,8,10.748.5,20.47,1.521,21.6,2.269s7.51,1.93,14.168,2.626,14,2.351,16.327,3.676c4.261,2.432,9.247,3.244,26.428,4.3,8.973.553,35.663,8.274,29.468,8.525-1.631.066-2.343.783-1.582,1.594,2.551,2.721-6.2,7.191-17.088,8.732-5.939.84-10.8,2.4-10.8,3.472s-1.176,1.976-2.616,2.015-4.475,1.57-6.748,3.4c-3.564,2.873-3.762,3.966-1.431,7.944,2.262,3.859,2.182,5.034-.482,7.2-1.75,1.422-4.146,5.354-5.323,8.738s-2.868,5.895-3.756,5.579c-1.834-.654-2.662,1.251-2.662,6.118,0,2.138,2.014,3.347,5.58,3.347,8.505,0,4.867,1.923-7.808,4.127-9.069,1.577-5.744,1.88,16.426,1.5,15.579-.27,28.33.438,29.01,1.611.667,1.151,4.327,1.469,8.133.708,3.947-.79,7.494-.4,8.254.915.734,1.265,3.161,2.3,5.394,2.3s4.06.753,4.057,1.674c-.006,2.32,29.814.626,32.629-1.854,4.006-3.529,5.038.471,5.038,19.52v18.6H95.3Zm121.922-43.227a11.261,11.261,0,0,1,6.277.082c1.416.611-.25,1.074-3.7,1.029s-4.611-.546-2.576-1.111Zm603.615-15.552a7.6,7.6,0,0,1,5.231,0c1.438.619.262,1.126-2.616,1.126S819.405,1013.725,820.844,1013.106ZM674.507,975.124c1.51-.645,3.315-.565,4.011.177s-.541,1.269-2.746,1.172c-2.437-.108-2.933-.636-1.266-1.348ZM787.5,928.261c1.51-.645,3.315-.565,4.01.177s-.541,1.269-2.746,1.172c-2.437-.108-2.933-.636-1.265-1.348ZM703.67,879.093c-3.165-.511-5.754-1.75-5.754-2.753s-1.883-2.349-4.185-2.99q-4.184-1.167-4.185-6.8c0-3.1-1.243-6.955-2.76-8.577-3.836-4.1-5.678-12.793-3.633-17.153,5.559-11.859,10.237-24.674,11.333-31.052,1.078-6.274.519-7.679-3.916-9.834-3.585-1.742-4.557-3.31-3.161-5.1,1.107-1.423,2.15-6.036,2.315-10.25.3-7.688.924-9.945,6.7-24.4,1.718-4.3,3.67-15.342,4.336-24.547S703,715.1,704.25,710.454s2.456-16.833,2.678-27.077c.46-21.172-1.47-25.071-16.336-33.023-9.726-5.2-17.785-12.567-17.785-16.249,0-4.124-18.67-39.892-21.8-41.758-4.746-2.833-6.036-12.934-2.224-17.425,2.82-3.323,2.941-4.743.724-8.526-3.724-6.36.981-16.159,14.269-29.714,6.021-6.143,5.967-20.162-.124-30.188-5.289-8.714-6.336-8.951-10.632-2.408-2.806,4.272-3.869,4.593-7.414,2.232-2.276-1.516-5.448-2.756-7.049-2.756s-4.164-1.611-5.7-3.58a21.525,21.525,0,0,0-7.579-5.524c-2.637-1.069-4.794-3.287-4.794-4.929,0-5.647-11.529-14.613-23.521-18.292-6.822-2.093-13.327-5.686-15.053-8.316-2.477-3.771-5.488-4.7-16.235-4.993-19.469-.536-52.755-16.95-53.189-26.228-.43-9.174-3.434-13.76-22.135-33.78-10.135-10.849-18.458-20.389-18.5-21.2-.173-3.449-8.366-11.735-10.334-10.438-3.536,2.331-2.442,7.525,2.133,10.138a17.613,17.613,0,0,1,6.33,7.331c2.478,5.917,11.012,19.107,15.694,24.257,1.876,2.063,2.842,4.732,2.147,5.931-1.552,2.679-13.809-8.4-13.809-12.485,0-1.609-3.321-5.016-7.38-7.57-5.588-3.516-6.839-5.34-5.152-7.507,1.658-2.13.9-3.976-2.951-7.208-2.848-2.39-7.246-8.882-9.772-14.427-4.346-9.541-12.8-17.3-19.007-17.46-2.475-.063-9.437-10.168-18.074-26.238a39.245,39.245,0,0,1-3.523-11.652,82.225,82.225,0,0,0-2.155-11.177c-.759-2.548-.479-5.841.618-7.316s1.671-6.2,1.27-10.493-.766-9.978-.818-12.628c-.049-3.265-2.046-5.544-6.162-7.074-6.271-2.332-16.391-11.54-12.682-11.54,3.33,0,2.459-2.886-2.861-9.484-2.722-3.375-6.408-6.137-8.192-6.137s-4.453-2.915-5.932-6.479A25.787,25.787,0,0,0,362.7,216.9c-3.221-2.029-5.856-4.563-5.856-5.631,0-2.69-11.115-8.359-14.224-7.254a2.1,2.1,0,0,0-1.27,3.1c.7,1.206-3.768-.543-9.926-3.888s-13.765-6.307-16.9-6.583c-16.366-1.441-28.884-3.8-29.954-5.649-1.819-3.137-10.98-2.486-12.883.916a11.118,11.118,0,0,1-5.858,4.21,77.7,77.7,0,0,0-7.847,2.826c-2.823,1.24-3.662.5-3.662-3.22,0-4.756-.1-4.769-6.277-.873-3.453,2.175-6.277,5.266-6.277,6.869s-2.589,4.1-5.754,5.547a83.675,83.675,0,0,0-10.985,6.307c-5.533,3.887-10.8,5.834-23.483,8.679-4.3.964-7.291.887-6.677-.174s2.705-1.964,4.651-2.018c4.476-.121,19.754-9.387,20.753-12.585.86-2.751-17.067-6.222-20.489-3.966-1.237.816-2.754-.622-3.389-3.212-.845-3.445-2.809-4.688-7.411-4.688a17.156,17.156,0,0,1-11.04-4.906c-4.411-4.528-4.536-5.3-1.623-10.042,2.173-3.537,5.2-5.146,9.715-5.167a50.927,50.927,0,0,0,11.244-1.369c8.791-2.513,2.418-5.295-12.131-5.295-8.287,0-14.523-.958-14.523-2.232,0-1.227-1.412-2.232-3.139-2.232-6.787,0-2.612-4.075,6.75-6.589,6.937-1.863,10.112-1.942,10.636-.265.86,2.752,10.11,3.26,11.629.638.559-.964-5.038-4.068-12.437-6.9-13.433-5.138-15.936-9.2-5.668-9.2,2.989,0,8.347-2.35,11.908-5.223A26.244,26.244,0,0,1,206.2,131.25a79.663,79.663,0,0,0,16.725-2.587c8.9-2.721,8.908-2.721,7.457-.219-.652,1.125,8.78,2.605,21.324,3.347,12.371.732,34.733,2.951,49.693,4.932,32.493,4.3,31.5,4.264,51.264,2,8.631-.987,19.17-1.925,23.419-2.084s8.37-.976,9.158-1.816,4.2,0,7.594,1.872c4.4,2.425,6.923,2.725,8.82,1.046,1.463-1.294,3.3-1.666,4.088-.827s6.35,1.634,12.362,1.766,16.581,1,23.486,1.931c11.809,1.59,12.243,1.489,7.323-1.706-4.75-3.085-4.846-3.425-1.045-3.7,3.432-.248,3.244-.581-1.046-1.853-2.877-.853-5.231-3.013-5.231-4.8,0-3.592,13.566-4.219,25.283-1.169,5.276,1.373,6.451.994,6.451-2.077,0-2.879-1.3-3.479-5.58-2.566-5.033,1.074-5.579.547-5.579-5.374,0-3.61.786-6.564,1.743-6.564s1.745,1.048,1.745,2.329a1.958,1.958,0,0,0,2.615,1.769c5.054-1.083,13.426,2.53,13.426,5.795,0,1.815-.648,2.874-1.438,2.352s-2.464,1.455-3.718,4.392c-2.637,6.172.049,9.592,6.9,8.8,2.3-.265,7.268-.79,11.036-1.166,4.555-.454,6.506-1.645,5.82-3.552-.625-1.738.591-2.868,3.087-2.868,2.724,0,4.119,1.511,4.119,4.462,0,3.717,1.221,4.369,7.319,3.905,4.025-.306,7.336-1.561,7.355-2.788s.81-.929,1.759.663c1.374,2.312,2.263,2.2,4.409-.558,1.478-1.9,3.629-3.453,4.779-3.453s.875,1.565-.613,3.478c-2.41,3.1-1.189,3.425,11.133,3,7.611-.263,14.6-1.075,15.528-1.806,3.823-3.006,8.443-15.431,6.8-18.274a5.44,5.44,0,0,1,.358-5.669c1.461-1.878.954-3.388-1.69-5.028-2.92-1.812-3.065-2.375-.64-2.48,2.474-.108,2.36-.619-.539-2.42-2.024-1.256-4.612-1.669-5.754-.916-4.608,3.037-1.562-2.539,3.565-6.529,3.03-2.358,4.828-3.111,4-1.674-.991,1.711.148,2.6,3.317,2.579,4-.029,4.293-.447,1.693-2.442s-2.494-2.185.694-1.082a28.356,28.356,0,0,0,4.708,1.326c.482,0,.875,1.817.875,4.037a17.472,17.472,0,0,0,2.863,8.213c2.773,4.045,2.937,4.028,5.223-.527,1.95-3.884,1.723-4.912-1.295-5.9-2.009-.659-1.3-.861,1.577-.449a40.6,40.6,0,0,1,8.916,2.4c2.831,1.268,3.387.821,2.4-1.932-.709-1.971-2.121-3.035-3.138-2.364s-1.238-.481-.489-2.557c1.245-3.464,1.611-3.428,4.4.442,2.017,2.8,3.359,3.321,3.984,1.554.516-1.465,2.446-2.048,4.288-1.294,2.071.848,2.822.464,1.97-1.007-.756-1.307.025-2.953,1.75-3.657a5.484,5.484,0,0,0,3.126-4.7,3.728,3.728,0,0,1,3.662-3.559c2.806-.108,2.561-.613-1.045-2.16-11.2-4.8-.788-4.826,12.8-.032,6.646,2.344,8.4,2.328,9.8-.09.939-1.619,1.308-3.632.818-4.474s2.165-2.008,5.892-2.592c5.053-.792,7.49.02,9.574,3.19,2.353,3.581,4.66,4.081,14.607,3.172,6.5-.594,12.068-1.9,12.38-2.9s7.643-1.629,16.291-1.4,15.335-.264,14.861-1.1,3.7-1.759,9.273-2.051,10.626.316,11.226,1.351-1.471,1.4-4.6.809c-4.414-.832-5.154-.463-3.3,1.648,2.856,3.246,31.2,3.429,38.651.25,4.782-2.041,4.718-2.134-1.557-2.27-7.882-.171-13.7-5.969-8.238-8.205,2.15-.88,4.575.171,6.364,2.763,2.711,3.928,2.976,3.945,4.308.28.89-2.449,3.482-3.822,6.95-3.683l5.53.221-5.231,1.787c-3.678,1.256-.541,1.853,10.567,2.009,8.689.121,16.761-.805,17.939-2.061a13.808,13.808,0,0,1,6.172-3.138c2.217-.47,6.856-1.592,10.308-2.493s5.586-.843,4.74.129c-2.447,2.813,8.586,7.786,17.274,7.786,6.708,0,7.777-.642,6.916-4.155-1.127-4.6,5.389-8.738,7.64-4.853,2.17,3.745,15.127,4.4,18.382.932,1.611-1.717,3.8-2.547,4.866-1.844s2.5-.292,3.193-2.211,2.153-3.489,3.248-3.489,1.411,1,.7,2.232c-.781,1.348,2.071,2.232,7.2,2.232,4.671,0,8.493.91,8.493,2.023s2.118,1.54,4.708.95c4.4-1,4.466-.862.983,2.177-3.172,2.768-3.259,3.439-.591,4.531,1.723.705,3.6.475,4.173-.511s8.1-1.937,16.732-2.111c12.424-.253,15.466.311,14.606,2.7-1.377,3.828,16.057,9.166,18.149,5.557.737-1.271,1.94-2.225,2.675-2.12,7.444,1.062,6.642-.781-1.5-3.448-5.587-1.83-9.72-3.8-9.183-4.37s3.523-.01,6.635,1.252a32.705,32.705,0,0,0,10.229,2.26c3.719-.029,3.986-.438,1.433-2.2-2.714-1.871-2.667-2.168.351-2.2a27.921,27.921,0,0,0,7.323-1.361c3.188-1.1,3.3-.921.695,1.082-2.713,2.081-2.642,2.412.524,2.442a3.486,3.486,0,0,0,3.661-3.313c0-1.841,1.043-3.347,2.316-3.347s1.78,1.495,1.122,3.321c-.88,2.443.024,3.107,3.437,2.512,2.548-.445,5.827.206,7.286,1.448s11.346,2.113,21.97,1.936c19.431-.323,21.6,2.052,4.671,5.114-13.727,2.483-21.8,5.846-20.833,8.676.5,1.461-2.128,4.916-5.838,7.677-5.582,4.153-6.016,5.021-2.517,5.021,2.881,0,4.23,1.471,4.23,4.613,0,4.014-.312,4.159-2.4,1.116-1.32-1.924-4.622-3.5-7.34-3.5h-4.943l4.791,3.579c2.635,1.968,4.31,4.916,3.722,6.551a3.206,3.206,0,0,0,1.428,4.055c1.375.6.381,1.163-2.209,1.26s-4.708,1.18-4.708,2.408-1.379,2.232-3.065,2.232c-4.029,0-9,9.472-5.6,10.679a4.4,4.4,0,0,1,2.392,4.012c0,3.666-11.557,4.456-13.6.93-1.649-2.843-7.323-2.922-7.323-.1,0,1.172,3.42,2.815,7.6,3.651,5.619,1.124,6.777,2.012,4.443,3.405-6.042,3.606-27.8,8.744-38.15,9.007-7.151.182-12.769,1.928-17.935,5.574-4.137,2.92-13.745,6.7-21.349,8.395-15.791,3.524-18.306,4.788-18.306,9.2,0,1.74-2.355,4.809-5.231,6.82s-5.261,5.3-5.3,7.3c-.1,5-4.972,11.459-8.656,11.459-1.668,0-4.859-1.474-7.093-3.276s-7.357-3.313-11.385-3.358c-5.368-.061-9.418-2.133-15.17-7.768-4.315-4.227-7.846-8.8-7.846-10.163s-.942-1.856-2.093-1.1-2.093-.129-2.093-1.973-1.861-4.742-4.134-6.441a7.89,7.89,0,0,1-3.2-8.239c1.139-6.316,1.478-6.69,7.063-7.837,11.613-2.385,10.313-8.5-1.421-6.678-9.627,1.494-14.919-1.551-11.138-6.41,2.136-2.743,1.834-3.586-1.705-4.784a6.508,6.508,0,0,1-4.295-6.536c0-11.973-20.216-21.716-44.858-21.618-9.615.037-18.285.354-19.267.7s-6.883-.848-13.112-2.657c-9.5-2.76-10.512-3.51-6.277-4.647,4.288-1.152,3.709-1.61-3.842-3.041-10.13-1.919-11.642-5.006-3.139-6.408,3.165-.522,1.27-.928-4.211-.9-5.716.026-10.956,1.32-12.288,3.032-2.674,3.436-13.189,4.141-11.226.753.781-1.348-2.071-2.232-7.2-2.232-4.671,0-8.493-.91-8.493-2.023S654.1,80.532,651.7,81.2c-3.316.925-3.692,1.669-1.569,3.1,2.241,1.516,2.175,1.9-.346,1.955-1.769.037-.855,1.322,2.093,2.944,2.877,1.582,5.545,2.07,5.929,1.083,1.492-3.841,7.821-1.681,7.821,2.669,0,2.8-1.394,4.463-3.736,4.463-2.056,0-3.736.865-3.736,1.922s-2.589,1.538-5.754,1.068c-5.5-.815-5.537-.752-.939,1.4,8.554,4,1.48,8.032-13.5,7.7-8.482-.187-13.284.6-13.283,2.178,0,1.64,7.219,2.5,21.484,2.547,19.4.069,22.464.663,31.647,6.137,5.591,3.333,13.287,6.06,17.1,6.06s7.518,1,8.229,2.232,3.853,2.232,6.982,2.232c7.224,0,14.989,5.722,14.989,11.045,0,4.439,3.925,6.807,11.28,6.807a16.651,16.651,0,0,1,8.692,3.144c2.564,2,5.249,2.45,7.374,1.236,2.3-1.315,3.343-.96,3.343,1.141,0,1.677-2.2,4.3-4.882,5.835s-4.882,3.59-4.882,4.571c0,2.1-4.742.642-14.041-4.33-3.694-1.975-7.342-2.926-8.1-2.112-2.357,2.516.895,8.367,4.654,8.367,4.726,0,11.189,6.4,9.948,9.853-.6,1.677-3.591,2.368-7.705,1.782-6.485-.923-6.574-.83-2.536,2.665,4.07,3.522,4.027,3.59-1.569,2.471-5.082-1.016-14.323-3.27-18.831-4.594a39.349,39.349,0,0,0-5.878-.74c-2.37-.153-3.813-1.133-3.208-2.178,1.772-3.059-14.606-7.766-22.356-6.425-8.211,1.421-14.8-1.611-10.271-4.729,1.513-1.042,4.823-1.472,7.354-.956,4.128.841,6.671-.688,17.666-10.631a4.308,4.308,0,0,0,1.095-5.062c-1.122-1.9-1.747-1.679-2.207.782-.472,2.529-3.248,3.414-10.511,3.347-9.611-.087-14.915-3.864-7.365-5.242,8.594-1.569,10.188-2.726,6.852-4.976-4.074-2.748-6.788-2.7-5.172.087,2.279,3.932-.746,2.388-5.111-2.608-3.6-4.122-5-4.466-9.423-2.316-3.254,1.581-5.659,1.722-6.439.377-1.639-2.828-10.854-2.766-12.506.084-.712,1.227.173,2.232,1.97,2.232,3.706,0,4.364,3.474,1.067,5.646-1.525,1.006-1.515,2.318.025,4.309,1.69,2.172.7,3.536-4.083,5.651-3.471,1.533-6.311,3.793-6.311,5.022,0,1.272-1.322,1.065-3.068-.482-1.688-1.494-4.2-2.313-5.583-1.821-2.355.837,2.239,3.537,18.591,10.932,11.011,4.979,8.518,8.731-2.762,4.158-4.4-1.783-6.8-1.484-10.862,1.351s-5.57,3.023-6.83.85a4.07,4.07,0,0,0-4.967-1.421c-1.841.754-3.35.4-3.35-.791a2.134,2.134,0,0,1,2.093-2.162c1.151,0,2.093-2.008,2.093-4.463s-.942-4.463-2.093-4.463a2.141,2.141,0,0,0-2.093,2.174c0,2.644-11.56,9.3-13.171,7.582-.63-.673-4.034,1.053-7.563,3.836s-7.053,4.38-7.831,3.55c-1.984-2.117-15.372,14.4-15.374,18.97,0,2.065,2.118,4.469,4.706,5.341a16.176,16.176,0,0,1,7.2,5.363c1.483,2.247,5.6,3.9,10.159,4.084,4.216.169,13.612,2.844,20.88,5.945s16.113,5.638,19.657,5.638c4.809,0,6.443,1.018,6.443,4.017a11.472,11.472,0,0,0,2.615,6.806,9.761,9.761,0,0,1,2.616,5.414c0,4.239,10.728,7.317,14.345,4.115,2.36-2.089,2.635-4.41,1.169-9.867-1.2-4.449-1.169-7.4.074-7.843,4.966-1.766,12.663-10.034,12.663-13.6,0-2.168-2.355-5.087-5.231-6.485-5.25-2.551-7.173-7.1-3-7.1,1.4,0,1.849-3.691,1.214-9.862l-1.016-9.863,13.813.945c7.6.519,15.963,2.447,18.591,4.283s6.694,3.339,9.036,3.339c2.811,0,4.258,1.463,4.258,4.3,0,11.53,15.254,15.237,23.53,5.719l4.867-5.6,7.772,8.747c4.275,4.811,7.772,10.437,7.772,12.5s1.883,4.28,4.184,4.922,4.185,2.054,4.185,3.139,1.913,1.971,4.25,1.971,4.793,1.506,5.455,3.347a5.491,5.491,0,0,0,4.642,3.418c7.618.158,10.457,5.124,8.72,15.254-1.688,9.846-.979,11.048,7.276,12.34,3.592.562,7.232,5.186,7.288,9.259.017,1.284-2.557,2.167-5.722,1.962s-10.233-.5-15.708-.662l-9.954-.288,7.257-11.011c6.151-9.332,6.711-11.131,3.677-11.8-1.969-.434-6.4.9-9.857,2.969a29.951,29.951,0,0,1-14.125,3.431c-5.406-.224-7.847.627-7.846,2.737,0,2.531-.568,2.558-3.287.153-4.086-3.616-12.387-3.461-21.3.4-7.653,3.314-9.368,7.773-2.093,5.441a104.15,104.15,0,0,1,11.524-2.676c6.764-1.158,6.807-1.107,5.654,6.631-1.189,7.974,1.011,11.4,7.407,11.539a13.065,13.065,0,0,1,5.937,1.96,3.912,3.912,0,0,0,5.126-.592c2.636-2.811,7.777-3.348,7.752-.81-.021,2.2-10.313,7.253-14.765,7.253-1.918,0-5.88,2.008-8.806,4.463s-6.458,4.463-7.849,4.463c-1.5,0-2.083-1.818-1.436-4.463,1.206-4.916-3.891-6.117-10.573-2.492-2,1.084-6.173,3.234-9.277,4.777a10.8,10.8,0,0,0-6.277,8.61c-.413,3.784-2.091,6.048-4.818,6.506-9.079,1.523-14.8,5.411-18.023,12.257-1.947,4.133-4.736,6.907-6.59,6.559-2.646-.5-2.915.806-1.522,7.387,1.607,7.595,1.258,8.325-7.011,14.735-4.786,3.709-11.329,8.409-14.541,10.443-7.885,4.994-8.911,11.286-4.138,25.371,4.259,12.566,4.116,19.656-.4,19.656-3.578,0-9.674-10.012-10.377-17.043-.872-8.714-5.414-11.643-20.608-13.289-11.928-1.292-14.8-.912-18.248,2.413-3.471,3.35-5.4,3.593-12.742,1.6-7.7-2.084-9.727-1.712-18.369,3.365-5.344,3.139-10,5.955-10.345,6.258-.526.462-1.416,9-2.9,27.849-.709,9,.978,13.732,7.56,21.174,6.518,7.371,7.888,7.972,15.17,6.659,13.73-2.476,15.328-3.379,15.328-8.656,0-5.586,7.185-10.25,15.792-10.25,6.316,0,6.437,2.811.808,18.855-2.377,6.781-3.736,13.345-3.015,14.589s6.317,2.26,12.438,2.26c14.14,0,16.266,2.613,14.757,18.143-1.7,17.446,2.365,21.847,19.662,21.311,8.682-.27,13.483.55,14.615,2.494,1.866,3.2,5.454-.242,9.656-9.27a10.921,10.921,0,0,1,7.346-5.561,24.682,24.682,0,0,0,9.306-3.905c5.446-4.068,8.194-3.978,6.683.219-.714,1.982-.022,3.347,1.7,3.347a3.957,3.957,0,0,0,3.652-2.411c.9-2.888,12.15,1.929,12.15,5.2,0,1.142,5.885,1.794,13.078,1.448s15.314.171,18.047,1.151c3.409,1.221,5.534.829,6.768-1.249,1.362-2.29,1.841-1.94,1.967,1.435.1,2.53,5.24,9.054,11.878,15.063,9.106,8.243,13.378,10.624,19.218,10.707,10.362.148,21.544,6.469,24.984,14.124,1.582,3.522,4.489,6.853,6.458,7.4s4.705,4.317,6.081,8.373c2.056,6.062,4.18,7.876,11.932,10.191,5.188,1.549,10.176,4.235,11.085,5.967,1.653,3.148,11.39,5.727,21.23,5.622,2.867-.032,8.937,2.866,13.49,6.436s9.942,6.492,11.976,6.492c9.279,0,10.714,18.51,2.278,29.4-3.163,4.083-6.695,8.75-7.846,10.37a66.569,66.569,0,0,1-5.756,6.633c-2.668,2.686-3.662,7.194-3.662,16.61,0,7.108-.83,14.667-1.844,16.8s-3.9,8.643-6.422,14.471c-4.439,10.272-6.529,11.836-18,13.477-2.363.338-9.661,3.509-16.216,7.046-11.451,6.179-11.919,6.776-11.919,15.2,0,8.943-3.041,14.636-15.693,29.37-3.453,4.021-8.389,9.975-10.971,13.232-3.088,3.9-6.771,5.921-10.761,5.921-6.069,0-9.333,4.1-7.554,9.484,2.118,6.409-11.288,15.063-23.335,15.063-3.417,0-4.918,1.279-4.918,4.19,0,6.417-5.216,9.8-12.481,8.1-5.993-1.4-6.268-1.182-4.58,3.708,2.454,7.108-2.148,18.156-8.933,21.453q-10.2,4.958-.173,9.817c2.877,1.4,5.231,3.406,5.231,4.463s-2.355,3.065-5.231,4.463S723,844.75,723,846.311s-1.962,3.5-4.362,4.315c-3.481,1.178-4.087,2.646-3,7.267,1.745,7.41,9,18.326,12.212,18.37,1.458.02,1.186.921-.665,2.2-3.123,2.152-12.565,2.406-23.539.633Zm780.594-33.4c1.51-.645,3.315-.565,4.01.176s-.541,1.269-2.746,1.172c-2.437-.108-2.933-.636-1.265-1.348Zm553.306-16.744c-3.741-1.068-6.8-2.763-6.8-3.765,0-2.851,6.5-8.249,16.216-13.457,4.891-2.623,8.893-5.812,8.893-7.086s1.1-1.591,2.449-.7c1.661,1.095,2,.382,1.07-2.216-.759-2.106-.526-3.269.511-2.584a1.635,1.635,0,0,0,2.591-.729c.406-1.137,2.768-1.146,5.574-.02l4.873,1.953-4.873,6.588c-2.68,3.623-6.285,7.135-8.011,7.8s-5.022,4.224-7.323,7.9c-5.12,8.176-6.562,8.776-15.17,6.317ZM685.362,807.314a4.941,4.941,0,0,1,2.093-3.611c1.152-.758,2.093-.375,2.093.852a4.942,4.942,0,0,1-2.093,3.611C686.3,808.925,685.362,808.542,685.362,807.314Zm1229.281.261a22.861,22.861,0,0,1-4.391-6.1c-2.1-4.078-1.648-4.483,5.231-4.687q12.785-.379,8.357,8.472C1921.726,809.467,1918.193,810.357,1914.642,807.575ZM2076.8,793.662c0-2.479-1.394-4.463-3.139-4.463-3.553,0-4.209-3.494-1.045-5.579s2.5-11.364-1.045-14.5c-3.519-3.115-4.155-6.695-1.186-6.695,1.073,0,2.483,1.758,3.134,3.905,1.273,4.207,12.2,11.716,17.055,11.716a3.184,3.184,0,0,1,2.969,3.347,3.259,3.259,0,0,1-3.138,3.347,3.347,3.347,0,0,0-3.138,3.507c0,4.008-4.886,9.883-8.221,9.883-1.233,0-2.241-2.008-2.241-4.463Zm-163.6-5.987c1.51-.645,3.315-.565,4.011.177s-.541,1.269-2.747,1.172c-2.437-.108-2.933-.636-1.265-1.348Zm-.771-5.371c-.8-1.382-4.241-1.9-7.97-1.2-10.988,2.061-20.865-1.359-24-8.312-1.537-3.406-4.126-6.738-5.755-7.4a5.9,5.9,0,0,1-3.125-4.878c-.1-2.315-.554-2.638-1.221-.877-1.982,5.237-5.37,2.893-4.032-2.789,1.587-6.74,1.142-6.838-5.055-1.106l-4.836,4.473-3.79-6.646c-4.828-8.467-17.207-14.223-26.935-12.524-20.343,3.552-26.836,5.4-34.387,9.785-4.819,2.8-10.141,4.27-12.835,3.549-2.577-.69-8.162.69-12.691,3.136-5.705,3.081-9.476,3.812-12.8,2.48-2.59-1.038-4.708-1.294-4.708-.57s-1.32.148-2.934-1.28c-2.012-1.781-2.444-4.5-1.376-8.641.857-3.324.852-8.053-.009-10.507s-3.449-9.484-5.749-15.621a75.969,75.969,0,0,1-4.882-32.5c.341-6.415,7.129-10.712,28.436-18.005,12.931-4.426,19.023-9.417,20.33-16.658.423-2.334,2.019-4.244,3.551-4.244s5.755-3.15,9.387-7c7.316-7.756,14.946-11.163,17.012-7.6,2.358,4.07,9.234,2.5,11.8-2.7,1.364-2.761,3.515-5.851,4.781-6.865,1.639-1.312,1.549-2.17-.313-2.975-1.439-.623-2.616-2.052-2.616-3.177,0-2.829,11.044-2.566,18.173.432a34.56,34.56,0,0,0,11.644,2.381c6.311-.105,7.359,3.4,3.383,11.318-1.992,3.969-1.614,5.377,2.358,8.808a30.912,30.912,0,0,0,10.217,5.54c3.02.8,6.524,2.951,7.788,4.776,3.34,4.824,6.772,1.462,8.208-8.042.689-4.559,2.247-13.12,3.459-19.023,2.1-10.209,2.353-10.508,5.236-6.117a23.361,23.361,0,0,1,3.363,9.3,8.538,8.538,0,0,0,5.1,6.62c2.623,1.064,4.839,2.712,4.924,3.662.65,7.241,2.38,13,4.09,13.63,1.117.409,2.031,2.985,2.031,5.723,0,3.494,2.185,6.091,7.323,8.7,4.028,2.048,7.323,4.56,7.323,5.581s5.081,7.773,11.291,15c8.312,9.678,11.661,15.526,12.694,22.168,1.915,12.31,1.693,17.746-.758,18.617-1.137.4-1.53,2.233-.87,4.065s-1.74,7.694-5.349,13.052S1940.8,758.662,1940.8,760a2.234,2.234,0,0,1-1.952,2.424c-1.075,0-2.251,2.753-2.616,6.118-.434,4.026-2.093,6.4-4.847,6.955-2.3.461-6.684,2.729-9.739,5.04-6.452,4.882-7.31,5.047-9.209,1.771Zm-710.168-28.646c-1.3-2.6-1.861-5.592-1.243-6.659,1.25-2.16-8.25-21.386-13.668-27.657-1.913-2.215-4.587-10.248-5.942-17.852s-5.908-21.1-10.116-29.984c-7.422-15.67-7.575-16.478-5.046-26.778,1.433-5.842,4.461-13.349,6.727-16.683,3.674-5.405,3.859-7.219,1.708-16.737-4.5-19.912-8.657-29.725-16.744-39.523-8.052-9.757-9.927-15.409-5.974-18.014,2.946-1.942,2.614-21.983-.417-25.217-1.381-1.473-6.451-2.678-11.268-2.678-7.031,0-9.432-1.1-12.184-5.579-4.093-6.663-12.232-7.336-23.8-1.969-4.279,1.985-13.9,3.888-21.38,4.228a188.616,188.616,0,0,0-21.534,2.164c-6.752,1.315-9.082.6-15.659-4.786a101.3,101.3,0,0,0-11.945-8.58c-2.321-1.237-5.847-5.793-7.838-10.123s-7.321-10.348-11.843-13.372c-6.952-4.649-8.348-6.873-9.037-14.406a52.5,52.5,0,0,1,1.962-17.505c2.689-8.323,1.977-20.842-1.606-28.288-1.666-3.458,9.994-26.536,17.346-34.339,2.014-2.137,3.661-4.617,3.661-5.51s3.353-2.917,7.45-4.5c7.366-2.841,9.926-6.717,12.322-18.664.783-3.9,4.2-8.135,9.4-11.632,12.819-8.631,13.333-21.285.865-21.285-5.394,0-10.439-9.287-7.655-14.091.816-1.407,1.527-7.1,1.584-12.644l.1-10.085,20.174-.636,20.174-.636,1.036-7.175c1.191-8.25-2.039-13.238-11.2-17.283-8.265-3.651-7.727-6.628,1.2-6.628,4.028,0,7.324-1,7.324-2.232s2.647-2.232,5.882-2.232a16.508,16.508,0,0,0,9.939-3.905,57.981,57.981,0,0,1,11.9-7.774c4.315-2.128,7.847-4.728,7.847-5.779,0-2.687,9.7-7.089,15.617-7.089,5.76,0,7.194-2.967,5.93-12.273-.759-5.594.025-7.149,4.835-9.461,3.159-1.521,6.1-2.388,6.532-1.926,1.441,1.538,1.3,9.09-.264,14.176-.944,3.066-.677,5.13.687,5.3,1.228.153,3.411.466,4.849.695a7.89,7.89,0,0,0,5.23-1.668c1.68-1.339,3.729-1.1,5.735.677s5.551,2.194,9.939,1.169a109.645,109.645,0,0,1,15.189-2.086c12.471-.736,17.785-3.216,17.785-8.3a13.747,13.747,0,0,1,3.357-8.052c2.791-2.976,4.069-3.1,7.588-.761s4.8,2.213,7.616-.79c3.118-3.325,3.014-3.713-1.312-4.919-2.583-.72-4.7-2.1-4.7-3.056,0-2.348,18.567-3.817,20.616-1.632.89.949,3.842-.8,6.559-3.882,4.611-5.234,4.671-5.626.914-5.865-6.923-.442-12.319.564-14.383,2.681-5.254,5.388-25.588.28-23.375-5.871.615-1.708.173-3.728-.986-4.491-4.232-2.789,10.658-14.378,18.474-14.378,5.053,0,1.675-5.235-4.517-7-6.51-1.857-12.978,1.322-14.388,7.073-.512,2.088-5.042,4.879-10.627,6.547-7.232,2.16-10.046,4.231-10.947,8.06-1.426,6.063.324,9.87,4.536,9.87a3.2,3.2,0,0,1,3.015,3.347,3.124,3.124,0,0,1-2.814,3.347c-3.812,0-9.74,7.28-9.74,11.961a5.664,5.664,0,0,1-3.662,5.008,48.755,48.755,0,0,0-7.3,3.277,18.528,18.528,0,0,1-7.723,2.069c-2.249,0-4.672,1-5.383,2.232-1.893,3.268-5.231,2.722-5.231-.855,0-1.7,1.856-3.605,4.126-4.238,4.052-1.13,4.043-1.316-.524-10.284-5.071-9.961-9.552-11.4-19.072-6.135-6.092,3.371-15.048,2.477-15.534-1.55-.173-1.43-.85-5.613-1.507-9.3-1.161-6.507-.722-6.931,15.686-15.157,9.284-4.654,19.927-11.275,23.652-14.712a131.116,131.116,0,0,1,16.521-12.272c5.362-3.313,10.276-7.487,10.919-9.277.776-2.157,4.221-3.254,10.213-3.254a98.305,98.305,0,0,0,20.466-3.018c14.606-3.857,40.934-3.708,40.2.229-.348,1.854,2.242,2.789,7.723,2.789,4.535,0,8.75.869,9.366,1.932s3.493,1.448,6.395.857c7.131-1.454,38.765,9.1,38.765,12.929,0,4.189-13.9,6.633-24.977,4.392-6.141-1.242-13.154-2.226-15.586-2.187-4.121.066-4.173.273-.761,3.035,2.014,1.63,3.662,4.1,3.662,5.478s3.411,4.033,7.579,5.891c9.638,4.295,9.866,4.266,8.554-1.086-1.132-4.616,1.465-6.164,3.745-2.232,2.209,3.813,8.766,2.455,11.818-2.448,2.031-3.264,5.908-5.039,12.809-5.869,9.3-1.118,9.9-1.583,9.9-7.749,0-5.526.741-6.447,4.708-5.847,3.537.536,4.545,1.962,4.053,5.734-.768,5.887,3.586,6.665,10.667,1.907,7.967-5.353,33.217-11.076,35.033-7.941.86,1.485,2.5,2.083,3.645,1.329s8.83-1.565,17.081-1.8,15.422-1.157,15.937-2.045-2.123-2.819-5.862-4.29-5.673-3.14-4.3-3.709,4.372.034,6.663,1.342,7.474,2.376,11.522,2.376c6.766,0,24.726,4.223,32.983,7.755,1.9.812,4.015.5,4.706-.691s-1.359-3.138-4.554-4.326c-6.149-2.286-9.009-11.664-3.557-11.664,1.609,0,5.316-2.751,8.24-6.114s5.329-5.12,5.347-3.905.872.793,1.9-.937c1.559-2.626,2.935-2.674,8.337-.287,7.087,3.13,7.736,4.537,3.96,8.565-1.952,2.083-1.952,2.678,0,2.678,1.381,0,2.511,2.812,2.511,6.248s1.021,7.336,2.266,8.665c1.626,1.734.6,4.065-3.64,8.257-6.793,6.718-5.409,7.365,4.753,2.222,7.3-3.693,8.441-8.172,3.51-13.741a6.63,6.63,0,0,1-1.425-5.911,4.041,4.041,0,0,0-1.169-4.553c-3.175-2.093-.64-5.65,4.025-5.65,2.138,0,4.436-1.255,5.108-2.789.976-2.232,1.465-2.232,2.441,0,1.4,3.191,8.429,3.765,10.132.827.635-1.094,6.927-.674,14.227.951,13.95,3.1,18.324,2.582,9.235-1.1-6.251-2.535-7.386-6.758-1.858-6.919,9.634-.281,26.337-2.326,28.011-3.429a2.251,2.251,0,0,0,.92-2.882c-1.072-1.852,16.955-6.143,34.364-8.179,14.92-1.745,19.168-3.1,17.692-5.647-1.94-3.349,1.155-2.373,4.8,1.512,2.627,2.8,5.671,3.258,13.974,2.095,5.838-.818,10.919-2.4,11.291-3.512s3.9-2.67,7.847-3.459c11.556-2.312,8.26-4.34-5.9-3.631-8.534.427-12.083-.066-10.21-1.416,1.95-1.405-2.086-2.5-12.554-3.421-8.484-.742-19.9-1.964-25.364-2.714-9.9-1.358-12.832-4.334-6.739-6.827,2.771-1.134,2.7-1.745-.524-4.559-2.049-1.787-2.679-2.7-1.4-2.03s9.986,1.42,19.355,1.666,17.034,1.338,17.034,2.426.862,1.411,1.912.718,2.464,0,3.139,1.542c.761,1.74,1.629,1.935,2.288.515.586-1.259,4.817-1.907,9.4-1.44s7.9,1.613,7.355,2.547-3.375,1.212-6.3.616c-3.9-.8-5.015-.271-4.2,1.973.744,2.039,4.95,3.117,12.651,3.239,6.346.1,12.637,1.356,13.981,2.789,1.863,1.987,1.6,2.606-1.114,2.606-6.96,0-3.418,3.916,4.813,5.32,4.6.785,8.368,2.169,8.368,3.075s5.884,1.721,13.078,1.811c17.963.224,22.495,1.318,22.495,5.428,0,2.308-3.349,4.481-9.7,6.291-5.333,1.521-9.207,3.288-8.609,3.926s9.9,1.6,20.682,2.138,22.662,1.537,26.411,2.22c17.53,3.195,22.193,3.224,25.419.158,4.217-4.007,28.754-1.7,27.922,2.625-.287,1.493,1.045,2.715,2.964,2.715s2.868.661,2.111,1.468c-2.328,2.482,3.013,7.458,8,7.458a10.383,10.383,0,0,0,7.3-3.323c1.421-1.828,3.564-2.678,4.759-1.89,3.788,2.5,30.847,2.584,29.4.095-.766-1.323-.269-1.578,1.193-.614a4.508,4.508,0,0,0,5.031-.463c1.389-1.164,5.152-2.786,8.364-3.6s5.341-2.349,4.732-3.4,1.258-2.393,4.149-2.983c5.989-1.221,9.243,1.915,3.614,3.481-2.113.588-.784,1.255,3.113,1.563,6.384.5,9.563,1.058,12.031,2.092.576.24,5.519.485,10.985.541,6.069.063,11.441,1.512,13.8,3.723,3.054,2.866,8.644,3.625,26.845,3.643,20.259.02,23.338.533,25.934,4.319s5.328,4.241,23.372,3.824c11.234-.258,22.1-1.013,24.14-1.674,2.363-.765,3.5-.145,3.139,1.7-.833,4.2,8.732,5.1,11.626,1.1,2.566-3.551,32.8-6.419,32.79-3.11,0,.92,1.409,1.674,3.134,1.674s3.138-1,3.138-2.232,2.825-2.232,6.277-2.232H2104v16.586c0,14.626-.494,16.754-4.184,18-4.521,1.53-5.444,4.485-2.093,6.695,4.258,2.807,1.89,5.579-4.767,5.579-7.192,0-38.469,10.056-42.65,13.713-1.571,1.375-2.951,1.224-3.909-.43-.9-1.549-4.06-2.022-8.032-1.2-3.6.745-10.677,1.866-15.718,2.491-11.24,1.4-25.852,14.436-16.177,14.436,4.1,0,3.067,7.486-1.3,9.4a3.9,3.9,0,0,0-2.392,5.021c.85,2.364-.025,3.433-2.834,3.433-2.237,0-7.753,4.491-12.255,9.981s-9.834,10.008-11.848,10.042-3.49-.692-3.281-1.613-.727-5.69-2.081-10.6-2.466-10.53-2.473-12.49c-.019-5.664,6.406-11.937,18.82-18.374,19.248-9.98,28.214-16.212,28.923-20.1.739-4.047-2.77-5.083-4.88-1.442-.722,1.246-4.726,3.786-8.9,5.645-6.791,3.026-7.773,3.022-9.377-.034-.986-1.878-4.45-3.414-7.7-3.414-6.625,0-25.856,10.569-24.257,13.331,1.446,2.494-7.785,4.075-12.664,2.17-2.222-.868-15.215-1.18-28.874-.693-20.543.732-25.84,1.65-30.663,5.312-3.206,2.435-6.456,4.427-7.222,4.427s-5.329,2.844-10.139,6.319-10.564,7.028-12.785,7.895c-3.552,1.386-3.173,2.052,3.138,5.521,4.551,2.5,8.807,3.345,11.631,2.305s6.145-.377,9.1,1.831c3.8,2.839,4.382,4.741,3.188,10.442-.8,3.834-1.626,8.993-1.831,11.465-.346,4.195-4.132,10.895-11.893,21.056-1.792,2.346-7.9,8.352-13.562,13.346-8.207,7.232-12.016,9.1-18.712,9.152-8.512.071-15.731,3.957-15.731,8.465,0,1.356-1.648,3.471-3.662,4.7-9.431,5.757-9.5,5.994-3.719,12.162,4.163,4.44,5.386,7.721,4.9,13.134-.568,6.276-1.673,7.484-8.484,9.278-8.413,2.217-11.357,1.045-8.737-3.475,3.494-6.029,2.18-13.218-2.653-14.512-3.285-.879-4.578-2.719-4.257-6.059.383-3.985-.6-4.764-5.816-4.609a30.953,30.953,0,0,0-9.955,1.919c-2.961,1.395-3.573.755-3.139-3.288.766-7.137-2.77-7.537-9.324-1.055-3.106,3.071-6.63,5.584-7.831,5.584-3.813,0-2.358,3.615,2.525,6.266,2.589,1.406,6.12,2.422,7.846,2.257,6.914-.662,12.554.522,12.554,2.634,0,1.227-1.5,2.232-3.339,2.232s-6.147,2.132-9.579,4.739l-6.24,4.739,7.324,6.439c12.125,10.659,12.622,26.432,1.26,40-3.392,4.051-6.166,8.441-6.166,9.754,0,3.57-13.778,14.6-21.491,17.209-3.717,1.255-8.64,3.07-10.941,4.033s-7.01,2.687-10.462,3.834c-4.34,1.441-6.165,3.4-5.914,6.342.549,6.424-3.144,12.254-7.76,12.254-4.936,0-5.305-3.821-.872-9.043,2.925-3.447,2.911-4.164-.148-7.424-2.715-2.9-4.267-3.1-7.859-1.053-4.459,2.545-11.771,10.715-11.9,13.3-.049.748,3.551,5.769,7.977,11.158,11.237,13.684,13.493,18.988,11.91,27.988-.944,5.363-3.022,8.489-6.892,10.365a46.644,46.644,0,0,0-10.872,8.266c-5.082,5.318-5.364,5.371-6.036,1.116-.388-2.455-4.863-7.978-9.945-12.274s-10.694-9.185-12.472-10.865-3.429-2.684-3.671-2.232-1.925,5.484-3.744,11.18c-3.093,9.7-3.062,10.692.491,15.621,2.089,2.9,3.817,6.452,3.844,7.9s1.905,3.268,4.177,4.037c5.333,1.805,12.609,12.722,12.609,18.92a25.085,25.085,0,0,0,2.308,9.423c1.359,2.709,1.522,5.171.4,5.99-2.244,1.63-2.505,11.432-.3,11.432.828,0,2.061,1.876,2.743,4.168a5.514,5.514,0,0,0,5.9,3.905c4.069-.229,4.585.721,4.1,7.548-.791,11.162-1.906,13.39-6.7,13.39-5.129,0-18.961-12.89-23.179-21.6a60.9,60.9,0,0,0-6.709-10.62c-2.014-2.379-3.661-5.406-3.661-6.726s-4.728-7.217-10.506-13.1-10.038-11.513-9.466-12.5c2.125-3.668,11.658.577,20.215,9,11.928,11.744,15.385,11.474,10.163-.8-2.219-5.216-4.057-11.066-4.083-13s-2.291-5.767-5.037-8.517c-4.323-4.331-4.94-6.849-4.608-18.8.222-7.589-.446-15.644-1.458-17.9a50.335,50.335,0,0,1-2.841-10.042c-1.359-8.08-3.748-10.154-6.952-6.036a10.7,10.7,0,0,1-7.522,3.442c-4.29,0-4.72-.827-3.763-7.253.892-6-.223-8.862-6.409-16.533-4.119-5.1-7.489-10.484-7.489-11.954s-1.4-2.1-3.113-1.4-7.832,1.942-13.6,2.758c-6.915.978-10.487,2.545-10.487,4.6,0,1.713-2.118,4.045-4.708,5.181s-9.293,6.605-14.9,12.153-11.826,10.641-13.824,11.317c-4.9,1.66-7.641,31.512-3.371,36.76,7.815,9.607,9.077,22.392,2.209,22.392-4.418,0-7.379-7.711-5.931-15.438,1.49-7.942-1.068-8.884-6.557-2.414q-7.823,9.22-11.691-1.674c-1.194-3.375-3.884-10.154-5.975-15.063-6.795-15.951-12.341-31.033-15.152-41.2-1.814-6.561-4.18-10.368-6.937-11.158-5.313-1.522-15.693-8.971-15.693-11.261,0-.957-2.814-4.951-6.253-8.878-6.213-7.093-6.4-7.142-28.77-7.667-23.6-.554-29.841-2.018-29.841-7,0-2.277-2.434-2.7-10.067-1.732-7.657.967-10.877.408-13.451-2.337-1.861-1.985-4.368-3.608-5.572-3.608s-3.649-3.013-5.434-6.695c-3.534-7.289-7.5-8.5-11.4-3.49-1.728,2.221-1.856,4.447-.412,7.252,2.556,4.974,11.059,12.886,13.9,12.937,1.152.02,2.385,2.743,2.744,6.051.573,5.3,1.414,5.911,7.062,5.148a23.7,23.7,0,0,0,11.49-5.955c4.3-4.307,5.38-4.584,7.03-1.8a14.364,14.364,0,0,1,1.982,4.933c.017.9,3.092,3.008,6.832,4.675,11.836,5.276,13.033,8.8,5.793,17.068-3.474,3.966-6.336,8.36-6.36,9.764-.074,3.678-15.541,14.827-20.583,14.827-2.345,0-6.805,2.51-9.909,5.579s-6.685,5.613-7.954,5.655-6.076,2.016-10.68,4.387-10.432,4.346-12.954,4.387-5.166,1.08-5.877,2.307-3.491,2.232-6.177,2.232c-6.3,0-8.173,5.279-3.488,9.8,3.119,3.01,5.472,3.163,16.075,1.041,6.832-1.366,14.45-3.48,16.93-4.7,5.017-2.461,9.092-.758,9.092,3.8,0,1.644-2.861,8.791-6.359,15.883s-5.885,14.211-5.307,15.821.381,2.759-.44,2.553-6.474,4.576-12.563,10.627c-43.047,42.782-45.852,47.242-42.366,67.356,1.2,6.91,3.02,13.124,4.049,13.809,2.392,1.592,3.608,26.505,1.6,32.8-.838,2.63-4.468,6.081-8.065,7.671s-10.248,6.54-14.779,11c-7.809,7.691-8.13,8.523-6.184,16.041,2.938,11.347,1.1,18.4-5.481,21.051-4.179,1.685-6.219,4.741-8.1,12.137-1.656,6.5-6,13.787-12.7,21.282-14.236,15.944-19.792,19.286-33.551,20.182-6.552.427-16.306,1.373-21.674,2.1-8.5,1.155-10.067.715-12.128-3.392Zm138.2-284.269c-1.251-1.334-2.274-5.281-2.274-8.77,0-5.812-13.158-28.076-18.785-31.785-1.177-.775-2.138-4.306-2.138-7.846,0-3.708-1.634-7.673-3.852-9.352-2.118-1.6-6.591-7.423-9.939-12.931s-6.633-10.814-7.3-11.791c-1.743-2.55-7.859.408-7.421,3.588.2,1.47,2.464,6.289,5.024,10.709s4.657,9.433,4.657,11.141,1.883,4.359,4.185,5.892a10.876,10.876,0,0,1,4.185,8.215c0,2.986.9,6.022,2,6.747s1.5,2.716.885,4.424.732,4.16,2.989,5.449,4.732,5,5.5,8.251c1.517,6.449,2.861,8.123,13.639,16.985,6.758,5.557,13.658,6.414,8.652,1.074Zm-130.25-104.106a12.381,12.381,0,0,1,17.763-7.26,96.1,96.1,0,0,0,16.055,6.493c6.012,1.664,43.238,2.53,45.4,1.057,3.38-2.306,11.1-20.7,11.1-26.45,0-3.983-1.164-5.16-5.107-5.16-2.809,0-5.689,1-6.4,2.232-1.772,3.059-9.416,2.828-9.416-.285,0-1.681-2.743-2.049-8.257-1.109-4.853.828-10.524.306-13.757-1.265-5.619-2.73-11.464-12.163-11.464-18.5,0-5.1-5.4-6.547-12.592-3.371-7.016,3.1-7.851,6.046-2.823,9.966,3.136,2.446,3.1,3.06-.465,7.5-4.772,5.945-8.545,6.183-10.193.644-.684-2.3-3.573-7.074-6.415-10.6s-5.17-8.682-5.171-11.459c0-3.975-2.457-6.207-11.537-10.489-6.343-2.992-12.094-7-12.778-8.9a5.521,5.521,0,0,0-4.786-3.458,9.427,9.427,0,0,1-5.985-2.6c-1.861-1.985-2.753-1.743-3.746,1.019-1.675,4.657,9.839,17.217,20.682,22.56,7.207,3.551,7.646,4.228,4.391,6.766-2.639,2.058-2.938,3.268-1.1,4.475,1.922,1.267,1.937,2.393.049,4.8-3.228,4.148-6.892,4.044-5.383-.153,1.28-3.559-8.9-12.949-16.809-15.509-2.508-.811-7.921-5.165-12.029-9.675-7.27-7.982-7.649-8.118-14.271-5.115a47.556,47.556,0,0,1-15.508,3.28c-8.647.192-12.218,1.96-12.218,6.045,0,1.172-3.767,4.379-8.37,7.127-5.552,3.315-8.614,6.83-9.1,10.443-.994,7.429-10.458,15.618-18.1,15.663-7.609.045-12.562,3.039-10.607,6.414,2.269,3.917,17.125,2.9,26.845-1.844,6.154-3,15.277-4.651,29.794-5.39,11.508-.585,21.866-1.269,23.017-1.518,5.592-1.211,9.783.3,8.757,3.151a5.882,5.882,0,0,0,1.151,5.484c1.616,1.724,1.483,3.407-.474,5.92-2.294,2.948-2.1,4.026,1.24,6.718a18.519,18.519,0,0,0,9.8,3.278,23.984,23.984,0,0,1,11.36,3.976c4.925,3.477,20.345,10.876,23.933,11.484.751.126,2.338-2.746,3.527-6.385Zm70.435-20.162c-.712-1.227.7-2.232,3.138-2.232s3.85,1,3.138,2.232a3.323,3.323,0,0,1-6.277,0Zm-106.189-13.568c-5.752-3.573-4.3-6.516,3.214-6.516,5.48,0,6.875.906,6.875,4.463,0,4.856-4.2,5.71-10.089,2.053Zm-28.4-16.9c.427-3.98,2.09-6.6,4.5-7.086,3.084-.624,3.688.442,3.139,5.541-.428,3.98-2.091,6.6-4.5,7.086C1146.11,320.816,1145.506,319.75,1146.055,314.651Zm25.788-.773c.712-1.227,1.708-2.232,2.217-2.232s.921,1,.921,2.232a2.231,2.231,0,0,1-2.217,2.232C1171.547,316.11,1171.131,315.106,1171.843,313.879Zm-30.174-12.459c.1-2.6.6-3.128,1.265-1.348.606,1.611.529,3.536-.173,4.277s-1.189-.576-1.1-2.929Zm7.158-.93c-.712-1.227-.351-2.232.8-2.232a4.551,4.551,0,0,1,3.386,2.232c.711,1.227.351,2.232-.8,2.232A4.549,4.549,0,0,1,1148.827,300.489Zm249.038,25.122c-.808-4.593-2.066-9.363-2.8-10.6a10.859,10.859,0,0,1-.747-6.018c.319-2.073-2.873-7.847-7.1-12.831s-6.777-9.062-5.677-9.062c2.805,0,7.095-10.737,4.874-12.2-1.992-1.313-5.936-.174-16.236,4.689-7.637,3.6-10.018,6.565-6.923,8.605,1.169.771,2.128,2.967,2.128,4.881s2.8,6.874,6.212,11.024c5.933,7.207,6.547,13.166,1.714,16.653-2.769,2,.008,7.455,5.19,10.195,2.567,1.358,8.3,2.592,12.747,2.742l8.08.274ZM1329.1,306.624c3.854-2.669.806-10.092-5.244-12.778-12.756-5.663-17.507-9.385-15.166-11.882,4.555-4.857,2.527-7.9-4.5-6.758-9.382,1.525-11.754,4.592-5.586,7.222l5.063,2.158-5.58.142c-3.068.079-5.991,1.4-6.495,2.931-.657,2-2.2,1.575-5.455-1.509-2.971-2.813-3.741-4.825-2.229-5.822,1.27-.838-.628-2.15-4.22-2.916-3.671-.783-8.222-.266-10.394,1.18-5.279,3.516-15.048,19.973-14.314,24.112.766,4.321,17.332,5.815,23.764,2.143,4.566-2.606,14.213-2.054,27.656,1.582,8.589,2.324,19.495,2.418,22.7.2Zm-47.924-115.507c.317-1.827-1.609-4.391-4.278-5.7-8.811-4.313-13.525,1.106-6.187,7.112,4.532,3.709,9.7,3.011,10.466-1.414Zm20.293-4.257c1.273-2.2-4.223-9.106-7.245-9.106-3.632,0-4.121,4.185-.89,7.63,3.745,3.994,6.4,4.475,8.135,1.475Zm45.4,515.561c-4.689-3.169-6.3-16.177-2.9-23.464a26.768,26.768,0,0,0,1.732-15.04c-1.018-6.8-.417-9.492,2.922-13.053,2.313-2.467,5.434-4.486,6.935-4.486,3.385,0,16.1-13.742,16.1-17.4,0-4.695,4.187-2.888,6.646,2.868,1.908,4.469,1.429,9.362-2.471,25.1-10.237,41.335-17.717,53.076-28.969,45.471ZM2090.425,657.5a2.329,2.329,0,0,1,3.262-.984c2.9,1.913,2.36,3.252-1.315,3.252-1.794,0-2.671-1.02-1.947-2.268Zm-164.817-44.785a57.62,57.62,0,0,1-8.8-7.742c-6.468-6.9-11.318-6.854-17.557.161-5.965,6.707-8.932,6.937-13.9,1.077-2.412-2.844-6.444-4.463-11.11-4.463-7.068,0-7.2-.148-3.717-4.249,3.026-3.567,3.178-4.979.946-8.791-3.125-5.337-7.63-7.85-21.165-11.807-6.963-2.036-9.939-4.058-9.939-6.755,0-2.117-2.118-5.441-4.708-7.386-3.728-2.8-4.112-3.933-1.846-5.442,5.475-3.644,13.562.712,15.4,8.3.951,3.916,2.236,7.121,2.856,7.121s4.251-2.542,8.07-5.649l6.944-5.649,19.441,7.123c11.891,4.357,21.855,9.584,25.659,13.459,3.42,3.485,7.605,6.337,9.3,6.337,2.576,0,2.631.583.339,3.529-2.353,3.023-1.636,4.647,5,11.325,9.239,9.3,8.443,15.5-1.218,9.5Zm-158.478-2.041c-1.728-1.19-2.2-2.163-1.045-2.163a12.1,12.1,0,0,1,5.231,2.163c1.727,1.19,2.2,2.163,1.045,2.163a12.1,12.1,0,0,1-5.231-2.163Zm23.016.413c0-1.58,13.1-9.339,15.764-9.339,3.475,0-.2,4.234-6.419,7.4-8.411,4.278-9.344,4.472-9.344,1.943Zm-35.57-7.178c0-1.189,1.413-2.161,3.138-2.161s3.138.394,3.138.877-1.414,1.455-3.138,2.161-3.138.312-3.138-.877Zm17.785.071c-.712-1.227-.3-2.232.921-2.232a2.232,2.232,0,0,1,2.217,2.232c0,1.227-.415,2.232-.922,2.232S1773.073,605.207,1772.361,603.98Zm-47.079-2.618c-6.329-1.094-15.745-2.567-20.924-3.273-9.6-1.308-14.647-4.071-14.647-8.016,0-1.319,3.146-1.612,7.847-.729,4.316.81,12.171,1.8,17.457,2.2s11.953,2.357,14.814,4.357,5.834,2.963,6.6,2.14,1.4.179,1.4,2.224-.247,3.578-.523,3.405-5.7-1.21-12.032-2.3Zm205.054-15.234c0-1.227,2.636-2.232,5.859-2.232s6.973-1.188,8.335-2.641,3.074-2,3.805-1.222-.123,2.973-1.908,4.872c-3.574,3.811-16.091,4.762-16.091,1.222Zm-165.249-7.253c-.124-3.989-.282-9.613-.348-12.5-.173-7.562,3.46-10.708,7.873-6.822,2.763,2.432,3.766,2.512,4.448.352,1.594-5.053,4.12-2.907,3.938,3.347a53.528,53.528,0,0,0,1.386,12.273c1.985,7.781-1.885,8.254-5.143.628-1.295-3.03-3.173-4.969-4.174-4.309a2.488,2.488,0,0,0-.606,3.3c1.9,3.275-1.11,10.984-4.287,10.984-1.782,0-2.944-2.73-3.088-7.253Zm-26.5-4c-1.092-1.165-6.647-2.7-12.341-3.418s-10.378-1.471-10.407-1.681-2.187-5.256-4.8-11.212c-3.76-8.583-4.224-11.5-2.239-14.049,1.376-1.771,3.775-2.7,5.328-2.064s3.981-.825,5.4-3.246,4-4.407,5.735-4.414,8.261-5.029,14.5-11.158c12.347-12.134,13.649-12.706,18.1-7.956,3.428,3.657,4,10.2.9,10.2-2.841,0-2.649,10.342.3,16.219,1.794,3.577,1.794,4.98,0,5.618a3.668,3.668,0,0,0-2.392,3.109c0,1.242-1.78,4.924-3.955,8.182-3.9,5.84-4.415,7.174-4.415,11.424,0,3.455-7.449,6.862-9.716,4.445Zm66.21-2.135a2.23,2.23,0,0,1,2.217-2.232c1.219,0,1.633,1,.922,2.232s-1.708,2.232-2.217,2.232S1804.793,573.965,1804.793,572.738Zm7.413-22.161a2.664,2.664,0,0,1,.922-3.479c1.169-.771,2.128.163,2.128,2.078,0,3.92-1.255,4.5-3.049,1.4Zm-38.8-4.617c0-2.8,2.222-2.8,6.277,0,2.538,1.749,2.237,2.17-1.57,2.2-2.59.019-4.708-.97-4.708-2.2Zm7.977-5.987c1.51-.645,3.315-.565,4.011.176s-.541,1.269-2.746,1.172c-2.437-.108-2.933-.636-1.265-1.348Zm10.855-27.486c-1.231-2.455-4.09-4.463-6.351-4.463-6.163,0-4.95-4.19,1.644-5.671a41.273,41.273,0,0,0,9.785-3.655c3.175-1.86,4.619-1.5,6.8,1.677,1.522,2.221,2.769,4.851,2.769,5.844,0,2.526-7.942,10.731-10.388,10.731-1.11,0-3.027-2.008-4.259-4.463Zm-8.37-18.782a4.743,4.743,0,0,0-2.615-4.184c-1.977-.773-2.026-1.691-.2-3.757,1.883-2.139,3.317-1.763,6.591,1.73,3.044,3.246,3.557,5.133,1.883,6.918-3.172,3.383-5.65,3.073-5.65-.707Zm10.462-10.1c0-3.754.942-6.826,2.093-6.826s2.093,2.451,2.093,5.447-.941,6.068-2.093,6.826C1795.2,489.86,1794.331,487.591,1794.331,483.608Zm-20.924-12.219c0-2.966-.954-5.732-2.123-6.147-3.218-1.144.05-22.085,3.69-23.571a4.154,4.154,0,0,1,4.889,1.871c2.589,4.36,2.368,13.156-.329,13.156-1.233,0-2.071,2.26-1.861,5.021.722,9.484-.074,15.063-2.175,15.063-1.151,0-2.093-2.427-2.093-5.393Zm12.031,1.623c-2.014-.561-3.662-1.951-3.662-3.088,0-3.153,3.362-2.468,6.278,1.279,1.433,1.841,2.253,3.231,1.826,3.088s-2.427-.718-4.441-1.279ZM693.21,446c-4.316-.4-7.847-1.618-7.847-2.7s1.883-1.582,4.185-1.109c3.025.621,4.185-.342,4.185-3.475,0-5.04,6.069-5.736,16.427-1.885,6.836,2.541,8.932,6.476,3.451,6.476-4.588,0-5.932.276-9.416,1.933-1.728.821-6.67,1.164-10.985.761Zm-28.77-2.694c0-1.228,1.413-2.232,3.138-2.232s3.139,1,3.139,2.232-1.411,2.232-3.139,2.232S664.439,444.535,664.439,443.308Zm61.747-.037a2.33,2.33,0,0,1,3.262-.984c2.9,1.913,2.36,3.252-1.315,3.252-1.794,0-2.67-1.02-1.947-2.268Zm-496.964-7.906c0-1.914.942-2.858,2.093-2.1a4.828,4.828,0,0,1,2.093,3.479,2.1,2.1,0,0,1-2.093,2.1C230.163,438.844,229.221,437.279,229.221,435.365Zm436.679-3.98c-1.943-5.4-14.732-10.151-26.109-9.706-6.01.235-10.927-.35-10.927-1.3,0-3.1,11.359-6.447,17.787-5.24,15.278,2.868,19.878,4.248,19.878,5.962,0,1.009,3.3,3.1,7.323,4.658s7.324,4.129,7.324,5.723c0,3.929-13.86,3.841-15.277-.1Zm1103.386-16.53c.075-4.849,4.8-11.716,8.051-11.716,1.591,0,1.94,2.109,1.015,6.137-2.046,8.918-9.2,13.318-9.067,5.579Zm57.823-51.14c-5.938-6.332,6.362-21.2,18.172-21.971,8.793-.572,16-3.141,16-5.7a2.275,2.275,0,0,1,2.417-2.081c1.329,0,5.454-2.47,9.165-5.489,5.358-4.358,7.039-7.691,8.163-16.179,2.024-15.283,3.162-18.5,6.549-18.5,1.8,0,3-2.224,3-5.579,0-6.192,2.419-7.189,6.068-2.5,1.318,1.693,5.2,3.676,8.626,4.407,8.272,1.764,7.857,4.188-1.493,8.706-6,2.9-8.383,3.147-10.688,1.107-2.338-2.069-3.557-1.765-5.751,1.435-2.382,3.476-2.2,4.73,1.273,8.7,4.848,5.55,4.89,6,1.092,11.788-1.631,2.484-3.6,8.136-4.38,12.561-1.464,8.323-1.367,8.264-19.817,12.048a5.314,5.314,0,0,0-3.809,2.9c-.39,1.246-3.284,1.716-6.432,1.045-3.792-.809-6.654-.026-8.478,2.319-3.524,4.528-6.427,4.531-6.427.007,0-1.943-1.177-3.11-2.615-2.593s-2.615,2.861-2.615,5.207c0,7.454-4.485,12.128-8.021,8.357Zm64.249-98.374c.445-5.83,1.075-11.6,1.4-12.831s-.148-5.1-1.078-8.608c-1.179-4.5-.847-6.92,1.127-8.221,3.977-2.621,6.137-.528,6.137,5.95a26.734,26.734,0,0,0,2.244,10.066c1.831,3.651,1.367,5.283-2.531,8.889-4.037,3.734-4.385,5.086-2.244,8.74,3.419,5.838,3.223,6.615-1.668,6.615-3.728,0-4.108-1.19-3.391-10.6Zm-816.742-16.306c1.717-3.421,1.495-4.334-1.055-4.334-2.671,0-2.792-.748-.7-4.32,1.391-2.376,4.228-4.793,6.3-5.372,5.633-1.571,2.291-8.16-4.139-8.16-2.946,0-4.766-.63-4.044-1.4s.025-4.051-1.547-7.294c-2.318-4.781-2.358-6.625-.2-9.759,2.851-4.158,9.512-5.3,9.512-1.633,0,1.227,2.355,2.232,5.231,2.232,5.508,0,6.631,2.077,3.136,5.8-2.076,2.213,11.87,19.327,19.847,24.355,3.372,2.125,3.355,2.557-.279,7.02-3.058,3.755-7.066,5.012-19.051,5.975-14.543,1.168-15.088,1.038-13-3.115Zm-28.832-3.74c-4.051-1.494-.754-12.153,5.509-17.808,9.825-8.871,18.237-4.859,15.2,7.249-1.278,5.091-3.422,7.051-9.865,9.014-4.528,1.38-9.408,2.075-10.845,1.545ZM345.353,213.46c-.712-1.227-.3-2.232.922-2.232a2.231,2.231,0,0,1,2.217,2.232c0,1.228-.415,2.232-.922,2.232S346.065,214.687,345.353,213.46Zm-106.744-2.287c-.729-1.258-.549-2.143.4-1.967a5.968,5.968,0,0,0,2.771-.116,41.852,41.852,0,0,1,4.825-1.2c3.05-.618,3.3-.155,1.312,2.4-2.886,3.708-7.421,4.138-9.308.881Zm-70.586-17.043a7.6,7.6,0,0,1,5.231,0c1.439.619.262,1.126-2.615,1.126S166.584,194.748,168.023,194.129Zm484.912-9.68c-.712-1.227-.3-2.232.922-2.232a2.231,2.231,0,0,1,2.217,2.232c0,1.227-.415,2.232-.922,2.232S653.646,185.677,652.934,184.45Zm-16.216-1.538c-3.878-1.081-5.118-5.156-1.569-5.156,3.658,0,5.128,1.039,5.523,3.905.222,1.534.222,2.673.049,2.53a33.975,33.975,0,0,0-4-1.279Zm346.236-8.859c-2.618-.6-6.257-3.522-8.087-6.5s-4.867-5.5-6.749-5.608-.635-1.079,2.772-2.164c3.776-1.2,6.672-1.145,7.42.145.774,1.335,7.63,1.339,18.541.012,17.38-2.114,26.429-.09,24.709,5.528-1.564,5.1-28.044,11-38.606,8.588Zm-871.3-6.747c1.51-.645,3.315-.565,4.01.177s-.54,1.269-2.746,1.172c-2.437-.108-2.933-.636-1.264-1.348Zm8.155-1.689c-4.362-1.66-9.776-2.5-12.031-1.873s-4.1.029-4.1-1.348c0-3.4-5.675-3.163-6.984.3-.581,1.534-1.13-2.544-1.221-9.064l-.165-11.853,7.846,1.3c8.7,1.441,21.447,7.218,21.447,9.719,0,.884,3.448,1.435,7.662,1.223,7.964-.4,17.447,2.994,17.447,6.244,0,1.03-1.768,1.873-3.929,1.873a9.482,9.482,0,0,0-6.534,3.347c-3.175,4.08-8.961,4.12-19.438.134Zm538.352-23.3a4.942,4.942,0,0,1,2.093-3.611c1.151-.759,2.093-.375,2.093.852a4.942,4.942,0,0,1-2.093,3.611C659.1,143.926,658.162,143.542,658.162,142.315Zm712.864.541c-2.229-2.376.564-5.159,3.834-3.821,1.683.689,2.539,2.151,1.9,3.25-1.357,2.34-3.845,2.588-5.736.571ZM103.153,138.342a7.6,7.6,0,0,1,5.231,0c1.439.619.262,1.125-2.616,1.125S101.715,138.961,103.153,138.342Zm406.616-6.518c.1-2.6.6-3.128,1.263-1.348.606,1.611.531,3.536-.173,4.277s-1.189-.576-1.1-2.929Zm-29.018-2.271c-1.483-1.717-1.775-3.122-.647-3.122,2.172,0,5.318,4.245,4.077,5.5-.4.408-1.947-.663-3.431-2.38Zm914.028-.971c-8.222-3.344-8.778-3.976-4.708-5.353,2.539-.859,4.615-2.5,4.615-3.643s1.414-2.081,3.139-2.081,3.139-.882,3.139-1.961,2.813-3.2,6.25-4.722c3.647-1.611,5.686-3.815,4.9-5.292-.747-1.392-.648-1.854.223-1.027s5.37.074,10.014-1.674,10.6-3.177,13.237-3.177,5.342-1.255,6.014-2.789c.786-1.8,1.6-1.957,2.3-.446.712,1.543,5.9,1.772,15.17.672,19.856-2.355,26.059-2.271,24.551.331-.712,1.227-4.033,2.232-7.381,2.232-4.852,0-5.849.793-4.91,3.905.922,3.052.724,3.227-.895.8-1.594-2.388-5.06-2.743-15.017-1.542-7.119.859-15.455,2.609-18.526,3.889-14.339,5.978-27.552,14.062-27.552,16.857,0,1.7,3.06,4.485,6.8,6.2l6.8,3.114-9.416-.25a64.311,64.311,0,0,1-18.738-4.042Zm-982.471-2.152c.712-1.227,4.589-2.232,8.617-2.232,4.349,0,6.8.906,6.03,2.232-.712,1.227-4.589,2.232-8.617,2.232C413.989,128.663,411.54,127.756,412.308,126.431Zm81.618-.026a5.285,5.285,0,0,0-.223-4.776c-1.043-1.8-2.274-1.427-4.107,1.249-1.441,2.1-3.174,2.86-3.853,1.688-1.317-2.273,3.214-5,10.533-6.331,2.671-.487,4.976.595,5.73,2.691.727,2.019.385,2.927-.808,2.142-1.137-.75-2.069-.408-2.069.761s-1.461,2.723-3.247,3.454c-1.863.762-2.7.388-1.969-.877Zm59.586-1.276c-.024-3.251-.465-3.551-1.831-1.249-1.147,1.931-3.45,2.47-6.356,1.486-3.485-1.18-4.018-2.234-2.266-4.485,1.767-2.272.956-3.488-3.551-5.333l-5.842-2.39,6.277.179c10.026.284,11.837-.153,10.462-2.526-1.962-3.388.937-2.666,4.484,1.116,2.691,2.871,2.707,3.347.1,3.347-1.668,0-4.324,1.694-5.9,3.765-2.521,3.305-2.414,3.582.87,2.269,3.749-1.5,7.611,3.8,4.887,6.707-.716.765-1.32-.533-1.337-2.886Zm-23.753-4.915c-.559-.964.8-1.753,3.015-1.753s4.031.789,4.031,1.753-1.357,1.753-3.015,1.753S530.318,121.179,529.759,120.215Zm-24.34-4.941c0-1.227,2.41-2.232,5.355-2.232,3.037,0,4.795.966,4.061,2.232-.712,1.227-3.121,2.232-5.355,2.232S505.419,116.5,505.419,115.273Zm1221.565-5.987c1.51-.645,3.315-.565,4.01.177s-.541,1.269-2.746,1.172c-2.437-.108-2.933-.636-1.266-1.348ZM482.4,103.558c0-.921,1.829-1.674,4.061-1.674s4.5.753,5.031,1.674-1.295,1.674-4.061,1.674S482.4,104.478,482.4,103.558Zm514.335,1.265c1.51-.645,3.315-.565,4.01.177s-.541,1.269-2.746,1.172c-2.437-.108-2.933-.636-1.265-1.348ZM521.233,95.4c-.645-1.113.712-1.5,3.015-.856,4.886,1.363,5.5,2.879,1.172,2.879a5.246,5.246,0,0,1-4.187-2.023Zm664.325-.44a36.006,36.006,0,0,1-8.05-4.775,16.582,16.582,0,0,0-7.074-3.27c-4.113-.669-10.1-5.695-10.1-8.479,0-.8,6.062-.976,13.47-.392s14.026.469,14.7-.256c2.291-2.443,33.2-4.013,55.521-2.82l9.415.5-7.148,3.323c-4.446,2.067-11.367,3-18.308,2.476-13.615-1.034-14.418,1.21-1.782,4.983,11.07,3.306,10.445,7.081-1.053,6.357-4.441-.279-7.622-1.29-7.068-2.246s-1.414-2.386-4.371-3.177c-3.915-1.048-7.526.148-13.276,4.4-8.841,6.534-7.943,6.331-14.884,3.374Zm-581.8-9.537c0-.463,1.411-2.093,3.138-3.621,2.57-2.275,3.138-2.123,3.138.843a3.415,3.415,0,0,1-3.138,3.621C605.172,86.263,603.761,85.884,603.761,85.421Zm-16.739-5.852c2.5-1.724,2.076-2.206-2.093-2.373-2.877-.116-4.023-.728-2.546-1.361s4.3-.394,6.277.531,4.3,1.521,5.162,1.326,1.569.65,1.569,1.877-2.589,2.216-5.754,2.2c-4.484-.026-5.061-.512-2.615-2.2Zm767.889-4.547c-5.156-1.376-5.145-1.405,1.065-2.7,7.792-1.628,32.441-1.7,28.534-.084-1.777.734-2.041,1.714-.7,2.6,2.793,1.841-22.1,2.006-28.894.192Zm37.172,0c2.941-2.64,24.012-8.84,30.044-8.84,3.32,0,6.037,1.13,6.037,2.511,0,1.742,5.449,2.206,17.785,1.516,9.782-.548,17.785-.317,17.785.512s-6.826,2.269-15.17,3.2c-19.434,2.167-58.517,2.929-56.482,1.1ZM662.349,72.874c-1.886-1.3-2.145-2.177-.647-2.2a4.8,4.8,0,0,1,3.785,2.2c1.606,2.771.882,2.771-3.139,0Zm78.465,0c.712-1.227,2.885-2.216,4.832-2.2,3.049.029,3.1.333.4,2.2-4.1,2.824-6.868,2.824-5.231,0ZM587.023,72c0-.482,1.46-1.475,3.247-2.206,1.864-.762,2.7-.388,1.97.877-1.228,2.12-5.216,3.136-5.216,1.329Zm1016.509-.647c1.51-.645,3.316-.565,4.011.177S1607,72.8,1604.8,72.7c-2.437-.108-2.934-.636-1.266-1.348Zm-158.106-4.477a16.132,16.132,0,0,1,7.323,0c2.014.561.366,1.021-3.661,1.021S1443.412,67.434,1445.426,66.873Zm-827.41-2.218c1.51-.645,3.315-.565,4.011.177S621.485,66.1,619.28,66c-2.437-.108-2.933-.636-1.265-1.348Zm7.765-.623c-.712-1.229,2.532-1.965,7.731-1.754a193.383,193.383,0,0,0,22.559-1.085c7.48-.8,11.468-.934,8.862-.3s-4.307,1.89-3.78,2.8-6.94,1.836-16.593,2.057-18.1-.55-18.779-1.715Zm205.084.053c-2.019-3.486,4.246-5.377,8.686-2.623,2.083,1.293,2.689,2.381,1.344,2.418a19.443,19.443,0,0,0-5.542,1.336,3.668,3.668,0,0,1-4.489-1.132Zm803.923.617a7.6,7.6,0,0,1,5.231,0c1.438.619.262,1.126-2.615,1.126S1633.349,65.321,1634.788,64.7Zm18.962-.047c1.51-.645,3.316-.565,4.011.177s-.541,1.269-2.746,1.172c-2.437-.108-2.933-.636-1.265-1.348ZM293.59,62.369a21.467,21.467,0,0,1,8.37.045c2,.559-.123,1-4.732.97s-6.24-.482-3.637-1.016ZM677.862,61.4c-.475-.819,3.844-1.838,9.6-2.263s10.462-.121,10.461.676c0,1.963-18.971,3.464-20.06,1.587Zm317.177-.8c0-1.934,1.245-2.7,3.138-1.923,1.728.706,3.139,1.572,3.139,1.923s-1.414,1.216-3.139,1.923C996.285,63.3,995.04,62.534,995.04,60.6Zm28.656.731c-7.83-.825-15.387-2.519-16.792-3.762s-7.239-2.647-12.964-3.118l-10.408-.856,12.168-.4c6.693-.221,14.089.694,16.436,2.033s12.326,2.844,22.177,3.343,18.279,1.3,18.729,1.781c1.72,1.835-15.716,2.418-29.347.981Zm163.32,1.042a27.981,27.981,0,0,1,9.416,0c2.589.532.47.967-4.708.967s-7.3-.435-4.708-.967Zm18.832.1a7.6,7.6,0,0,1,5.231,0c1.438.619.262,1.126-2.615,1.126S1204.409,63.089,1205.848,62.47Zm16.87-.047c1.51-.645,3.315-.565,4.011.177s-.541,1.269-2.747,1.172c-2.437-.108-2.933-.636-1.265-1.348Zm27.2,0c1.51-.645,3.315-.565,4.01.177s-.541,1.269-2.745,1.172c-2.437-.108-2.933-.636-1.266-1.348ZM919.712,59.175c0-1.057,2.353-1.922,5.231-1.922s5.231.385,5.231.856-2.353,1.335-5.231,1.922S919.712,60.23,919.712,59.175Zm34-1.265c-9.154-1.88-4.547-5.12,7.323-5.15,6.617-.017,14.3-.677,17.066-1.467,3.531-1.007,4.588-.665,3.538,1.146-.823,1.421-5.914,2.6-11.312,2.617-7.108.025-8.949.631-6.676,2.2,2.579,1.778,2.392,2.115-1.045,1.893a78.845,78.845,0,0,1-8.893-1.237Zm385-.024a43.356,43.356,0,0,1,11.508,0c3.165.511.576.93-5.754.93s-8.919-.418-5.754-.93Zm31.552.119c1.374-1.465,28.807-1.279,30.2.206.576.615-6.223,1.078-15.111,1.028s-15.677-.6-15.088-1.233Zm55.412-.045c1.51-.645,3.316-.565,4.011.177s-.541,1.269-2.746,1.172c-2.437-.108-2.933-.636-1.265-1.348Zm26.025-.014a16.13,16.13,0,0,1,7.323,0c2.014.561.366,1.021-3.661,1.021S1449.69,58.507,1451.7,57.946ZM859.035,56.4c0-.47,1.886-1.381,4.188-2.023s3.66-.258,3.015.856C865.11,57.172,859.035,58.158,859.035,56.4Zm35.57-1.376L885.19,53.46l8.769-.335c4.823-.185,9.351.669,10.063,1.9s1,2.081.647,1.9-4.884-1.038-10.062-1.9Zm-23.539-1.478a7.6,7.6,0,0,1,5.231,0c1.438.619.262,1.125-2.616,1.125S869.628,54.162,871.066,53.543Z" transform="translate(-95.3 -50.734)" fill="current" stroke="current" stroke-width="1.2"/>
    </g>
  </g>
</svg>