<svg
   width="1083.7334mm"
   height="423.0192mm"
   viewBox="0 0 1083.7334 423.01921"
>
  <g transform="translate(17.147621,-117.97931)">
    <path
       stroke="current"
       fill="current"
       style="stroke-width:0.52916667;stroke-miterlimit:4;stroke-dasharray:none;stroke-opacity:1"
       d="m 278.44324,538.18085 c -0.48121,-1.84013 -0.88759,-2.04139 -1.9589,-0.97007 -0.74345,0.74345 -2.20204,1.35173 -3.24132,1.35173 -2.1188,0 -9.06181,-5.42323 -8.1326,-6.35241 0.32833,-0.32835 -0.0765,-1.37716 -0.8997,-2.33073 -2.43127,-2.81643 -2.93657,-8.17306 -1.10326,-11.69546 1.55271,-2.98325 2.1653,-5.65685 2.47011,-10.78067 0.0688,-1.15592 0.4497,-1.77698 0.84652,-1.38015 0.81939,0.81939 3.66456,-1.2372 3.66456,-2.64886 0,-0.51031 -0.67813,-0.66762 -1.50696,-0.34958 -1.17253,0.44994 -1.40989,-0.47022 -1.06955,-4.14635 0.24057,-2.59854 0.59895,-6.95814 0.79638,-9.68804 0.19744,-2.72986 0.91301,-5.93718 1.59016,-7.12732 2.64035,-4.64074 4.57602,-10.83389 4.57602,-14.64087 0,-2.19186 0.45899,-5.58565 1.01997,-7.54165 0.64796,-2.25928 0.63388,-3.55644 -0.0386,-3.55644 -0.67159,0 -0.66269,-0.73966 0.0242,-2.02339 1.48601,-2.77665 2.27964,-7.03588 2.99662,-16.08223 0.60325,-7.61136 0.57053,-7.73109 -3.25378,-11.90628 -2.12474,-2.31967 -4.35381,-3.91435 -4.9535,-3.54372 -0.59968,0.37062 -1.25583,0.21446 -1.45812,-0.34726 -0.20228,-0.56159 -1.09595,-1.18146 -1.98593,-1.37747 -0.88998,-0.19613 -2.42323,-1.34322 -3.4072,-2.5494 -2.07418,-2.54256 -7.58454,-12.72568 -7.58454,-14.01621 0,-1.10044 -4.6494,-7.78742 -5.7567,-8.27955 -0.45231,-0.2011 -0.82238,-1.04004 -0.82238,-1.8644 0,-0.82443 -0.86351,-2.00189 -1.9189,-2.61657 -1.0554,-0.61472 -1.48841,-1.13267 -0.96226,-1.15101 0.52617,-0.0186 0.36223,-0.74958 -0.3643,-1.62501 -1.03191,-1.24336 -1.0188,-2.42728 0.0599,-5.41037 1.0068,-2.78426 1.05533,-4.211 0.17916,-5.26671 -0.90631,-1.09201 -0.41493,-2.60187 1.99885,-6.14186 1.76036,-2.58163 3.20062,-5.16982 3.20062,-5.75153 0,-0.58173 0.94766,-1.0577 2.1059,-1.0577 1.4065,0 2.32618,-1.00287 2.76912,-3.01961 0.83476,-3.80058 -0.0788,-11.2635 -1.56013,-12.74482 -0.61703,-0.61705 -1.12186,-2.07046 -1.12186,-3.22986 0,-1.82533 0.23995,-1.90882 1.78977,-0.62261 1.56342,1.29753 2.29147,0.91721 5.7567,-3.00724 3.93602,-4.45766 7.69978,-6.27741 10.64547,-5.14707 0.84299,0.32351 1.25971,1.02991 0.92604,1.56978 -0.33367,0.5399 0.13347,0.98161 1.0381,0.98161 0.90463,0 1.94972,-0.49343 2.32245,-1.09649 1.10528,-1.78838 6.92283,-1.26725 8.0348,0.71974 0.84121,1.50314 2.73799,1.78888 11.00188,1.65731 9.77385,-0.15572 9.99991,-0.10133 10.66842,2.56217 0.37563,1.49668 1.06828,2.48308 1.5392,2.19205 0.96271,-0.59501 10.09466,7.63471 9.32535,8.40403 -0.27107,0.27104 2.37036,0.49993 5.86984,0.5086 7.04376,0.0186 11.25775,2.22617 13.32227,6.98288 3.6293,8.36201 5.50979,10.73862 9.88071,12.4875 2.48422,0.99401 4.97767,1.52241 5.54101,1.17425 0.56333,-0.34815 1.02425,-0.17033 1.02425,0.39518 0,0.56552 1.35693,1.53525 3.01539,2.15497 1.65848,0.61972 4.00227,1.50047 5.20845,1.95722 3.25929,1.23425 3.51631,1.28239 7.63745,1.43106 2.52332,0.0911 5.05814,1.24205 7.54622,3.4266 2.06063,1.80927 4.48452,3.28957 5.38646,3.28957 0.90195,0 2.13862,0.61676 2.74821,1.37063 1.65591,2.04789 1.15194,8.81313 -0.79639,10.691 -0.9386,0.90462 -3.12642,3.74184 -4.86189,6.30495 -1.73545,2.56311 -3.81051,4.6602 -4.61125,4.6602 -1.07134,0 -1.37713,1.61018 -1.15775,6.09614 0.16411,3.35287 -0.0389,6.30445 -0.45097,6.55907 -0.412,0.25457 -0.82104,1.70552 -0.90897,3.22423 -0.30648,5.29232 -0.48582,6.05082 -1.43047,6.05082 -0.52293,0 -1.96928,1.72628 -3.21416,3.83617 -1.24484,2.1099 -2.70851,3.56107 -3.25254,3.22485 -0.54404,-0.33625 -0.98917,-0.0889 -0.98917,0.54988 0,0.63868 -1.50028,1.16123 -3.33394,1.16123 -1.83367,0 -4.67089,0.91612 -6.30495,2.03583 -1.63406,1.11971 -4.32796,2.85811 -5.98644,3.86306 -2.36102,1.43072 -3.01542,2.65462 -3.01542,5.63976 0,2.3505 -0.84098,4.65351 -2.19302,6.00556 -1.20617,1.20615 -2.19303,2.50651 -2.19303,2.88969 0,0.38315 -1.11022,1.83578 -2.46716,3.22808 -5.22617,5.36232 -6.30495,6.71676 -6.30495,7.91619 0,2.03885 -4.63816,4.05851 -9.32037,4.05851 -4.48542,0 -5.07576,0.88246 -3.36338,5.02775 1.54845,3.74843 -4.06641,7.06913 -12.75036,7.54075 -0.41941,0.0217 -1.41335,1.39836 -2.20876,3.05684 -1.12206,2.33957 -2.22936,3.02384 -4.94049,3.05312 -4.43089,0.0479 -5.51679,1.14085 -3.82493,3.84995 0.73614,1.17873 0.87513,2.14315 0.30887,2.14315 -0.56624,0 -1.18722,1.11023 -1.37993,2.46716 -0.20421,1.43787 -1.72848,3.15641 -3.65354,4.11924 -3.61236,1.80669 -3.90154,4.90696 -0.68085,7.29902 1.58782,1.1793 1.6042,1.49335 0.14441,2.76863 -0.9056,0.79113 -3.07087,3.01691 -4.81169,4.94612 -3.1599,3.50185 -3.16204,3.51423 -1.289,7.46136 1.03188,2.17452 3.08656,4.5052 4.56595,5.17925 4.01266,1.82829 2.55895,3.5697 -3.11933,3.73665 -4.25907,0.12526 -5.11548,-0.20546 -5.6303,-2.17412 z m -7.25808,-2.9079 c 0,-0.60306 -0.49343,-1.09649 -1.09651,-1.09649 -0.60308,0 -1.09652,0.49343 -1.09652,1.09649 0,0.60309 0.49344,1.09652 1.09652,1.09652 0.60308,0 1.09651,-0.49343 1.09651,-1.09652 z m -2.74128,-19.73725 c 0.37272,-0.60306 0.15513,-1.09649 -0.48354,-1.09649 -0.63868,0 -1.16123,0.49343 -1.16123,1.09649 0,0.60309 0.2176,1.09652 0.48354,1.09652 0.26594,0 0.7885,-0.49343 1.16123,-1.09652 z m 733.01952,-3.28953 c -1.5077,-0.48283 -2.09538,-0.92709 -1.3059,-0.98721 0.7894,-0.06 1.1649,-0.54683 0.8344,-1.08157 -0.7559,-1.22311 1.2982,-2.90035 4.8576,-3.96641 1.5077,-0.45156 4.8409,-2.93224 7.4071,-5.51263 3.4273,-3.44606 5.2713,-4.53328 6.946,-4.09533 1.775,0.46418 1.9559,0.82383 0.8166,1.62408 -1.0903,0.76586 -1.1291,1.16459 -0.152,1.56424 1.9928,0.81517 -11.663,13.57301 -14.3882,13.44203 -1.2509,-0.06 -3.5079,-0.50434 -5.0156,-0.9872 z m -64.80889,-9.08532 c -0.96762,-0.73699 -2.08543,-2.36741 -2.484,-3.62317 -0.6596,-2.07822 -0.30492,-2.27473 3.95236,-2.18881 2.57237,0.0519 4.75717,0.45314 4.85508,0.89162 0.39574,1.772 -1.03992,5.16917 -1.94749,4.60826 -0.53449,-0.33034 -0.97185,-0.078 -0.97185,0.5606 0,1.50989 -1.21155,1.42143 -3.4041,-0.24835 z m 87.98999,-9.2813 c -0.6646,-1.65845 -1.0089,-4.00224 -0.7652,-5.20842 0.2437,-1.20618 0.5198,-2.93318 0.6136,-3.83779 0.1184,-1.14386 0.3388,-1.22735 0.7235,-0.27415 0.3043,0.75387 1.2727,1.37067 2.1523,1.37067 2.398,0 6.6722,4.31795 5.2043,5.2575 -0.6645,0.42533 -1.5546,1.88353 -1.9781,3.24045 -1.072,3.43516 -4.4801,3.12116 -5.9504,-0.54826 z m -102.85605,-5.79404 c -1.30391,-0.50444 -2.68309,-1.90131 -3.06487,-3.10416 -0.38176,-1.20282 -2.52224,-3.97763 -4.75659,-6.16623 -3.23231,-3.16604 -4.67101,-3.86116 -7.0402,-3.40152 -2.19447,0.42573 -3.3953,-0.0186 -4.56511,-1.68858 -2.59491,-3.70476 -7.36352,-5.62409 -13.68852,-5.50952 -3.23411,0.0584 -6.4414,0.55846 -7.12735,1.11085 -0.68596,0.5524 -3.35406,1.35186 -5.9291,1.77664 -2.57508,0.42473 -5.37705,1.46739 -6.22665,2.31699 -0.95062,0.95062 -3.84261,1.54473 -7.51959,1.54473 -4.01542,0 -6.42977,0.54807 -7.36193,1.67126 -0.76285,0.9192 -1.6283,1.43001 -1.92318,1.1351 -0.29497,-0.29497 -1.38189,-0.0836 -2.41553,0.46959 -2.90473,1.55458 -6.44494,-1.42289 -5.78659,-4.8668 0.29062,-1.52105 -0.31822,-4.86932 -1.35329,-7.44057 -1.03507,-2.57125 -2.10769,-5.90859 -2.38361,-7.4163 -0.27601,-1.50771 -0.96557,-3.21005 -1.53257,-3.78296 -0.56704,-0.57294 -1.03094,-3.72366 -1.03094,-7.0016 0,-4.9915 0.45775,-6.38414 2.81708,-8.57069 1.54939,-1.43594 3.27638,-2.32688 3.83779,-1.97994 0.56141,0.34697 1.02074,0.14143 1.02074,-0.45647 0,-1.25299 2.07363,-2.0045 8.14931,-2.95347 5.27569,-0.82399 8.55257,-3.16418 11.14742,-7.96089 1.08548,-2.00661 3.3111,-4.34002 4.94581,-5.18536 1.63468,-0.84532 3.15998,-2.10039 3.38949,-2.78899 0.35098,-1.05294 6.67178,-1.62544 10.25672,-0.92902 2.52046,0.48968 3.77877,-0.20327 3.77877,-2.0812 0,-1.11272 0.98686,-2.91617 2.19304,-4.00775 1.20615,-1.09158 2.19301,-1.60472 2.19301,-1.14035 0,0.46437 1.20786,0.0528 2.68411,-0.91438 1.64568,-1.0783 2.94337,-1.33918 3.35424,-0.67436 0.36861,0.59638 2.36807,1.08431 4.44325,1.08431 2.07521,0 3.77307,0.52255 3.77307,1.16123 0,0.63868 0.6168,0.80056 1.37067,0.35978 0.75384,-0.44081 0.50714,0.18587 -0.54826,1.39227 -1.0554,1.20655 -1.91889,3.28058 -1.91889,4.60894 0,1.32839 0.86349,2.7335 1.91889,3.12249 1.0554,0.389 3.44675,1.85453 5.31411,3.25678 4.33405,3.25453 9.08902,3.01952 10.43311,-0.51569 0.53604,-1.40989 0.97461,-5.40965 0.97461,-8.88835 0,-3.47873 0.32469,-6.64965 0.72149,-7.04648 1.11091,-1.11091 3.66457,1.47796 3.66457,3.71511 0,1.09671 0.56967,2.34612 1.26592,2.77642 0.78436,0.48476 0.9683,0.30088 0.48354,-0.48354 -0.4303,-0.69625 -0.25985,-1.26592 0.37883,-1.26592 0.63868,0 1.17874,0.86349 1.20009,1.91889 0.0451,2.2342 3.15398,8.07145 3.21183,6.03084 0.0217,-0.75387 0.5164,-1.37067 1.10006,-1.37067 0.63249,0 0.70094,0.97378 0.1694,2.41065 -1.37381,3.71383 0.78231,8.94853 4.63984,11.26462 1.89745,1.13926 3.81134,1.98532 4.25305,1.88011 0.44171,-0.10537 1.1018,0.99873 1.46687,2.45326 0.36506,1.45453 2.08953,3.7373 3.83219,5.07285 1.74263,1.33554 2.9038,2.85643 2.58036,3.37979 -0.32347,0.52336 -0.0364,0.95159 0.63784,0.95159 0.67427,0 0.91341,0.50564 0.53148,1.12368 -0.38197,0.61801 -0.0814,0.98808 0.66802,0.82238 2.6676,-0.58991 4.37809,4.88865 3.93765,12.61198 -0.33652,5.90174 -0.94797,7.9887 -2.97159,10.14274 -1.40131,1.49163 -2.09177,2.72775 -1.53431,2.74692 0.55743,0.0187 0.24275,0.63598 -0.6992,1.37064 -1.84725,1.44069 -3.11982,4.15971 -3.92497,8.38628 -0.75132,3.9439 -1.30711,4.46289 -4.77918,4.46289 -1.73809,0 -3.42422,0.42728 -3.74697,0.9495 -0.75645,1.22396 -15.80336,1.31123 -18.90928,0.10972 z m -78.79648,-1.76144 c -1.03647,-0.75788 -1.48577,-1.91672 -1.02942,-2.65511 0.58758,-0.95071 1.0876,-0.81392 1.82198,0.49838 0.55669,0.99472 1.35193,1.60331 1.76716,1.35239 0.41525,-0.25084 1.3619,0.20079 2.10368,1.00364 1.08837,1.17815 0.94598,1.42957 -0.73777,1.30272 -1.14756,-0.0864 -2.91409,-0.76235 -3.92563,-1.50202 z m -293.01816,-9.89669 c -0.75384,-0.30181 -1.37064,-1.29517 -1.37064,-2.20725 0,-0.91211 -0.68347,-2.96804 -1.5188,-4.56881 -0.83534,-1.60077 -2.43897,-5.00189 -3.56365,-7.55806 -1.12468,-2.55621 -2.3542,-4.65327 -2.73225,-4.6602 -1.39311,-0.0249 -5.14415,-10.55511 -5.13433,-14.41261 0.006,-2.19074 -0.8846,-5.34879 -1.97823,-7.01788 -1.09363,-1.66909 -2.09256,-3.74405 -2.21978,-4.61099 -0.12712,-0.86698 -1.0088,-2.43536 -1.95905,-3.48535 -2.04811,-2.26314 -2.19808,-5.38004 -0.46266,-9.61472 0.69575,-1.69774 1.39858,-3.74687 1.56185,-4.55361 0.16319,-0.80678 1.1208,-2.37727 2.12783,-3.49005 1.37086,-1.51476 1.62315,-2.93727 1.00396,-5.66052 -0.76661,-3.37171 -1.234,-6.21857 -1.81231,-11.03878 -0.12651,-1.0554 -0.70016,-1.91889 -1.2745,-1.91889 -0.57437,0 -0.73273,-0.3116 -0.35188,-0.69242 1.00731,-1.00735 -1.07735,-4.45086 -5.60501,-9.25864 -3.00074,-3.18637 -4.00632,-5.22651 -4.12571,-8.37039 -0.0867,-2.28639 0.29746,-4.45198 0.85377,-4.81244 0.55638,-0.36046 1.05621,-2.22459 1.11076,-4.14253 0.11904,-4.18728 -2.61604,-6.63084 -7.47768,-6.68064 -2.10838,-0.0217 -4.5723,-1.11802 -6.47488,-2.88126 -2.79433,-2.58971 -3.60697,-2.77947 -9.0106,-2.10436 -3.26659,0.40814 -7.65488,1.4589 -9.75175,2.33505 -2.68007,1.11977 -4.8553,1.30934 -7.32311,0.63818 -3.84432,-1.04551 -12.458,1.85646 -10.91299,3.6766 0.4528,0.53344 -0.0401,0.30896 -1.09562,-0.49884 -1.05537,-0.80783 -1.9189,-1.12639 -1.9189,-0.70793 0,0.41846 -0.77538,-0.0155 -1.72308,-0.96224 -0.94769,-0.9477 -2.31908,-1.72311 -3.04749,-1.72311 -0.72841,0 -2.01662,-0.96044 -2.86268,-2.1343 -0.84609,-1.17385 -1.87255,-1.92772 -2.28103,-1.67527 -1.01636,0.62814 -6.53341,-5.6916 -6.53341,-7.48396 0,-0.79418 -1.93767,-2.89553 -4.30592,-4.66971 -5.11167,-3.82937 -7.80178,-8.88534 -7.04144,-13.23415 1.53205,-8.76263 1.62305,-12.89287 0.33702,-15.29584 -1.13204,-2.11528 -1.10419,-2.92429 0.15417,-4.47473 0.84476,-1.04095 0.9629,-1.54914 0.26265,-1.12932 -0.70035,0.41983 -0.31878,-1.21245 0.84795,-3.6273 1.19891,-2.48139 2.90489,-4.39065 3.92327,-4.39065 0.99106,0 1.51327,-0.28875 1.16046,-0.64148 -1.33502,-1.33501 1.59809,-6.78187 4.44035,-8.24578 1.62961,-0.83938 3.32546,-2.02035 3.76854,-2.62437 0.44308,-0.60406 0.81318,-0.69295 0.82241,-0.19769 0.009,0.49539 0.7967,0.12091 1.74996,-0.83244 0.95323,-0.95327 2.1868,-1.45282 2.74127,-1.11014 0.55448,0.34268 1.08328,-1.00974 1.17513,-3.00534 0.092,-1.99561 0.2182,-4.30471 0.28067,-5.13138 0.0625,-0.82663 2.33111,-2.80036 5.04143,-4.38605 2.71028,-1.58569 4.92781,-3.6232 4.92781,-4.52782 0,-1.30639 1.73952,-1.67676 8.45491,-1.80025 6.11799,-0.11252 9.777,-0.79546 13.23807,-2.47095 2.63074,-1.27354 5.98076,-2.27936 7.44452,-2.23522 1.46376,0.0441 6.70945,-0.15541 11.6571,-0.44355 10.03752,-0.5845 12.03869,0.4277 11.47477,5.80394 -0.38517,3.67196 1.06115,4.85091 8.03887,6.55267 3.01542,0.73544 6.34607,2.1167 7.40147,3.0695 1.0554,0.9528 1.92645,1.28581 1.93568,0.74004 0.009,-0.54581 0.43052,-0.33986 0.93611,0.45759 0.50564,0.79748 2.71792,1.85561 4.91619,2.35138 3.82763,0.86327 4.03398,0.75819 4.87351,-2.48171 1.16773,-4.50634 5.13321,-5.59238 10.81201,-2.96108 6.36279,2.94818 14.24075,4.26815 23.70263,3.97144 8.53628,-0.26762 11.4813,-1.51753 12.21456,-5.18371 0.16847,-0.84277 0.87571,-2.92137 1.57149,-4.61911 1.6041,-3.91422 1.58927,-4.27441 -0.28067,-6.83182 -1.42059,-1.94274 -1.70912,-1.97323 -3.56368,-0.37622 -3.11811,2.68501 -5.59742,3.22923 -6.30551,1.384 -0.34719,-0.90478 -1.09406,-1.35898 -1.65973,-1.0094 -0.5657,0.34961 -1.32513,0.15572 -1.68764,-0.43086 -0.74299,-1.2022 -4.02929,-0.27384 -5.18851,1.46568 -1.25305,1.88036 -8.97087,-5.14402 -9.72999,-8.85578 -1.04446,-5.10678 -2.02523,-6.09489 -5.24703,-5.28628 -4.61896,1.1593 -5.48873,2.40284 -4.56021,6.51991 0.72098,3.19666 0.52492,3.7949 -1.40955,4.30076 -2.73726,0.71583 -4.0595,0.006 -4.0595,-2.17728 0,-0.90462 -0.49343,-1.33983 -1.09652,-0.9671 -0.60306,0.37274 -1.09649,0.028 -1.09649,-0.76804 0,-0.79515 -0.99408,-2.06654 -2.20908,-2.82529 -1.59925,-0.99876 -2.02906,-2.09687 -1.55695,-3.97787 0.75537,-3.00967 -2.75715,-6.13521 -6.89486,-6.13521 -1.53083,0 -2.4973,-0.66159 -2.4973,-1.7095 0,-0.94021 -0.49343,-1.40451 -1.09649,-1.0318 -0.60309,0.37273 -1.09652,0.1551 -1.09652,-0.48355 0,-0.63865 -0.76929,-1.1612 -1.7095,-1.1612 -0.9402,0 -1.40451,-0.49344 -1.0318,-1.09653 0.37274,-0.60309 -0.0914,-1.09652 -1.03178,-1.09652 -0.94024,0 -1.70949,-0.52961 -1.70949,-1.1769 0,-2.10483 -3.56505,-0.53629 -4.49273,1.97668 -0.77516,2.09977 -0.17406,2.95033 4.26228,6.03084 2.84061,1.97245 6.15162,4.09428 7.35777,4.71515 2.56028,1.31795 2.94675,4.36684 0.54826,4.325 -2.84599,-0.0497 -13.65078,-6.78377 -17.61778,-10.98034 -2.55938,-2.70749 -6.81554,-2.7308 -11.85948,-0.065 -2.83905,1.50052 -3.90465,1.64412 -4.54249,0.6121 -1.16039,-1.87762 -6.66006,-0.4179 -5.89889,1.56568 0.3558,0.92718 -0.41777,1.74744 -2.02954,2.15198 -3.74306,0.93943 -7.2266,4.28935 -8.62152,8.29079 -2.03812,5.84655 -11.69788,9.66634 -19.20384,7.59384 -6.11578,-1.68864 -7.53068,-3.70202 -7.53068,-10.71615 0,-8.55471 1.1014,-9.38939 12.38983,-9.38939 8.12491,0 9.44094,-0.27601 10.7633,-2.25683 1.33558,-2.00064 1.17591,-2.76679 -1.40709,-6.75035 -1.73384,-2.67395 -3.50752,-4.2657 -4.38015,-3.93086 -0.80652,0.30958 -1.46643,0.0155 -1.46643,-0.65111 0,-0.66758 0.89256,-1.21382 1.98345,-1.21382 1.0909,0 2.94126,-0.72447 4.11191,-1.60991 1.17068,-0.88544 2.92543,-1.62557 3.89952,-1.64475 0.97406,-0.0186 3.02561,-1.02174 4.55899,-2.22792 1.53339,-1.20614 3.45032,-2.19537 4.2598,-2.19826 0.80951,-0.003 3.27206,-1.6588 5.47238,-3.67983 2.5719,-2.36238 5.60659,-3.93144 8.49796,-4.39379 4.48041,-0.71645 4.49745,-0.73758 4.49745,-5.57579 0,-5.28405 1.03833,-6.59687 4.37902,-5.53656 1.75594,0.5573 2.05706,1.37514 1.58952,4.31705 -0.47627,2.99683 -0.18649,3.73152 1.66163,4.21485 1.23117,0.32198 2.23845,0.16349 2.23845,-0.35254 0,-0.51584 1.60366,-0.28471 3.56368,0.51379 1.96002,0.79841 4.55054,1.21815 5.75669,0.93272 1.20618,-0.28534 3.3,-0.52281 4.65292,-0.52756 1.35295,-0.006 2.18826,-0.44815 1.85623,-0.98537 -0.33198,-0.5372 0.65814,-0.49701 2.20029,0.0892 1.88741,0.7176 2.80396,0.69538 2.80396,-0.0681 0,-0.62375 0.52147,-0.8118 1.15884,-0.4179 2.06545,1.27652 6.77697,-0.52013 6.08598,-2.32079 -1.01991,-2.65787 1.7522,-5.94156 5.0159,-5.94156 1.62859,0 3.27098,0.50148 3.64978,1.11439 1.00694,1.62924 2.73023,0.19302 2.73023,-2.27563 0,-1.93117 -1.18747,-2.65793 -3.64517,-2.23099 -0.49713,0.0864 -0.5864,-0.3567 -0.19831,-0.98456 0.38803,-0.62786 1.16484,-0.85769 1.72625,-0.51071 0.56141,0.34697 1.02074,0.14142 1.02074,-0.45648 0,-1.39811 -3.03913,-2.34777 -8.12525,-2.53899 -4.8562,-0.18245 -6.06434,-1.48905 -2.25987,-2.4439 2.32965,-0.58472 2.58154,-1.02161 1.62237,-2.81385 -1.73961,-3.25052 -0.90838,-4.8401 3.16191,-6.04637 3.73814,-1.10784 6.70411,-4.19848 5.33907,-5.56352 -1.31913,-1.31913 -8.51033,0.64275 -8.51033,2.32176 0,0.87729 -0.37007,1.53664 -0.82238,1.46522 -3.67784,-0.58071 -10.40485,4.37113 -11.72085,8.62785 -0.61036,1.97428 -0.33668,2.46715 1.36996,2.46715 2.947,0 5.08061,2.65623 3.23706,4.03001 -0.76127,0.56728 -2.49438,0.94683 -3.85131,0.84345 -1.57389,-0.11998 -2.51294,0.45259 -2.59363,1.58121 -0.0696,0.97304 -0.19302,2.49604 -0.27415,3.3844 -0.0811,0.88836 -1.62793,2.07201 -3.43717,2.63031 -1.80924,0.5583 -4.84442,1.68183 -6.74479,2.49671 -1.90041,0.81489 -4.2442,1.4816 -5.20846,1.4816 -2.50822,0 -2.16936,-2.28949 0.43984,-2.97181 3.06925,-0.80263 2.73658,-2.67621 -1.13354,-6.38402 -2.86647,-2.74627 -3.62478,-3.00084 -5.48257,-1.84063 -1.18579,0.74054 -2.15599,0.87808 -2.15599,0.30554 0,-0.57244 -1.35693,-0.33193 -3.01542,0.53449 -2.50312,1.30766 -3.20169,1.32684 -4.11194,0.11283 -0.60305,-0.80432 -1.62672,-1.28348 -2.27478,-1.06479 -0.64807,0.21882 -1.7371,-1.42307 -2.42007,-3.64834 -1.27385,-4.15061 -0.87655,-6.40034 0.93284,-5.28209 0.56141,0.34697 1.02074,0.0249 1.02074,-0.71312 0,-0.7392 0.30554,-1.03853 0.67881,-0.6652 0.37333,0.37333 1.35118,0.006 2.17299,-0.81541 0.82185,-0.82185 3.76802,-2.36259 6.54705,-3.42393 2.77904,-1.0613 6.98223,-3.89797 9.34038,-6.30364 2.35815,-2.40568 4.28755,-4.02876 4.28755,-3.60685 0,0.42194 1.3519,-0.48641 3.00423,-2.01852 1.65231,-1.53211 3.37933,-2.84735 3.83779,-2.92273 1.17554,-0.19333 2.88285,-0.63215 3.84902,-0.98941 0.45231,-0.16722 1.3158,-0.37824 1.91889,-0.46891 0.60309,-0.0908 2.57682,-0.94477 4.38605,-1.89804 5.94138,-3.13039 28.32206,-4.41868 33.99193,-1.95666 1.80924,0.78564 5.01531,1.63829 7.12462,1.89478 2.10928,0.25643 4.083,0.81905 4.38605,1.25016 0.30305,0.43111 2.40136,0.68338 4.6629,0.5606 2.26158,-0.12277 4.11194,0.13738 4.11194,0.57791 0,0.44063 0.6168,0.87513 1.37064,0.96557 7.66815,0.91998 11.69853,3.16633 10.15682,5.66087 -0.84342,1.36469 -12.62398,1.22806 -12.62398,-0.1464 0,-1.25989 -4.09953,-1.18153 -4.88747,0.0932 -0.34697,0.56141 -0.1234,1.33446 0.4971,1.71786 0.70463,0.43549 0.75626,1.36134 0.13769,2.46685 -0.6499,1.16135 -0.50897,2.2511 0.41001,3.17008 2.52932,2.52932 18.09744,-1.22154 18.09744,-4.36026 0,-0.84164 1.10249,-1.52955 2.46716,-1.53941 5.39458,-0.0392 6.13238,-0.4032 7.23717,-3.57238 1.30011,-3.7295 4.55035,-4.48816 4.55035,-1.06211 0,3.04672 2.75796,3.85569 5.96988,1.75114 4.1433,-2.71478 12.05915,-4.08026 26.36079,-4.54718 7.78471,-0.25425 13.29741,-0.89616 13.52368,-1.575 0.45956,-1.37856 12.48082,-1.546 13.96049,-0.19426 1.64602,1.50354 7.56875,2.2902 9.28002,1.23256 1.21006,-0.74784 0.89383,-1.21339 -1.42226,-2.09398 -3.87976,-1.47507 -3.75649,-2.68311 0.5854,-5.73605 1.96002,-1.37816 4.21569,-3.13875 5.01264,-3.91245 0.79692,-0.7737 2.87163,-1.40672 4.6105,-1.40672 2.71991,0 3.25807,0.5146 3.85271,3.68428 0.38013,2.02637 0.52585,6.32819 0.32381,9.5596 -0.30118,4.81567 -0.0339,5.94315 1.48232,6.25139 1.06,0.21571 2.63521,-0.82284 3.68977,-2.43225 1.72408,-2.63127 1.72255,-2.98772 -0.0249,-5.65293 -1.03644,-1.58181 -1.60046,-3.89393 -1.27055,-5.20843 0.48295,-1.92418 1.46907,-2.39548 5.30139,-2.5338 7.0526,-0.25456 15.83792,-1.98448 17.62962,-3.47145 0.87214,-0.72385 3.74937,-1.61174 6.39375,-1.97314 2.64442,-0.36139 6.04162,-1.31139 7.54933,-2.11114 1.50771,-0.79974 8.16902,-2.27354 14.80294,-3.27511 16.1262,-2.4347 18.09247,-2.59795 18.09247,-1.50211 0,0.51435 1.2657,0.45399 2.81267,-0.13427 1.54693,-0.58817 4.47839,-1.06939 6.51431,-1.06939 2.03596,0 3.97148,-0.43649 4.3012,-0.96999 1.2468,-2.01733 10.55318,-2.54184 14.22074,-0.80148 1.94739,0.9241 5.72986,1.64869 8.40552,1.61021 12.1946,-0.1753 15.72055,0.82779 13.27334,3.77653 -2.86463,3.45169 -0.46862,4.84126 8.72999,5.06297 4.83861,0.11655 10.1115,0.71162 11.71752,1.3222 2.72754,1.03703 9.27813,0.48713 11.64853,-0.97784 1.60913,-0.99451 11.76125,-0.30958 15.14347,1.02173 2.08183,0.81942 3.01542,1.97438 3.01542,3.73044 0,3.39496 0.97098,3.81668 6.09135,2.64553 2.37907,-0.54415 8.64895,-1.06425 13.9331,-1.15582 7.75201,-0.13428 10.14137,-0.58634 12.37152,-2.34059 2.42647,-1.90867 3.73025,-2.07847 10.67795,-1.39075 4.3527,0.43087 8.90085,0.98171 10.10703,1.22409 1.20614,0.24244 3.92003,0.72542 6.0308,1.07348 2.1108,0.34806 4.52421,1.19745 5.36312,1.88754 0.857,0.70498 6.34648,1.38692 12.52887,1.55638 6.97837,0.19116 12.1979,0.89747 14.26847,1.9304 2.2867,1.14075 6.8387,1.62874 15.19253,1.62874 9.00944,0 12.06684,0.36264 12.49644,1.48222 0.6063,1.58016 5.5132,1.19437 6.5706,-0.51662 0.815,-1.31873 18.6245,-1.17407 24.0424,0.1952 2.4123,0.60968 5.3776,1.25718 6.5895,1.43886 1.2118,0.18183 3.3477,0.94276 4.7463,1.69125 2.8866,1.54488 12.7434,4.60437 14.0908,4.37374 4.9026,-0.83925 6.0623,1.43383 2.3667,4.63894 -2.9819,2.5862 -5.3434,2.58309 -9.9123,-0.0124 -5.7946,-3.29277 -12.69,-2.2723 -19.494,2.8849 -0.2841,0.2154 0.1775,0.82048 1.026,1.34481 2.297,1.41962 -0.674,4.67959 -3.4591,3.79564 -2.1949,-0.69665 -12.9729,2.60348 -14.2267,4.35606 -0.4007,0.56013 -5.5817,1.39696 -11.5134,1.85965 -12.82972,1.00073 -15.64018,1.73377 -18.048,4.70732 -1.31413,1.62287 -1.55094,2.94184 -0.85622,4.76905 0.79477,2.09047 0.3488,3.08317 -2.58751,5.75967 -1.95128,1.77865 -4.41129,3.52557 -5.46669,3.88205 -1.0554,0.35648 -1.9189,1.35507 -1.9189,2.21906 0,0.86396 -0.4602,1.57087 -1.02263,1.57087 -0.56244,0 -1.3151,0.92156 -1.6726,2.04788 -0.39814,1.25445 -1.59505,1.99791 -3.0893,1.9189 -1.98625,-0.10506 -2.68526,-1.14731 -3.76351,-5.61156 -0.72832,-3.01542 -1.34508,-6.08013 -1.37063,-6.81051 -0.0678,-1.93639 4.1083,-5.50361 7.41433,-6.33335 1.5719,-0.39453 3.52486,-1.66937 4.33987,-2.83297 0.81501,-1.16359 2.32203,-2.11564 3.34893,-2.11564 1.02689,0 2.51371,-1.03539 3.30401,-2.30087 0.95429,-1.52807 2.17029,-2.10909 3.62037,-1.72988 2.33149,0.60968 3.58277,-1.17734 2.96445,-4.23366 -0.31838,-1.57379 -0.79223,-1.47815 -3.58584,0.72391 -3.43177,2.70509 -6.10139,3.57813 -6.10139,1.99532 0,-0.53079 -0.67648,-0.7055 -1.50327,-0.38821 -0.82682,0.31725 -1.78782,-0.16474 -2.13557,-1.07088 -0.48634,-1.26735 -1.38589,-1.43159 -3.89675,-0.71147 -1.79547,0.51494 -3.58867,0.61204 -3.98494,0.21571 -0.39623,-0.39624 -1.29687,0.0494 -2.00142,0.99056 -0.70454,0.94104 -2.14449,2.03502 -3.19989,2.43101 -1.0554,0.39601 -1.91889,1.53322 -1.91889,2.52711 0,1.26691 -0.65519,1.63574 -2.19196,1.23387 -1.20555,-0.31527 -2.42852,-0.19053 -2.71764,0.27757 -0.28907,0.46785 -2.63345,0.45924 -5.20955,-0.0187 -2.5761,-0.47842 -6.41082,-0.64561 -8.52158,-0.37153 -2.1108,0.27415 -7.29184,0.62392 -11.51341,0.7774 -6.96526,0.25332 -8.38594,0.72904 -15.3512,5.14082 -4.22156,2.67392 -8.32762,5.4937 -9.12457,6.26616 -0.79692,0.77246 -1.90715,1.40445 -2.46716,1.40445 -0.55998,0 -1.01816,0.74017 -1.01816,1.64478 0,1.03937 1.10988,1.68109 3.01538,1.74341 8.98294,0.29373 11.73145,0.87363 13.20251,2.78519 0.94161,1.22359 1.76374,1.56201 2.03866,0.83922 0.25332,-0.66622 1.59225,-0.99497 2.97532,-0.73059 2.23317,0.42692 2.49087,1.05347 2.30214,5.59733 -0.35421,8.52926 -0.2816,8.31361 -2.24653,6.68297 -1.1558,-0.95923 -1.53696,-2.45516 -1.13618,-4.45903 0.47471,-2.37354 0.12712,-3.1666 -1.63288,-3.72521 -3.18121,-1.00968 -3.68648,-0.1809 -4.17239,6.8422 -0.0501,0.72643 -1.32495,2.55438 -2.83266,4.06208 -1.50771,1.50771 -2.74127,3.44345 -2.74127,4.30164 0,0.85818 -0.83487,2.23755 -1.85527,3.06527 -1.51887,1.23204 -1.6937,1.23655 -0.96417,0.0249 1.48865,-2.47263 -2.76558,0.27476 -6.49909,4.19704 -2.37608,2.49628 -2.70624,3.23088 -1.19076,2.64929 1.53786,-0.59012 1.86817,-0.43453 1.23894,0.58361 -0.5169,0.83633 -2.20961,1.18986 -4.25775,0.88926 -4.02565,-0.59084 -10.5952,1.01972 -10.5952,2.59745 0,0.61033 -0.48781,0.80824 -1.08396,0.43979 -0.62159,-0.38415 -0.80541,0.0559 -0.43096,1.0318 0.36009,0.93835 0.0796,1.70173 -0.62553,1.70173 -0.7125,0 -0.92933,0.60679 -0.48976,1.37063 0.43384,0.75384 0.39807,1.01792 -0.0796,0.58684 -1.47309,-1.32983 -4.66956,1.11899 -5.22015,3.99917 -0.3655,1.91209 0.25332,3.46238 2.05886,5.15869 1.41975,1.33381 2.58138,3.00277 2.58138,3.7088 0,1.75656 -3.74896,5.0105 -6.20878,5.38896 -2.58094,0.3971 -3.62201,-1.22468 -3.64306,-5.67501 -0.0124,-2.3542 -0.75729,-4.01682 -2.20979,-4.92393 -1.20618,-0.75328 -2.19304,-1.93061 -2.19304,-2.61632 0,-1.87566 -2.96308,-4.02711 -3.76323,-2.73244 -0.76493,1.23769 -4.60422,0.72502 -6.52818,-0.87174 -0.80668,-0.66948 -1.9023,-0.69145 -2.90352,-0.0581 -0.88442,0.55936 -2.66543,1.02457 -3.95783,1.0338 -3.16048,0.0217 -4.36433,3.38433 -1.86612,5.21107 1.06382,0.77789 2.42389,1.25112 3.02238,1.05163 1.26654,-0.42216 5.03135,2.55873 5.03135,3.98373 0,0.53356 -0.69217,0.70451 -1.53817,0.37985 -0.846,-0.32465 -2.44966,0.1004 -3.56368,0.94435 -1.46907,1.11302 -1.59874,1.54416 -0.47207,1.56943 0.85436,0.0186 1.22871,0.35956 0.83188,0.75639 -0.39682,0.39683 -0.29839,1.26033 0.21882,1.9189 2.76626,3.52277 6.71629,12.05694 6.71629,14.51079 0,1.67338 -1.07495,3.66426 -2.64553,4.89966 -1.45506,1.14454 -3.72665,4.31425 -5.04802,7.0438 -2.1802,4.50376 -4.64036,6.42403 -10.69295,8.34644 -0.44137,0.14018 -1.9741,0.86272 -3.40606,1.60561 -1.43199,0.74293 -3.28235,1.09031 -4.11194,0.77196 -0.82956,-0.31834 -1.5083,-0.0326 -1.5083,0.63501 0,0.66762 -1.14221,1.21383 -2.53821,1.21383 -1.82584,0 -3.05682,1.08757 -4.38605,3.87503 -1.01633,2.13125 -1.84787,4.63953 -1.84787,5.57392 0,0.93443 -0.61677,1.4936 -1.37064,1.24264 -1.87905,-0.62559 -1.97898,-5.2548 -0.12868,-5.96478 0.82467,-0.31645 1.49938,-0.96253 1.49938,-1.43569 0,-1.00228 -5.36608,-2.66363 -7.46385,-2.31082 -2.16103,0.36345 -5.56588,4.13587 -5.22428,5.7883 0.65605,3.17363 3.556,8.57713 4.23745,7.89565 0.39791,-0.39789 1.03351,0.0845 1.41244,1.07196 0.37892,0.98749 1.08262,1.55213 1.56375,1.25476 1.89306,-1.16996 3.22202,6.26722 2.29371,12.83637 -0.06,0.42334 -2.27684,2.26139 -4.92673,4.08455 l -4.81797,3.31486 -3.95789,-3.14534 c -2.17685,-1.72994 -4.92667,-4.30813 -6.11068,-5.72933 -1.18405,-1.42121 -2.16921,-2.13744 -2.18928,-1.59166 -0.0186,0.54577 -0.89999,0.22192 -1.95539,-0.7199 -1.64531,-1.46814 -2.12047,-1.49236 -3.33277,-0.17002 -0.77761,0.84823 -1.13503,1.54227 -0.79421,1.54227 0.34078,0 -0.16287,1.51287 -1.11887,3.36192 -1.63036,3.15274 -1.598,3.60017 0.5201,7.19002 1.24223,2.10545 2.25859,4.50677 2.25859,5.3363 0,0.82949 0.90882,1.79665 2.0196,2.14918 3.82502,1.21401 7.04832,5.8145 7.30882,10.43162 0.13738,2.43452 -0.19582,4.42637 -0.7401,4.42637 -0.54444,0 -0.47907,0.95444 0.14515,2.12093 0.62429,1.16652 1.13506,3.14024 1.13506,4.38608 0,1.24581 0.49344,2.26509 1.09652,2.26509 0.60309,0 1.09653,0.74016 1.09653,1.64478 0,1.39497 1.84066,2.14027 4.50805,1.82534 0.3686,-0.0435 0.55494,1.00825 0.41404,2.33729 -0.1408,1.32905 -0.32667,3.1566 -0.41289,4.06122 -0.40205,4.21932 -1.96198,4.78692 -5.76648,2.09814 -5.54421,-3.91829 -8.17924,-6.8211 -10.72927,-11.8195 -1.27198,-2.49333 -2.76287,-4.53332 -3.31306,-4.53332 -0.55015,0 -1.32945,-1.03694 -1.73168,-2.30429 -0.40224,-1.26738 -2.67526,-4.30735 -5.05109,-6.75551 -2.66888,-2.7501 -3.9293,-4.84163 -3.29805,-5.47288 1.37663,-1.37663 4.98392,0.65574 9.59933,5.40835 2.04568,2.10654 3.71943,3.48053 3.71943,3.05337 0,-0.42717 0.75207,-0.15262 1.67129,0.61039 0.9192,0.76285 1.89748,1.1608 2.17396,0.88432 0.72686,-0.72686 -1.97198,-7.48539 -2.98912,-7.48539 -0.47087,0 -0.85613,-1.49577 -0.85613,-3.32397 0,-1.94311 -0.68328,-3.58615 -1.64475,-3.95509 -0.90462,-0.34716 -1.64478,-1.2833 -1.64478,-2.08031 0,-0.79701 -0.62786,-2.10116 -1.39525,-2.89808 -1.5006,-1.55837 -2.02744,-8.78805 -0.575,-7.89036 1.15073,0.71116 1.10806,-0.38751 -0.10381,-2.67693 -0.53772,-1.01577 -1.30409,-4.31398 -1.70303,-7.32939 -0.39891,-3.01542 -1.42391,-6.18973 -2.27771,-7.05406 -1.34711,-1.36365 -1.82211,-1.3274 -3.59178,0.27414 -1.12163,1.01509 -2.88639,1.84561 -3.92168,1.84561 -1.54333,0 -1.79317,-0.77585 -1.38736,-4.30829 0.35182,-3.0621 0.0444,-4.48126 -1.0632,-4.90621 -0.857,-0.32885 -2.032,-1.84415 -2.61109,-3.3673 -0.57913,-1.52319 -1.52425,-2.7694 -2.10033,-2.7694 -0.57608,0 -1.20531,-1.11023 -1.3983,-2.46716 -0.20421,-1.43581 -1.03827,-2.3772 -1.99517,-2.25197 -3.92737,0.51394 -15.25577,3.93418 -15.13508,4.5695 0.25767,1.35705 -1.55281,4.51635 -2.3175,4.04374 -0.4266,-0.26358 -3.63846,2.20634 -7.13745,5.48885 -3.499,3.28254 -7.04573,5.96824 -7.8816,5.96824 -1.53012,0 -1.71214,0.65804 -2.12292,7.67558 -0.27073,4.62635 -2.51965,10.96514 -3.89016,10.96514 -0.5441,0 -0.98926,0.68736 -0.98926,1.52745 0,1.27851 -3.26678,3.54484 -3.76254,2.61029 -4.26359,-8.03701 -5.73729,-11.5301 -5.33077,-12.63573 0.27726,-0.75383 0.0485,-1.37063 -0.50795,-1.37063 -1.30278,0 -3.76319,-5.35818 -3.01575,-6.56759 0.31296,-0.5064 -0.0124,-1.11437 -0.7222,-1.35109 -0.71014,-0.23685 -1.42242,-1.3891 -1.5828,-2.56084 -1.70642,-12.46611 -2.85706,-14.63472 -7.8025,-14.70543 -1.58087,-0.0218 -3.03751,-1.19225 -4.14009,-3.32441 -0.93558,-1.80923 -2.34516,-3.28953 -3.13241,-3.28953 -0.78723,0 -2.10073,-1.25084 -2.91891,-2.77962 -0.82098,-1.53398 -2.13249,-2.53218 -2.92658,-2.22745 -0.79142,0.30367 -1.43896,0.13179 -1.43896,-0.38203 0,-0.51383 -0.98686,-1.19229 -2.19304,-1.50771 -1.25544,-0.32829 -2.20022,-0.0314 -2.20983,0.6945 -0.0124,0.80478 -0.31107,0.86741 -0.82237,0.17157 -1.03417,-1.40762 -3.54689,-1.92548 -3.54689,-0.73102 0,0.50257 -0.74014,0.91379 -1.64475,0.91379 -0.90462,0 -1.64479,-0.42857 -1.64479,-0.95236 0,-0.52377 -0.92199,-0.4589 -2.04885,0.14422 -1.12685,0.60309 -2.27214,0.87325 -2.54504,0.60032 -0.27291,-0.2729 -2.65425,-0.6669 -5.29183,-0.87556 -2.63761,-0.20856 -4.98746,-0.95484 -5.22191,-1.65824 -0.23592,-0.70752 -2.51475,-1.27888 -5.10079,-1.27888 -5.91073,0 -10.5663,-2.3095 -14.43371,-7.16014 -3.03795,-3.81032 -6.45393,-4.97112 -7.28572,-2.47574 -0.9122,2.73664 0.55553,6.12881 3.16663,7.31851 1.48496,0.6766 2.41158,1.69675 2.05914,2.26702 -0.35244,0.57027 0.32646,1.55449 1.50867,2.1872 1.18222,0.63268 2.43654,2.05479 2.78737,3.16017 0.40929,1.2896 1.51647,1.91215 3.08967,1.73731 1.34847,-0.14982 3.03332,-0.31362 3.74411,-0.36388 0.71079,-0.0504 2.03474,-0.83381 2.94219,-1.74123 1.46876,-1.46879 2.04568,-1.2883 5.25697,1.64478 1.98396,1.81204 4.4273,3.29463 5.42971,3.29463 1.0024,0 2.65943,1.2772 3.68228,2.83828 1.82491,2.78519 1.7928,2.89802 -1.71617,6.03083 -1.96674,1.75587 -4.00956,3.19252 -4.5396,3.19252 -0.53005,0 -0.63825,0.52666 -0.24027,1.17031 0.39779,0.64369 -0.29683,1.43709 -1.54376,1.76318 -1.24687,0.32605 -2.55534,1.50124 -2.90775,2.61153 -0.38057,1.19913 -1.28566,1.77119 -2.22931,1.40906 -0.87379,-0.33529 -1.58865,-0.0311 -1.58865,0.67812 0,0.7617 -0.84277,1.02021 -2.06318,0.63286 -1.34891,-0.42809 -2.30687,-0.0186 -2.7671,1.17958 -0.38716,1.00893 -0.9827,1.5556 -1.32342,1.21488 -0.34076,-0.34073 -3.16636,0.89309 -6.27915,2.74183 -3.1128,1.84871 -7.08776,3.53583 -8.83321,3.74911 -1.74546,0.21323 -3.71919,0.83556 -4.38606,1.38285 -0.66687,0.54733 -3.18621,1.29085 -5.59854,1.65234 -2.41232,0.36145 -3.79943,0.27445 -3.08246,-0.19302 1.34708,-0.87858 1.34157,-0.89502 -4.47579,-13.41356 -1.26113,-2.71389 -3.49458,-6.25494 -4.96321,-7.86901 -1.46864,-1.61407 -2.84245,-4.06326 -3.05297,-5.4426 -0.21043,-1.37937 -1.47995,-3.7157 -2.82103,-5.19186 -1.34107,-1.47616 -1.69815,-2.32107 -0.79353,-1.87753 0.98954,0.48513 0.88031,0.17966 -0.27414,-0.76649 -1.0554,-0.86505 -1.91893,-2.02628 -1.91893,-2.58051 0,-0.55423 -0.96041,-1.69992 -2.1343,-2.54601 -1.17385,-0.84606 -1.94656,-1.84206 -1.71711,-2.21331 0.82987,-1.34279 -1.32168,-3.40071 -4.07799,-3.90052 -2.56656,-0.46539 -2.79647,-0.20731 -2.58157,2.89712 0.12992,1.87442 1.04704,3.86194 2.03837,4.4167 0.99134,0.55479 1.54784,1.67217 1.23668,2.4831 -0.3112,0.81091 0.13862,2.17893 0.99985,3.04004 2.46734,2.46731 5.13958,8.22894 5.13958,11.08142 0,1.43255 1.19182,3.72428 2.64849,5.09277 1.4567,1.36846 2.93812,3.64204 3.29211,5.05236 0.35397,1.4103 1.63645,2.87934 2.84997,3.26448 1.21351,0.38517 1.94783,1.11869 1.63179,1.63005 -0.556,0.89962 3.82131,4.9395 6.21742,5.73823 0.64822,0.21602 1.17857,1.60844 1.17857,3.09418 0,1.5519 1.09485,3.52715 2.57309,4.6422 2.36443,1.78347 2.89774,1.80526 6.57592,0.26855 2.20156,-0.91985 5.2995,-1.68003 6.88432,-1.68926 1.58486,-0.009 3.57692,-0.45704 4.42687,-0.99507 0.84991,-0.53807 2.20687,-0.72444 3.01541,-0.41414 1.99073,0.76391 1.86482,6.35717 -0.18929,8.41136 -0.9127,0.9127 -1.95377,3.13098 -2.31348,4.9295 -0.37296,1.86493 -2.93013,5.53236 -5.95123,8.53513 -2.91347,2.89584 -5.0819,5.48046 -4.81872,5.74363 0.26327,0.26327 -1.52754,1.37661 -3.97934,2.47434 -2.45183,1.0977 -4.15101,2.4923 -3.776,3.09909 0.38843,0.62845 -0.006,0.83857 -0.92081,0.48824 -0.95619,-0.36693 -1.85888,0.19116 -2.23787,1.38319 -0.34939,1.09901 -1.78344,3.23567 -3.18677,4.7481 -1.40337,1.51247 -3.93455,5.10974 -5.62481,7.99396 -2.91915,4.98115 -3.00432,5.50299 -1.69861,10.40828 0.75604,2.84033 1.96853,6.15106 2.69446,7.35723 0.72593,1.20615 1.43171,5.47443 1.56841,9.48507 0.21602,6.33485 -0.0758,7.59428 -2.22285,9.59448 -1.35929,1.26636 -2.99515,2.31019 -3.63529,2.31967 -0.64014,0.009 -3.59463,2.20035 -6.56557,4.86864 -5.37096,4.82385 -5.39474,4.87519 -4.18156,9.02903 1.75008,5.99229 0.67946,10.20842 -2.59223,10.20842 -2.2282,0 -2.87403,0.93169 -4.52195,6.52324 -1.35276,4.59007 -2.65673,6.85777 -4.40007,7.65208 -1.36265,0.62087 -2.49995,1.75624 -2.52736,2.52301 -0.028,0.7668 -2.30432,3.61459 -5.05982,6.32848 -2.75551,2.71386 -4.61212,4.19415 -4.12577,3.28953 0.70942,-1.31954 0.57163,-1.39463 -0.69687,-0.37979 -2.0169,1.6136 -22.22989,4.00109 -24.88205,2.93898 z m 103.9928,-216.29549 c 1.1116,-0.14422 3.12461,-5.40297 2.20799,-5.76806 -0.47866,-0.19054 -1.21314,-1.74493 -1.63216,-3.45396 -0.47018,-1.91768 -0.35387,-2.85512 0.30368,-2.44869 0.58608,0.36223 0.323,-0.82999 -0.58463,-2.64939 -0.90763,-1.8194 -1.98417,-3.32444 -2.39231,-3.34449 -0.40814,-0.0187 -1.91955,-1.01713 -3.35869,-2.2157 -2.51701,-2.09625 -2.54275,-2.2608 -0.67585,-4.3237 1.06743,-1.17948 2.33418,-1.9014 2.81496,-1.60425 1.38267,0.85455 2.33133,-1.49549 1.5709,-3.89135 -0.833,-2.62452 -5.12248,-2.9318 -7.51585,-0.53843 -0.90462,0.90461 -2.05009,1.64723 -2.54548,1.65022 -0.49539,0.003 -2.34783,1.16334 -4.11654,2.57858 -3.0455,2.43682 -3.14009,2.75598 -1.78586,6.02537 0.78647,1.89875 1.89266,3.45224 2.45817,3.45224 0.56551,0 0.75791,0.43733 0.42754,0.97185 -0.33035,0.53452 0.34336,1.21871 1.49717,1.52045 1.52536,0.39888 2.00965,1.35152 1.77477,3.49117 -0.17779,1.61842 -0.84877,3.46834 -1.49139,4.11094 -2.22975,2.22975 6.14543,7.51228 10.75232,6.78187 0.90462,-0.14329 1.93565,-0.29839 2.29114,-0.34467 z M 584.514,247.29311 c 1.05539,-0.38129 3.00895,-0.83891 4.3412,-1.01695 1.33228,-0.17811 3.27576,-0.80131 4.31888,-1.38503 1.2736,-0.71275 3.44936,-0.59405 6.62395,0.36133 2.60003,0.78253 4.72736,1.12561 4.72736,0.76248 0,-0.3631 0.46835,-0.19147 1.04082,0.38147 1.5898,1.59111 11.85432,0.56744 12.55243,-1.25187 0.95954,-2.50054 -0.2384,-4.21932 -4.01636,-5.76234 -8.60342,-3.51388 -8.6604,-3.56772 -6.79353,-6.41691 2.26596,-3.45827 1.23912,-4.7733 -2.81845,-3.60961 -4.79907,1.37635 -4.90727,1.45589 -4.81368,3.53955 0.14981,3.33408 -3.92647,3.58264 -6.65615,0.40588 -3.23666,-3.76671 -7.35261,-3.71201 -10.92924,0.14515 -1.53211,1.65233 -2.78566,3.40845 -2.78566,3.90254 0,0.49405 -0.6168,0.54335 -1.37064,0.10941 -0.75387,-0.43382 -1.01794,-0.39808 -0.58683,0.0796 0.43108,0.47754 0.28534,1.79957 -0.32385,2.93789 -1.35074,2.52382 1.80949,8.65353 4.10224,7.95688 0.80774,-0.24555 2.33211,-0.75822 3.38751,-1.13951 z m -7.40147,-56.62934 c 0,-0.50714 0.44743,-0.64555 0.99426,-0.30772 0.54683,0.33796 0.76785,-0.25114 0.49116,-1.30931 -0.40889,-1.56359 -1.46749,-1.85191 -5.65443,-1.53997 -2.83324,0.21105 -5.59251,0.8018 -6.13169,1.31267 -0.54189,0.51344 0.14795,0.63383 1.54211,0.26917 1.63838,-0.42847 2.26966,-0.25052 1.80119,0.50732 -0.45924,0.74309 0.17562,0.97042 1.74745,0.62588 1.98724,-0.43559 2.14791,-0.31086 0.8239,0.63967 -1.31606,0.94481 -1.04213,1.13516 1.37063,0.95249 1.65849,-0.12558 3.01542,-0.64325 3.01542,-1.15039 z m 167.76662,-36.31204 c 0,-0.23716 -0.76577,-0.72481 -1.70172,-1.08396 -0.9758,-0.37445 -1.41595,-0.19054 -1.03181,0.43095 0.64396,1.04191 2.73353,1.5411 2.73353,0.65301 z M 1047.474,468.82092 c -1.1381,-2.99347 -0.4798,-5.27388 1.2193,-4.2238 0.5636,0.34834 0.7125,1.96005 0.3309,3.58158 -0.4742,2.01513 -0.3357,2.60115 0.4378,1.8517 0.6224,-0.60309 1.369,-2.08339 1.6591,-3.28956 0.4133,-1.71814 0.5551,-1.56546 0.6547,0.70507 0.1775,4.04383 -2.9117,5.03122 -4.3018,1.37501 z m 6.121,-10.84426 c 0.1297,-2.96336 1.5442,-5.19917 1.6815,-2.65782 0.046,0.85436 0.2493,2.4169 0.4512,3.4723 0.2021,1.05537 -0.2222,1.91889 -0.9425,1.91889 -0.7204,0 -1.256,-1.23002 -1.1902,-2.73337 z m -1.0732,-8.55319 c 0.4118,-1.08142 1.0249,-1.68998 1.3625,-1.35236 0.3376,0.33761 7e-4,1.22237 -0.7487,1.96617 -1.0829,1.07489 -1.2089,0.94894 -0.6138,-0.61381 z m -426.12679,-2.49293 c -0.78411,-0.94481 -1.40653,-3.28863 -1.38313,-5.20846 0.0566,-4.64608 1.98579,-19.23779 2.60162,-19.67813 0.26793,-0.19146 1.95296,-0.82868 3.74479,-1.41595 1.90407,-0.62404 4.55421,-2.99798 6.37743,-5.71268 1.71578,-2.55471 3.79279,-4.64493 4.6156,-4.64493 1.9736,0 2.50178,3.88733 1.26638,9.32036 -0.5485,2.41233 -0.96429,5.24955 -0.92398,6.30495 0.0404,1.0554 -0.3894,1.9189 -0.955,1.9189 -0.56561,0 -0.96996,0.37009 -0.89853,0.8224 0.0715,0.45231 0.0373,1.06911 -0.0755,1.37064 -0.32434,0.86579 -1.32752,6.93921 -1.48126,8.96792 -0.0768,1.01232 -0.65052,1.75245 -1.27515,1.64475 -0.62463,-0.10754 -0.995,0.47295 -0.82309,1.29026 0.17189,0.81734 -0.2586,2.17426 -0.95665,3.01541 -0.69807,0.84115 -0.83875,1.53693 -0.31259,1.54616 0.52616,0.009 0.21664,0.49511 -0.68813,1.07971 -2.5191,1.62796 -7.24171,1.29575 -8.83275,-0.62131 z m 432.10909,-5.43601 c 0.7629,-0.9192 1.6128,-1.44545 1.8889,-1.16947 0.7604,0.76043 -0.7847,2.84073 -2.1098,2.84073 -0.7272,0 -0.6439,-0.62913 0.2209,-1.67126 z m 4.2338,-10.63005 c 0.5047,-3.04494 0.6592,-3.19939 1.0045,-1.00451 0.2244,1.42649 -0.044,3.04566 -0.5965,3.59811 -0.6084,0.60834 -0.7693,-0.41461 -0.408,-2.5936 z m -29.1101,-4.64639 c 0,-0.87811 0.4112,-1.34242 0.9138,-1.03181 0.5025,0.31051 0.9137,1.02904 0.9137,1.59654 0,0.56747 -0.4112,1.03178 -0.9137,1.03178 -0.5026,0 -0.9138,-0.71844 -0.9138,-1.59651 z m -91.92441,-24.93564 c -1.20614,-0.68285 -2.55555,-1.77713 -2.99863,-2.43176 -0.44308,-0.65462 -0.81314,-0.71035 -0.82237,-0.1237 -0.009,0.58649 -0.75459,0.0124 -1.65632,-1.27441 -1.91948,-2.74046 -4.33952,-2.67649 -6.4207,0.16971 -1.61133,2.20364 -8.18999,2.68032 -9.42449,0.68288 -0.38663,-0.62556 -1.9151,-1.31948 -3.39664,-1.54202 -2.09423,-0.31456 -2.76874,-1.15592 -3.03099,-3.78076 -0.34013,-3.40488 -3.61651,-6.50322 -7.57584,-7.16419 -1.0755,-0.17965 -3.0657,-0.93647 -4.42263,-1.68205 -1.35696,-0.7456 -2.46716,-1.07417 -2.46716,-0.73018 0,0.34396 -1.00259,0.0889 -2.22794,-0.56694 -1.22539,-0.65581 -2.08889,-2.02563 -1.9189,-3.04408 0.17717,-1.06192 -0.74501,-2.31833 -2.16224,-2.94579 -2.6401,-1.16888 -2.75171,-3.27424 -0.17872,-3.3691 3.21363,-0.11842 7.5842,1.98022 7.5842,3.64185 0,0.94891 0.79704,2.60603 1.77119,3.68247 1.40132,1.5484 2.08034,1.68093 3.25149,0.63458 5.06082,-4.52148 4.70527,-4.44993 11.80458,-2.3754 3.71129,1.08452 7.21656,2.38186 7.7895,2.88297 0.57291,0.50114 1.86541,0.91118 2.87216,0.91118 2.37957,0 12.7166,8.22981 12.7166,10.12431 0,1.83031 3.57776,7.37337 4.87768,7.55697 0.53372,0.0755 1.4227,0.19862 1.97553,0.27415 0.55283,0.0755 1.27186,0.40379 1.59788,0.72978 1.17783,1.17786 -5.39809,0.95077 -7.53733,-0.26016 z m -68.28411,-1.5097 c 1.04107,-1.08996 2.19354,-1.68102 2.56109,-1.31348 0.36755,0.36758 -0.4842,1.25937 -1.89279,1.98175 -2.44835,1.25563 -2.47778,1.22623 -0.6683,-0.66827 z m -42.46377,-2.90682 c -3.22003,-0.98481 -10.15474,-2.00347 -13.99157,-2.05531 -1.62551,-0.0218 -1.6951,-0.26078 -0.44127,-1.5147 2.62256,-2.62257 20.46364,-0.19209 20.46364,2.78777 0,1.45082 -2.69978,1.801 -6.0308,0.78224 z m 114.21141,-5.8425 c 0.75412,-1.96524 4.91302,-1.71807 5.58819,0.33208 0.29497,0.89573 -0.70818,1.37067 -2.89509,1.37067 -2.57483,0 -3.19585,-0.39266 -2.6931,-1.70275 z m 6.49029,-0.11532 c -1.1441,-2.98147 -0.6677,-3.92917 1.66804,-3.31834 1.26582,0.33103 2.03564,0.336 1.71067,0.0124 -0.32493,-0.32493 -0.006,-1.21653 0.70818,-1.98134 1.34997,-1.44517 4.05176,-1.03799 4.05176,0.61058 0,0.51964 -0.74013,0.66078 -1.64475,0.31365 -0.97405,-0.37379 -1.64478,-0.0124 -1.64478,0.88722 0,0.83512 -0.94851,2.33055 -2.10781,3.32316 -1.84539,1.5801 -2.1867,1.59924 -2.74131,0.15417 z m -89.32389,-4.55153 c -0.0715,-0.80491 -0.69062,-1.0871 -1.41005,-0.6425 -0.84634,0.52308 -1.05872,0.20887 -0.62416,-0.92364 0.68011,-1.77228 -0.84771,-1.99965 -3.26927,-0.48647 -1.47634,0.92252 -2.73785,-2.75271 -2.13836,-6.22976 0.40385,-2.34239 3.57561,-4.50659 4.4741,-3.05281 0.32736,0.52967 1.96391,0.72552 3.63676,0.43524 2.89127,-0.50173 2.93622,-0.44683 0.90949,1.11064 -2.03738,1.56561 -2.04844,1.76615 -0.24896,4.51265 1.03578,1.58081 1.41461,2.87421 0.84186,2.87421 -0.57275,0 -1.26707,0.86352 -1.54286,1.91892 -0.2757,1.05537 -0.55871,1.27298 -0.62867,0.48352 z m 2.06585,-0.24369 c 0,-0.58416 0.74014,-1.06211 1.64475,-1.06211 0.90465,0 1.64479,0.19396 1.64479,0.43096 0,0.23716 -0.74014,0.71495 -1.64479,1.06211 -0.90461,0.34713 -1.64475,0.15324 -1.64475,-0.43096 z m -23.23009,-2.21075 c -0.1896,-0.56402 -1.82524,-1.11775 -3.63451,-1.23055 -1.80924,-0.11283 -3.78296,-0.47323 -4.38605,-0.80099 -0.60309,-0.32776 -1.77778,-0.69898 -2.61048,-0.82493 -1.64991,-0.24959 -3.94546,-2.22642 -4.00747,-3.45119 -0.0218,-0.42216 -0.66914,-1.90323 -1.43948,-3.29127 -2.27174,-4.09329 -1.21762,-7.26234 2.62549,-7.89316 1.83705,-0.3015 4.05751,-1.17031 4.93431,-1.93061 7.05829,-6.12051 9.44731,-7.90531 10.60183,-7.92051 0.7326,-0.009 1.86021,-1.00437 2.50572,-2.21051 1.4729,-2.75218 3.78331,-2.79579 6.45726,-0.12185 2.03057,2.03058 2.02613,2.11624 -0.22659,4.36887 -2.0786,2.07859 -2.16526,2.66397 -0.9086,6.13918 1.27207,3.51783 1.16403,4.14284 -1.28258,7.41863 -1.46942,1.96745 -3.25003,5.38392 -3.9569,7.59213 -1.23664,3.86309 -3.95671,6.28313 -4.67204,4.15676 z m 44.06386,-1.00996 c 0,-0.58416 0.74014,-0.77808 1.64476,-0.43096 0.90461,0.34716 1.64478,0.82508 1.64478,1.06212 0,0.23684 -0.74017,0.43092 -1.64478,0.43092 -0.90462,0 -1.64476,-0.47792 -1.64476,-1.06208 z m -18.09452,-12.09937 c -0.3897,-0.63054 0.2726,-0.95451 1.55179,-0.75928 3.14829,0.48047 4.21538,1.8591 1.43898,1.8591 -1.27108,0 -2.61694,-0.49493 -2.99077,-1.09982 z m -7.1253,-1.09323 c 0,-1.28699 0.8428,-1.28699 3.83779,0 1.9433,0.83509 1.84965,0.95115 -0.82237,1.01944 -1.65849,0.0423 -3.01542,-0.41635 -3.01542,-1.01944 z m 9.79779,-15.48351 c -0.68446,-1.27894 -0.77311,-2.03403 -0.19706,-1.67795 0.59867,0.37001 0.8345,-0.46698 0.55034,-1.95339 -0.56582,-2.95982 3.41265,-7.75786 5.40944,-6.5238 0.74529,0.46064 0.91919,0.2614 0.44354,-0.50823 -0.4303,-0.69627 -0.31262,-1.26595 0.2614,-1.26595 0.57416,0 1.34344,0.78051 1.7095,1.73445 1.35183,3.52284 0.58475,5.86492 -2.52199,7.70008 -1.8253,1.07824 -2.94666,2.51055 -2.62396,3.35154 0.92168,2.40182 -1.68118,1.6662 -3.03143,-0.85675 z m -132.68713,-1.96931 c -2.04136,-0.8083 -2.33307,-8.49799 -0.32235,-8.49799 1.2385,0 3.90685,4.86021 4.36451,7.94973 0.19364,1.30617 -1.53562,1.54071 -4.04216,0.54826 z m -493.97549,-4.60024 c -0.79519,-1.28665 1.325,-3.12181 3.63944,-3.15016 1.9775,-0.0249 1.68867,2.91608 -0.36381,3.70367 -2.29604,0.88109 -2.39984,0.86356 -3.27563,-0.55351 z m -4.87627,-2.12208 c -1.49796,-1.15095 -3.3476,-2.10359 -4.11032,-2.11702 -1.59162,-0.028 -5.88346,-6.5817 -5.11957,-7.81769 0.27903,-0.4515 -0.48668,-1.1364 -1.7016,-1.52201 -1.21493,-0.38557 -2.20895,-1.16126 -2.20895,-1.72369 0,-0.56244 -1.19267,-1.02264 -2.65038,-1.02264 -3.22495,0 -12.70082,-3.93256 -12.70082,-5.27094 0,-0.52955 -1.67698,-1.8659 -3.72663,-2.96972 -3.53303,-1.90267 -3.82521,-1.90836 -5.62395,-0.10972 -1.14469,1.1447 -2.60244,1.59526 -3.67484,1.13587 -0.97763,-0.4188 -2.88773,-0.79257 -4.24467,-0.83061 -1.35693,-0.0379 -2.46716,-0.49306 -2.46716,-1.01111 0,-0.51805 -0.49343,-0.63697 -1.09651,-0.2642 -0.60308,0.37271 -1.09651,-0.0762 -1.09651,-0.9974 0,-1.03846 -0.6251,-1.43519 -1.64477,-1.0439 -0.90463,0.34713 -1.64477,0.0849 -1.64477,-0.58267 0,-0.66758 -1.02211,-1.21379 -2.27136,-1.21379 -1.24923,0 -2.95913,-0.6168 -3.79973,-1.37064 -3.58262,-3.21285 -4.86115,-4.11193 -5.84726,-4.11193 -0.57518,0 -0.91539,-0.8635 -0.75604,-1.9189 0.63642,-4.21494 -3.70125,-11.17623 -8.78595,-14.10007 -1.16309,-0.6688 -2.12732,-1.65566 -2.14274,-2.19301 -0.0155,-0.53735 -2.71498,-3.66715 -5.99903,-6.9551 -3.28405,-3.28795 -6.07586,-6.69258 -6.20402,-7.56583 -0.62443,-4.25451 -6.50854,-4.02491 -6.20323,0.24213 0.29227,4.08443 -1.53272,3.57679 -3.4253,-0.9528 -0.88195,-2.11079 -2.15127,-3.83779 -2.82072,-3.83779 -0.66944,0 -0.91222,-0.49343 -0.53949,-1.09652 0.37273,-0.60309 0.2127,-1.09652 -0.35566,-1.09652 -0.56833,0 -1.2914,-0.98686 -1.60683,-2.19301 -0.31542,-1.20618 -1.43661,-2.19304 -2.49154,-2.19304 -2.8946,0 -8.49994,-4.72662 -10.90789,-9.1979 -1.17677,-2.18512 -3.01269,-4.25004 -4.07983,-4.58874 -2.07462,-0.65845 -2.03759,-0.35257 -2.32701,-19.22228 l -0.1615,-10.5304 -3.789,-3.17602 c -2.08394,-1.74682 -3.33855,-2.43589 -2.78802,-1.53127 0.83037,1.36448 0.54176,1.34167 -1.69358,-0.13365 -1.482,-0.97819 -2.71203,-2.21175 -2.7334,-2.74127 -0.0864,-2.14011 -2.69517,-5.52264 -5.358809,-6.94817 -1.554407,-0.83188 -2.826188,-2.42824 -2.826188,-3.54742 0,-1.95734 -5.122373,-4.89931 -6.365646,-3.65605 -0.318416,0.31844 -0.126629,0.57894 0.426194,0.57894 0.55283,0 1.005139,1.41747 1.005139,3.14994 0,2.06946 -0.47015,2.96954 -1.370641,2.62396 -0.753851,-0.28937 -1.370642,-1.42157 -1.370642,-2.51623 0,-1.09463 -2.0235,-3.72229 -4.496665,-5.83924 -2.835779,-2.42731 -4.190731,-4.344 -3.668377,-5.18919 0.500054,-0.8091 0.372157,-1.05829 -0.32275,-0.62879 -1.123192,0.69416 -3.025058,-2.21757 -2.624258,-4.01773 0.110684,-0.49713 -0.30442,-0.59137 -0.922435,-0.2095 -0.618025,0.38194 -1.131237,0.0485 -1.140471,-0.74087 -0.01212,-1.043 -0.307342,-0.98578 -1.079724,0.20949 -0.820178,1.26915 -1.066766,1.30496 -1.079724,0.15666 -0.0099,-0.8695 -0.70043,-1.22561 -1.66156,-0.85679 -0.904625,0.34713 -1.644772,0.21602 -1.644772,-0.29155 0,-1.02839 -9.284883,-2.52683 -15.622213,-2.52124 -2.259851,0.002 -3.834381,-0.4404 -3.498958,-0.98313 0.335424,-0.54273 0.116432,-0.98677 -0.486652,-0.98677 -0.603083,0 -1.422261,0.52706 -1.820397,1.17127 -0.398136,0.64418 -1.365878,0.92492 -2.150539,0.62382 -0.784661,-0.30118 -1.756439,-0.21757 -2.159506,0.18526 -0.802776,0.80276 -1.399741,0.89551 -7.350878,1.14205 -2.21734,0.092 -4.24248,0.7838 -4.500312,1.53767 -0.257831,0.75384 -0.293199,0.29466 -0.07859,-1.02049 0.360769,-2.21082 0.121302,-2.31405 -3.175284,-1.36877 -1.961013,0.56231 -3.732893,1.52375 -3.937511,2.1366 -0.46583,1.39512 -2.474314,3.33345 -5.6588,5.46109 -1.353953,0.90462 -3.10618,2.26158 -3.89383,3.01542 -2.118484,2.02759 -3.781766,1.66588 -3.781766,-0.82238 0,-1.20618 0.592118,-2.19304 1.315816,-2.19304 1.020919,0 1.019909,-0.2959 -0.0044,-1.32031 -0.726179,-0.72618 -3.0616147,-1.20307 -5.1898622,-1.05972 -2.128245,0.14329 -4.9498792,-0.49611 -6.2703012,-1.42096 -1.3204189,-0.92488 -3.6479069,-1.69728 -5.1721946,-1.71646 -3.3297953,-0.042 -6.926286,-2.55552 -7.300041,-5.10209 -0.368819,-2.51294 2.7255433,-4.65454 6.7861887,-4.69678 4.215743,-0.0438 8.29128,-2.83343 6.17840893,-4.229 -0.78794522,-0.52041 -3.61092833,-0.72885 -6.27328753,-0.46315 -5.2964891,0.52855 -11.5416661,-1.58974 -10.7522041,-3.64704 0.337541,-0.87963 2.921905,-1.1594 8.0747264,-0.87419 6.336798,0.35073 7.47667239,0.15479 6.9579402,-1.19717 -0.3411965,-0.88914 -0.9436271,-1.55256 -1.3387326,-1.47423 -1.8101328,0.35881 -6.8806914,-2.55854 -6.4890484,-3.73348 0.7922905,-2.37686 10.03088078,-6.51146 16.7358117,-7.48984 4.4560157,-0.65024 11.8867577,-0.44046 23.0267907,0.65 13.832511,1.354 28.666209,2.53665 35.636701,2.8412 0.904624,0.0395 3.479479,0.58761 5.721904,1.21799 2.863875,0.80506 4.496534,0.79804 5.486536,-0.0249 0.77517,-0.64334 4.368205,-1.19278 7.98452,-1.221 3.616314,-0.028 8.795555,-0.47485 11.509427,-0.99249 2.713872,-0.51765 6.319026,-0.57027 8.011446,-0.11687 1.69243,0.4533 5.75696,0.82421 9.03229,0.82421 3.27532,0 6.82493,0.26855 7.888,0.59715 4.2813,1.32277 10.64682,1.56739 12.66602,0.48675 1.65706,-0.88684 1.94678,-0.83117 1.28093,0.24617 -0.61777,0.99958 -0.32053,1.18504 1.05387,0.65764 1.05289,-0.40404 2.73748,-0.7539 3.74356,-0.77752 1.00606,-0.0249 0.11189,-0.78772 -1.98708,-1.69806 -3.02917,-1.31375 -3.48149,-1.86683 -2.19303,-2.68156 1.23882,-0.78334 0.90912,-1.03041 -1.39215,-1.04322 -1.83839,-0.009 -3.01541,-0.61303 -3.01541,-1.54426 0,-2.08811 -2.79462,-2.99198 -5.76622,-1.86503 -3.50753,1.3302 -11.5039,2.33232 -13.25343,1.66098 -1.22009,-0.4682 -1.17213,-1.24479 0.26998,-4.37073 l 1.75369,-3.80136 8.22385,0.18369 c 4.52313,0.10102 9.70415,0.64331 11.5134,1.20497 6.79015,2.108 11.06384,3.16955 14.25468,3.54083 1.80925,0.21043 3.78297,0.4874 4.38606,0.61524 0.60308,0.12775 1.34323,0.12495 1.64477,-0.006 0.30153,-0.13117 1.78183,-0.35593 3.28954,-0.49931 1.5077,-0.14329 4.51214,-0.59529 6.67653,-1.00427 3.53141,-0.6673 4.20657,-0.38831 6.57908,2.71849 1.45411,1.90413 4.61757,4.32973 7.0299,5.3902 l 4.38605,1.92812 -4.68448,0.80118 c -5.97648,1.02217 -6.70033,2.23336 -2.17883,3.6458 9.14462,2.85661 16.18368,1.98637 16.18368,-2.00083 0,-1.8157 0.71073,-2.22838 3.8378,-2.22838 3.72954,0 5.02068,-1.33253 2.68804,-2.77419 -1.43814,-0.8888 0.7569,-3.80488 2.86408,-3.80488 0.79518,0 1.79786,-0.56967 2.22818,-1.26595 0.48547,-0.78551 0.30072,-0.96824 -0.48685,-0.48149 -0.86185,0.53265 -1.11836,-0.028 -0.79916,-1.74947 0.25854,-1.39367 0.50675,-2.90305 0.55157,-3.35421 0.0896,-0.90226 8.55928,-0.38779 9.5257,0.57863 0.33137,0.33139 -1.16458,1.44103 -3.32435,2.46591 -2.15976,1.02487 -3.92685,2.26705 -3.92685,2.76032 0,0.49331 1.60366,2.01696 3.56368,3.38592 1.96001,1.36893 3.81038,2.75948 4.11192,3.09008 1.48377,1.62672 7.80388,4.48902 8.69542,3.93803 0.55843,-0.34514 1.33245,0.37171 1.72006,1.59293 0.97796,3.08128 6.32377,2.63037 7.87873,-0.66454 1.55738,-3.30003 0.73409,-4.18224 -5.95843,-6.38479 -6.55536,-2.15746 -7.59327,-4.85049 -3.0234,-7.84477 2.92166,-1.91436 8.42757,-1.36025 7.95129,0.80018 -0.14724,0.66787 0.41777,1.46336 1.25557,1.76775 0.88269,0.3207 1.22183,0.0656 0.80646,-0.60636 -0.70033,-1.13316 1.10804,-2.04077 5.90789,-2.96515 1.3101,-0.25239 5.91376,0.2987 10.23034,1.22445 4.31661,0.92576 8.95859,1.7697 10.31552,1.87548 1.35694,0.10568 2.46716,0.56234 2.46716,1.01465 0,0.45231 1.00235,0.8224 2.22744,0.8224 1.2251,0 2.49054,0.68562 2.81211,1.52359 0.33802,0.88088 1.47989,1.28948 2.70686,0.96862 1.16722,-0.30523 2.12222,-0.0861 2.12222,0.48669 0,1.47737 6.19245,2.01335 10.57668,0.91543 1.49575,-0.37457 2.58167,0.006 2.98101,1.04779 0.3881,1.01135 -0.0121,1.63695 -1.04691,1.63695 -0.92129,0 -1.34933,0.52709 -0.95119,1.17127 0.39814,0.64421 1.389,0.91606 2.2019,0.60411 0.88212,-0.33851 1.2624,-0.006 0.94323,0.82645 -0.78735,2.05181 4.37484,4.16674 6.1554,2.52183 0.98899,-0.91366 1.18844,-0.92237 0.68906,-0.0311 -0.77499,1.38468 1.53166,2.58207 4.97415,2.58207 1.55646,0 2.02534,0.50897 1.56764,1.70172 -0.35915,0.93595 -0.19933,1.42133 0.35518,1.07862 0.5545,-0.34272 1.32027,-0.11811 1.70171,0.49906 1.28216,2.07455 -2.81343,2.49774 -8.00381,0.82697 -2.83145,-0.91146 -5.31359,-1.2183 -5.51587,-0.68191 -0.20228,0.53638 -0.94243,0.64474 -1.64477,0.24088 -0.70234,-0.40394 0.10537,0.57984 1.79491,2.18618 1.68956,1.60636 3.52444,2.92064 4.07752,2.92064 0.55309,0 0.72159,0.74013 0.37445,1.64478 -0.35959,0.93704 0.009,1.71413 0.8568,1.80598 0.81838,0.0886 -1.47263,0.5251 -5.09113,0.96986 -6.89128,0.84702 -16.99596,-1.25141 -16.99596,-3.52955 0,-0.61913 -0.76578,-0.83186 -1.70173,-0.4727 -1.11181,0.42667 -1.42957,0.2126 -0.91663,-0.61726 0.50763,-0.82138 0.20198,-1.04654 -0.86487,-0.63716 -0.90748,0.34825 -2.29992,0.23156 -3.09432,-0.25954 -0.79439,-0.49097 -2.61825,-0.35781 -4.05299,0.29591 -2.08605,0.95046 -2.97709,0.82014 -4.44788,-0.65065 -1.72129,-1.7213 -1.58047,-1.83923 2.19634,-1.83923 4.7141,0 11.40296,-2.90392 12.3453,-5.35961 0.68683,-1.78991 -2.09145,-4.50901 -4.60711,-4.50901 -0.78936,0 -2.53975,1.10454 -3.88976,2.45456 -2.25394,2.25394 -2.48586,2.29207 -2.8374,0.46667 -0.21055,-1.09335 0.42333,-2.87871 1.40865,-3.96746 1.68727,-1.86441 1.58125,-2.02175 -1.82279,-2.70497 -3.86677,-0.77613 -9.35826,-1.08347 -14.40166,-0.80603 -2.99248,0.16443 -3.08402,0.33554 -2.38753,4.45804 0.61504,3.64033 0.40331,4.38876 -1.40377,4.96232 -1.17042,0.37146 -3.05136,1.77303 -4.17987,3.11457 -1.1285,1.34154 -1.6222,2.08652 -1.09709,1.6555 0.52512,-0.43101 1.98658,-0.0609 3.24771,0.82238 1.26114,0.88333 3.29339,1.63946 4.51615,1.68028 2.05388,0.0687 2.02846,0.16784 -0.33383,1.30415 -1.89853,0.91322 -3.07453,0.90676 -4.56668,-0.0249 -1.57082,-0.98099 -2.29885,-0.90661 -3.33396,0.34063 -0.72835,0.87761 -2.24763,1.59567 -3.37617,1.59567 -2.66359,0 -2.1957,-3.77516 0.74344,-5.99835 2.07529,-1.56972 2.06858,-1.60832 -0.28543,-1.64239 -1.32586,-0.0187 -3.74171,1.19872 -5.36855,2.70643 -1.62684,1.50768 -3.95721,2.74127 -5.17859,2.74127 -1.22139,0 -3.06785,0.76665 -4.10324,1.70368 -1.0354,0.93701 -2.89044,1.77959 -4.12231,1.8724 -1.23186,0.0926 -2.02006,0.52417 -1.75154,0.95864 0.26852,0.43447 -0.58286,1.1299 -1.89193,1.54538 -3.55335,1.12779 -7.38069,5.73042 -6.75494,8.12329 0.29696,1.13562 1.9378,2.64377 3.64628,3.35145 1.70849,0.70768 3.37303,1.98165 3.69898,2.83107 0.36821,0.95951 2.19745,1.54435 4.83035,1.54435 2.33074,0 4.60779,0.3701 5.06011,0.82241 0.45231,0.45231 1.15134,0.85423 1.55338,0.89318 1.77807,0.17219 10.70722,3.13427 11.72465,3.88939 0.61876,0.45921 2.4684,0.68747 4.11032,0.50723 2.66105,-0.29218 3.11689,0.16194 4.19691,4.18153 1.38459,5.15298 2.46246,6.1137 6.88572,6.1372 3.05543,0.0155 3.14036,-0.12806 2.5715,-4.36927 -0.45436,-3.3875 -0.22286,-4.38605 1.01684,-4.38605 0.88284,0 1.30019,-0.49344 0.92746,-1.09652 -0.37272,-0.60309 0.0349,-1.09653 0.90569,-1.09653 2.64872,0 5.09371,-4.70663 3.73552,-7.19088 -0.64034,-1.17121 -1.51043,-2.37618 -1.93354,-2.67774 -0.42311,-0.3015 -0.99541,-3.33858 -1.27179,-6.74899 l -0.5025,-6.20073 3.37111,0.54211 c 1.85411,0.29808 4.81342,0.48361 6.57624,0.41215 1.76283,-0.0715 3.60564,0.5012 4.09514,1.2726 0.6623,1.04368 0.8943,1.0613 0.9068,0.0687 0.0249,-1.97804 7.49904,2.7202 12.26438,7.70934 3.36948,3.52775 4.37122,4.02677 6.16078,3.06903 1.17537,-0.62904 2.40866,-0.87207 2.74064,-0.54011 0.33197,0.33199 1.16705,-0.44924 1.85571,-1.73604 0.9392,-1.75491 1.8501,-2.14987 3.64472,-1.58029 3.4321,1.08931 8.42258,5.92572 10.1094,9.79726 0.93512,2.1463 2.31581,3.38925 3.89713,3.50835 3.0137,0.2269 13.06817,6.93589 13.07109,8.72169 10e-4,0.71462 -0.46457,2.52674 -1.03497,4.02699 -1.19255,3.13667 0.73195,5.55969 3.5553,4.47625 1.78066,-0.68328 3.72339,2.0331 3.57625,5.00046 -0.0923,1.8617 -7.21447,2.37435 -8.4831,0.61058 -0.45777,-0.63641 -1.78626,-0.5592 -3.45427,0.20079 -1.49072,0.67921 -2.98899,0.95637 -3.32949,0.61587 -0.93079,-0.93079 1.38608,-4.72675 4.5417,-7.4411 2.13915,-1.84001 2.45728,-2.6167 1.3517,-3.30001 -1.02422,-0.63299 -1.21288,-0.44444 -0.64691,0.64645 0.43945,0.84706 0.0912,0.67657 -0.77385,-0.37883 -1.9775,-2.41261 -2.66918,-2.39787 -7.6938,0.1638 -2.24684,1.14551 -5.55847,1.98072 -7.3592,1.85605 -2.31779,-0.16038 -3.28422,0.27197 -3.30891,1.48095 -0.0295,1.44654 -0.25708,1.41489 -1.48831,-0.20701 -2.01984,-2.66055 -10.89339,-2.23824 -11.42743,0.54388 -0.27266,1.42027 0.35486,1.91889 2.41475,1.91889 2.40277,0 5.69884,3.39295 5.32606,5.48258 -0.24884,1.39481 3.80769,3.811 5.89262,3.50984 3.66576,-0.52955 4.27191,2.90899 0.64912,3.68222 -1.63718,0.34943 -3.96864,1.03013 -5.18101,1.51265 -1.43745,0.57217 -2.69223,0.35503 -3.60689,-0.62413 -1.85959,-1.99069 -6.18941,-1.91212 -7.89523,0.14329 -0.75077,0.90462 -2.08001,1.64475 -2.95387,1.64475 -1.91793,0 -3.65728,1.74027 -5.70135,5.70428 -0.84034,1.62965 -1.8272,2.90567 -2.19303,2.83555 -1.42557,-0.27322 -6.69597,1.61168 -6.69597,2.39467 0,0.45545 -1.32646,2.15456 -2.94769,3.77578 -2.17351,2.17356 -2.96546,4.09432 -3.01541,7.31354 -0.071,4.58072 -0.0655,4.57506 -9.11397,9.27172 -1.96002,1.01739 -3.56367,2.3161 -3.56367,2.88605 0,0.56996 -0.41906,0.77728 -0.93126,0.46074 -0.51218,-0.31655 -1.5903,0.65593 -2.39582,2.16105 -1.2713,2.37544 -1.15708,3.62625 0.86554,9.4778 1.72792,4.99899 2.04117,7.28115 1.21205,8.83035 -1.05888,1.97855 -1.22807,1.98958 -3.19584,0.20888 -1.14277,-1.03421 -2.39196,-2.9255 -2.77598,-4.20289 -1.7417,-5.79361 -4.10472,-9.54602 -5.64034,-8.95676 -0.87501,0.33578 -2.0912,0.30118 -2.70263,-0.0765 -1.4772,-0.91294 -11.76259,-1.16039 -11.21066,-0.26979 1.02781,1.65868 -5.706,3.07329 -9.93245,2.08655 -3.59114,-0.83841 -5.27306,-0.5992 -9.53534,1.35616 -5.00848,2.29769 -5.23134,2.60469 -6.92183,9.53501 -0.96071,3.9385 -1.56593,8.14776 -1.34494,9.35394 1.00647,5.49333 3.44171,11.51337 4.65742,11.51337 0.73532,0 1.93859,0.72497 2.67395,1.611 0.87214,1.05086 2.53912,1.42266 4.79445,1.06929 1.90158,-0.29808 4.89683,-0.65279 6.6561,-0.78859 2.51265,-0.19395 3.24023,-0.81112 3.39249,-2.87772 0.24763,-3.36152 3.39025,-5.66105 7.32665,-5.36113 3.07614,0.23436 3.92407,1.6965 2.12299,3.66071 -1.6405,1.78907 -2.41141,12.53362 -0.91207,12.712 0.72544,0.0864 3.046,0.26234 5.15679,0.39133 8.43102,0.51503 8.35618,0.49632 6.57908,1.64478 -1.09651,0.70861 -1.18789,1.06852 -0.27415,1.07974 0.75386,0.009 1.31221,0.38685 1.2408,0.83916 -0.0714,0.4523 -0.0714,3.43645 0,6.63143 0.10385,4.64453 0.66439,6.30445 2.7963,8.28026 3.53056,3.272 2.16082,5.73518 -1.58767,2.85503 z M 227.88929,243.97548 c 1.05863,-1.05863 1.6128,-2.89044 1.32689,-4.38606 -0.32039,-1.67601 0.0277,-2.5682 1.00177,-2.5682 1.69046,0 1.87303,-0.99243 0.56256,-3.05791 -0.66872,-1.05403 -1.63977,-1.13058 -3.82101,-0.30118 -2.63272,1.00094 -2.92444,1.66147 -2.92444,6.62158 0,5.81857 0.88234,6.66376 3.85423,3.69186 z m 19.06777,0.29932 c 1.00542,-1.21143 0.69997,-1.65911 -1.5105,-2.2139 -3.19669,-0.80233 -3.47713,-1.98364 -1.04766,-4.41312 0.94769,-0.9477 1.34244,-1.72308 0.87721,-1.72308 -0.46524,0 -0.25376,-0.59212 0.46993,-1.31584 1.72069,-1.72068 1.68797,-3.38082 -0.0548,-2.78211 -0.75385,0.25891 -2.61139,0.12122 -4.12786,-0.30616 -2.15796,-0.60825 -3.18192,-0.21416 -4.71137,1.81352 -1.07479,1.42488 -1.42221,2.59071 -0.77204,2.59071 0.65016,0 1.5091,0.8635 1.90873,1.9189 0.39964,1.0554 1.39939,2.59932 2.22168,3.43092 0.82228,0.83161 1.23544,2.18857 0.91816,3.01542 -0.77776,2.02678 4.1445,2.01404 5.82855,-0.0155 z m 7.23214,-3.96405 c 1.94329,-0.83506 1.84964,-0.95115 -0.82239,-1.01944 -1.65848,-0.0423 -3.01541,0.41635 -3.01541,1.01944 0,1.28699 0.8428,1.28699 3.8378,0 z m -21.1079,-10.10159 c 1.567,0.44389 0.81264,-1.48104 -1.28389,-3.27613 -3.44255,-2.9476 -6.47021,-4.2736 -7.17056,-3.14043 -0.3508,0.56762 -1.9844,0.91854 -3.63021,0.77985 -3.4217,-0.28844 -6.15669,2.39399 -4.48937,4.403 0.68987,0.83123 2.12969,0.97489 4.10195,0.40926 3.27277,-0.93863 8.52616,1.03112 7.0239,2.63357 -0.47122,0.50266 0.37681,0.24897 1.88451,-0.56408 1.50771,-0.8129 3.11136,-1.37316 3.56367,-1.24504 z M 88.067346,196.01924 c 0,-0.23715 -0.765771,-0.72477 -1.701721,-1.08393 -0.975816,-0.37448 -1.415953,-0.19053 -1.031801,0.43093 0.643935,1.0419 2.733522,1.54109 2.733522,0.653 z m 58.571274,-33.16781 c 0.5775,-1.50494 0.41705,-1.57276 -0.9792,-0.41398 -1.90271,1.5791 -2.10074,2.21383 -0.69067,2.21383 0.53856,0 1.29,-0.80991 1.66987,-1.79985 z m 718.61976,178.1552 c -0.44814,-1.13668 -0.0908,-2.06984 0.94447,-2.46716 2.28293,-0.87602 2.58238,-0.81547 2.58238,0.52224 0,0.63868 -0.45611,0.87935 -1.01353,0.53484 -0.55743,-0.34452 -1.18881,0.24306 -1.40303,1.30592 -0.35508,1.7614 -0.45327,1.77063 -1.11029,0.10413 z m 11.75069,-3.10615 c 0.37274,-0.60309 0.89529,-1.09652 1.16123,-1.09652 0.26607,0 0.48355,0.49343 0.48355,1.09652 0,0.60309 -0.52255,1.09652 -1.16123,1.09652 -0.63868,0 -0.85626,-0.49343 -0.48355,-1.09652 z m -7.04076,-1.73613 c 0.0525,-1.27739 0.31244,-1.53721 0.66246,-0.66249 0.31676,0.79154 0.27787,1.73728 -0.0864,2.10166 -0.36438,0.36435 -0.62351,-0.28316 -0.57592,-1.43917 z m 4.29949,-0.52162 c 0,-0.63868 0.49343,-0.85626 1.09652,-0.48355 0.60306,0.37274 1.09649,0.89529 1.09649,1.16123 0,0.26607 -0.49343,0.48355 -1.09649,0.48355 -0.60309,0 -1.09652,-0.52256 -1.09652,-1.16123 z m 61.06506,-5.01768 c 0.30119,-0.78504 1.11772,-1.3196 1.81437,-1.18787 0.69664,0.13179 1.13105,-0.41402 0.96532,-1.21271 -0.16567,-0.79866 0.19426,-1.14588 0.79993,-0.77155 0.72472,0.44789 0.68282,1.35055 -0.12246,2.64003 -1.40119,2.24368 -4.28423,2.68738 -3.45716,0.5321 z m -76.31925,-1.92806 c -1.40874,-1.69744 -1.31372,-7.87604 0.16722,-10.87442 1.02214,-2.06949 5.75224,-2.23926 5.78336,-0.20763 0.009,0.60309 0.39729,1.69532 0.86238,2.42715 0.49769,0.78318 -0.073,2.24943 -1.38746,3.56368 -1.22815,1.22815 -2.23301,2.94405 -2.23301,3.81308 0,2.31044 -1.75326,3.01234 -3.19252,1.2781 z m 82.00165,-6.97008 c -1.36392,-1.73915 -1.32513,-1.77794 0.41402,-0.41402 1.82652,1.43246 2.40735,2.33291 1.50488,2.33291 -0.22752,0 -1.09118,-0.86349 -1.9189,-1.91889 z m -665.42726,-4.455 c -0.01,-0.84633 -0.99203,-1.29821 -2.38348,-1.09652 -1.78358,0.25861 -2.41382,-0.26451 -2.55799,-2.12354 -0.10527,-1.35665 0.0509,-2.22443 0.34691,-1.92844 0.29602,0.29591 1.20039,-0.0124 2.00973,-0.68303 0.80935,-0.67169 1.47153,-0.77504 1.47153,-0.2297 0,0.86114 2.44456,1.43899 7.40147,1.74956 0.75385,0.0473 1.37064,0.46384 1.37064,0.92576 0,0.86088 -3.06783,2.12161 -4.81172,1.97739 -0.53565,-0.0444 -1.39159,0.57841 -1.9021,1.38378 -0.75407,1.18958 -0.93134,1.19425 -0.94499,0.0249 z m -20.85055,-3.49473 c 2.12588,-1.37384 3.28954,-1.37384 3.28954,0 0,0.60309 -1.11021,1.08897 -2.46715,1.07973 -1.99504,-0.0124 -2.15242,-0.22006 -0.82239,-1.07973 z m 2.46716,-2.91953 c -0.75385,-0.30398 -1.37064,-1.2363 -1.37064,-2.07176 0,-0.89588 -0.67089,-1.26153 -1.63553,-0.89134 -0.91462,0.35095 -1.91812,-0.10879 -2.27666,-1.04316 -0.41199,-1.07364 -1.59097,-1.49854 -3.29878,-1.18883 -1.46171,0.26513 -2.65766,-0.0218 -2.65766,-0.63604 0,-0.6149 -1.11022,-1.16835 -2.46715,-1.22993 -1.93871,-0.088 -1.68485,-0.36223 1.18516,-1.28055 2.97048,-0.95044 4.25032,-0.81535 6.85546,0.72353 1.76173,1.04067 3.7718,1.54069 4.46683,1.11113 0.78214,-0.48339 0.96554,-0.2987 0.48129,0.48494 -0.4497,0.72764 -0.12682,1.26592 0.75931,1.26592 0.84795,0 2.67958,0.98687 4.0703,2.19305 1.39072,1.20617 2,2.19304 1.35397,2.19304 -0.64604,0 -1.83176,0.20763 -2.63493,0.46135 -0.80319,0.25363 -2.07712,0.2126 -2.83097,-0.0914 z m 33.5122,-0.0218 c 0.79154,-0.31673 1.7373,-0.27787 2.10166,0.0864 0.36436,0.36435 -0.28328,0.62351 -1.43917,0.57589 -1.27739,-0.0525 -1.53721,-0.31243 -0.66249,-0.66245 z M 859.15643,300.6332 c 0.0789,-2.77441 0.51012,-3.35002 2.30985,-3.08299 2.6539,0.39375 3.85644,3.06959 1.37949,3.06959 -0.95487,0 -1.61279,0.55513 -1.46201,1.23359 0.15075,0.67847 -0.31051,1.44903 -1.0251,1.71233 -0.83689,0.30833 -1.2647,-0.73519 -1.20223,-2.93252 z m -711.07922,-8.14661 c -1.91551,-2.46259 -3.95718,-4.80989 -4.53707,-5.21626 -0.6437,-0.45106 -0.49132,-1.4172 0.39128,-2.48068 1.75934,-2.11987 3.71559,-0.82184 6.30345,4.18253 0.94307,1.82369 2.39083,3.99196 3.21724,4.81838 1.97676,1.97674 1.9033,3.17347 -0.1948,3.17347 -0.93356,0 -3.2646,-2.01485 -5.1801,-4.47744 z m 761.8273,1.55334 c -0.37274,-0.60309 -0.1551,-1.09652 0.48351,-1.09652 0.63868,0 1.16124,0.49343 1.16124,1.09652 0,0.60309 -0.21758,1.09652 -0.48355,1.09652 -0.26606,0 -0.78849,-0.49343 -1.1612,-1.09652 z m 25.29028,-1.41794 c 0.41178,-1.08139 1.02491,-1.68998 1.36253,-1.35236 0.33761,0.33761 6.8e-4,1.22237 -0.74868,1.9662 -1.08294,1.07486 -1.20889,0.94891 -0.61385,-0.61384 z m -8.76588,-6.13353 c -0.2642,-0.42742 -0.088,-1.4117 0.39129,-2.18733 0.67256,-1.08819 1.02985,-0.99774 1.56468,0.39599 0.41007,1.06861 1.25601,1.48213 2.07151,1.01266 0.7581,-0.43645 0.99405,-0.37121 0.52427,0.14485 -1.11875,1.2293 -3.9408,1.62218 -4.55175,0.63367 z m -0.006,-8.57483 c -0.59504,-1.56275 -0.46909,-1.6887 0.61384,-0.61381 0.74937,0.7438 1.08627,1.62859 0.74868,1.96617 -0.33761,0.33762 -0.95074,-0.27104 -1.36252,-1.35236 z m -3.90791,-0.25674 c 0,-0.56747 0.48777,-1.33327 1.08396,-1.70172 0.62155,-0.38415 0.80537,0.0559 0.43092,1.03181 -0.72894,1.89962 -1.51488,2.24718 -1.51488,0.66991 z m -34.76855,-5.44248 c -1.12114,-1.79528 -0.95389,-2.17616 1.19234,-2.71485 1.37306,-0.34461 3.7692,-1.80609 5.32477,-3.24772 1.67493,-1.55228 3.37731,-2.28185 4.1746,-1.7891 1.37937,0.8525 8.7984,-1.71366 9.86975,-3.4138 0.32773,-0.52006 1.56129,-1.09661 2.7413,-1.28121 3.71843,-0.5817 8.10455,-5.89335 7.52151,-9.10866 -0.30523,-1.68329 -0.0802,-2.57877 0.54997,-2.18925 0.58658,0.36251 1.52433,-0.15883 2.08391,-1.15887 1.71583,-3.06605 2.27985,4.69899 0.57937,7.97667 -0.8041,1.54989 -1.46202,3.93477 -1.46202,5.29969 0,4.07327 -2.89826,5.53308 -11.85223,5.96973 -0.78943,0.0385 -1.17917,0.48451 -0.86608,0.99112 0.3131,0.50658 -2.12494,1.40942 -5.41786,2.00626 -3.92833,0.71207 -5.98713,0.71372 -5.98713,0.003 0,-0.59417 -1.12592,0.23001 -2.50206,1.83153 -2.97044,3.45694 -4.19934,3.62702 -5.95014,0.82358 z m 35.02395,-4.39947 c 0.72437,-0.95488 1.4567,-1.94175 1.62734,-2.19305 0.17065,-0.25114 0.3102,0.53002 0.3102,1.73617 0,1.20792 -0.73102,2.19304 -1.62737,2.19304 -1.30816,0 -1.36902,-0.34057 -0.3102,-1.73616 z m 5.24038,-6.69513 c 1.38235,-2.583 1.8143,-2.71889 1.8143,-0.57076 0,0.87866 -0.66932,1.85443 -1.48738,2.16833 -1.1667,0.44771 -1.2372,0.10319 -0.32692,-1.59757 z m -394.20995,-4.36137 c -2.09255,-0.89921 -2.07997,-0.94593 0.27414,-1.01947 1.35696,-0.0426 2.46716,0.41638 2.46716,1.01947 0,0.60306 -0.1234,1.0618 -0.27415,1.01944 -0.15074,-0.0426 -1.26097,-0.50114 -2.46715,-1.01944 z m -14.53318,-5.75672 c -0.62391,-0.78079 -0.71486,-2.31439 -0.21136,-3.56368 0.90092,-2.23512 1.11956,-1.893 1.57656,2.46716 0.29808,2.84437 0.13583,2.97482 -1.36523,1.09652 z m 415.01659,-4.24798 c 0.7438,-0.7494 1.62859,-1.0863 1.9662,-0.74868 0.33759,0.33761 -0.27103,0.95074 -1.35239,1.36249 -1.56272,0.59507 -1.68867,0.46912 -0.61381,-0.61381 z m -11.1863,-4.03253 c -1.14671,-1.14675 -0.55547,-5.45432 0.91634,-6.67582 1.13988,-0.94602 1.8268,-0.84966 2.86554,0.40193 0.75141,0.90542 1.80377,1.37582 2.33851,1.04532 0.53474,-0.33049 0.97225,-0.13582 0.97225,0.43245 0,0.56834 1.08869,1.31802 2.41929,1.66598 1.3306,0.34797 2.15354,0.8984 1.82876,1.22315 -0.91858,0.91861 -10.68653,2.56112 -11.34069,1.90699 z m -17.03066,-6.11404 c 0,-0.22783 0.86353,-1.0912 1.91889,-1.91889 1.73915,-1.36392 1.77794,-1.32513 0.41402,0.41398 -1.43246,1.82652 -2.33291,2.40739 -2.33291,1.50491 z M 479.52317,217.28919 c -0.90462,-0.58752 -1.15135,-1.08331 -0.54826,-1.10177 0.60309,-0.0187 0.36929,-0.49346 -0.51951,-1.05556 -1.38071,-0.87313 -1.2887,-1.38969 0.63172,-3.54689 2.18971,-2.45966 2.39573,-6.22457 0.35564,-6.49977 -0.55886,-0.0755 -1.62613,-0.19862 -2.37173,-0.27415 -0.74557,-0.0755 -1.54283,-1.12393 -1.77163,-2.33008 -0.22877,-1.20618 -0.97567,-2.55555 -1.65976,-2.99863 -0.86325,-0.55911 -0.78856,-0.81072 0.2443,-0.82238 0.8695,-0.009 1.22561,-0.70044 0.85679,-1.66156 -0.34713,-0.90462 -0.27664,-1.68591 0.15696,-1.73617 0.43338,-0.0503 1.83914,-0.21011 3.12393,-0.35533 3.24726,-0.36696 5.68662,1.69703 6.15699,5.20952 0.21882,1.63368 0.7861,2.83402 1.2607,2.66745 0.47463,-0.1666 1.57065,1.04781 2.43564,2.69872 0.86499,1.6509 3.0405,3.76064 4.83448,4.68835 1.79394,0.92769 3.26174,2.10704 3.26174,2.6208 0,1.92427 -3.70576,3.90291 -7.54268,4.02727 -2.1839,0.0709 -4.71086,0.44588 -5.61551,0.83353 -0.90462,0.38766 -2.38491,0.22411 -3.28953,-0.36338 z m -15.40898,-3.18687 c -2.47769,-0.9632 -2.1181,-5.89795 0.54434,-7.47056 2.37018,-1.39998 7.47082,-1.85872 8.55969,-0.76985 0.35182,0.35182 -0.0124,2.1867 -0.80584,4.0775 -1.47709,3.51298 -5.18508,5.37317 -8.29819,4.16291 z m 517.61234,-5.47318 c 0,-0.53856 0.80994,-1.29001 1.79985,-1.66987 1.50494,-0.5775 1.57279,-0.41706 0.41401,0.97919 -1.57913,1.90273 -2.21386,2.10076 -2.21386,0.69068 z m 2.19301,-3.87795 c 0,-0.3015 0.98686,-1.07641 2.19304,-1.72193 1.20618,-0.64555 2.19304,-0.92697 2.19304,-0.62544 0,0.3015 -0.98686,1.07641 -2.19304,1.72193 -1.20618,0.64552 -2.19304,0.92697 -2.19304,0.62544 z M 22.605947,197.0618 c -1.062097,-1.20922 -0.772954,-1.63421 1.500028,-2.20469 1.548659,-0.38869 3.086471,-0.43596 3.417363,-0.10506 0.330893,0.3309 0.02595,0.60163 -0.677643,0.60163 -0.703598,0 -1.279266,0.74016 -1.279266,1.64478 0,2.02513 -1.214587,2.05112 -2.960482,0.0634 z m 30.373328,-8.32165 c 0,-0.58417 0.740147,-1.06209 1.644771,-1.06209 0.904624,0 1.644771,0.19396 1.644771,0.43093 0,0.23716 -0.740147,0.71498 -1.644771,1.06211 -0.904624,0.34713 -1.644771,0.15324 -1.644771,-0.43095 z m 302.363705,0.37506 c -1.0554,-0.27569 -1.91889,-0.89025 -1.91889,-1.3655 0,-0.47522 -1.17149,-0.64011 -2.6033,-0.3664 -1.58874,0.30367 -3.19122,-0.21291 -4.11193,-1.32575 -0.82976,-1.00284 -2.32881,-2.60134 -3.33125,-3.55221 -1.00244,-0.95087 -1.58197,-2.51981 -1.28785,-3.48653 0.41865,-1.37601 0.26687,-1.34098 -0.69903,0.16132 -1.41249,2.19683 -3.45301,2.58181 -3.04372,0.57427 0.15078,-0.73951 -0.83609,-1.51398 -2.19303,-1.72102 -1.89833,-0.28969 -2.46716,-1.10237 -2.46716,-3.52498 0,-1.73172 -0.56967,-3.50065 -1.26593,-3.93098 -0.84706,-0.52349 -0.97736,-0.2729 -0.39379,0.75769 0.51661,0.91227 0.0619,0.77687 -1.11539,-0.33217 -2.28922,-2.15643 -3.00138,-7.79556 -0.88177,-6.98217 0.85845,0.32941 1.11167,-0.10786 0.69349,-1.19763 -0.55588,-1.44859 -0.29046,-1.51943 1.70062,-0.45384 1.54416,0.82642 2.35929,0.87049 2.35929,0.12744 0,-0.62429 0.49343,-1.13509 1.09651,-1.13509 0.60309,0 1.09652,0.80055 1.09652,1.77902 0,1.45705 0.29767,1.53199 1.64477,0.41402 0.90462,-0.75079 1.63721,-2.16815 1.62798,-3.14969 -0.0127,-1.34173 -0.23846,-1.43526 -0.91005,-0.37684 -1.3939,2.19677 -4.27731,0.44786 -3.9642,-2.4045 0.25009,-2.27818 0.0277,-2.40947 -2.25648,-1.33156 -1.39364,0.6577 -2.30019,1.57397 -2.01453,2.03617 0.28564,0.46219 -0.17344,0.84037 -1.02018,0.84037 -1.96756,0 -5.42302,-3.76652 -4.39685,-4.79267 0.42728,-0.42729 -0.27766,-1.05267 -1.56654,-1.38972 -2.58205,-0.6752 -4.26497,-3.68894 -2.62572,-4.70204 1.5686,-0.96945 -0.93648,-3.62429 -5.71753,-6.05933 -3.50556,-1.7854 -6.55381,-2.14947 -18.36148,-2.19301 -7.78696,-0.028 -14.16041,-0.42232 -14.16324,-0.87463 -0.003,-0.45231 0.96625,-0.82237 2.15349,-0.82237 1.46826,0 1.95676,-0.52601 1.52745,-1.64479 -0.76579,-1.9956 -3.29284,-2.16637 -4.05639,-0.27414 -0.44245,1.09652 -0.57037,1.09652 -0.63963,0 -0.0476,-0.75384 -0.61324,-1.37064 -1.25697,-1.37064 -0.67141,0 -0.87365,0.93499 -0.47437,2.19305 0.39929,1.25802 0.19703,2.19301 -0.47436,2.19301 -0.64373,0 -1.04705,-0.59436 -0.89628,-1.32078 0.15078,-0.72646 -0.45926,-1.34326 -1.35562,-1.37067 -0.89637,-0.028 -1.78734,-0.8681 -1.97994,-1.8682 -0.41646,-2.16246 4.13965,-3.4433 10.5912,-2.9775 2.74245,0.198 5.19057,-0.3765 6.86444,-1.61087 1.43096,-1.05527 1.98497,-1.61998 1.23111,-1.25491 -0.79424,0.38461 -1.37064,-0.055 -1.37064,-1.04574 0,-0.95049 -0.9281,-1.70949 -2.09037,-1.70949 -1.597,0 -1.96275,-0.5823 -1.54965,-2.46716 0.40411,-1.84389 0.26728,-2.07996 -0.5416,-0.93455 -0.59527,0.84295 -2.48845,1.62921 -4.20705,1.74729 -5.39208,0.37041 -6.01009,0.53421 -5.44786,1.4439 0.30115,0.48731 -1.47515,1.00536 -3.94739,1.15122 -2.47223,0.14578 -5.36359,0.7301 -6.42523,1.29828 -1.33041,0.712 -2.12813,0.6098 -2.56698,-0.32885 -0.48566,-1.03877 -0.78359,-1.05133 -1.25582,-0.0528 -0.3405,0.71999 -1.32736,1.03728 -2.19303,0.70507 -1.06065,-0.40699 -1.57392,0.14951 -1.57392,1.70639 0,1.32261 -0.70317,2.31034 -1.64477,2.31034 -0.90463,0 -1.64477,-0.72605 -1.64477,-1.61342 0,-1.4396 -6.4369,-4.11803 -7.58423,-3.15581 -0.82879,0.69506 0.71899,1.59443 3.04564,1.76967 1.2586,0.0948 2.5423,0.83412 2.85265,1.64291 0.31036,0.8088 0.15877,1.21989 -0.3369,0.91358 -0.49566,-0.30648 -0.9012,0.11438 -0.9012,0.93501 0,0.87456 0.67946,1.23126 1.6419,0.86195 1.06733,-0.40958 1.36444,-0.18121 0.84905,0.65279 -1.04045,1.68347 -4.22881,1.6375 -6.08755,-0.0877 -1.18202,-1.09714 -1.32131,-1.09559 -0.69806,0.006 0.44938,0.79555 0.0565,1.65554 -0.92936,2.03381 -0.93939,0.36046 -1.4721,1.03706 -1.18381,1.50351 0.28828,0.46645 -1.0285,1.15865 -2.92619,1.53817 -2.39072,0.47817 -4.04099,0.15541 -5.37356,-1.0504 -1.30887,-1.18451 -2.56529,-1.44075 -3.93331,-0.80214 -1.59209,0.74318 -8.53973,0.99439 -11.91732,0.4309 -0.32276,-0.0538 -0.009,-1.20814 0.69678,-2.56507 0.70599,-1.35693 0.8861,-2.09535 0.40024,-1.64093 -0.48587,0.45443 -2.06975,0.0488 -3.51975,-0.9012 -1.98359,-1.29967 -3.38063,-1.46795 -5.64224,-0.67955 -2.08498,0.72683 -3.76566,0.64126 -5.48579,-0.27943 l -2.47991,-1.32718 2.55206,-1.89655 c 2.14267,-1.59231 2.20026,-1.7738 0.35902,-1.13155 -4.28444,1.49453 -8.22385,1.79671 -8.22385,0.63082 0,-1.59707 7.50157,-3.551 10.62419,-2.76726 1.71262,0.42984 2.53941,0.15324 2.55076,-0.85352 0.013,-1.15284 0.26084,-1.11775 1.09651,0.15541 0.81671,1.2441 1.29002,1.32029 1.94298,0.31272 0.51972,-0.80195 3.32536,-1.30266 7.05005,-1.25818 3.40274,0.0407 6.7403,-0.26824 7.41682,-0.68629 0.67651,-0.41812 2.51575,0.62714 4.0872,2.32274 1.57145,1.69564 2.61803,2.36552 2.32575,1.48866 -0.83838,-2.51512 4.40155,-4.58259 12.37239,-4.8816 3.98798,-0.1495 7.72807,-0.56694 8.31131,-0.9274 1.55632,-0.96187 10.14433,-0.44768 9.51554,0.56971 -0.29457,0.47664 1.59061,0.85905 4.18931,0.84982 3.12138,-0.0124 4.21176,-0.34181 3.2129,-0.97446 -0.95661,-0.60589 1.18939,-0.99818 5.84244,-1.06799 4.04493,-0.0606 7.68591,-0.30057 8.09108,-0.53312 0.40515,-0.2325 1.72351,-0.0249 2.92967,0.45949 1.66645,0.67038 1.76451,0.90073 0.40839,0.95929 -0.98155,0.0423 -2.34888,0.75694 -3.03852,1.5879 -1.97875,2.38426 1.22539,2.7791 15.9841,1.96981 1.91695,-0.10506 4.22928,-0.93505 5.13853,-1.8443 0.91825,-0.91823 1.93457,-1.19788 2.28614,-0.62901 0.37516,0.60697 1.96069,0.64331 3.89292,0.0892 1.79299,-0.51422 3.51067,-0.52933 3.81708,-0.0336 0.30641,0.49577 2.65686,0.7549 5.22323,0.57583 2.56636,-0.17903 5.37762,0.24245 6.24725,0.9367 1.23075,0.98254 1.39262,0.94879 0.73051,-0.1523 -0.6388,-1.06233 -0.17487,-1.245 1.86292,-0.73355 1.49244,0.37458 3.02988,0.16909 3.41653,-0.45641 0.78379,-1.26819 4.0319,-0.38905 5.27616,1.42805 0.52484,0.76649 0.81144,0.65428 0.82238,-0.32202 0.0109,-0.95615 0.81057,-1.29097 2.20983,-0.92504 1.20615,0.3154 2.19302,0.0441 2.19302,-0.60312 0,-0.64716 0.32468,-0.85196 0.72151,-0.45513 0.39683,0.39682 1.38369,0.17188 2.19301,-0.49978 1.08912,-0.90387 1.89897,-0.86651 3.11631,0.14392 1.33393,1.10705 1.64478,1.06335 1.64478,-0.23126 0,-0.87795 0.71844,-1.59626 1.59651,-1.59626 0.87811,0 1.38005,0.35033 1.11542,0.77849 -0.75415,1.22023 8.70378,0.63373 9.60704,-0.59573 0.44404,-0.60439 0.81314,-0.14111 0.8224,1.03194 0.0155,2.05211 0.0696,2.05609 1.49198,0.11096 1.47029,-2.01071 7.9065,-3.56467 6.70374,-1.61855 -0.34803,0.56312 -0.11035,1.02382 0.52846,1.02382 0.63868,0 1.16123,-0.4934 1.16123,-1.09649 0,-0.60309 1.50942,-1.09652 3.35425,-1.09652 2.25623,0 3.09815,0.41442 2.57187,1.26592 -0.52607,0.85119 -0.29559,0.96511 0.70333,0.34772 2.04397,-1.26325 13.61628,-1.56353 15.45128,-0.40093 1.00862,0.63902 0.24679,0.96352 -2.34348,0.99839 -2.1108,0.028 -4.79562,0.77613 -5.96627,1.66157 -2.39956,1.81492 -1.48748,2.15518 1.49642,0.55824 1.08076,-0.57841 3.70939,-1.16913 5.84136,-1.31273 2.90815,-0.19582 3.72114,-0.66541 3.25506,-1.87998 -0.45511,-1.18595 -0.10661,-1.4214 1.30356,-0.88032 1.05866,0.40625 2.25455,0.7462 2.65753,0.75543 0.40298,0.009 -0.006,0.49511 -0.91208,1.0797 -1.4056,0.90841 -1.36575,1.06538 0.27415,1.07974 1.0554,0.009 1.9189,-0.72335 1.9189,-1.62797 0,-0.90465 0.80055,-1.64478 1.77902,-1.64478 1.39003,0 1.50389,0.33156 0.52066,1.51626 -1.25314,1.50994 -0.20328,1.94009 7.93074,3.24937 1.10361,0.17748 2.45298,1.02839 2.99863,1.89061 0.54562,0.86219 0.99961,1.05789 1.00884,0.4349 0.0249,-1.68475 5.53274,-1.12981 6.6734,0.67238 0.89063,1.40712 1.48262,0.65549 1.14883,-1.45857 -0.0715,-0.45231 3.44752,-0.76062 7.81987,-0.68515 7.35456,0.12682 7.58031,0.19769 3.01541,0.944 -2.71385,0.4437 -5.55739,0.57347 -6.3189,0.28845 -1.72196,-0.64471 -4.84194,1.81275 -4.01014,3.15861 0.33659,0.54459 1.07128,0.70628 1.63272,0.35931 0.56141,-0.34697 1.02074,-0.10817 1.02074,0.53036 0,0.63868 -0.74016,1.16123 -1.64478,1.16123 -0.90462,0 -1.64478,-0.41725 -1.64478,-0.92718 0,-1.12568 -4.40185,-0.98466 -6.30495,0.20203 -0.75384,0.47006 -1.37064,1.41763 -1.37064,2.10573 0,0.92939 0.32516,0.92594 1.26449,-0.0124 1.41126,-1.41123 5.31461,0.0765 5.31461,2.02569 0,0.61749 -0.42409,0.86058 -0.94239,0.54025 -0.51829,-0.32034 -0.80848,0.6374 -0.6448,2.12829 0.16349,1.49093 -0.1523,2.71075 -0.7024,2.71075 -0.55,0 -0.99998,-0.57567 -0.99998,-1.27928 0,-0.70358 -0.32592,-0.95333 -0.72427,-0.55498 -0.39836,0.39838 0.2185,1.79901 1.37063,3.11252 1.15222,1.31354 1.50709,2.04546 0.78859,1.62651 -0.89632,-0.52262 -1.24053,0.19271 -1.09652,2.27867 0.18214,2.63988 -0.15137,2.99944 -2.53144,2.72949 -3.21415,-0.36456 -6.70684,3.74775 -4.04924,4.76756 0.81563,0.31299 1.40029,1.65873 1.29924,2.99051 -0.1321,1.74108 -0.84995,2.38458 -2.55468,2.29018 -1.304,-0.0721 -2.37093,0.18307 -2.37093,0.56725 0,0.38421 -1.69141,0.619 -3.75872,0.52178 -2.6783,-0.12588 -3.60184,0.23218 -3.21288,1.24571 0.39664,1.03365 -1.09578,1.52639 -5.45948,1.80256 -3.30293,0.20918 -5.74382,-0.0413 -5.42423,-0.55609 0.31962,-0.51485 -0.68014,-0.10972 -2.22164,0.90033 -2.19469,1.43799 -3.29453,1.57326 -5.06933,0.62341 -1.63307,-0.874 -2.26655,-0.8777 -2.26655,-0.0124 0,0.65988 -0.44175,0.92678 -0.98161,0.59311 -0.5399,-0.33367 -1.24314,0.0749 -1.56276,0.9077 -0.41318,1.07678 0.10817,1.37508 1.80402,1.03237 1.37623,-0.27819 0.61931,0.49476 -1.78941,1.82717 -2.29602,1.27008 -5.00987,2.17193 -6.03083,2.00415 -1.02096,-0.16784 -2.54934,0.12899 -3.39636,0.65935 -1.01099,0.63312 -1.29172,0.56262 -0.81716,-0.20514 0.42089,-0.68102 -0.0563,-1.05534 -1.14177,-0.89601 -1.0256,0.15044 -2.05591,0.84736 -2.28965,1.54852 -0.23374,0.70115 -1.06755,1.27484 -1.853,1.27484 -2.72458,0 -6.81299,2.80328 -6.5639,4.50065 0.1377,0.93841 -0.73211,2.31983 -1.933,3.06978 -1.7799,1.11156 -2.04587,1.09531 -1.43911,-0.088 0.40938,-0.79835 0.042,-0.59576 -0.81607,0.45029 -0.85821,1.04601 -1.88166,1.58056 -2.27435,1.18787 -0.39266,-0.39267 -0.71396,-0.17935 -0.71396,0.47394 0,0.65332 0.6168,1.4447 1.37067,1.75864 0.98987,0.41218 0.82144,1.01601 -0.60639,2.17364 -1.48573,1.2046 -1.62197,1.74515 -0.54826,2.17536 0.78582,0.31483 0.28938,0.61139 -1.10311,0.659 -1.39289,0.0476 -2.22701,0.57984 -1.85418,1.18306 0.37274,0.60309 0.5252,1.0393 0.33883,0.96933 -0.1865,-0.0699 -1.20233,-0.35285 -2.25773,-0.62867 z m -15.62533,-16.78834 c -0.37273,-0.60309 -0.0729,-1.09653 0.6663,-1.09653 0.73919,0 1.04785,-0.29621 0.68592,-0.65804 -0.9849,-0.9849 -3.13106,0.65052 -2.4019,1.83031 0.34697,0.56144 0.87756,1.02078 1.1791,1.02078 0.30153,0 0.24331,-0.49344 -0.12942,-1.09652 z m 68.54855,-13.98054 c 0.0155,-1.63987 0.17126,-1.67974 1.0797,-0.27414 0.63868,0.98826 1.06964,1.12353 1.07974,0.33883 0.0311,-2.38908 -2.04916,-2.62512 -3.25631,-0.36954 -0.80142,1.49745 -0.81939,2.22372 -0.055,2.22372 0.62429,0 1.14264,-0.8635 1.15188,-1.9189 z m -2.20983,-2.46715 c 0,-0.60309 -0.21758,-1.09652 -0.48355,-1.09652 -0.26606,0 -0.78849,0.49343 -1.16123,1.09652 -0.37271,0.60309 -0.1551,1.09652 0.48355,1.09652 0.63867,0 1.16123,-0.49343 1.16123,-1.09652 z m -72.68778,-3.50919 c -2.16034,-1.37294 -2.97168,-1.01105 -2.97168,1.32547 0,1.9129 0.28245,2.02591 2.14929,0.86005 1.55059,-0.96834 1.77967,-1.57715 0.82239,-2.18552 z m 81.68001,1.5723 c -0.72416,-0.24151 -1.31665,-0.87572 -1.31665,-1.40962 0,-0.5339 0.69025,-0.70584 1.53388,-0.38212 0.84361,0.32372 1.90671,-0.0155 2.36244,-0.7521 0.52986,-0.85731 0.37218,-1.0586 -0.43732,-0.55827 -0.69628,0.4303 -1.26595,0.25985 -1.26595,-0.37886 0,-0.63865 -1.23357,-1.1612 -2.74128,-1.1612 -1.87336,0 -2.74661,0.60753 -2.75808,1.91889 -0.0155,1.63987 -0.17127,1.67975 -1.07974,0.27415 -0.63868,-0.98826 -1.06963,-1.12353 -1.0797,-0.33883 -0.028,2.18483 1.97742,2.69241 3.0519,0.77239 0.85318,-1.52455 1.12468,-1.35049 1.74431,1.11831 0.46549,1.85468 1.20357,2.63357 2.01833,2.13001 0.97449,-0.60225 0.96672,-0.89977 -0.032,-1.23272 z m -9.32152,-5.6189 c 1.10501,-1.76936 1.00971,-1.99872 -0.64999,-1.56469 -1.0696,0.27974 -1.94475,1.21268 -1.94475,2.07325 0,2.16321 1.05539,1.95632 2.59474,-0.50856 z m 5.2636,-1.21632 c 0.37274,-0.60309 0.1551,-1.09652 -0.48354,-1.09652 -0.63868,0 -1.16124,0.49343 -1.16124,1.09652 0,0.60309 0.21758,1.09652 0.48355,1.09652 0.26606,0 0.78849,-0.49343 1.16123,-1.09652 z m 14.4418,-8.13165 c -0.40072,-1.04418 -1.34919,-1.43258 -2.45864,-1.00685 -1.66636,0.63943 -1.66779,0.77069 -0.0186,1.69367 0.98332,0.55029 1.45838,1.587 1.05567,2.30379 -0.56386,1.00365 -0.40966,1.00511 0.67079,0.006 0.77165,-0.71331 1.10942,-2.06194 0.75064,-2.99692 z m -10.60401,1.06904 c 0,-1.15735 -2.10433,-1.6436 -2.73023,-0.63087 -0.3788,0.61294 0.0805,1.11442 1.02074,1.11442 0.94024,0 1.70949,-0.21758 1.70949,-0.48355 z m 6.03084,-2.80601 c 0.37274,-0.60309 0.1551,-1.09652 -0.48355,-1.09652 -0.63868,0 -1.16123,0.49343 -1.16123,1.09652 0,0.60309 0.21757,1.09652 0.48354,1.09652 0.26607,0 0.7885,-0.49343 1.16124,-1.09652 z M 232.25116,135.058 c 0.38415,-0.62159 -0.056,-0.80541 -1.0318,-0.43096 -1.89962,0.72897 -2.24719,1.51489 -0.66993,1.51489 0.56749,0 1.33327,-0.48778 1.70173,-1.08393 z m 20.29326,-2.63653 c 0,-0.23716 -0.76577,-0.72481 -1.70172,-1.08396 -0.97581,-0.37445 -1.41595,-0.19054 -1.03179,0.43092 0.64393,1.04194 2.73351,1.54109 2.73351,0.65304 z m 49.04616,-3.52109 c -0.36436,-0.36435 -1.31011,-0.40333 -2.10165,-0.0867 -0.87473,0.35005 -0.61491,0.60986 0.66248,0.66249 1.1559,0.0476 1.80353,-0.21167 1.43917,-0.57593 z m 86.09234,-4.45204 c -0.7576,-0.30554 -1.05142,-1.08288 -0.65295,-1.72765 0.43183,-0.6987 0.20577,-0.85175 -0.55932,-0.37883 -1.50958,0.933 -0.60312,2.87346 1.28382,2.74839 0.93474,-0.0619 0.91438,-0.24431 -0.0715,-0.64191 z m 12.89088,-0.36805 c 0,-0.60309 -0.21758,-1.09652 -0.48355,-1.09652 -0.26606,0 -0.7885,0.49343 -1.16123,1.09652 -0.37271,0.60309 -0.1551,1.09652 0.48354,1.09652 0.63868,0 1.16124,-0.49343 1.16124,-1.09652 z m 26.71475,53.01202 c -1.34005,-0.69597 -2.71802,-0.98379 -3.06219,-0.63961 -0.34418,0.34417 -0.62578,-0.15541 -0.62578,-1.11039 0,-0.95488 -0.61677,-1.98504 -1.37064,-2.28921 -1.42891,-0.5766 -0.35878,-0.75356 7.94973,-1.31456 2.71389,-0.18307 4.93431,-0.40708 4.93431,-0.49747 0,-0.80979 11.27495,-0.65658 12.27061,0.1666 2.18853,1.80967 0.43366,4.27412 -2.5163,3.53374 -1.58815,-0.3986 -2.62695,-0.17872 -2.62695,0.55607 0,0.66845 -0.52256,1.21538 -1.16124,1.21538 -0.63867,0 -0.82585,-0.54267 -0.41594,-1.2059 0.52383,-0.84756 0.0544,-0.83609 -1.58004,0.0385 -1.27897,0.68446 -2.32535,1.50295 -2.32535,1.81887 0,0.31592 0.61679,0.21944 1.37063,-0.21447 0.75384,-0.43381 1.00909,-0.38924 0.56719,0.0992 -1.23434,1.36404 -8.67668,1.26169 -11.40804,-0.15697 z m 226.57997,-21.50282 c -1.50771,-0.68076 -2.93237,-1.373 -3.16592,-1.53829 -1.16397,-0.82378 6.45476,-6.39587 8.74512,-6.39587 1.90271,0 2.59687,-0.56858 2.47437,-2.02675 -0.1408,-1.67549 0.46353,-1.95274 3.48675,-1.5998 2.01137,0.23467 3.4312,0.0615 3.15519,-0.38499 -0.27601,-0.44659 1.11558,-1.09543 3.09235,-1.44187 1.97677,-0.34645 5.92637,-1.04564 8.77683,-1.55381 2.85049,-0.50813 4.95865,-0.56134 4.68481,-0.11811 -0.27383,0.44311 -3.07114,1.14697 -6.21624,1.56418 -6.69313,0.88787 -8.28784,1.63984 -6.23547,2.9403 1.12965,0.71579 0.95988,0.97797 -0.70532,1.08937 -1.20618,0.0808 -2.80981,0.0665 -3.56368,-0.0314 -0.75384,-0.0979 -1.37064,0.33706 -1.37064,0.9666 0,0.62951 -0.63047,1.14458 -1.40109,1.14458 -1.73648,0 -5.24514,3.95338 -4.32516,4.87336 0.36997,0.36997 0.7792,1.39854 0.9094,2.28569 0.28565,1.94551 -4.26122,2.06912 -8.3413,0.2269 z M 187.2373,152.11521 c -2.46012,-1.81574 -1.31576,-3.66613 2.75172,-4.44946 5.32352,-1.02522 9.2301,3.97219 4.16604,5.3293 -3.63357,0.97375 -4.56723,0.85501 -6.91776,-0.87984 z m 736.92188,-3.91162 c -0.37273,-0.60309 -0.1551,-1.09652 0.48352,-1.09652 0.63868,0 1.16123,0.49343 1.16123,1.09652 0,0.60309 -0.21757,1.09653 -0.48351,1.09653 -0.26607,0 -0.78853,-0.49344 -1.16124,-1.09653 z m -697.13425,-3.73811 c -1.857,-1.40899 -1.85462,-1.49882 0.0528,-1.99762 1.37195,-0.35879 2.04525,0.11407 2.15042,1.51019 0.17987,2.38774 0.27386,2.36695 -2.20331,0.48743 z m 89.1173,0.44855 c -0.90462,-0.58459 -1.15134,-1.06292 -0.54826,-1.06292 0.60309,0 1.83666,0.47833 2.74129,1.06292 0.90462,0.58463 1.15134,1.06295 0.54825,1.06295 -0.60308,0 -1.83665,-0.47832 -2.74128,-1.06295 z m -170.50791,-0.99311 c -1.20616,-0.50903 -2.5631,-0.71138 -3.01541,-0.44973 -0.92408,0.53459 -1.14203,-2.25806 -0.24614,-3.15392 0.31694,-0.31694 3.03081,-0.13023 6.03082,0.41517 3.2667,0.59373 7.66376,0.58988 10.96216,-0.009 3.18139,-0.57822 5.76057,-0.59165 6.1066,-0.0317 0.32947,0.53309 1.02427,0.70644 1.54401,0.38523 0.51973,-0.32123 1.25491,-0.0827 1.63372,0.53036 0.72439,1.17208 0.0617,1.3017 -8.76106,1.71341 -3.01541,0.1408 -6.96286,0.5417 -8.77211,0.8911 -1.80925,0.3494 -4.27641,0.21882 -5.48257,-0.29031 z m 67.65784,0.10382 c -2.71423,-1.81055 1.28391,-3.63237 6.2343,-2.84077 4.17913,0.66827 6.41858,2.6337 3.0009,2.6337 -0.82924,0 -2.92632,0.26016 -4.66019,0.578 -1.73386,0.31791 -3.79262,0.15106 -4.57501,-0.37093 z m 24.25927,-0.75872 c -1.54513,-1.12981 -1.01376,-1.31369 3.27949,-1.13485 4.80944,0.20048 8.45147,1.51937 5.04305,1.82643 -0.85437,0.0771 -2.66158,0.25612 -4.01603,0.39832 -1.35443,0.14204 -3.29237,-0.34834 -4.30651,-1.0899 z m 674.82023,0.82644 c -4.24319,-0.96323 -1.50087,-2.30319 5.48255,-2.67891 7.72488,-0.41564 14.27264,0.5352 11.23929,1.63209 -2.27115,0.82129 -14.37696,1.57911 -16.72184,1.04682 z m -726.62199,-2.03651 c -1.86017,-0.78215 -3.38213,-1.72174 -3.38213,-2.08798 0,-0.36624 0.48323,-0.36727 1.07385,-0.002 0.59062,0.36503 2.1326,0.097 3.4266,-0.59547 1.80176,-0.96427 2.96265,-0.93275 4.95698,0.13459 1.43232,0.76655 2.60422,1.74626 2.60422,2.17712 0,1.53988 -5.35764,1.77073 -8.67952,0.37398 z m 15.55478,-0.50188 c -0.0992,-1.3178 0.3759,-2.08152 1.13731,-1.82801 1.86626,0.62133 2.31156,4.09148 0.52503,4.09148 -0.82051,0 -1.56855,-1.01856 -1.66234,-2.26347 z m 487.65248,-1.12872 c 0,-0.54662 0.98687,-0.99386 2.19305,-0.99386 1.20617,0 2.19304,0.18929 2.19304,0.42036 0,0.23125 -0.98687,0.67843 -2.19304,0.99385 -1.20618,0.31543 -2.19305,0.1262 -2.19305,-0.42035 z m -564.70463,-0.8589 c 0,-0.52653 1.54198,-1.26573 3.42661,-1.64267 4.97573,-0.99516 6.67859,-0.8468 6.21583,0.54149 -0.48369,1.45107 -9.64244,2.49702 -9.64244,1.10118 z m 571.07815,-0.88401 c 0.79154,-0.31676 1.73728,-0.27788 2.10163,0.0867 0.36438,0.36438 -0.28316,0.62351 -1.43917,0.57592 -1.27739,-0.0525 -1.53721,-0.31244 -0.66246,-0.66249 z m -157.58718,-3.2481 c -2.92553,-2.04913 -2.94346,-3.67846 -0.0404,-3.67846 1.24177,0 1.95281,-0.49344 1.58007,-1.09649 -1.20136,-1.94386 0.87696,-1.16761 3.66983,1.37063 1.49303,1.35693 2.39119,1.90205 1.99585,1.2114 -0.39533,-0.69065 0.0544,-1.55243 0.99936,-1.91504 3.40432,-1.30636 1.04778,2.80207 -2.44789,4.26769 -2.93056,1.22872 -3.80922,1.20432 -5.75668,-0.15976 z m -386.07812,-1.48542 c 0,-0.60309 1.01598,-1.09652 2.25774,-1.09652 1.24176,0 1.95279,0.49343 1.58006,1.09652 -0.37273,0.60309 -1.38871,1.09652 -2.25775,1.09652 -0.86903,0 -1.58005,-0.49343 -1.58005,-1.09652 z m 29.40028,-0.74905 c 0.79154,-0.31676 1.73728,-0.27788 2.10165,0.0867 0.36436,0.36438 -0.28328,0.62355 -1.43917,0.57593 -1.27738,-0.0525 -1.5372,-0.31244 -0.66248,-0.66249 z m 252.95203,-0.34747 c -0.3727,-0.60309 -0.1551,-1.09652 0.48355,-1.09652 0.63868,0 1.16124,0.49343 1.16124,1.09652 0,0.60309 -0.21758,1.09652 -0.48355,1.09652 -0.26607,0 -0.7885,-0.49343 -1.16124,-1.09652 z m 98.68625,0 c -0.3727,-0.60309 -0.1551,-1.09652 0.48355,-1.09652 0.63868,0 1.16124,0.49343 1.16124,1.09652 0,0.60309 -0.21758,1.09652 -0.48355,1.09652 -0.26607,0 -0.7885,-0.49343 -1.16124,-1.09652 z m 271.93545,0 c -0.37274,-0.60309 -0.1551,-1.09652 0.48355,-1.09652 0.63868,0 1.16123,0.49343 1.16123,1.09652 0,0.60309 -0.21757,1.09652 -0.48354,1.09652 -0.26607,0 -0.7885,-0.49343 -1.16124,-1.09652 z m -17.46793,-2.93784 c -0.50335,-1.31176 0.0591,-1.47843 2.9402,-0.87133 5.17284,1.08996 6.04777,2.49336 1.55445,2.49336 -2.40629,0 -4.10783,-0.61406 -4.49465,-1.62203 z m -237.67715,-0.003 c 0.79155,-0.31673 1.73732,-0.27787 2.10166,0.0867 0.36438,0.36438 -0.28316,0.62354 -1.43917,0.57593 -1.27739,-0.0525 -1.5372,-0.31244 -0.66249,-0.66249 z m 13.42077,-0.40581 c 1.46538,-0.92709 9.6523,-1.53531 8.62375,-0.6407 -0.25145,0.21851 -2.65169,0.67816 -5.33421,1.02131 -3.15532,0.40363 -4.31674,0.26917 -3.28954,-0.38061 z m 217.59324,0.0709 c 0.38415,-0.62155 -0.056,-0.8054 -1.03181,-0.43092 -1.0199,0.39135 -1.70843,0.0569 -1.71851,-0.83497 -0.0124,-1.16586 -0.23746,-1.13879 -1.03687,0.12495 -0.56107,0.88715 -1.34306,1.29007 -1.73778,0.89536 -1.66794,-1.66791 1.09323,-3.0566 6.07755,-3.0566 4.67378,0 5.32884,0.27725 5.18453,2.19304 -0.12371,1.64065 -0.95128,2.19301 -3.28612,2.19301 -1.77728,0 -2.83249,-0.46667 -2.45099,-1.08393 z m -483.0066,-7.07629 c 0,-0.9402 0.49344,-1.70946 1.09652,-1.70946 0.60308,0 1.09651,0.46431 1.09651,1.03178 0,0.5675 -0.49343,1.33675 -1.09651,1.70949 -0.60308,0.37274 -1.09652,-0.0917 -1.09652,-1.03181 z"
    />
  </g>
</svg>
